<?xml version="1.0" encoding="UTF-8" standalone="no"?>
<!DOCTYPE svg PUBLIC "-//W3C//DTD SVG 1.1//EN"
 "http://www.w3.org/Graphics/SVG/1.1/DTD/svg11.dtd">
<!-- Generated by graphviz version 7.0.6 (20230106.0513)
 -->
<!-- Title: nodos Pages: 1 -->
<svg width="331pt" height="99pt"
 viewBox="0.00 0.00 331.09 99.00" xmlns="http://www.w3.org/2000/svg" xmlns:xlink="http://www.w3.org/1999/xlink">
<g id="graph0" class="graph" transform="scale(1 1) rotate(0) translate(4 95)">
<title>nodos</title>
<g id="clust1" class="cluster">
<title>cluster_0</title>
<polygon fill="none" stroke="black" points="8,-8 8,-83 315.09,-83 315.09,-8 8,-8"/>
<text text-anchor="middle" x="161.54" y="-67.8" font-family="Times New Roman,serif" font-size="14.00">audio</text>
</g>
<!-- oscillator -->
<g id="node1" class="node">
<title>oscillator</title>
<ellipse fill="none" stroke="black" cx="60.2" cy="-34" rx="44.39" ry="18"/>
<text text-anchor="middle" x="60.2" y="-30.3" font-family="Times New Roman,serif" font-size="14.00">oscillator</text>
</g>
<!-- gain -->
<g id="node2" class="node">
<title>gain</title>
<ellipse fill="none" stroke="black" cx="167.39" cy="-34" rx="27" ry="18"/>
<text text-anchor="middle" x="167.39" y="-30.3" font-family="Times New Roman,serif" font-size="14.00">gain</text>
</g>
<!-- oscillator&#45;&gt;gain -->
<g id="edge1" class="edge">
<title>oscillator&#45;&gt;gain</title>
<path fill="none" stroke="black" d="M104.89,-34C112.84,-34 121.07,-34 128.82,-34"/>
<polygon fill="black" stroke="black" points="128.61,-37.5 138.61,-34 128.61,-30.5 128.61,-37.5"/>
</g>
<!-- speaker -->
<g id="node3" class="node">
<title>speaker</title>
<ellipse fill="none" stroke="black" cx="268.74" cy="-34" rx="38.19" ry="18"/>
<text text-anchor="middle" x="268.74" y="-30.3" font-family="Times New Roman,serif" font-size="14.00">speaker</text>
</g>
<!-- gain&#45;&gt;speaker -->
<g id="edge2" class="edge">
<title>gain&#45;&gt;speaker</title>
<path fill="none" stroke="black" d="M194.75,-34C202.26,-34 210.69,-34 219.08,-34"/>
<polygon fill="black" stroke="black" points="218.89,-37.5 228.89,-34 218.89,-30.5 218.89,-37.5"/>
</g>
</g>
</svg>
