<?xml version="1.0" encoding="UTF-8" standalone="no"?>
<!DOCTYPE svg PUBLIC "-//W3C//DTD SVG 1.1//EN"
 "http://www.w3.org/Graphics/SVG/1.1/DTD/svg11.dtd">
<!-- Generated by graphviz version 2.47.3 (20210619.1520)
 -->
<!-- Title: nodos Pages: 1 -->
<svg width="332pt" height="99pt"
 viewBox="0.00 0.00 332.39 99.00" xmlns="http://www.w3.org/2000/svg" xmlns:xlink="http://www.w3.org/1999/xlink">
<g id="graph0" class="graph" transform="scale(1 1) rotate(0) translate(4 95)">
<title>nodos</title>
<g id="clust1" class="cluster">
<title>cluster_0</title>
<polygon fill="transparent" stroke="black" points="8,-8 8,-83 316.39,-83 316.39,-8 8,-8"/>
<text text-anchor="middle" x="162.19" y="-67.8" font-family="Times,serif" font-size="14.00">audio</text>
</g>
<!-- oscillator -->
<g id="node1" class="node">
<title>oscillator</title>
<ellipse fill="none" stroke="black" cx="60.85" cy="-34" rx="44.69" ry="18"/>
<text text-anchor="middle" x="60.85" y="-30.3" font-family="Times,serif" font-size="14.00">oscillator</text>
</g>
<!-- gain -->
<g id="node2" class="node">
<title>gain</title>
<ellipse fill="none" stroke="black" cx="168.69" cy="-34" rx="27" ry="18"/>
<text text-anchor="middle" x="168.69" y="-30.3" font-family="Times,serif" font-size="14.00">gain</text>
</g>
<!-- oscillator&#45;&gt;gain -->
<g id="edge1" class="edge">
<title>oscillator&#45;&gt;gain</title>
<path fill="none" stroke="black" d="M105.81,-34C114.36,-34 123.23,-34 131.49,-34"/>
<polygon fill="black" stroke="black" points="131.56,-37.5 141.56,-34 131.56,-30.5 131.56,-37.5"/>
</g>
<!-- speaker -->
<g id="node3" class="node">
<title>speaker</title>
<ellipse fill="none" stroke="black" cx="270.04" cy="-34" rx="38.19" ry="18"/>
<text text-anchor="middle" x="270.04" y="-30.3" font-family="Times,serif" font-size="14.00">speaker</text>
</g>
<!-- gain&#45;&gt;speaker -->
<g id="edge2" class="edge">
<title>gain&#45;&gt;speaker</title>
<path fill="none" stroke="black" d="M195.79,-34C203.65,-34 212.52,-34 221.31,-34"/>
<polygon fill="black" stroke="black" points="221.53,-37.5 231.53,-34 221.53,-30.5 221.53,-37.5"/>
</g>
</g>
</svg>
