<?xml version="1.0" encoding="UTF-8" standalone="no"?>
<!DOCTYPE svg PUBLIC "-//W3C//DTD SVG 1.1//EN"
 "http://www.w3.org/Graphics/SVG/1.1/DTD/svg11.dtd">
<!-- Generated by graphviz version 2.42.4 (0)
 -->
<!-- Title: nodos Pages: 1 -->
<svg width="376pt" height="99pt"
 viewBox="0.00 0.00 375.88 99.00" xmlns="http://www.w3.org/2000/svg" xmlns:xlink="http://www.w3.org/1999/xlink">
<g id="graph0" class="graph" transform="scale(1 1) rotate(0) translate(4 95)">
<title>nodos</title>
<g id="clust1" class="cluster">
<title>cluster_0</title>
<polygon fill="transparent" stroke="black" points="8,-8 8,-83 359.88,-83 359.88,-8 8,-8"/>
<text text-anchor="middle" x="183.94" y="-67.8" font-family="Times,serif" font-size="14.00">audio</text>
</g>
<!-- oscillator -->
<g id="node1" class="node">
<title>oscillator</title>
<ellipse fill="none" stroke="black" cx="69.95" cy="-34" rx="53.89" ry="18"/>
<text text-anchor="middle" x="69.95" y="-30.3" font-family="Times,serif" font-size="14.00">oscillator</text>
</g>
<!-- gain -->
<g id="node2" class="node">
<title>gain</title>
<ellipse fill="none" stroke="black" cx="190.44" cy="-34" rx="30.59" ry="18"/>
<text text-anchor="middle" x="190.44" y="-30.3" font-family="Times,serif" font-size="14.00">gain</text>
</g>
<!-- oscillator&#45;&gt;gain -->
<g id="edge1" class="edge">
<title>oscillator&#45;&gt;gain</title>
<path fill="none" stroke="black" d="M123.95,-34C132.62,-34 141.46,-34 149.74,-34"/>
<polygon fill="black" stroke="black" points="149.85,-37.5 159.85,-34 149.85,-30.5 149.85,-37.5"/>
</g>
<!-- speaker -->
<g id="node3" class="node">
<title>speaker</title>
<ellipse fill="none" stroke="black" cx="304.43" cy="-34" rx="47.39" ry="18"/>
<text text-anchor="middle" x="304.43" y="-30.3" font-family="Times,serif" font-size="14.00">speaker</text>
</g>
<!-- gain&#45;&gt;speaker -->
<g id="edge2" class="edge">
<title>gain&#45;&gt;speaker</title>
<path fill="none" stroke="black" d="M221.16,-34C228.98,-34 237.69,-34 246.43,-34"/>
<polygon fill="black" stroke="black" points="246.66,-37.5 256.66,-34 246.66,-30.5 246.66,-37.5"/>
</g>
</g>
</svg>
