<?xml version="1.0" encoding="UTF-8" standalone="no"?><svg xmlns="http://www.w3.org/2000/svg" xmlns:xlink="http://www.w3.org/1999/xlink" contentScriptType="application/ecmascript" contentStyleType="text/css" height="175px" preserveAspectRatio="none" style="width:95px;height:175px;" version="1.1" viewBox="0 0 95 175" width="95px" zoomAndPan="magnify"><defs><filter height="300%" id="fo29f0l2nb1kk" width="300%" x="-1" y="-1"><feGaussianBlur result="blurOut" stdDeviation="2.0"/><feColorMatrix in="blurOut" result="blurOut2" type="matrix" values="0 0 0 0 0 0 0 0 0 0 0 0 0 0 0 0 0 0 .4 0"/><feOffset dx="4.0" dy="4.0" in="blurOut2" result="blurOut3"/><feBlend in="SourceGraphic" in2="blurOut3" mode="normal"/></filter></defs><g><!--class Frutero--><rect fill="#FEFECE" filter="url(#fo29f0l2nb1kk)" height="48" id="Frutero" style="stroke: #A80036; stroke-width: 1.5;" width="78" x="6" y="8"/><ellipse cx="21" cy="24" fill="#ADD1B2" rx="11" ry="11" style="stroke: #A80036; stroke-width: 1.0;"/><path d="M23.9688,29.6406 Q23.3906,29.9375 22.75,30.0781 Q22.1094,30.2344 21.4063,30.2344 Q18.9063,30.2344 17.5781,28.5938 Q16.2656,26.9375 16.2656,23.8125 Q16.2656,20.6875 17.5781,19.0313 Q18.9063,17.375 21.4063,17.375 Q22.1094,17.375 22.75,17.5313 Q23.4063,17.6875 23.9688,17.9844 L23.9688,20.7031 Q23.3438,20.125 22.75,19.8594 Q22.1563,19.5781 21.5313,19.5781 Q20.1875,19.5781 19.5,20.6563 Q18.8125,21.7188 18.8125,23.8125 Q18.8125,25.9063 19.5,26.9844 Q20.1875,28.0469 21.5313,28.0469 Q22.1563,28.0469 22.75,27.7813 Q23.3438,27.5 23.9688,26.9219 L23.9688,29.6406 Z "/><text fill="#000000" font-family="sans-serif" font-size="12" lengthAdjust="spacingAndGlyphs" textLength="46" x="35" y="28.1807">Frutero</text><line style="stroke: #A80036; stroke-width: 1.5;" x1="7" x2="83" y1="40" y2="40"/><line style="stroke: #A80036; stroke-width: 1.5;" x1="7" x2="83" y1="48" y2="48"/><!--class Fruta--><rect fill="#FEFECE" filter="url(#fo29f0l2nb1kk)" height="48" id="Fruta" style="stroke: #A80036; stroke-width: 1.5;" width="65" x="12.5" y="116"/><ellipse cx="27.5" cy="132" fill="#ADD1B2" rx="11" ry="11" style="stroke: #A80036; stroke-width: 1.0;"/><path d="M30.4688,137.6406 Q29.8906,137.9375 29.25,138.0781 Q28.6094,138.2344 27.9063,138.2344 Q25.4063,138.2344 24.0781,136.5938 Q22.7656,134.9375 22.7656,131.8125 Q22.7656,128.6875 24.0781,127.0313 Q25.4063,125.375 27.9063,125.375 Q28.6094,125.375 29.25,125.5313 Q29.9063,125.6875 30.4688,125.9844 L30.4688,128.7031 Q29.8438,128.125 29.25,127.8594 Q28.6563,127.5781 28.0313,127.5781 Q26.6875,127.5781 26,128.6563 Q25.3125,129.7188 25.3125,131.8125 Q25.3125,133.9063 26,134.9844 Q26.6875,136.0469 28.0313,136.0469 Q28.6563,136.0469 29.25,135.7813 Q29.8438,135.5 30.4688,134.9219 L30.4688,137.6406 Z "/><text fill="#000000" font-family="sans-serif" font-size="12" lengthAdjust="spacingAndGlyphs" textLength="33" x="41.5" y="136.1807">Fruta</text><line style="stroke: #A80036; stroke-width: 1.5;" x1="13.5" x2="76.5" y1="148" y2="148"/><line style="stroke: #A80036; stroke-width: 1.5;" x1="13.5" x2="76.5" y1="156" y2="156"/><!--link Frutero to Fruta--><path d="M45,69.34 C45,84.68 45,102.1 45,115.68 " fill="none" id="Frutero-Fruta" style="stroke: #A80036; stroke-width: 1.0;"/><polygon fill="#FFFFFF" points="45,56,41,62,45,68,49,62,45,56" style="stroke: #A80036; stroke-width: 1.0;"/><text fill="#000000" font-family="sans-serif" font-size="13" lengthAdjust="spacingAndGlyphs" textLength="8" x="35.975" y="76.2521">1</text><text fill="#000000" font-family="sans-serif" font-size="13" lengthAdjust="spacingAndGlyphs" textLength="7" x="37.1469" y="105.1026">*</text><!--
@startuml Agregación

Frutero "1" o- - "*" Fruta

@enduml

PlantUML version 1.2019.01(Sat Feb 09 16:32:04 CET 2019)
(LGPL source distribution)
Java Runtime: OpenJDK Runtime Environment
JVM: OpenJDK 64-Bit Server VM
Java Version: 1.8.0_265-b01
Operating System: Linux
OS Version: 5.8.12-200.fc32.x86_64
Default Encoding: UTF-8
Language: es
Country: ES
--></g></svg>