<?xml version="1.0" encoding="UTF-8" standalone="no"?><svg xmlns="http://www.w3.org/2000/svg" xmlns:xlink="http://www.w3.org/1999/xlink" contentScriptType="application/ecmascript" contentStyleType="text/css" height="177px" preserveAspectRatio="none" style="width:94px;height:177px;background:#FFFFFF;" version="1.1" viewBox="0 0 94 177" width="94px" zoomAndPan="magnify"><defs><filter height="300%" id="fo29f0l2nb1kk" width="300%" x="-1" y="-1"><feGaussianBlur result="blurOut" stdDeviation="2.0"/><feColorMatrix in="blurOut" result="blurOut2" type="matrix" values="0 0 0 0 0 0 0 0 0 0 0 0 0 0 0 0 0 0 .4 0"/><feOffset dx="4.0" dy="4.0" in="blurOut2" result="blurOut3"/><feBlend in="SourceGraphic" in2="blurOut3" mode="normal"/></filter></defs><g><!--MD5=[fb99dcfe50c26a39575ddb20aa73d83a]
class Frutero--><rect fill="#FEFECE" filter="url(#fo29f0l2nb1kk)" height="48" id="Frutero" style="stroke:#A80036;stroke-width:1.5;" width="73" x="7" y="7"/><ellipse cx="22" cy="23" fill="#ADD1B2" rx="11" ry="11" style="stroke:#A80036;stroke-width:1.0;"/><path d="M24.4731,29.1431 Q23.8921,29.4419 23.2529,29.5913 Q22.6138,29.7407 21.9082,29.7407 Q19.4014,29.7407 18.0815,28.0889 Q16.7617,26.437 16.7617,23.3159 Q16.7617,20.1865 18.0815,18.5347 Q19.4014,16.8828 21.9082,16.8828 Q22.6138,16.8828 23.2612,17.0322 Q23.9087,17.1816 24.4731,17.4805 L24.4731,20.2031 Q23.8423,19.6221 23.2488,19.3523 Q22.6553,19.0825 22.0244,19.0825 Q20.6797,19.0825 19.9949,20.1492 Q19.3101,21.2158 19.3101,23.3159 Q19.3101,25.4077 19.9949,26.4744 Q20.6797,27.541 22.0244,27.541 Q22.6553,27.541 23.2488,27.2712 Q23.8423,27.0015 24.4731,26.4204 Z " fill="#000000"/><text fill="#000000" font-family="sans-serif" font-size="12" lengthAdjust="spacing" textLength="41" x="36" y="27.5352">Frutero</text><line style="stroke:#A80036;stroke-width:1.5;" x1="8" x2="79" y1="39" y2="39"/><line style="stroke:#A80036;stroke-width:1.5;" x1="8" x2="79" y1="47" y2="47"/><!--MD5=[1cb3dca014c9afc5465c20d03b3a6575]
class Fruta--><rect fill="#FEFECE" filter="url(#fo29f0l2nb1kk)" height="48" id="Fruta" style="stroke:#A80036;stroke-width:1.5;" width="61" x="13" y="115"/><ellipse cx="28" cy="131" fill="#ADD1B2" rx="11" ry="11" style="stroke:#A80036;stroke-width:1.0;"/><path d="M30.4731,137.1431 Q29.8921,137.4419 29.2529,137.5913 Q28.6138,137.7407 27.9082,137.7407 Q25.4014,137.7407 24.0815,136.0889 Q22.7617,134.437 22.7617,131.3159 Q22.7617,128.1865 24.0815,126.5347 Q25.4014,124.8828 27.9082,124.8828 Q28.6138,124.8828 29.2612,125.0322 Q29.9087,125.1816 30.4731,125.4805 L30.4731,128.2031 Q29.8423,127.6221 29.2488,127.3523 Q28.6553,127.0825 28.0244,127.0825 Q26.6797,127.0825 25.9949,128.1492 Q25.3101,129.2158 25.3101,131.3159 Q25.3101,133.4077 25.9949,134.4744 Q26.6797,135.541 28.0244,135.541 Q28.6553,135.541 29.2488,135.2712 Q29.8423,135.0015 30.4731,134.4204 Z " fill="#000000"/><text fill="#000000" font-family="sans-serif" font-size="12" lengthAdjust="spacing" textLength="29" x="42" y="135.5352">Fruta</text><line style="stroke:#A80036;stroke-width:1.5;" x1="14" x2="73" y1="147" y2="147"/><line style="stroke:#A80036;stroke-width:1.5;" x1="14" x2="73" y1="155" y2="155"/><!--MD5=[eeb50bbbdb0983fe943fe24e0b194ac2]
reverse link Frutero to Fruta--><path codeLine="2" d="M43.5,68.34 C43.5,83.68 43.5,101.1 43.5,114.68 " fill="none" id="Frutero-backto-Fruta" style="stroke:#A80036;stroke-width:1.0;"/><polygon fill="#FFFFFF" points="43.5,55,39.5,61,43.5,67,47.5,61,43.5,55" style="stroke:#A80036;stroke-width:1.0;"/><text fill="#000000" font-family="sans-serif" font-size="13" lengthAdjust="spacing" textLength="8" x="34.475" y="75.68">1</text><text fill="#000000" font-family="sans-serif" font-size="13" lengthAdjust="spacing" textLength="6" x="36.7313" y="104.1343">*</text><!--MD5=[b4f1987a2f53b9c9481de99b41c51278]
@startuml Agregación

Frutero "1" o- - "*" Fruta

@enduml

PlantUML version 1.2021.8(Sat Jun 26 10:20:59 CEST 2021)
(GPL source distribution)
Java Runtime: OpenJDK Runtime Environment
JVM: OpenJDK 64-Bit Server VM
Default Encoding: UTF-8
Language: es
Country: ES
--></g></svg>