<?xml version="1.0" encoding="UTF-8" standalone="no"?><svg xmlns="http://www.w3.org/2000/svg" xmlns:xlink="http://www.w3.org/1999/xlink" contentStyleType="text/css" height="170px" preserveAspectRatio="none" style="width:93px;height:170px;background:#FFFFFF;" version="1.1" viewBox="0 0 93 170" width="93px" zoomAndPan="magnify"><defs/><g><!--class Frutero--><g id="elem_Frutero"><rect fill="#F1F1F1" height="48" id="Frutero" rx="2.5" ry="2.5" style="stroke:#181818;stroke-width:0.5;" width="79" x="7" y="7"/><ellipse cx="22" cy="23" fill="#ADD1B2" rx="11" ry="11" style="stroke:#181818;stroke-width:1.0;"/><path d="M24.7656,18.875 Q24.9219,18.6563 25.1094,18.5469 Q25.2969,18.4375 25.5156,18.4375 Q25.8906,18.4375 26.125,18.7031 Q26.3594,18.9531 26.3594,19.5625 L26.3594,21.0156 Q26.3594,21.625 26.125,21.8906 Q25.8906,22.1563 25.5156,22.1563 Q25.1719,22.1563 24.9688,21.9531 Q24.7656,21.7656 24.6563,21.25 Q24.6094,20.8906 24.4219,20.7031 Q24.0938,20.3281 23.4844,20.1094 Q22.875,19.8906 22.25,19.8906 Q21.4844,19.8906 20.8438,20.2188 Q20.2188,20.5469 19.7188,21.2969 Q19.2344,22.0469 19.2344,23.0781 L19.2344,24.1719 Q19.2344,25.4063 20.125,26.2344 Q21.0156,27.0469 22.6094,27.0469 Q23.5469,27.0469 24.2031,26.7969 Q24.5938,26.6406 25.0156,26.2031 Q25.2813,25.9375 25.4219,25.8594 Q25.5781,25.7813 25.7813,25.7813 Q26.1094,25.7813 26.3594,26.0469 Q26.625,26.2969 26.625,26.6406 Q26.625,26.9844 26.2813,27.3906 Q25.7813,27.9688 24.9844,28.2969 Q23.9063,28.75 22.6094,28.75 Q21.0938,28.75 19.8906,28.125 Q18.9063,27.625 18.2188,26.5625 Q17.5313,25.4844 17.5313,24.2031 L17.5313,23.0469 Q17.5313,21.7188 18.1406,20.5781 Q18.7656,19.4219 19.8594,18.8125 Q20.9531,18.1875 22.1875,18.1875 Q22.9219,18.1875 23.5625,18.3594 Q24.2188,18.5156 24.7656,18.875 Z " fill="#000000"/><text fill="#000000" font-family="sans-serif" font-size="14" lengthAdjust="spacing" textLength="47" x="36" y="28.7285">Frutero</text><line style="stroke:#181818;stroke-width:0.5;" x1="8" x2="85" y1="39" y2="39"/><line style="stroke:#181818;stroke-width:0.5;" x1="8" x2="85" y1="47" y2="47"/></g><!--class Fruta--><g id="elem_Fruta"><rect fill="#F1F1F1" height="48" id="Fruta" rx="2.5" ry="2.5" style="stroke:#181818;stroke-width:0.5;" width="66" x="13.5" y="115"/><ellipse cx="28.5" cy="131" fill="#ADD1B2" rx="11" ry="11" style="stroke:#181818;stroke-width:1.0;"/><path d="M31.2656,126.875 Q31.4219,126.6563 31.6094,126.5469 Q31.7969,126.4375 32.0156,126.4375 Q32.3906,126.4375 32.625,126.7031 Q32.8594,126.9531 32.8594,127.5625 L32.8594,129.0156 Q32.8594,129.625 32.625,129.8906 Q32.3906,130.1563 32.0156,130.1563 Q31.6719,130.1563 31.4688,129.9531 Q31.2656,129.7656 31.1563,129.25 Q31.1094,128.8906 30.9219,128.7031 Q30.5938,128.3281 29.9844,128.1094 Q29.375,127.8906 28.75,127.8906 Q27.9844,127.8906 27.3438,128.2188 Q26.7188,128.5469 26.2188,129.2969 Q25.7344,130.0469 25.7344,131.0781 L25.7344,132.1719 Q25.7344,133.4063 26.625,134.2344 Q27.5156,135.0469 29.1094,135.0469 Q30.0469,135.0469 30.7031,134.7969 Q31.0938,134.6406 31.5156,134.2031 Q31.7813,133.9375 31.9219,133.8594 Q32.0781,133.7813 32.2813,133.7813 Q32.6094,133.7813 32.8594,134.0469 Q33.125,134.2969 33.125,134.6406 Q33.125,134.9844 32.7813,135.3906 Q32.2813,135.9688 31.4844,136.2969 Q30.4063,136.75 29.1094,136.75 Q27.5938,136.75 26.3906,136.125 Q25.4063,135.625 24.7188,134.5625 Q24.0313,133.4844 24.0313,132.2031 L24.0313,131.0469 Q24.0313,129.7188 24.6406,128.5781 Q25.2656,127.4219 26.3594,126.8125 Q27.4531,126.1875 28.6875,126.1875 Q29.4219,126.1875 30.0625,126.3594 Q30.7188,126.5156 31.2656,126.875 Z " fill="#000000"/><text fill="#000000" font-family="sans-serif" font-size="14" lengthAdjust="spacing" textLength="34" x="42.5" y="136.7285">Fruta</text><line style="stroke:#181818;stroke-width:0.5;" x1="14.5" x2="78.5" y1="147" y2="147"/><line style="stroke:#181818;stroke-width:0.5;" x1="14.5" x2="78.5" y1="155" y2="155"/></g><!--reverse link Frutero to Fruta--><g id="link_Frutero_Fruta"><path codeLine="2" d="M46.5,68.34 C46.5,83.68 46.5,101.1 46.5,114.68 " fill="none" id="Frutero-backto-Fruta" style="stroke:#181818;stroke-width:1.0;"/><polygon fill="none" points="46.5,55,42.5,61,46.5,67,50.5,61,46.5,55" style="stroke:#181818;stroke-width:1.0;"/><text fill="#000000" font-family="sans-serif" font-size="13" lengthAdjust="spacing" textLength="7" x="38.6469" y="76.338">1</text><text fill="#000000" font-family="sans-serif" font-size="13" lengthAdjust="spacing" textLength="5" x="40.8906" y="104.34">*</text></g><!--SRC=[SoigBKajobTGCbHIoDVLLL3IKb9m0uebSW40]--></g></svg>