<?xml version="1.0" encoding="UTF-8" standalone="no"?><svg xmlns="http://www.w3.org/2000/svg" xmlns:xlink="http://www.w3.org/1999/xlink" contentStyleType="text/css" height="600px" preserveAspectRatio="none" style="width:397px;height:600px;background:#FFFFFF;" version="1.1" viewBox="0 0 397 600" width="397px" zoomAndPan="magnify"><defs/><g><!--class Entity--><g id="elem_Entity"><rect codeLine="1" fill="#F1F1F1" height="65.6094" id="Entity" rx="2.5" ry="2.5" style="stroke:#181818;stroke-width:0.5;" width="67" x="207" y="168"/><ellipse cx="222" cy="184" fill="#ADD1B2" rx="11" ry="11" style="stroke:#181818;stroke-width:1.0;"/><path d="M224.7656,179.875 Q224.9219,179.6563 225.1094,179.5469 Q225.2969,179.4375 225.5156,179.4375 Q225.8906,179.4375 226.125,179.7031 Q226.3594,179.9531 226.3594,180.5625 L226.3594,182.0156 Q226.3594,182.625 226.125,182.8906 Q225.8906,183.1563 225.5156,183.1563 Q225.1719,183.1563 224.9688,182.9531 Q224.7656,182.7656 224.6563,182.25 Q224.6094,181.8906 224.4219,181.7031 Q224.0938,181.3281 223.4844,181.1094 Q222.875,180.8906 222.25,180.8906 Q221.4844,180.8906 220.8438,181.2188 Q220.2188,181.5469 219.7188,182.2969 Q219.2344,183.0469 219.2344,184.0781 L219.2344,185.1719 Q219.2344,186.4063 220.125,187.2344 Q221.0156,188.0469 222.6094,188.0469 Q223.5469,188.0469 224.2031,187.7969 Q224.5938,187.6406 225.0156,187.2031 Q225.2813,186.9375 225.4219,186.8594 Q225.5781,186.7813 225.7813,186.7813 Q226.1094,186.7813 226.3594,187.0469 Q226.625,187.2969 226.625,187.6406 Q226.625,187.9844 226.2813,188.3906 Q225.7813,188.9688 224.9844,189.2969 Q223.9063,189.75 222.6094,189.75 Q221.0938,189.75 219.8906,189.125 Q218.9063,188.625 218.2188,187.5625 Q217.5313,186.4844 217.5313,185.2031 L217.5313,184.0469 Q217.5313,182.7188 218.1406,181.5781 Q218.7656,180.4219 219.8594,179.8125 Q220.9531,179.1875 222.1875,179.1875 Q222.9219,179.1875 223.5625,179.3594 Q224.2188,179.5156 224.7656,179.875 Z " fill="#000000"/><text fill="#000000" font-family="sans-serif" font-size="14" lengthAdjust="spacing" textLength="35" x="236" y="189.7285">Entity</text><line style="stroke:#181818;stroke-width:0.5;" x1="208" x2="273" y1="200" y2="200"/><line style="stroke:#181818;stroke-width:0.5;" x1="208" x2="273" y1="208" y2="208"/><ellipse cx="218" cy="222.3047" fill="#84BE84" rx="3" ry="3" style="stroke:#038048;stroke-width:1.0;"/><text fill="#000000" font-family="sans-serif" font-size="14" lengthAdjust="spacing" textLength="31" x="227" y="226.5332">tick()</text></g><!--class Component--><g id="elem_Component"><rect codeLine="4" fill="#F1F1F1" height="83.2188" id="Component" rx="2.5" ry="2.5" style="stroke:#181818;stroke-width:0.5;" width="126" x="108.5" y="294"/><ellipse cx="132.95" cy="310" fill="#A9DCDF" rx="11" ry="11" style="stroke:#181818;stroke-width:1.0;"/><path d="M135.1375,311.7656 L130.9969,311.7656 L130.575,312.7969 L130.9969,312.7969 Q131.6063,312.7969 131.8719,313.0313 Q132.1375,313.2656 132.1375,313.6563 Q132.1375,314.0313 131.8719,314.2656 Q131.6063,314.5 130.9969,314.5 L128.7,314.5 Q128.0906,314.5 127.8406,314.2656 Q127.575,314.0313 127.575,313.6406 Q127.575,313.2656 127.8562,313.0313 Q128.1219,312.7813 128.7469,312.7969 L131.4188,306.1406 L130.3094,306.1406 Q129.7,306.1406 129.4344,305.9063 Q129.1688,305.6719 129.1688,305.2813 Q129.1688,304.9063 129.4344,304.6719 Q129.7,304.4375 130.3094,304.4375 L133.9813,304.4375 L137.3719,312.7969 Q137.9656,312.7969 138.1531,312.9375 Q138.5438,313.2031 138.5438,313.6563 Q138.5438,314.0313 138.2781,314.2656 Q138.0281,314.5 137.4188,314.5 L135.1219,314.5 Q134.5125,314.5 134.2469,314.2656 Q133.9813,314.0313 133.9813,313.6406 Q133.9813,313.2656 134.2469,313.0313 Q134.5125,312.7969 135.1219,312.7969 L135.5438,312.7969 L135.1375,311.7656 Z M134.4188,310.0625 L133.0594,306.6875 L131.6844,310.0625 L134.4188,310.0625 Z " fill="#000000"/><text fill="#000000" font-family="sans-serif" font-size="14" font-style="italic" lengthAdjust="spacing" textLength="73" x="149.05" y="315.7285">Component</text><line style="stroke:#181818;stroke-width:0.5;" x1="109.5" x2="233.5" y1="326" y2="326"/><ellipse cx="119.5" cy="340.3047" fill="none" rx="3" ry="3" style="stroke:#038048;stroke-width:1.0;"/><text fill="#000000" font-family="sans-serif" font-size="14" lengthAdjust="spacing" textLength="100" x="128.5" y="344.5332">messageQueue</text><line style="stroke:#181818;stroke-width:0.5;" x1="109.5" x2="233.5" y1="351.6094" y2="351.6094"/><ellipse cx="119.5" cy="365.9141" fill="#84BE84" rx="3" ry="3" style="stroke:#038048;stroke-width:1.0;"/><text fill="#000000" font-family="sans-serif" font-size="14" lengthAdjust="spacing" textLength="31" x="128.5" y="370.1426">tick()</text></g><!--class Game--><g id="elem_Game"><rect codeLine="9" fill="#F1F1F1" height="100.8281" id="Game" rx="2.5" ry="2.5" style="stroke:#181818;stroke-width:0.5;" width="126" x="264.5" y="7"/><ellipse cx="304.7" cy="23" fill="#ADD1B2" rx="11" ry="11" style="stroke:#181818;stroke-width:1.0;"/><path d="M307.4656,18.875 Q307.6219,18.6563 307.8094,18.5469 Q307.9969,18.4375 308.2156,18.4375 Q308.5906,18.4375 308.825,18.7031 Q309.0594,18.9531 309.0594,19.5625 L309.0594,21.0156 Q309.0594,21.625 308.825,21.8906 Q308.5906,22.1563 308.2156,22.1563 Q307.8719,22.1563 307.6688,21.9531 Q307.4656,21.7656 307.3563,21.25 Q307.3094,20.8906 307.1219,20.7031 Q306.7938,20.3281 306.1844,20.1094 Q305.575,19.8906 304.95,19.8906 Q304.1844,19.8906 303.5438,20.2188 Q302.9188,20.5469 302.4188,21.2969 Q301.9344,22.0469 301.9344,23.0781 L301.9344,24.1719 Q301.9344,25.4063 302.825,26.2344 Q303.7156,27.0469 305.3094,27.0469 Q306.2469,27.0469 306.9031,26.7969 Q307.2938,26.6406 307.7156,26.2031 Q307.9813,25.9375 308.1219,25.8594 Q308.2781,25.7813 308.4813,25.7813 Q308.8094,25.7813 309.0594,26.0469 Q309.325,26.2969 309.325,26.6406 Q309.325,26.9844 308.9813,27.3906 Q308.4813,27.9688 307.6844,28.2969 Q306.6063,28.75 305.3094,28.75 Q303.7938,28.75 302.5906,28.125 Q301.6063,27.625 300.9188,26.5625 Q300.2313,25.4844 300.2313,24.2031 L300.2313,23.0469 Q300.2313,21.7188 300.8406,20.5781 Q301.4656,19.4219 302.5594,18.8125 Q303.6531,18.1875 304.8875,18.1875 Q305.6219,18.1875 306.2625,18.3594 Q306.9188,18.5156 307.4656,18.875 Z " fill="#000000"/><text fill="#000000" font-family="sans-serif" font-size="14" lengthAdjust="spacing" textLength="38" x="324.3" y="28.7285">Game</text><line style="stroke:#181818;stroke-width:0.5;" x1="265.5" x2="389.5" y1="39" y2="39"/><ellipse cx="275.5" cy="53.3047" fill="none" rx="3" ry="3" style="stroke:#038048;stroke-width:1.0;"/><text fill="#000000" font-family="sans-serif" font-size="14" lengthAdjust="spacing" textLength="45" x="284.5" y="57.5332">entities</text><ellipse cx="275.5" cy="70.9141" fill="none" rx="3" ry="3" style="stroke:#038048;stroke-width:1.0;"/><text fill="#000000" font-family="sans-serif" font-size="14" lengthAdjust="spacing" textLength="100" x="284.5" y="75.1426">messageQueue</text><line style="stroke:#181818;stroke-width:0.5;" x1="265.5" x2="389.5" y1="82.2188" y2="82.2188"/><ellipse cx="275.5" cy="96.5234" fill="#84BE84" rx="3" ry="3" style="stroke:#038048;stroke-width:1.0;"/><text fill="#000000" font-family="sans-serif" font-size="14" lengthAdjust="spacing" textLength="31" x="284.5" y="100.752">tick()</text></g><!--class Attacker--><g id="elem_Attacker"><rect fill="#F1F1F1" height="48" id="Attacker" rx="2.5" ry="2.5" style="stroke:#181818;stroke-width:0.5;" width="84" x="133.5" y="437"/><ellipse cx="148.5" cy="453" fill="#ADD1B2" rx="11" ry="11" style="stroke:#181818;stroke-width:1.0;"/><path d="M151.2656,448.875 Q151.4219,448.6563 151.6094,448.5469 Q151.7969,448.4375 152.0156,448.4375 Q152.3906,448.4375 152.625,448.7031 Q152.8594,448.9531 152.8594,449.5625 L152.8594,451.0156 Q152.8594,451.625 152.625,451.8906 Q152.3906,452.1563 152.0156,452.1563 Q151.6719,452.1563 151.4688,451.9531 Q151.2656,451.7656 151.1563,451.25 Q151.1094,450.8906 150.9219,450.7031 Q150.5938,450.3281 149.9844,450.1094 Q149.375,449.8906 148.75,449.8906 Q147.9844,449.8906 147.3438,450.2188 Q146.7188,450.5469 146.2188,451.2969 Q145.7344,452.0469 145.7344,453.0781 L145.7344,454.1719 Q145.7344,455.4063 146.625,456.2344 Q147.5156,457.0469 149.1094,457.0469 Q150.0469,457.0469 150.7031,456.7969 Q151.0938,456.6406 151.5156,456.2031 Q151.7813,455.9375 151.9219,455.8594 Q152.0781,455.7813 152.2813,455.7813 Q152.6094,455.7813 152.8594,456.0469 Q153.125,456.2969 153.125,456.6406 Q153.125,456.9844 152.7813,457.3906 Q152.2813,457.9688 151.4844,458.2969 Q150.4063,458.75 149.1094,458.75 Q147.5938,458.75 146.3906,458.125 Q145.4063,457.625 144.7188,456.5625 Q144.0313,455.4844 144.0313,454.2031 L144.0313,453.0469 Q144.0313,451.7188 144.6406,450.5781 Q145.2656,449.4219 146.3594,448.8125 Q147.4531,448.1875 148.6875,448.1875 Q149.4219,448.1875 150.0625,448.3594 Q150.7188,448.5156 151.2656,448.875 Z " fill="#000000"/><text fill="#000000" font-family="sans-serif" font-size="14" lengthAdjust="spacing" textLength="52" x="162.5" y="458.7285">Attacker</text><line style="stroke:#181818;stroke-width:0.5;" x1="134.5" x2="216.5" y1="469" y2="469"/><line style="stroke:#181818;stroke-width:0.5;" x1="134.5" x2="216.5" y1="477" y2="477"/></g><!--class Defender--><g id="elem_Defender"><rect fill="#F1F1F1" height="48" id="Defender" rx="2.5" ry="2.5" style="stroke:#181818;stroke-width:0.5;" width="91" x="7" y="437"/><ellipse cx="22" cy="453" fill="#ADD1B2" rx="11" ry="11" style="stroke:#181818;stroke-width:1.0;"/><path d="M24.7656,448.875 Q24.9219,448.6563 25.1094,448.5469 Q25.2969,448.4375 25.5156,448.4375 Q25.8906,448.4375 26.125,448.7031 Q26.3594,448.9531 26.3594,449.5625 L26.3594,451.0156 Q26.3594,451.625 26.125,451.8906 Q25.8906,452.1563 25.5156,452.1563 Q25.1719,452.1563 24.9688,451.9531 Q24.7656,451.7656 24.6563,451.25 Q24.6094,450.8906 24.4219,450.7031 Q24.0938,450.3281 23.4844,450.1094 Q22.875,449.8906 22.25,449.8906 Q21.4844,449.8906 20.8438,450.2188 Q20.2188,450.5469 19.7188,451.2969 Q19.2344,452.0469 19.2344,453.0781 L19.2344,454.1719 Q19.2344,455.4063 20.125,456.2344 Q21.0156,457.0469 22.6094,457.0469 Q23.5469,457.0469 24.2031,456.7969 Q24.5938,456.6406 25.0156,456.2031 Q25.2813,455.9375 25.4219,455.8594 Q25.5781,455.7813 25.7813,455.7813 Q26.1094,455.7813 26.3594,456.0469 Q26.625,456.2969 26.625,456.6406 Q26.625,456.9844 26.2813,457.3906 Q25.7813,457.9688 24.9844,458.2969 Q23.9063,458.75 22.6094,458.75 Q21.0938,458.75 19.8906,458.125 Q18.9063,457.625 18.2188,456.5625 Q17.5313,455.4844 17.5313,454.2031 L17.5313,453.0469 Q17.5313,451.7188 18.1406,450.5781 Q18.7656,449.4219 19.8594,448.8125 Q20.9531,448.1875 22.1875,448.1875 Q22.9219,448.1875 23.5625,448.3594 Q24.2188,448.5156 24.7656,448.875 Z " fill="#000000"/><text fill="#000000" font-family="sans-serif" font-size="14" lengthAdjust="spacing" textLength="59" x="36" y="458.7285">Defender</text><line style="stroke:#181818;stroke-width:0.5;" x1="8" x2="97" y1="469" y2="469"/><line style="stroke:#181818;stroke-width:0.5;" x1="8" x2="97" y1="477" y2="477"/></g><!--class Message--><g id="elem_Message"><rect codeLine="20" fill="#F1F1F1" height="48" id="Message" rx="2.5" ry="2.5" style="stroke:#181818;stroke-width:0.5;" width="90" x="269.5" y="311.5"/><ellipse cx="284.5" cy="327.5" fill="#A9DCDF" rx="11" ry="11" style="stroke:#181818;stroke-width:1.0;"/><path d="M286.6875,329.2656 L282.5469,329.2656 L282.125,330.2969 L282.5469,330.2969 Q283.1563,330.2969 283.4219,330.5313 Q283.6875,330.7656 283.6875,331.1563 Q283.6875,331.5313 283.4219,331.7656 Q283.1563,332 282.5469,332 L280.25,332 Q279.6406,332 279.3906,331.7656 Q279.125,331.5313 279.125,331.1406 Q279.125,330.7656 279.4063,330.5313 Q279.6719,330.2813 280.2969,330.2969 L282.9688,323.6406 L281.8594,323.6406 Q281.25,323.6406 280.9844,323.4063 Q280.7188,323.1719 280.7188,322.7813 Q280.7188,322.4063 280.9844,322.1719 Q281.25,321.9375 281.8594,321.9375 L285.5313,321.9375 L288.9219,330.2969 Q289.5156,330.2969 289.7031,330.4375 Q290.0938,330.7031 290.0938,331.1563 Q290.0938,331.5313 289.8281,331.7656 Q289.5781,332 288.9688,332 L286.6719,332 Q286.0625,332 285.7969,331.7656 Q285.5313,331.5313 285.5313,331.1406 Q285.5313,330.7656 285.7969,330.5313 Q286.0625,330.2969 286.6719,330.2969 L287.0938,330.2969 L286.6875,329.2656 Z M285.9688,327.5625 L284.6094,324.1875 L283.2344,327.5625 L285.9688,327.5625 Z " fill="#000000"/><text fill="#000000" font-family="sans-serif" font-size="14" font-style="italic" lengthAdjust="spacing" textLength="58" x="298.5" y="333.2285">Message</text><line style="stroke:#181818;stroke-width:0.5;" x1="270.5" x2="358.5" y1="343.5" y2="343.5"/><line style="stroke:#181818;stroke-width:0.5;" x1="270.5" x2="358.5" y1="351.5" y2="351.5"/></g><!--class Attack--><g id="elem_Attack"><rect fill="#F1F1F1" height="48" id="Attack" rx="2.5" ry="2.5" style="stroke:#181818;stroke-width:0.5;" width="71" x="140" y="545"/><ellipse cx="155" cy="561" fill="#ADD1B2" rx="11" ry="11" style="stroke:#181818;stroke-width:1.0;"/><path d="M157.7656,556.875 Q157.9219,556.6563 158.1094,556.5469 Q158.2969,556.4375 158.5156,556.4375 Q158.8906,556.4375 159.125,556.7031 Q159.3594,556.9531 159.3594,557.5625 L159.3594,559.0156 Q159.3594,559.625 159.125,559.8906 Q158.8906,560.1563 158.5156,560.1563 Q158.1719,560.1563 157.9688,559.9531 Q157.7656,559.7656 157.6563,559.25 Q157.6094,558.8906 157.4219,558.7031 Q157.0938,558.3281 156.4844,558.1094 Q155.875,557.8906 155.25,557.8906 Q154.4844,557.8906 153.8438,558.2188 Q153.2188,558.5469 152.7188,559.2969 Q152.2344,560.0469 152.2344,561.0781 L152.2344,562.1719 Q152.2344,563.4063 153.125,564.2344 Q154.0156,565.0469 155.6094,565.0469 Q156.5469,565.0469 157.2031,564.7969 Q157.5938,564.6406 158.0156,564.2031 Q158.2813,563.9375 158.4219,563.8594 Q158.5781,563.7813 158.7813,563.7813 Q159.1094,563.7813 159.3594,564.0469 Q159.625,564.2969 159.625,564.6406 Q159.625,564.9844 159.2813,565.3906 Q158.7813,565.9688 157.9844,566.2969 Q156.9063,566.75 155.6094,566.75 Q154.0938,566.75 152.8906,566.125 Q151.9063,565.625 151.2188,564.5625 Q150.5313,563.4844 150.5313,562.2031 L150.5313,561.0469 Q150.5313,559.7188 151.1406,558.5781 Q151.7656,557.4219 152.8594,556.8125 Q153.9531,556.1875 155.1875,556.1875 Q155.9219,556.1875 156.5625,556.3594 Q157.2188,556.5156 157.7656,556.875 Z " fill="#000000"/><text fill="#000000" font-family="sans-serif" font-size="14" lengthAdjust="spacing" textLength="39" x="169" y="566.7285">Attack</text><line style="stroke:#181818;stroke-width:0.5;" x1="141" x2="210" y1="577" y2="577"/><line style="stroke:#181818;stroke-width:0.5;" x1="141" x2="210" y1="585" y2="585"/></g><!--class Presence--><g id="elem_Presence"><rect fill="#F1F1F1" height="48" id="Presence" rx="2.5" ry="2.5" style="stroke:#181818;stroke-width:0.5;" width="92" x="295.5" y="545"/><ellipse cx="310.5" cy="561" fill="#ADD1B2" rx="11" ry="11" style="stroke:#181818;stroke-width:1.0;"/><path d="M313.2656,556.875 Q313.4219,556.6563 313.6094,556.5469 Q313.7969,556.4375 314.0156,556.4375 Q314.3906,556.4375 314.625,556.7031 Q314.8594,556.9531 314.8594,557.5625 L314.8594,559.0156 Q314.8594,559.625 314.625,559.8906 Q314.3906,560.1563 314.0156,560.1563 Q313.6719,560.1563 313.4688,559.9531 Q313.2656,559.7656 313.1563,559.25 Q313.1094,558.8906 312.9219,558.7031 Q312.5938,558.3281 311.9844,558.1094 Q311.375,557.8906 310.75,557.8906 Q309.9844,557.8906 309.3438,558.2188 Q308.7188,558.5469 308.2188,559.2969 Q307.7344,560.0469 307.7344,561.0781 L307.7344,562.1719 Q307.7344,563.4063 308.625,564.2344 Q309.5156,565.0469 311.1094,565.0469 Q312.0469,565.0469 312.7031,564.7969 Q313.0938,564.6406 313.5156,564.2031 Q313.7813,563.9375 313.9219,563.8594 Q314.0781,563.7813 314.2813,563.7813 Q314.6094,563.7813 314.8594,564.0469 Q315.125,564.2969 315.125,564.6406 Q315.125,564.9844 314.7813,565.3906 Q314.2813,565.9688 313.4844,566.2969 Q312.4063,566.75 311.1094,566.75 Q309.5938,566.75 308.3906,566.125 Q307.4063,565.625 306.7188,564.5625 Q306.0313,563.4844 306.0313,562.2031 L306.0313,561.0469 Q306.0313,559.7188 306.6406,558.5781 Q307.2656,557.4219 308.3594,556.8125 Q309.4531,556.1875 310.6875,556.1875 Q311.4219,556.1875 312.0625,556.3594 Q312.7188,556.5156 313.2656,556.875 Z " fill="#000000"/><text fill="#000000" font-family="sans-serif" font-size="14" lengthAdjust="spacing" textLength="60" x="324.5" y="566.7285">Presence</text><line style="stroke:#181818;stroke-width:0.5;" x1="296.5" x2="386.5" y1="577" y2="577"/><line style="stroke:#181818;stroke-width:0.5;" x1="296.5" x2="386.5" y1="585" y2="585"/></g><!--reverse link Component to Attacker--><g id="link_Component_Attacker"><path codeLine="14" d="M173.48,397.5 C173.93,411.56 174.39,425.67 174.75,436.91 " fill="none" id="Component-backto-Attacker" style="stroke:#181818;stroke-width:1.0;"/><polygon fill="none" points="166.47,397.5,172.82,377.28,180.46,397.04,166.47,397.5" style="stroke:#181818;stroke-width:1.0;"/></g><!--reverse link Component to Defender--><g id="link_Component_Defender"><path codeLine="15" d="M117.91,392.11 C102.7,407.9 86.97,424.23 74.74,436.91 " fill="none" id="Component-backto-Defender" style="stroke:#181818;stroke-width:1.0;"/><polygon fill="none" points="113.29,386.83,132.21,377.28,123.37,396.54,113.29,386.83" style="stroke:#181818;stroke-width:1.0;"/></g><!--reverse link Game to Message--><g id="link_Game_Message"><path codeLine="16" d="M324.54,121.37 C321.69,181.82 317.54,269.93 315.59,311.35 " fill="none" id="Game-backto-Message" style="stroke:#181818;stroke-width:1.0;"/><polygon fill="none" points="325.16,108.16,320.881,113.9643,324.593,120.1466,328.872,114.3423,325.16,108.16" style="stroke:#181818;stroke-width:1.0;"/></g><!--link Entity to Message--><g id="link_Entity_Message"><path codeLine="17" d="M258.41,234.07 C270.87,256.38 287.31,285.81 299.16,307.04 " fill="none" id="Entity-to-Message" style="stroke:#181818;stroke-width:1.0;"/><polygon fill="#181818" points="301.62,311.44,300.7214,301.6322,299.1809,307.0753,293.7378,305.5348,301.62,311.44" style="stroke:#181818;stroke-width:1.0;"/></g><!--reverse link Entity to Component--><g id="link_Entity_Component"><path codeLine="18" d="M217.61,245.95 C209.59,261.35 200.63,278.56 192.76,293.68 " fill="none" id="Entity-backto-Component" style="stroke:#181818;stroke-width:1.0;"/><polygon fill="#181818" points="223.8,234.07,217.4784,237.5395,218.2497,244.7093,224.5712,241.2397,223.8,234.07" style="stroke:#181818;stroke-width:1.0;"/><text fill="#000000" font-family="sans-serif" font-size="13" lengthAdjust="spacing" textLength="7" x="213.0756" y="255.2058">1</text><text fill="#000000" font-family="sans-serif" font-size="13" lengthAdjust="spacing" textLength="5" x="190.7499" y="283.2456">*</text></g><!--reverse link Game to Entity--><g id="link_Game_Entity"><path codeLine="19" d="M289.88,119.69 C279.7,136.25 269.08,153.52 260.31,167.79 " fill="none" id="Game-backto-Entity" style="stroke:#181818;stroke-width:1.0;"/><polygon fill="#181818" points="296.83,108.39,290.2814,111.4092,290.5497,118.6153,297.0983,115.5961,296.83,108.39" style="stroke:#181818;stroke-width:1.0;"/><text fill="#000000" font-family="sans-serif" font-size="13" lengthAdjust="spacing" textLength="7" x="285.452" y="129.4639">1</text><text fill="#000000" font-family="sans-serif" font-size="13" lengthAdjust="spacing" textLength="5" x="258.7179" y="157.245">*</text></g><!--reverse link Message to Attack--><g id="link_Message_Attack"><path codeLine="22" d="M294.48,377.74 C279.32,408.02 257.42,449.83 235.5,485 C222.43,505.97 205.86,528.64 193.45,544.98 " fill="none" id="Message-backto-Attack" style="stroke:#181818;stroke-width:1.0;"/><polygon fill="none" points="288.26,374.51,303.4,359.69,300.81,380.72,288.26,374.51" style="stroke:#181818;stroke-width:1.0;"/></g><!--reverse link Message to Presence--><g id="link_Message_Presence"><path codeLine="23" d="M319.54,379.7 C325.23,428.5 334.29,506.15 338.78,544.71 " fill="none" id="Message-backto-Presence" style="stroke:#181818;stroke-width:1.0;"/><polygon fill="none" points="312.55,380.22,317.19,359.54,326.46,378.6,312.55,380.22" style="stroke:#181818;stroke-width:1.0;"/></g><!--link Game to Presence--><g id="link_Game_Presence"><path codeLine="25" d="M343.09,108.18 C360.88,170.64 386.44,281.28 377.5,377 C372.04,435.44 357.38,502.65 348.54,539.72 " fill="none" id="Game-to-Presence" style="stroke:#181818;stroke-width:1.0;"/><polygon fill="#181818" points="347.28,544.97,353.2786,537.1587,348.4523,540.1094,345.5016,535.283,347.28,544.97" style="stroke:#181818;stroke-width:1.0;"/></g><!--link Attacker to Presence--><g id="link_Attacker_Presence"><path codeLine="26" d="M211.52,485 C237.86,501.82 273.61,524.65 300.95,542.11 " fill="none" id="Attacker-to-Presence" style="stroke:#181818;stroke-width:1.0;"/><polygon fill="#181818" points="305.26,544.86,299.8199,536.6499,301.0435,542.1728,295.5205,543.3964,305.26,544.86" style="stroke:#181818;stroke-width:1.0;"/></g><!--link Attacker to Attack--><g id="link_Attacker_Attack"><path codeLine="27" d="M175.5,485 C175.5,501 175.5,522.45 175.5,539.53 " fill="none" id="Attacker-to-Attack" style="stroke:#181818;stroke-width:1.0;"/><polygon fill="#181818" points="175.5,544.68,179.5,535.68,175.5,539.68,171.5,535.68,175.5,544.68" style="stroke:#181818;stroke-width:1.0;"/></g><!--link Defender to Attack--><g id="link_Defender_Attack"><path codeLine="28" d="M79.19,485 C98.4,501.55 124.36,523.93 144.49,541.28 " fill="none" id="Defender-to-Attack" style="stroke:#181818;stroke-width:1.0;"/><polygon fill="#181818" points="148.44,544.68,144.2264,535.778,144.6498,541.419,139.0088,541.8423,148.44,544.68" style="stroke:#181818;stroke-width:1.0;"/></g><!--SRC=[XO-n3i8m34HtVuML2Oeoi2Ca18W92JuX18CgQ8fgTq3GVoTj6hLaW4p9o_dEP- -66RTESddY2z2VcUJsDfb20-R4KXahQ3lLkYmUfICdKLWGixdIiQQQab488pjJK5HJ6v8J_vqTSXPlhN4bOkoDgfHlw4Bkx7aNKdgo3vxGrz5wcI8rLvXvfShKK2SOZB-2EktVU_a-3SJxQCDlTgY8oLc2uDxk4X52hFGBXmT2h3c67m00]--></g></svg>