<?xml version="1.0" encoding="UTF-8" standalone="no"?><svg xmlns="http://www.w3.org/2000/svg" xmlns:xlink="http://www.w3.org/1999/xlink" contentScriptType="application/ecmascript" contentStyleType="text/css" height="579px" preserveAspectRatio="none" style="width:388px;height:579px;background:#FFFFFF;" version="1.1" viewBox="0 0 388 579" width="388px" zoomAndPan="magnify"><defs><filter height="300%" id="f1jtfks5a84w21" width="300%" x="-1" y="-1"><feGaussianBlur result="blurOut" stdDeviation="2.0"/><feColorMatrix in="blurOut" result="blurOut2" type="matrix" values="0 0 0 0 0 0 0 0 0 0 0 0 0 0 0 0 0 0 .4 0"/><feOffset dx="4.0" dy="4.0" in="blurOut2" result="blurOut3"/><feBlend in="SourceGraphic" in2="blurOut3" mode="normal"/></filter></defs><g><!--MD5=[be996cdb8e6bf2fc7cb89c555f2cd144]
class Entity--><rect codeLine="1" fill="#FEFECE" filter="url(#f1jtfks5a84w21)" height="60.9551" id="Entity" style="stroke:#A80036;stroke-width:1.5;" width="63" x="201.5" y="154"/><ellipse cx="216.5" cy="170" fill="#ADD1B2" rx="11" ry="11" style="stroke:#A80036;stroke-width:1.0;"/><path d="M218.9731,176.1431 Q218.3921,176.4419 217.7529,176.5913 Q217.1138,176.7407 216.4082,176.7407 Q213.9014,176.7407 212.5815,175.0889 Q211.2617,173.437 211.2617,170.3159 Q211.2617,167.1865 212.5815,165.5347 Q213.9014,163.8828 216.4082,163.8828 Q217.1138,163.8828 217.7612,164.0322 Q218.4087,164.1816 218.9731,164.4805 L218.9731,167.2031 Q218.3423,166.6221 217.7488,166.3523 Q217.1553,166.0825 216.5244,166.0825 Q215.1797,166.0825 214.4949,167.1492 Q213.8101,168.2158 213.8101,170.3159 Q213.8101,172.4077 214.4949,173.4744 Q215.1797,174.541 216.5244,174.541 Q217.1553,174.541 217.7488,174.2712 Q218.3423,174.0015 218.9731,173.4204 Z " fill="#000000"/><text fill="#000000" font-family="sans-serif" font-size="12" lengthAdjust="spacing" textLength="31" x="230.5" y="174.5352">Entity</text><line style="stroke:#A80036;stroke-width:1.5;" x1="202.5" x2="263.5" y1="186" y2="186"/><line style="stroke:#A80036;stroke-width:1.5;" x1="202.5" x2="263.5" y1="194" y2="194"/><ellipse cx="212.5" cy="205" fill="#84BE84" rx="3" ry="3" style="stroke:#038048;stroke-width:1.0;"/><text fill="#000000" font-family="sans-serif" font-size="11" lengthAdjust="spacing" textLength="27" x="221.5" y="208.6348">tick()</text><!--MD5=[4e13963c9dc916a21a8436ef39422b32]
class Component--><rect codeLine="4" fill="#FEFECE" filter="url(#f1jtfks5a84w21)" height="73.9102" id="Component" style="stroke:#A80036;stroke-width:1.5;" width="108" x="114" y="275"/><ellipse cx="133.5" cy="291" fill="#A9DCDF" rx="11" ry="11" style="stroke:#A80036;stroke-width:1.0;"/><path d="M133.3633,286.3481 L132.2095,291.4199 L134.5254,291.4199 Z M131.8691,284.1069 L134.8657,284.1069 L138.2109,296.5 L135.7622,296.5 L134.9985,293.437 L131.7197,293.437 L130.9727,296.5 L128.5239,296.5 Z " fill="#000000"/><text fill="#000000" font-family="sans-serif" font-size="12" font-style="italic" lengthAdjust="spacing" textLength="66" x="148.5" y="295.5352">Component</text><line style="stroke:#A80036;stroke-width:1.5;" x1="115" x2="221" y1="307" y2="307"/><ellipse cx="125" cy="318" rx="3" ry="3" style="stroke:#038048;stroke-width:1.0;fill:none;"/><text fill="#000000" font-family="sans-serif" font-size="11" lengthAdjust="spacing" textLength="82" x="134" y="321.6348">messageQueue</text><line style="stroke:#A80036;stroke-width:1.5;" x1="115" x2="221" y1="327.9551" y2="327.9551"/><ellipse cx="125" cy="338.9551" fill="#84BE84" rx="3" ry="3" style="stroke:#038048;stroke-width:1.0;"/><text fill="#000000" font-family="sans-serif" font-size="11" lengthAdjust="spacing" textLength="27" x="134" y="342.5898">tick()</text><!--MD5=[b6dcce5e5ef3c84b0b048d11301373dd]
class Game--><rect codeLine="9" fill="#FEFECE" filter="url(#f1jtfks5a84w21)" height="86.8652" id="Game" style="stroke:#A80036;stroke-width:1.5;" width="108" x="264" y="7"/><ellipse cx="297.9" cy="23" fill="#ADD1B2" rx="11" ry="11" style="stroke:#A80036;stroke-width:1.0;"/><path d="M300.3731,29.1431 Q299.7921,29.4419 299.1529,29.5913 Q298.5138,29.7407 297.8082,29.7407 Q295.3014,29.7407 293.9815,28.0889 Q292.6617,26.437 292.6617,23.3159 Q292.6617,20.1865 293.9815,18.5347 Q295.3014,16.8828 297.8082,16.8828 Q298.5138,16.8828 299.1612,17.0322 Q299.8087,17.1816 300.3731,17.4805 L300.3731,20.2031 Q299.7423,19.6221 299.1488,19.3523 Q298.5553,19.0825 297.9244,19.0825 Q296.5797,19.0825 295.8949,20.1492 Q295.2101,21.2158 295.2101,23.3159 Q295.2101,25.4077 295.8949,26.4744 Q296.5797,27.541 297.9244,27.541 Q298.5553,27.541 299.1488,27.2712 Q299.7423,27.0015 300.3731,26.4204 Z " fill="#000000"/><text fill="#000000" font-family="sans-serif" font-size="12" lengthAdjust="spacing" textLength="34" x="316.1" y="27.5352">Game</text><line style="stroke:#A80036;stroke-width:1.5;" x1="265" x2="371" y1="39" y2="39"/><ellipse cx="275" cy="50" rx="3" ry="3" style="stroke:#038048;stroke-width:1.0;fill:none;"/><text fill="#000000" font-family="sans-serif" font-size="11" lengthAdjust="spacing" textLength="39" x="284" y="53.6348">entities</text><ellipse cx="275" cy="62.9551" rx="3" ry="3" style="stroke:#038048;stroke-width:1.0;fill:none;"/><text fill="#000000" font-family="sans-serif" font-size="11" lengthAdjust="spacing" textLength="82" x="284" y="66.5898">messageQueue</text><line style="stroke:#A80036;stroke-width:1.5;" x1="265" x2="371" y1="72.9102" y2="72.9102"/><ellipse cx="275" cy="83.9102" fill="#84BE84" rx="3" ry="3" style="stroke:#038048;stroke-width:1.0;"/><text fill="#000000" font-family="sans-serif" font-size="11" lengthAdjust="spacing" textLength="27" x="284" y="87.5449">tick()</text><!--MD5=[f50208e08ebeebbee8e1b321793733cf]
class Attacker--><rect fill="#FEFECE" filter="url(#f1jtfks5a84w21)" height="48" id="Attacker" style="stroke:#A80036;stroke-width:1.5;" width="80" x="128" y="409"/><ellipse cx="143" cy="425" fill="#ADD1B2" rx="11" ry="11" style="stroke:#A80036;stroke-width:1.0;"/><path d="M145.4731,431.1431 Q144.8921,431.4419 144.2529,431.5913 Q143.6138,431.7407 142.9082,431.7407 Q140.4014,431.7407 139.0815,430.0889 Q137.7617,428.437 137.7617,425.3159 Q137.7617,422.1865 139.0815,420.5347 Q140.4014,418.8828 142.9082,418.8828 Q143.6138,418.8828 144.2612,419.0322 Q144.9087,419.1816 145.4731,419.4805 L145.4731,422.2031 Q144.8423,421.6221 144.2488,421.3523 Q143.6553,421.0825 143.0244,421.0825 Q141.6797,421.0825 140.9949,422.1492 Q140.3101,423.2158 140.3101,425.3159 Q140.3101,427.4077 140.9949,428.4744 Q141.6797,429.541 143.0244,429.541 Q143.6553,429.541 144.2488,429.2712 Q144.8423,429.0015 145.4731,428.4204 Z " fill="#000000"/><text fill="#000000" font-family="sans-serif" font-size="12" lengthAdjust="spacing" textLength="48" x="157" y="429.5352">Attacker</text><line style="stroke:#A80036;stroke-width:1.5;" x1="129" x2="207" y1="441" y2="441"/><line style="stroke:#A80036;stroke-width:1.5;" x1="129" x2="207" y1="449" y2="449"/><!--MD5=[014e7f206415c8819212b9ce0f4cb659]
class Defender--><rect fill="#FEFECE" filter="url(#f1jtfks5a84w21)" height="48" id="Defender" style="stroke:#A80036;stroke-width:1.5;" width="86" x="7" y="409"/><ellipse cx="22" cy="425" fill="#ADD1B2" rx="11" ry="11" style="stroke:#A80036;stroke-width:1.0;"/><path d="M24.4731,431.1431 Q23.8921,431.4419 23.2529,431.5913 Q22.6138,431.7407 21.9082,431.7407 Q19.4014,431.7407 18.0815,430.0889 Q16.7617,428.437 16.7617,425.3159 Q16.7617,422.1865 18.0815,420.5347 Q19.4014,418.8828 21.9082,418.8828 Q22.6138,418.8828 23.2612,419.0322 Q23.9087,419.1816 24.4731,419.4805 L24.4731,422.2031 Q23.8423,421.6221 23.2488,421.3523 Q22.6553,421.0825 22.0244,421.0825 Q20.6797,421.0825 19.9949,422.1492 Q19.3101,423.2158 19.3101,425.3159 Q19.3101,427.4077 19.9949,428.4744 Q20.6797,429.541 22.0244,429.541 Q22.6553,429.541 23.2488,429.2712 Q23.8423,429.0015 24.4731,428.4204 Z " fill="#000000"/><text fill="#000000" font-family="sans-serif" font-size="12" lengthAdjust="spacing" textLength="54" x="36" y="429.5352">Defender</text><line style="stroke:#A80036;stroke-width:1.5;" x1="8" x2="92" y1="441" y2="441"/><line style="stroke:#A80036;stroke-width:1.5;" x1="8" x2="92" y1="449" y2="449"/><!--MD5=[bea5b0d46523efab5ea1c1d339f396f0]
class Message--><rect codeLine="20" fill="#FEFECE" filter="url(#f1jtfks5a84w21)" height="48" id="Message" style="stroke:#A80036;stroke-width:1.5;" width="82" x="263" y="288"/><ellipse cx="278" cy="304" fill="#A9DCDF" rx="11" ry="11" style="stroke:#A80036;stroke-width:1.0;"/><path d="M277.8633,299.3481 L276.7095,304.4199 L279.0254,304.4199 Z M276.3691,297.1069 L279.3657,297.1069 L282.7109,309.5 L280.2622,309.5 L279.4985,306.437 L276.2197,306.437 L275.4727,309.5 L273.0239,309.5 Z " fill="#000000"/><text fill="#000000" font-family="sans-serif" font-size="12" font-style="italic" lengthAdjust="spacing" textLength="50" x="292" y="308.5352">Message</text><line style="stroke:#A80036;stroke-width:1.5;" x1="264" x2="344" y1="320" y2="320"/><line style="stroke:#A80036;stroke-width:1.5;" x1="264" x2="344" y1="328" y2="328"/><!--MD5=[7ac02b56c149fd063c37b1309e8be999]
class Attack--><rect fill="#FEFECE" filter="url(#f1jtfks5a84w21)" height="48" id="Attack" style="stroke:#A80036;stroke-width:1.5;" width="68" x="134" y="517"/><ellipse cx="149" cy="533" fill="#ADD1B2" rx="11" ry="11" style="stroke:#A80036;stroke-width:1.0;"/><path d="M151.4731,539.1431 Q150.8921,539.4419 150.2529,539.5913 Q149.6138,539.7407 148.9082,539.7407 Q146.4014,539.7407 145.0815,538.0889 Q143.7617,536.437 143.7617,533.3159 Q143.7617,530.1865 145.0815,528.5347 Q146.4014,526.8828 148.9082,526.8828 Q149.6138,526.8828 150.2612,527.0322 Q150.9087,527.1816 151.4731,527.4805 L151.4731,530.2031 Q150.8423,529.6221 150.2488,529.3523 Q149.6553,529.0825 149.0244,529.0825 Q147.6797,529.0825 146.9949,530.1492 Q146.3101,531.2158 146.3101,533.3159 Q146.3101,535.4077 146.9949,536.4744 Q147.6797,537.541 149.0244,537.541 Q149.6553,537.541 150.2488,537.2712 Q150.8423,537.0015 151.4731,536.4204 Z " fill="#000000"/><text fill="#000000" font-family="sans-serif" font-size="12" lengthAdjust="spacing" textLength="36" x="163" y="537.5352">Attack</text><line style="stroke:#A80036;stroke-width:1.5;" x1="135" x2="201" y1="549" y2="549"/><line style="stroke:#A80036;stroke-width:1.5;" x1="135" x2="201" y1="557" y2="557"/><!--MD5=[61e2610165a592fa949543c2d7246366]
class Presence--><rect fill="#FEFECE" filter="url(#f1jtfks5a84w21)" height="48" id="Presence" style="stroke:#A80036;stroke-width:1.5;" width="84" x="290" y="517"/><ellipse cx="305" cy="533" fill="#ADD1B2" rx="11" ry="11" style="stroke:#A80036;stroke-width:1.0;"/><path d="M307.4731,539.1431 Q306.8921,539.4419 306.2529,539.5913 Q305.6138,539.7407 304.9082,539.7407 Q302.4014,539.7407 301.0815,538.0889 Q299.7617,536.437 299.7617,533.3159 Q299.7617,530.1865 301.0815,528.5347 Q302.4014,526.8828 304.9082,526.8828 Q305.6138,526.8828 306.2612,527.0322 Q306.9087,527.1816 307.4731,527.4805 L307.4731,530.2031 Q306.8423,529.6221 306.2488,529.3523 Q305.6553,529.0825 305.0244,529.0825 Q303.6797,529.0825 302.9949,530.1492 Q302.3101,531.2158 302.3101,533.3159 Q302.3101,535.4077 302.9949,536.4744 Q303.6797,537.541 305.0244,537.541 Q305.6553,537.541 306.2488,537.2712 Q306.8423,537.0015 307.4731,536.4204 Z " fill="#000000"/><text fill="#000000" font-family="sans-serif" font-size="12" lengthAdjust="spacing" textLength="52" x="319" y="537.5352">Presence</text><line style="stroke:#A80036;stroke-width:1.5;" x1="291" x2="373" y1="549" y2="549"/><line style="stroke:#A80036;stroke-width:1.5;" x1="291" x2="373" y1="557" y2="557"/><!--MD5=[e6d5c8e3401f2061e17ffb2a76b6cebb]
reverse link Component to Attacker--><path codeLine="14" d="M168,369.07 C168,383.12 168,397.43 168,408.85 " fill="none" id="Component-backto-Attacker" style="stroke:#A80036;stroke-width:1.0;"/><polygon fill="none" points="161,369.03,168,349.03,175,369.03,161,369.03" style="stroke:#A80036;stroke-width:1.0;"/><!--MD5=[ddb85de95e279b6c52ac81478509a3a3]
reverse link Component to Defender--><path codeLine="15" d="M117.73,363.69 C102.14,379.41 85.72,395.97 72.95,408.85 " fill="none" id="Component-backto-Defender" style="stroke:#A80036;stroke-width:1.0;"/><polygon fill="none" points="113.22,358.3,132.28,349.03,123.16,368.16,113.22,358.3" style="stroke:#A80036;stroke-width:1.0;"/><!--MD5=[d272cc19827c3d03f1dadd7c2ae00fd8]
reverse link Game to Message--><path codeLine="16" d="M314.99,107.36 C311.95,163.56 307.43,247.51 305.25,287.8 " fill="none" id="Game-backto-Message" style="stroke:#A80036;stroke-width:1.0;"/><polygon fill="#FFFFFF" points="315.7,94.06,311.3828,99.836,315.0541,106.0426,319.3712,100.2666,315.7,94.06" style="stroke:#A80036;stroke-width:1.0;"/><!--MD5=[4a6c06fa1196cbaec981deab102eaf27]
link Entity to Message--><path codeLine="17" d="M249.83,215.24 C261.49,235.86 276.92,263.13 288.33,283.29 " fill="none" id="Entity-to-Message" style="stroke:#A80036;stroke-width:1.0;"/><polygon fill="#A80036" points="290.84,287.74,289.8895,277.9371,288.3778,283.3883,282.9267,281.8766,290.84,287.74" style="stroke:#A80036;stroke-width:1.0;"/><!--MD5=[02aabbcdf2913bdf78d2840a740aa5c1]
reverse link Entity to Component--><path codeLine="18" d="M211.45,227.11 C203.47,242.52 194.49,259.86 186.77,274.76 " fill="none" id="Entity-backto-Component" style="stroke:#A80036;stroke-width:1.0;"/><polygon fill="#A80036" points="217.6,215.24,211.287,218.725,212.0758,225.8929,218.3889,222.4078,217.6,215.24" style="stroke:#A80036;stroke-width:1.0;"/><text fill="#000000" font-family="sans-serif" font-size="13" lengthAdjust="spacing" textLength="8" x="205.5988" y="235.732">1</text><text fill="#000000" font-family="sans-serif" font-size="13" lengthAdjust="spacing" textLength="6" x="183.579" y="264.3947">*</text><!--MD5=[2b0b617a678a2c83a9e5887370cc3260]
reverse link Game to Entity--><path codeLine="19" d="M283.19,105.55 C272.58,122.04 261.3,139.55 252.13,153.79 " fill="none" id="Game-backto-Entity" style="stroke:#A80036;stroke-width:1.0;"/><polygon fill="#A80036" points="290.4,94.36,283.7875,97.2366,283.8996,104.4469,290.5121,101.5702,290.4,94.36" style="stroke:#A80036;stroke-width:1.0;"/><text fill="#000000" font-family="sans-serif" font-size="13" lengthAdjust="spacing" textLength="8" x="277.7587" y="114.5046">1</text><text fill="#000000" font-family="sans-serif" font-size="13" lengthAdjust="spacing" textLength="6" x="249.6584" y="143.0388">*</text><!--MD5=[ed0fa576020158c2814cb9d4b5222ec1]
reverse link Message to Attack--><path codeLine="22" d="M283.35,354.03 C268.28,383.23 246.91,423.13 226,457 C213.16,477.79 197.17,500.47 185.23,516.86 " fill="none" id="Message-backto-Attack" style="stroke:#A80036;stroke-width:1.0;"/><polygon fill="none" points="277.16,350.78,292.49,336.15,289.63,357.14,277.16,350.78" style="stroke:#A80036;stroke-width:1.0;"/><!--MD5=[c41d396b62b5ad58c1ce3add15307eec]
reverse link Message to Presence--><path codeLine="23" d="M309.32,356.1 C315.21,403.9 324.51,479.24 329.15,516.92 " fill="none" id="Message-backto-Presence" style="stroke:#A80036;stroke-width:1.0;"/><polygon fill="none" points="302.34,356.72,306.84,336.02,316.23,355.01,302.34,356.72" style="stroke:#A80036;stroke-width:1.0;"/><!--MD5=[f1f5d65a7fbaaf98dfbf597752affea6]
link Game to Presence--><path codeLine="25" d="M330.74,94.14 C346.48,151.71 370.37,257.62 363,349 C358.3,407.25 345.68,474.52 338.07,511.66 " fill="none" id="Game-to-Presence" style="stroke:#A80036;stroke-width:1.0;"/><polygon fill="#A80036" points="336.98,516.92,342.7213,508.9176,337.9935,512.0238,334.8873,507.296,336.98,516.92" style="stroke:#A80036;stroke-width:1.0;"/><!--MD5=[ee7cb17f2eab134f3549aba255e642d4]
link Attacker to Presence--><path codeLine="26" d="M203.59,457 C229.61,473.82 264.93,496.65 291.94,514.11 " fill="none" id="Attacker-to-Presence" style="stroke:#A80036;stroke-width:1.0;"/><polygon fill="#A80036" points="296.2,516.86,290.8122,508.6155,292.0006,514.1461,286.47,515.3345,296.2,516.86" style="stroke:#A80036;stroke-width:1.0;"/><!--MD5=[ed6f4dfd827fd33e0f5ee6e1d69bc77e]
link Attacker to Attack--><path codeLine="27" d="M168,457 C168,473 168,494.45 168,511.53 " fill="none" id="Attacker-to-Attack" style="stroke:#A80036;stroke-width:1.0;"/><polygon fill="#A80036" points="168,516.68,172,507.68,168,511.68,164,507.68,168,516.68" style="stroke:#A80036;stroke-width:1.0;"/><!--MD5=[9a63cad06178c0c966143eab6a13f347]
link Defender to Attack--><path codeLine="28" d="M75.6,457 C94.03,473.55 118.94,495.93 138.25,513.28 " fill="none" id="Defender-to-Attack" style="stroke:#A80036;stroke-width:1.0;"/><polygon fill="#A80036" points="142.04,516.68,138.0262,507.6861,138.3235,513.3352,132.6745,513.6325,142.04,516.68" style="stroke:#A80036;stroke-width:1.0;"/><!--MD5=[10d6f759ecf7eaed4c882bd8ba85065d]
@startuml
class Entity {
    +tick()
}
abstract class Component {
    +messageQueue
    +tick()
}

class Game {
    +entities
    +messageQueue
    +tick()
}
Component <|- - Attacker
Component <|- - Defender
Game o- - Message
Entity - -> Message
Entity "1" *- - "*" Component
Game "1" *- - "*" Entity
abstract class Message {
}
Message <|- - Attack
Message <|- - Presence

Game - -> Presence 
Attacker - -> Presence 
Attacker - -> Attack 
Defender - -> Attack 
@enduml

PlantUML version 1.2021.8(Sat Jun 26 10:20:59 CEST 2021)
(GPL source distribution)
Java Runtime: OpenJDK Runtime Environment
JVM: OpenJDK 64-Bit Server VM
Default Encoding: UTF-8
Language: es
Country: ES
--></g></svg>