<?xml version="1.0" encoding="UTF-8" standalone="no"?><svg xmlns="http://www.w3.org/2000/svg" xmlns:xlink="http://www.w3.org/1999/xlink" contentScriptType="application/ecmascript" contentStyleType="text/css" height="577px" preserveAspectRatio="none" style="width:397px;height:577px;" version="1.1" viewBox="0 0 397 577" width="397px" zoomAndPan="magnify"><defs><filter height="300%" id="f1jtfks5a84w21" width="300%" x="-1" y="-1"><feGaussianBlur result="blurOut" stdDeviation="2.0"/><feColorMatrix in="blurOut" result="blurOut2" type="matrix" values="0 0 0 0 0 0 0 0 0 0 0 0 0 0 0 0 0 0 .4 0"/><feOffset dx="4.0" dy="4.0" in="blurOut2" result="blurOut3"/><feBlend in="SourceGraphic" in2="blurOut3" mode="normal"/></filter></defs><g><!--class Entity--><rect fill="#FEFECE" filter="url(#f1jtfks5a84w21)" height="60.896" id="Entity" style="stroke: #A80036; stroke-width: 1.5;" width="67" x="206.5" y="155"/><ellipse cx="221.5" cy="171" fill="#ADD1B2" rx="11" ry="11" style="stroke: #A80036; stroke-width: 1.0;"/><path d="M224.4688,176.6406 Q223.8906,176.9375 223.25,177.0781 Q222.6094,177.2344 221.9063,177.2344 Q219.4063,177.2344 218.0781,175.5938 Q216.7656,173.9375 216.7656,170.8125 Q216.7656,167.6875 218.0781,166.0313 Q219.4063,164.375 221.9063,164.375 Q222.6094,164.375 223.25,164.5313 Q223.9063,164.6875 224.4688,164.9844 L224.4688,167.7031 Q223.8438,167.125 223.25,166.8594 Q222.6563,166.5781 222.0313,166.5781 Q220.6875,166.5781 220,167.6563 Q219.3125,168.7188 219.3125,170.8125 Q219.3125,172.9063 220,173.9844 Q220.6875,175.0469 222.0313,175.0469 Q222.6563,175.0469 223.25,174.7813 Q223.8438,174.5 224.4688,173.9219 L224.4688,176.6406 Z "/><text fill="#000000" font-family="sans-serif" font-size="12" lengthAdjust="spacingAndGlyphs" textLength="35" x="235.5" y="175.1807">Entity</text><line style="stroke: #A80036; stroke-width: 1.5;" x1="207.5" x2="272.5" y1="187" y2="187"/><line style="stroke: #A80036; stroke-width: 1.5;" x1="207.5" x2="272.5" y1="195" y2="195"/><ellipse cx="217.5" cy="206.948" fill="#84BE84" rx="3" ry="3" style="stroke: #038048; stroke-width: 1.0;"/><text fill="#000000" font-family="sans-serif" font-size="11" lengthAdjust="spacingAndGlyphs" textLength="27" x="226.5" y="209.2803">tick()</text><!--class Component--><rect fill="#FEFECE" filter="url(#f1jtfks5a84w21)" height="73.792" id="Component" style="stroke: #A80036; stroke-width: 1.5;" width="116" x="116" y="276"/><ellipse cx="136.4" cy="292" fill="#A9DCDF" rx="11" ry="11" style="stroke: #A80036; stroke-width: 1.0;"/><path d="M136.5094,287.3438 L135.3531,292.4219 L137.6813,292.4219 L136.5094,287.3438 Z M135.025,285.1094 L138.0094,285.1094 L141.3688,297.5 L138.9156,297.5 L138.15,294.4375 L134.8688,294.4375 L134.1188,297.5 L131.6813,297.5 L135.025,285.1094 Z "/><text fill="#000000" font-family="sans-serif" font-size="12" font-style="italic" lengthAdjust="spacingAndGlyphs" textLength="72" x="151.6" y="296.1543">Component</text><line style="stroke: #A80036; stroke-width: 1.5;" x1="117" x2="231" y1="308" y2="308"/><ellipse cx="127" cy="319.948" fill="none" rx="3" ry="3" style="stroke: #038048; stroke-width: 1.0;"/><text fill="#000000" font-family="sans-serif" font-size="11" lengthAdjust="spacingAndGlyphs" textLength="90" x="136" y="322.2803">messageQueue</text><line style="stroke: #A80036; stroke-width: 1.5;" x1="117" x2="231" y1="328.896" y2="328.896"/><ellipse cx="127" cy="340.844" fill="#84BE84" rx="3" ry="3" style="stroke: #038048; stroke-width: 1.0;"/><text fill="#000000" font-family="sans-serif" font-size="11" lengthAdjust="spacingAndGlyphs" textLength="27" x="136" y="343.1763">tick()</text><!--class Game--><rect fill="#FEFECE" filter="url(#f1jtfks5a84w21)" height="86.688" id="Game" style="stroke: #A80036; stroke-width: 1.5;" width="116" x="269" y="8"/><ellipse cx="305.6" cy="24" fill="#ADD1B2" rx="11" ry="11" style="stroke: #A80036; stroke-width: 1.0;"/><path d="M308.5688,29.6406 Q307.9906,29.9375 307.35,30.0781 Q306.7094,30.2344 306.0063,30.2344 Q303.5063,30.2344 302.1781,28.5938 Q300.8656,26.9375 300.8656,23.8125 Q300.8656,20.6875 302.1781,19.0313 Q303.5063,17.375 306.0063,17.375 Q306.7094,17.375 307.35,17.5313 Q308.0063,17.6875 308.5688,17.9844 L308.5688,20.7031 Q307.9438,20.125 307.35,19.8594 Q306.7563,19.5781 306.1313,19.5781 Q304.7875,19.5781 304.1,20.6563 Q303.4125,21.7188 303.4125,23.8125 Q303.4125,25.9063 304.1,26.9844 Q304.7875,28.0469 306.1313,28.0469 Q306.7563,28.0469 307.35,27.7813 Q307.9438,27.5 308.5688,26.9219 L308.5688,29.6406 Z "/><text fill="#000000" font-family="sans-serif" font-size="12" lengthAdjust="spacingAndGlyphs" textLength="36" x="324.4" y="28.1807">Game</text><line style="stroke: #A80036; stroke-width: 1.5;" x1="270" x2="384" y1="40" y2="40"/><ellipse cx="280" cy="51.948" fill="none" rx="3" ry="3" style="stroke: #038048; stroke-width: 1.0;"/><text fill="#000000" font-family="sans-serif" font-size="11" lengthAdjust="spacingAndGlyphs" textLength="42" x="289" y="54.2803">entities</text><ellipse cx="280" cy="64.844" fill="none" rx="3" ry="3" style="stroke: #038048; stroke-width: 1.0;"/><text fill="#000000" font-family="sans-serif" font-size="11" lengthAdjust="spacingAndGlyphs" textLength="90" x="289" y="67.1763">messageQueue</text><line style="stroke: #A80036; stroke-width: 1.5;" x1="270" x2="384" y1="73.792" y2="73.792"/><ellipse cx="280" cy="85.74" fill="#84BE84" rx="3" ry="3" style="stroke: #038048; stroke-width: 1.0;"/><text fill="#000000" font-family="sans-serif" font-size="11" lengthAdjust="spacingAndGlyphs" textLength="27" x="289" y="88.0723">tick()</text><!--class Attacker--><rect fill="#FEFECE" filter="url(#f1jtfks5a84w21)" height="48" id="Attacker" style="stroke: #A80036; stroke-width: 1.5;" width="85" x="131.5" y="410"/><ellipse cx="146.5" cy="426" fill="#ADD1B2" rx="11" ry="11" style="stroke: #A80036; stroke-width: 1.0;"/><path d="M149.4688,431.6406 Q148.8906,431.9375 148.25,432.0781 Q147.6094,432.2344 146.9063,432.2344 Q144.4063,432.2344 143.0781,430.5938 Q141.7656,428.9375 141.7656,425.8125 Q141.7656,422.6875 143.0781,421.0313 Q144.4063,419.375 146.9063,419.375 Q147.6094,419.375 148.25,419.5313 Q148.9063,419.6875 149.4688,419.9844 L149.4688,422.7031 Q148.8438,422.125 148.25,421.8594 Q147.6563,421.5781 147.0313,421.5781 Q145.6875,421.5781 145,422.6563 Q144.3125,423.7188 144.3125,425.8125 Q144.3125,427.9063 145,428.9844 Q145.6875,430.0469 147.0313,430.0469 Q147.6563,430.0469 148.25,429.7813 Q148.8438,429.5 149.4688,428.9219 L149.4688,431.6406 Z "/><text fill="#000000" font-family="sans-serif" font-size="12" lengthAdjust="spacingAndGlyphs" textLength="53" x="160.5" y="430.1807">Attacker</text><line style="stroke: #A80036; stroke-width: 1.5;" x1="132.5" x2="215.5" y1="442" y2="442"/><line style="stroke: #A80036; stroke-width: 1.5;" x1="132.5" x2="215.5" y1="450" y2="450"/><!--class Defender--><rect fill="#FEFECE" filter="url(#f1jtfks5a84w21)" height="48" id="Defender" style="stroke: #A80036; stroke-width: 1.5;" width="90" x="6" y="410"/><ellipse cx="21" cy="426" fill="#ADD1B2" rx="11" ry="11" style="stroke: #A80036; stroke-width: 1.0;"/><path d="M23.9688,431.6406 Q23.3906,431.9375 22.75,432.0781 Q22.1094,432.2344 21.4063,432.2344 Q18.9063,432.2344 17.5781,430.5938 Q16.2656,428.9375 16.2656,425.8125 Q16.2656,422.6875 17.5781,421.0313 Q18.9063,419.375 21.4063,419.375 Q22.1094,419.375 22.75,419.5313 Q23.4063,419.6875 23.9688,419.9844 L23.9688,422.7031 Q23.3438,422.125 22.75,421.8594 Q22.1563,421.5781 21.5313,421.5781 Q20.1875,421.5781 19.5,422.6563 Q18.8125,423.7188 18.8125,425.8125 Q18.8125,427.9063 19.5,428.9844 Q20.1875,430.0469 21.5313,430.0469 Q22.1563,430.0469 22.75,429.7813 Q23.3438,429.5 23.9688,428.9219 L23.9688,431.6406 Z "/><text fill="#000000" font-family="sans-serif" font-size="12" lengthAdjust="spacingAndGlyphs" textLength="58" x="35" y="430.1807">Defender</text><line style="stroke: #A80036; stroke-width: 1.5;" x1="7" x2="95" y1="442" y2="442"/><line style="stroke: #A80036; stroke-width: 1.5;" x1="7" x2="95" y1="450" y2="450"/><!--class Message--><rect fill="#FEFECE" filter="url(#f1jtfks5a84w21)" height="48" id="Message" style="stroke: #A80036; stroke-width: 1.5;" width="86" x="270" y="289"/><ellipse cx="285" cy="305" fill="#A9DCDF" rx="11" ry="11" style="stroke: #A80036; stroke-width: 1.0;"/><path d="M285.1094,300.3438 L283.9531,305.4219 L286.2813,305.4219 L285.1094,300.3438 Z M283.625,298.1094 L286.6094,298.1094 L289.9688,310.5 L287.5156,310.5 L286.75,307.4375 L283.4688,307.4375 L282.7188,310.5 L280.2813,310.5 L283.625,298.1094 Z "/><text fill="#000000" font-family="sans-serif" font-size="12" font-style="italic" lengthAdjust="spacingAndGlyphs" textLength="54" x="299" y="309.1543">Message</text><line style="stroke: #A80036; stroke-width: 1.5;" x1="271" x2="355" y1="321" y2="321"/><line style="stroke: #A80036; stroke-width: 1.5;" x1="271" x2="355" y1="329" y2="329"/><!--class Attack--><rect fill="#FEFECE" filter="url(#f1jtfks5a84w21)" height="48" id="Attack" style="stroke: #A80036; stroke-width: 1.5;" width="72" x="138" y="518"/><ellipse cx="153" cy="534" fill="#ADD1B2" rx="11" ry="11" style="stroke: #A80036; stroke-width: 1.0;"/><path d="M155.9688,539.6406 Q155.3906,539.9375 154.75,540.0781 Q154.1094,540.2344 153.4063,540.2344 Q150.9063,540.2344 149.5781,538.5938 Q148.2656,536.9375 148.2656,533.8125 Q148.2656,530.6875 149.5781,529.0313 Q150.9063,527.375 153.4063,527.375 Q154.1094,527.375 154.75,527.5313 Q155.4063,527.6875 155.9688,527.9844 L155.9688,530.7031 Q155.3438,530.125 154.75,529.8594 Q154.1563,529.5781 153.5313,529.5781 Q152.1875,529.5781 151.5,530.6563 Q150.8125,531.7188 150.8125,533.8125 Q150.8125,535.9063 151.5,536.9844 Q152.1875,538.0469 153.5313,538.0469 Q154.1563,538.0469 154.75,537.7813 Q155.3438,537.5 155.9688,536.9219 L155.9688,539.6406 Z "/><text fill="#000000" font-family="sans-serif" font-size="12" lengthAdjust="spacingAndGlyphs" textLength="40" x="167" y="538.1807">Attack</text><line style="stroke: #A80036; stroke-width: 1.5;" x1="139" x2="209" y1="550" y2="550"/><line style="stroke: #A80036; stroke-width: 1.5;" x1="139" x2="209" y1="558" y2="558"/><!--class Presence--><rect fill="#FEFECE" filter="url(#f1jtfks5a84w21)" height="48" id="Presence" style="stroke: #A80036; stroke-width: 1.5;" width="91" x="295.5" y="518"/><ellipse cx="310.5" cy="534" fill="#ADD1B2" rx="11" ry="11" style="stroke: #A80036; stroke-width: 1.0;"/><path d="M313.4688,539.6406 Q312.8906,539.9375 312.25,540.0781 Q311.6094,540.2344 310.9063,540.2344 Q308.4063,540.2344 307.0781,538.5938 Q305.7656,536.9375 305.7656,533.8125 Q305.7656,530.6875 307.0781,529.0313 Q308.4063,527.375 310.9063,527.375 Q311.6094,527.375 312.25,527.5313 Q312.9063,527.6875 313.4688,527.9844 L313.4688,530.7031 Q312.8438,530.125 312.25,529.8594 Q311.6563,529.5781 311.0313,529.5781 Q309.6875,529.5781 309,530.6563 Q308.3125,531.7188 308.3125,533.8125 Q308.3125,535.9063 309,536.9844 Q309.6875,538.0469 311.0313,538.0469 Q311.6563,538.0469 312.25,537.7813 Q312.8438,537.5 313.4688,536.9219 L313.4688,539.6406 Z "/><text fill="#000000" font-family="sans-serif" font-size="12" lengthAdjust="spacingAndGlyphs" textLength="59" x="324.5" y="538.1807">Presence</text><line style="stroke: #A80036; stroke-width: 1.5;" x1="296.5" x2="385.5" y1="550" y2="550"/><line style="stroke: #A80036; stroke-width: 1.5;" x1="296.5" x2="385.5" y1="558" y2="558"/><!--link Component to Attacker--><path d="M174,370.07 C174,384.12 174,398.43 174,409.85 " fill="none" id="Component-Attacker" style="stroke: #A80036; stroke-width: 1.0;"/><polygon fill="none" points="167,370.03,174,350.03,181,370.03,167,370.03" style="stroke: #A80036; stroke-width: 1.0;"/><!--link Component to Defender--><path d="M122.35,363.97 C105.88,379.9 88.44,396.77 74.93,409.85 " fill="none" id="Component-Defender" style="stroke: #A80036; stroke-width: 1.0;"/><polygon fill="none" points="117.52,358.9,136.76,350.03,127.26,368.96,117.52,358.9" style="stroke: #A80036; stroke-width: 1.0;"/><!--link Game to Message--><path d="M323.99,108.36 C320.95,164.56 316.43,248.51 314.25,288.8 " fill="none" id="Game-Message" style="stroke: #A80036; stroke-width: 1.0;"/><polygon fill="#FFFFFF" points="324.7,95.06,320.3828,100.836,324.0541,107.0426,328.3712,101.2666,324.7,95.06" style="stroke: #A80036; stroke-width: 1.0;"/><!--link Entity to Message--><path d="M257.3,216.24 C269.29,236.86 285.16,264.13 296.88,284.29 " fill="none" id="Entity-Message" style="stroke: #A80036; stroke-width: 1.0;"/><polygon fill="#A80036" points="299.47,288.74,298.4084,278.9485,296.9586,284.4165,291.4907,282.9667,299.47,288.74" style="stroke: #A80036; stroke-width: 1.0;"/><!--link Entity to Component--><path d="M218.12,228.11 C210.01,243.52 200.9,260.86 193.06,275.76 " fill="none" id="Entity-Component" style="stroke: #A80036; stroke-width: 1.0;"/><polygon fill="#A80036" points="224.36,216.24,218.0266,219.6878,218.7732,226.8602,225.1067,223.4123,224.36,216.24" style="stroke: #A80036; stroke-width: 1.0;"/><text fill="#000000" font-family="sans-serif" font-size="13" lengthAdjust="spacingAndGlyphs" textLength="8" x="212.4934" y="235.9518">1</text><text fill="#000000" font-family="sans-serif" font-size="13" lengthAdjust="spacingAndGlyphs" textLength="7" x="188.8316" y="264.9801">*</text><!--link Game to Entity--><path d="M291.38,106.55 C280.51,123.04 268.97,140.55 259.58,154.79 " fill="none" id="Game-Entity" style="stroke: #A80036; stroke-width: 1.0;"/><polygon fill="#A80036" points="298.75,95.36,292.1081,98.1679,292.1454,105.3789,298.7874,102.571,298.75,95.36" style="stroke: #A80036; stroke-width: 1.0;"/><text fill="#000000" font-family="sans-serif" font-size="13" lengthAdjust="spacingAndGlyphs" textLength="8" x="286.2148" y="114.7708">1</text><text fill="#000000" font-family="sans-serif" font-size="13" lengthAdjust="spacingAndGlyphs" textLength="7" x="255.8965" y="144.0942">*</text><!--link Message to Attack--><path d="M292.18,355.11 C276.97,384.35 255.34,424.26 234,458 C220.79,478.89 204.24,501.56 191.87,517.93 " fill="none" id="Message-Attack" style="stroke: #A80036; stroke-width: 1.0;"/><polygon fill="none" points="286.03,351.78,301.4,337.2,298.48,358.19,286.03,351.78" style="stroke: #A80036; stroke-width: 1.0;"/><!--link Message to Presence--><path d="M318.32,357.1 C324.21,404.9 333.51,480.24 338.15,517.92 " fill="none" id="Message-Presence" style="stroke: #A80036; stroke-width: 1.0;"/><polygon fill="none" points="311.34,357.72,315.84,337.02,325.23,356.01,311.34,357.72" style="stroke: #A80036; stroke-width: 1.0;"/><!--link Game to Presence--><path d="M340.35,95.13 C356.84,152.68 381.84,258.57 374,350 C369,408.32 355.56,475.57 347.46,512.69 " fill="none" id="Game-Presence" style="stroke: #A80036; stroke-width: 1.0;"/><polygon fill="#A80036" points="346.3,517.94,352.1399,510.0093,347.374,513.0567,344.3266,508.2909,346.3,517.94" style="stroke: #A80036; stroke-width: 1.0;"/><!--link Attacker to Presence--><path d="M210.24,458 C236.73,474.82 272.7,497.65 300.21,515.11 " fill="none" id="Attacker-Presence" style="stroke: #A80036; stroke-width: 1.0;"/><polygon fill="#A80036" points="304.55,517.86,299.0776,509.6714,300.3229,515.1895,294.8048,516.4348,304.55,517.86" style="stroke: #A80036; stroke-width: 1.0;"/><!--link Attacker to Attack--><path d="M174,458 C174,474 174,495.45 174,512.53 " fill="none" id="Attacker-Attack" style="stroke: #A80036; stroke-width: 1.0;"/><polygon fill="#A80036" points="174,517.68,178,508.68,174,512.68,170,508.68,174,517.68" style="stroke: #A80036; stroke-width: 1.0;"/><!--link Defender to Attack--><path d="M77.69,458 C96.9,474.55 122.86,496.93 142.99,514.28 " fill="none" id="Defender-Attack" style="stroke: #A80036; stroke-width: 1.0;"/><polygon fill="#A80036" points="146.94,517.68,142.7264,508.778,143.1498,514.419,137.5088,514.8423,146.94,517.68" style="stroke: #A80036; stroke-width: 1.0;"/><!--
@startuml
class Entity {
    +tick()
}
abstract class Component {
    +messageQueue
    +tick()
}

class Game {
    +entities
    +messageQueue
    +tick()
}
Component <|- - Attacker
Component <|- - Defender
Game o- - Message
Entity - -> Message
Entity "1" *- - "*" Component
Game "1" *- - "*" Entity
abstract class Message {
}
Message <|- - Attack
Message <|- - Presence

Game - -> Presence 
Attacker - -> Presence 
Attacker - -> Attack 
Defender - -> Attack 
@enduml

PlantUML version 1.2019.01(Sat Feb 09 16:32:04 CET 2019)
(LGPL source distribution)
Java Runtime: OpenJDK Runtime Environment
JVM: OpenJDK 64-Bit Server VM
Java Version: 1.8.0_265-b01
Operating System: Linux
OS Version: 5.8.12-200.fc32.x86_64
Default Encoding: UTF-8
Language: es
Country: ES
--></g></svg>