<?xml version="1.0" encoding="UTF-8" standalone="no"?><svg xmlns="http://www.w3.org/2000/svg" xmlns:xlink="http://www.w3.org/1999/xlink" contentScriptType="application/ecmascript" contentStyleType="text/css" height="343px" preserveAspectRatio="none" style="width:141px;height:343px;" version="1.1" viewBox="0 0 141 343" width="141px" zoomAndPan="magnify"><defs><filter height="300%" id="f11e0deik3tf66" width="300%" x="-1" y="-1"><feGaussianBlur result="blurOut" stdDeviation="2.0"/><feColorMatrix in="blurOut" result="blurOut2" type="matrix" values="0 0 0 0 0 0 0 0 0 0 0 0 0 0 0 0 0 0 .4 0"/><feOffset dx="4.0" dy="4.0" in="blurOut2" result="blurOut3"/><feBlend in="SourceGraphic" in2="blurOut3" mode="normal"/></filter></defs><g><!--class Enemy--><rect fill="#FEFECE" filter="url(#f11e0deik3tf66)" height="60.896" id="Enemy" style="stroke: #A80036; stroke-width: 1.5;" width="115" x="10.5" y="8"/><ellipse cx="44.4" cy="24" fill="#ADD1B2" rx="11" ry="11" style="stroke: #A80036; stroke-width: 1.0;"/><path d="M47.3688,29.6406 Q46.7906,29.9375 46.15,30.0781 Q45.5094,30.2344 44.8063,30.2344 Q42.3063,30.2344 40.9781,28.5938 Q39.6656,26.9375 39.6656,23.8125 Q39.6656,20.6875 40.9781,19.0313 Q42.3063,17.375 44.8063,17.375 Q45.5094,17.375 46.15,17.5313 Q46.8063,17.6875 47.3688,17.9844 L47.3688,20.7031 Q46.7438,20.125 46.15,19.8594 Q45.5563,19.5781 44.9313,19.5781 Q43.5875,19.5781 42.9,20.6563 Q42.2125,21.7188 42.2125,23.8125 Q42.2125,25.9063 42.9,26.9844 Q43.5875,28.0469 44.9313,28.0469 Q45.5563,28.0469 46.15,27.7813 Q46.7438,27.5 47.3688,26.9219 L47.3688,29.6406 Z "/><text fill="#000000" font-family="sans-serif" font-size="12" lengthAdjust="spacingAndGlyphs" textLength="41" x="62.6" y="28.1807">Enemy</text><line style="stroke: #A80036; stroke-width: 1.5;" x1="11.5" x2="124.5" y1="40" y2="40"/><rect fill="none" height="6" style="stroke: #C82930; stroke-width: 1.0;" width="6" x="18.5" y="48.948"/><text fill="#000000" font-family="sans-serif" font-size="11" lengthAdjust="spacingAndGlyphs" textLength="89" x="30.5" y="54.2803">Player objective</text><line style="stroke: #A80036; stroke-width: 1.5;" x1="11.5" x2="124.5" y1="60.896" y2="60.896"/><!--class Player--><rect fill="#FEFECE" filter="url(#f11e0deik3tf66)" height="60.896" id="Player" style="stroke: #A80036; stroke-width: 1.5;" width="124" x="6" y="146"/><ellipse cx="45.3" cy="162" fill="#ADD1B2" rx="11" ry="11" style="stroke: #A80036; stroke-width: 1.0;"/><path d="M48.2688,167.6406 Q47.6906,167.9375 47.05,168.0781 Q46.4094,168.2344 45.7063,168.2344 Q43.2063,168.2344 41.8781,166.5938 Q40.5656,164.9375 40.5656,161.8125 Q40.5656,158.6875 41.8781,157.0313 Q43.2063,155.375 45.7063,155.375 Q46.4094,155.375 47.05,155.5313 Q47.7063,155.6875 48.2688,155.9844 L48.2688,158.7031 Q47.6438,158.125 47.05,157.8594 Q46.4563,157.5781 45.8313,157.5781 Q44.4875,157.5781 43.8,158.6563 Q43.1125,159.7188 43.1125,161.8125 Q43.1125,163.9063 43.8,164.9844 Q44.4875,166.0469 45.8313,166.0469 Q46.4563,166.0469 47.05,165.7813 Q47.6438,165.5 48.2688,164.9219 L48.2688,167.6406 Z "/><text fill="#000000" font-family="sans-serif" font-size="12" lengthAdjust="spacingAndGlyphs" textLength="38" x="64.7" y="166.1807">Player</text><line style="stroke: #A80036; stroke-width: 1.5;" x1="7" x2="129" y1="178" y2="178"/><rect fill="none" height="6" style="stroke: #C82930; stroke-width: 1.0;" width="6" x="14" y="186.948"/><text fill="#000000" font-family="sans-serif" font-size="11" lengthAdjust="spacingAndGlyphs" textLength="98" x="26" y="192.2803">Weapon objective</text><line style="stroke: #A80036; stroke-width: 1.5;" x1="7" x2="129" y1="198.896" y2="198.896"/><!--class Weapon--><rect fill="#FEFECE" filter="url(#f11e0deik3tf66)" height="48" id="Weapon" style="stroke: #A80036; stroke-width: 1.5;" width="83" x="26.5" y="284"/><ellipse cx="41.5" cy="300" fill="#ADD1B2" rx="11" ry="11" style="stroke: #A80036; stroke-width: 1.0;"/><path d="M44.4688,305.6406 Q43.8906,305.9375 43.25,306.0781 Q42.6094,306.2344 41.9063,306.2344 Q39.4063,306.2344 38.0781,304.5938 Q36.7656,302.9375 36.7656,299.8125 Q36.7656,296.6875 38.0781,295.0313 Q39.4063,293.375 41.9063,293.375 Q42.6094,293.375 43.25,293.5313 Q43.9063,293.6875 44.4688,293.9844 L44.4688,296.7031 Q43.8438,296.125 43.25,295.8594 Q42.6563,295.5781 42.0313,295.5781 Q40.6875,295.5781 40,296.6563 Q39.3125,297.7188 39.3125,299.8125 Q39.3125,301.9063 40,302.9844 Q40.6875,304.0469 42.0313,304.0469 Q42.6563,304.0469 43.25,303.7813 Q43.8438,303.5 44.4688,302.9219 L44.4688,305.6406 Z "/><text fill="#000000" font-family="sans-serif" font-size="12" lengthAdjust="spacingAndGlyphs" textLength="51" x="55.5" y="304.1807">Weapon</text><line style="stroke: #A80036; stroke-width: 1.5;" x1="27.5" x2="108.5" y1="316" y2="316"/><line style="stroke: #A80036; stroke-width: 1.5;" x1="27.5" x2="108.5" y1="324" y2="324"/><!--link Player to Weapon--><path d="M68,207.21 C68,228.69 68,257.53 68,278.68 " fill="none" id="Player-Weapon" style="stroke: #A80036; stroke-width: 1.0;"/><polygon fill="#A80036" points="68,283.88,72,274.88,68,278.88,64,274.88,68,283.88" style="stroke: #A80036; stroke-width: 1.0;"/><text fill="#000000" font-family="sans-serif" font-size="13" lengthAdjust="spacingAndGlyphs" textLength="23" x="69" y="250.1494">uso</text><!--link Enemy to Player--><path d="M68,69.01 C68,89.98 68,118.24 68,140.38 " fill="none" id="Enemy-Player" style="stroke: #A80036; stroke-width: 1.0;"/><polygon fill="#A80036" points="68,145.58,72,136.58,68,140.58,64,136.58,68,145.58" style="stroke: #A80036; stroke-width: 1.0;"/><text fill="#000000" font-family="sans-serif" font-size="13" lengthAdjust="spacingAndGlyphs" textLength="23" x="69" y="112.1494">uso</text><!--
@startuml
class Enemy {
    -Player objective
}
class Player {
    -Weapon objective
}
Player - -> Weapon : uso
Enemy - -> Player : uso
@enduml

PlantUML version 1.2019.01(Sat Feb 09 16:32:04 CET 2019)
(LGPL source distribution)
Java Runtime: OpenJDK Runtime Environment
JVM: OpenJDK 64-Bit Server VM
Java Version: 1.8.0_265-b01
Operating System: Linux
OS Version: 5.8.12-200.fc32.x86_64
Default Encoding: UTF-8
Language: es
Country: ES
--></g></svg>