<?xml version="1.0" encoding="UTF-8" standalone="no"?><svg xmlns="http://www.w3.org/2000/svg" xmlns:xlink="http://www.w3.org/1999/xlink" contentStyleType="text/css" height="350px" preserveAspectRatio="none" style="width:153px;height:350px;background:#FFFFFF;" version="1.1" viewBox="0 0 153 350" width="153px" zoomAndPan="magnify"><defs/><g><!--class Enemy--><g id="elem_Enemy"><rect codeLine="1" fill="#F1F1F1" height="65.6094" id="Enemy" rx="2.5" ry="2.5" style="stroke:#181818;stroke-width:0.5;" width="126" x="13.5" y="7"/><ellipse cx="51.45" cy="23" fill="#ADD1B2" rx="11" ry="11" style="stroke:#181818;stroke-width:1.0;"/><path d="M54.2156,18.875 Q54.3719,18.6563 54.5594,18.5469 Q54.7469,18.4375 54.9656,18.4375 Q55.3406,18.4375 55.575,18.7031 Q55.8094,18.9531 55.8094,19.5625 L55.8094,21.0156 Q55.8094,21.625 55.575,21.8906 Q55.3406,22.1563 54.9656,22.1563 Q54.6219,22.1563 54.4188,21.9531 Q54.2156,21.7656 54.1063,21.25 Q54.0594,20.8906 53.8719,20.7031 Q53.5438,20.3281 52.9344,20.1094 Q52.325,19.8906 51.7,19.8906 Q50.9344,19.8906 50.2938,20.2188 Q49.6688,20.5469 49.1688,21.2969 Q48.6844,22.0469 48.6844,23.0781 L48.6844,24.1719 Q48.6844,25.4063 49.575,26.2344 Q50.4656,27.0469 52.0594,27.0469 Q52.9969,27.0469 53.6531,26.7969 Q54.0438,26.6406 54.4656,26.2031 Q54.7313,25.9375 54.8719,25.8594 Q55.0281,25.7813 55.2313,25.7813 Q55.5594,25.7813 55.8094,26.0469 Q56.075,26.2969 56.075,26.6406 Q56.075,26.9844 55.7313,27.3906 Q55.2313,27.9688 54.4344,28.2969 Q53.3563,28.75 52.0594,28.75 Q50.5438,28.75 49.3406,28.125 Q48.3563,27.625 47.6688,26.5625 Q46.9813,25.4844 46.9813,24.2031 L46.9813,23.0469 Q46.9813,21.7188 47.5906,20.5781 Q48.2156,19.4219 49.3094,18.8125 Q50.4031,18.1875 51.6375,18.1875 Q52.3719,18.1875 53.0125,18.3594 Q53.6688,18.5156 54.2156,18.875 Z " fill="#000000"/><text fill="#000000" font-family="sans-serif" font-size="14" lengthAdjust="spacing" textLength="43" x="70.55" y="28.7285">Enemy</text><line style="stroke:#181818;stroke-width:0.5;" x1="14.5" x2="138.5" y1="39" y2="39"/><rect fill="none" height="6" style="stroke:#C82930;stroke-width:1.0;" width="6" x="21.5" y="50.3047"/><text fill="#000000" font-family="sans-serif" font-size="14" lengthAdjust="spacing" textLength="100" x="33.5" y="57.5332">Player objective</text><line style="stroke:#181818;stroke-width:0.5;" x1="14.5" x2="138.5" y1="64.6094" y2="64.6094"/></g><!--class Player--><g id="elem_Player"><rect codeLine="4" fill="#F1F1F1" height="65.6094" id="Player" rx="2.5" ry="2.5" style="stroke:#181818;stroke-width:0.5;" width="139" x="7" y="151"/><ellipse cx="52.25" cy="167" fill="#ADD1B2" rx="11" ry="11" style="stroke:#181818;stroke-width:1.0;"/><path d="M55.0156,162.875 Q55.1719,162.6563 55.3594,162.5469 Q55.5469,162.4375 55.7656,162.4375 Q56.1406,162.4375 56.375,162.7031 Q56.6094,162.9531 56.6094,163.5625 L56.6094,165.0156 Q56.6094,165.625 56.375,165.8906 Q56.1406,166.1563 55.7656,166.1563 Q55.4219,166.1563 55.2188,165.9531 Q55.0156,165.7656 54.9063,165.25 Q54.8594,164.8906 54.6719,164.7031 Q54.3438,164.3281 53.7344,164.1094 Q53.125,163.8906 52.5,163.8906 Q51.7344,163.8906 51.0938,164.2188 Q50.4688,164.5469 49.9688,165.2969 Q49.4844,166.0469 49.4844,167.0781 L49.4844,168.1719 Q49.4844,169.4063 50.375,170.2344 Q51.2656,171.0469 52.8594,171.0469 Q53.7969,171.0469 54.4531,170.7969 Q54.8438,170.6406 55.2656,170.2031 Q55.5313,169.9375 55.6719,169.8594 Q55.8281,169.7813 56.0313,169.7813 Q56.3594,169.7813 56.6094,170.0469 Q56.875,170.2969 56.875,170.6406 Q56.875,170.9844 56.5313,171.3906 Q56.0313,171.9688 55.2344,172.2969 Q54.1563,172.75 52.8594,172.75 Q51.3438,172.75 50.1406,172.125 Q49.1563,171.625 48.4688,170.5625 Q47.7813,169.4844 47.7813,168.2031 L47.7813,167.0469 Q47.7813,165.7188 48.3906,164.5781 Q49.0156,163.4219 50.1094,162.8125 Q51.2031,162.1875 52.4375,162.1875 Q53.1719,162.1875 53.8125,162.3594 Q54.4688,162.5156 55.0156,162.875 Z " fill="#000000"/><text fill="#000000" font-family="sans-serif" font-size="14" lengthAdjust="spacing" textLength="40" x="72.75" y="172.7285">Player</text><line style="stroke:#181818;stroke-width:0.5;" x1="8" x2="145" y1="183" y2="183"/><rect fill="none" height="6" style="stroke:#C82930;stroke-width:1.0;" width="6" x="15" y="194.3047"/><text fill="#000000" font-family="sans-serif" font-size="14" lengthAdjust="spacing" textLength="113" x="27" y="201.5332">Weapon objective</text><line style="stroke:#181818;stroke-width:0.5;" x1="8" x2="145" y1="208.6094" y2="208.6094"/></g><!--class Weapon--><g id="elem_Weapon"><rect fill="#F1F1F1" height="48" id="Weapon" rx="2.5" ry="2.5" style="stroke:#181818;stroke-width:0.5;" width="85" x="34" y="295"/><ellipse cx="49" cy="311" fill="#ADD1B2" rx="11" ry="11" style="stroke:#181818;stroke-width:1.0;"/><path d="M51.7656,306.875 Q51.9219,306.6563 52.1094,306.5469 Q52.2969,306.4375 52.5156,306.4375 Q52.8906,306.4375 53.125,306.7031 Q53.3594,306.9531 53.3594,307.5625 L53.3594,309.0156 Q53.3594,309.625 53.125,309.8906 Q52.8906,310.1563 52.5156,310.1563 Q52.1719,310.1563 51.9688,309.9531 Q51.7656,309.7656 51.6563,309.25 Q51.6094,308.8906 51.4219,308.7031 Q51.0938,308.3281 50.4844,308.1094 Q49.875,307.8906 49.25,307.8906 Q48.4844,307.8906 47.8438,308.2188 Q47.2188,308.5469 46.7188,309.2969 Q46.2344,310.0469 46.2344,311.0781 L46.2344,312.1719 Q46.2344,313.4063 47.125,314.2344 Q48.0156,315.0469 49.6094,315.0469 Q50.5469,315.0469 51.2031,314.7969 Q51.5938,314.6406 52.0156,314.2031 Q52.2813,313.9375 52.4219,313.8594 Q52.5781,313.7813 52.7813,313.7813 Q53.1094,313.7813 53.3594,314.0469 Q53.625,314.2969 53.625,314.6406 Q53.625,314.9844 53.2813,315.3906 Q52.7813,315.9688 51.9844,316.2969 Q50.9063,316.75 49.6094,316.75 Q48.0938,316.75 46.8906,316.125 Q45.9063,315.625 45.2188,314.5625 Q44.5313,313.4844 44.5313,312.2031 L44.5313,311.0469 Q44.5313,309.7188 45.1406,308.5781 Q45.7656,307.4219 46.8594,306.8125 Q47.9531,306.1875 49.1875,306.1875 Q49.9219,306.1875 50.5625,306.3594 Q51.2188,306.5156 51.7656,306.875 Z " fill="#000000"/><text fill="#000000" font-family="sans-serif" font-size="14" lengthAdjust="spacing" textLength="53" x="63" y="316.7285">Weapon</text><line style="stroke:#181818;stroke-width:0.5;" x1="35" x2="118" y1="327" y2="327"/><line style="stroke:#181818;stroke-width:0.5;" x1="35" x2="118" y1="335" y2="335"/></g><!--link Player to Weapon--><g id="link_Player_Weapon"><path codeLine="7" d="M76.5,217.2 C76.5,239.31 76.5,268.39 76.5,289.63 " fill="none" id="Player-to-Weapon" style="stroke:#181818;stroke-width:1.0;"/><polygon fill="#181818" points="76.5,294.85,80.5,285.85,76.5,289.85,72.5,285.85,76.5,294.85" style="stroke:#181818;stroke-width:1.0;"/><text fill="#000000" font-family="sans-serif" font-size="13" lengthAdjust="spacing" textLength="21" x="77.5" y="261.4951">uso</text></g><!--link Enemy to Player--><g id="link_Enemy_Player"><path codeLine="8" d="M76.5,73.22 C76.5,94.83 76.5,123.34 76.5,145.9 " fill="none" id="Enemy-to-Player" style="stroke:#181818;stroke-width:1.0;"/><polygon fill="#181818" points="76.5,150.91,80.5,141.91,76.5,145.91,72.5,141.91,76.5,150.91" style="stroke:#181818;stroke-width:1.0;"/><text fill="#000000" font-family="sans-serif" font-size="13" lengthAdjust="spacing" textLength="21" x="77.5" y="117.4951">uso</text></g><!--SRC=[Iyv9B2vMSCrBpQrKgEPI00BTW9p4ojGYXVoahDJaaiooLAvQhcImAgW4L5buQc91VXwACgW2NLqx1QYibK9fSJuNn7YGC5G5M1W0]--></g></svg>