<?xml version="1.0" encoding="UTF-8" standalone="no"?><svg xmlns="http://www.w3.org/2000/svg" xmlns:xlink="http://www.w3.org/1999/xlink" contentScriptType="application/ecmascript" contentStyleType="text/css" height="345px" preserveAspectRatio="none" style="width:140px;height:345px;background:#FFFFFF;" version="1.1" viewBox="0 0 140 345" width="140px" zoomAndPan="magnify"><defs><filter height="300%" id="f11e0deik3tf66" width="300%" x="-1" y="-1"><feGaussianBlur result="blurOut" stdDeviation="2.0"/><feColorMatrix in="blurOut" result="blurOut2" type="matrix" values="0 0 0 0 0 0 0 0 0 0 0 0 0 0 0 0 0 0 .4 0"/><feOffset dx="4.0" dy="4.0" in="blurOut2" result="blurOut3"/><feBlend in="SourceGraphic" in2="blurOut3" mode="normal"/></filter></defs><g><!--MD5=[80c532e980642ebbe770e7ed91e479d0]
class Enemy--><rect codeLine="1" fill="#FEFECE" filter="url(#f11e0deik3tf66)" height="60.9551" id="Enemy" style="stroke:#A80036;stroke-width:1.5;" width="109" x="12" y="7"/><ellipse cx="44.55" cy="23" fill="#ADD1B2" rx="11" ry="11" style="stroke:#A80036;stroke-width:1.0;"/><path d="M47.0231,29.1431 Q46.4421,29.4419 45.8029,29.5913 Q45.1638,29.7407 44.4582,29.7407 Q41.9514,29.7407 40.6315,28.0889 Q39.3117,26.437 39.3117,23.3159 Q39.3117,20.1865 40.6315,18.5347 Q41.9514,16.8828 44.4582,16.8828 Q45.1638,16.8828 45.8112,17.0322 Q46.4587,17.1816 47.0231,17.4805 L47.0231,20.2031 Q46.3923,19.6221 45.7988,19.3523 Q45.2053,19.0825 44.5744,19.0825 Q43.2297,19.0825 42.5449,20.1492 Q41.8601,21.2158 41.8601,23.3159 Q41.8601,25.4077 42.5449,26.4744 Q43.2297,27.541 44.5744,27.541 Q45.2053,27.541 45.7988,27.2712 Q46.3923,27.0015 47.0231,26.4204 Z " fill="#000000"/><text fill="#000000" font-family="sans-serif" font-size="12" lengthAdjust="spacing" textLength="38" x="62.45" y="27.5352">Enemy</text><line style="stroke:#A80036;stroke-width:1.5;" x1="13" x2="120" y1="39" y2="39"/><rect fill="none" height="6" style="stroke:#C82930;stroke-width:1.0;" width="6" x="20" y="47"/><text fill="#000000" font-family="sans-serif" font-size="11" lengthAdjust="spacing" textLength="83" x="32" y="53.6348">Player objective</text><line style="stroke:#A80036;stroke-width:1.5;" x1="13" x2="120" y1="59.9551" y2="59.9551"/><!--MD5=[2cb47ba637a0d19583e6199456f6ad0b]
class Player--><rect codeLine="4" fill="#FEFECE" filter="url(#f11e0deik3tf66)" height="60.9551" id="Player" style="stroke:#A80036;stroke-width:1.5;" width="119" x="7" y="145"/><ellipse cx="45.4" cy="161" fill="#ADD1B2" rx="11" ry="11" style="stroke:#A80036;stroke-width:1.0;"/><path d="M47.8731,167.1431 Q47.2921,167.4419 46.6529,167.5913 Q46.0138,167.7407 45.3082,167.7407 Q42.8014,167.7407 41.4815,166.0889 Q40.1617,164.437 40.1617,161.3159 Q40.1617,158.1865 41.4815,156.5347 Q42.8014,154.8828 45.3082,154.8828 Q46.0138,154.8828 46.6612,155.0322 Q47.3087,155.1816 47.8731,155.4805 L47.8731,158.2031 Q47.2423,157.6221 46.6488,157.3523 Q46.0553,157.0825 45.4244,157.0825 Q44.0797,157.0825 43.3949,158.1492 Q42.7101,159.2158 42.7101,161.3159 Q42.7101,163.4077 43.3949,164.4744 Q44.0797,165.541 45.4244,165.541 Q46.0553,165.541 46.6488,165.2712 Q47.2423,165.0015 47.8731,164.4204 Z " fill="#000000"/><text fill="#000000" font-family="sans-serif" font-size="12" lengthAdjust="spacing" textLength="35" x="64.6" y="165.5352">Player</text><line style="stroke:#A80036;stroke-width:1.5;" x1="8" x2="125" y1="177" y2="177"/><rect fill="none" height="6" style="stroke:#C82930;stroke-width:1.0;" width="6" x="15" y="185"/><text fill="#000000" font-family="sans-serif" font-size="11" lengthAdjust="spacing" textLength="93" x="27" y="191.6348">Weapon objective</text><line style="stroke:#A80036;stroke-width:1.5;" x1="8" x2="125" y1="197.9551" y2="197.9551"/><!--MD5=[a3f6aaa3f93db2c29fed664e0312b4de]
class Weapon--><rect fill="#FEFECE" filter="url(#f11e0deik3tf66)" height="48" id="Weapon" style="stroke:#A80036;stroke-width:1.5;" width="78" x="27.5" y="283"/><ellipse cx="42.5" cy="299" fill="#ADD1B2" rx="11" ry="11" style="stroke:#A80036;stroke-width:1.0;"/><path d="M44.9731,305.1431 Q44.3921,305.4419 43.7529,305.5913 Q43.1138,305.7407 42.4082,305.7407 Q39.9014,305.7407 38.5815,304.0889 Q37.2617,302.437 37.2617,299.3159 Q37.2617,296.1865 38.5815,294.5347 Q39.9014,292.8828 42.4082,292.8828 Q43.1138,292.8828 43.7612,293.0322 Q44.4087,293.1816 44.9731,293.4805 L44.9731,296.2031 Q44.3423,295.6221 43.7488,295.3523 Q43.1553,295.0825 42.5244,295.0825 Q41.1797,295.0825 40.4949,296.1492 Q39.8101,297.2158 39.8101,299.3159 Q39.8101,301.4077 40.4949,302.4744 Q41.1797,303.541 42.5244,303.541 Q43.1553,303.541 43.7488,303.2712 Q44.3423,303.0015 44.9731,302.4204 Z " fill="#000000"/><text fill="#000000" font-family="sans-serif" font-size="12" lengthAdjust="spacing" textLength="46" x="56.5" y="303.5352">Weapon</text><line style="stroke:#A80036;stroke-width:1.5;" x1="28.5" x2="104.5" y1="315" y2="315"/><line style="stroke:#A80036;stroke-width:1.5;" x1="28.5" x2="104.5" y1="323" y2="323"/><!--MD5=[77d60aab9f1b049d3b19dfeb32467ca6]
link Player to Weapon--><path codeLine="7" d="M66.5,206.21 C66.5,227.69 66.5,256.53 66.5,277.68 " fill="none" id="Player-to-Weapon" style="stroke:#A80036;stroke-width:1.0;"/><polygon fill="#A80036" points="66.5,282.88,70.5,273.88,66.5,277.88,62.5,273.88,66.5,282.88" style="stroke:#A80036;stroke-width:1.0;"/><text fill="#000000" font-family="sans-serif" font-size="13" lengthAdjust="spacing" textLength="23" x="67.5" y="249.5684">uso</text><!--MD5=[f4a127a574616fae7969fe87047db7d8]
link Enemy to Player--><path codeLine="8" d="M66.5,68.01 C66.5,88.98 66.5,117.24 66.5,139.38 " fill="none" id="Enemy-to-Player" style="stroke:#A80036;stroke-width:1.0;"/><polygon fill="#A80036" points="66.5,144.58,70.5,135.58,66.5,139.58,62.5,135.58,66.5,144.58" style="stroke:#A80036;stroke-width:1.0;"/><text fill="#000000" font-family="sans-serif" font-size="13" lengthAdjust="spacing" textLength="23" x="67.5" y="111.5684">uso</text><!--MD5=[c143ec942cc17e02f9b8914a22d14546]
@startuml
class Enemy {
    -Player objective
}
class Player {
    -Weapon objective
}
Player - -> Weapon : uso
Enemy - -> Player : uso
@enduml

PlantUML version 1.2021.8(Sat Jun 26 10:20:59 CEST 2021)
(GPL source distribution)
Java Runtime: OpenJDK Runtime Environment
JVM: OpenJDK 64-Bit Server VM
Default Encoding: UTF-8
Language: es
Country: ES
--></g></svg>