<?xml version="1.0" encoding="UTF-8" standalone="no"?><svg xmlns="http://www.w3.org/2000/svg" xmlns:xlink="http://www.w3.org/1999/xlink" contentScriptType="application/ecmascript" contentStyleType="text/css" height="81px" preserveAspectRatio="none" style="width:90px;height:81px;background:#FFFFFF;" version="1.1" viewBox="0 0 90 81" width="90px" zoomAndPan="magnify"><defs><filter height="300%" id="f1640noxn8ojtn" width="300%" x="-1" y="-1"><feGaussianBlur result="blurOut" stdDeviation="2.0"/><feColorMatrix in="blurOut" result="blurOut2" type="matrix" values="0 0 0 0 0 0 0 0 0 0 0 0 0 0 0 0 0 0 .4 0"/><feOffset dx="4.0" dy="4.0" in="blurOut2" result="blurOut3"/><feBlend in="SourceGraphic" in2="blurOut3" mode="normal"/></filter></defs><g><!--MD5=[1cb3dca014c9afc5465c20d03b3a6575]
class Fruta--><rect codeLine="1" fill="#FEFECE" filter="url(#f1640noxn8ojtn)" height="60.9551" id="Fruta" style="stroke:#A80036;stroke-width:1.5;" width="69" x="7" y="7"/><ellipse cx="25.6" cy="23" fill="#ADD1B2" rx="11" ry="11" style="stroke:#A80036;stroke-width:1.0;"/><path d="M28.0731,29.1431 Q27.4921,29.4419 26.8529,29.5913 Q26.2138,29.7407 25.5082,29.7407 Q23.0014,29.7407 21.6815,28.0889 Q20.3617,26.437 20.3617,23.3159 Q20.3617,20.1865 21.6815,18.5347 Q23.0014,16.8828 25.5082,16.8828 Q26.2138,16.8828 26.8612,17.0322 Q27.5087,17.1816 28.0731,17.4805 L28.0731,20.2031 Q27.4423,19.6221 26.8488,19.3523 Q26.2553,19.0825 25.6244,19.0825 Q24.2797,19.0825 23.5949,20.1492 Q22.9101,21.2158 22.9101,23.3159 Q22.9101,25.4077 23.5949,26.4744 Q24.2797,27.541 25.6244,27.541 Q26.2553,27.541 26.8488,27.2712 Q27.4423,27.0015 28.0731,26.4204 Z " fill="#000000"/><text fill="#000000" font-family="sans-serif" font-size="12" lengthAdjust="spacing" textLength="29" x="40.4" y="27.5352">Fruta</text><line style="stroke:#A80036;stroke-width:1.5;" x1="8" x2="75" y1="39" y2="39"/><text fill="#000000" font-family="sans-serif" font-size="11" lengthAdjust="spacing" textLength="57" x="13" y="53.6348">int tamaño</text><line style="stroke:#A80036;stroke-width:1.5;" x1="8" x2="75" y1="59.9551" y2="59.9551"/><!--MD5=[e40ae8946fcc31b184eb4e6f37d0e805]
@startuml
class Fruta {
    int tamaño
}
@enduml

PlantUML version 1.2021.8(Sat Jun 26 10:20:59 CEST 2021)
(GPL source distribution)
Java Runtime: OpenJDK Runtime Environment
JVM: OpenJDK 64-Bit Server VM
Default Encoding: UTF-8
Language: es
Country: ES
--></g></svg>