<?xml version="1.0" encoding="UTF-8" standalone="no"?><svg xmlns="http://www.w3.org/2000/svg" xmlns:xlink="http://www.w3.org/1999/xlink" contentScriptType="application/ecmascript" contentStyleType="text/css" height="79px" preserveAspectRatio="none" style="width:90px;height:79px;" version="1.1" viewBox="0 0 90 79" width="90px" zoomAndPan="magnify"><defs><filter height="300%" id="f1640noxn8ojtn" width="300%" x="-1" y="-1"><feGaussianBlur result="blurOut" stdDeviation="2.0"/><feColorMatrix in="blurOut" result="blurOut2" type="matrix" values="0 0 0 0 0 0 0 0 0 0 0 0 0 0 0 0 0 0 .4 0"/><feOffset dx="4.0" dy="4.0" in="blurOut2" result="blurOut3"/><feBlend in="SourceGraphic" in2="blurOut3" mode="normal"/></filter></defs><g><!--class Fruta--><rect fill="#FEFECE" filter="url(#f1640noxn8ojtn)" height="60.896" id="Fruta" style="stroke: #A80036; stroke-width: 1.5;" width="73" x="6" y="8"/><ellipse cx="24.6" cy="24" fill="#ADD1B2" rx="11" ry="11" style="stroke: #A80036; stroke-width: 1.0;"/><path d="M27.5688,29.6406 Q26.9906,29.9375 26.35,30.0781 Q25.7094,30.2344 25.0063,30.2344 Q22.5063,30.2344 21.1781,28.5938 Q19.8656,26.9375 19.8656,23.8125 Q19.8656,20.6875 21.1781,19.0313 Q22.5063,17.375 25.0063,17.375 Q25.7094,17.375 26.35,17.5313 Q27.0063,17.6875 27.5688,17.9844 L27.5688,20.7031 Q26.9438,20.125 26.35,19.8594 Q25.7563,19.5781 25.1313,19.5781 Q23.7875,19.5781 23.1,20.6563 Q22.4125,21.7188 22.4125,23.8125 Q22.4125,25.9063 23.1,26.9844 Q23.7875,28.0469 25.1313,28.0469 Q25.7563,28.0469 26.35,27.7813 Q26.9438,27.5 27.5688,26.9219 L27.5688,29.6406 Z "/><text fill="#000000" font-family="sans-serif" font-size="12" lengthAdjust="spacingAndGlyphs" textLength="33" x="39.4" y="28.1807">Fruta</text><line style="stroke: #A80036; stroke-width: 1.5;" x1="7" x2="78" y1="40" y2="40"/><text fill="#000000" font-family="sans-serif" font-size="11" lengthAdjust="spacingAndGlyphs" textLength="61" x="12" y="54.2803">int tamaño</text><line style="stroke: #A80036; stroke-width: 1.5;" x1="7" x2="78" y1="60.896" y2="60.896"/><!--
@startuml
class Fruta {
    int tamaño
}
@enduml

PlantUML version 1.2019.01(Sat Feb 09 16:32:04 CET 2019)
(LGPL source distribution)
Java Runtime: OpenJDK Runtime Environment
JVM: OpenJDK 64-Bit Server VM
Java Version: 1.8.0_265-b01
Operating System: Linux
OS Version: 5.8.12-200.fc32.x86_64
Default Encoding: UTF-8
Language: es
Country: ES
--></g></svg>