<?xml version="1.0" encoding="UTF-8" standalone="no"?><svg xmlns="http://www.w3.org/2000/svg" xmlns:xlink="http://www.w3.org/1999/xlink" contentStyleType="text/css" height="86px" preserveAspectRatio="none" style="width:99px;height:86px;background:#FFFFFF;" version="1.1" viewBox="0 0 99 86" width="99px" zoomAndPan="magnify"><defs/><g><!--class Fruta--><g id="elem_Fruta"><rect codeLine="1" fill="#F1F1F1" height="65.6094" id="Fruta" rx="2.5" ry="2.5" style="stroke:#181818;stroke-width:0.5;" width="78" x="7" y="7"/><ellipse cx="27.4" cy="23" fill="#ADD1B2" rx="11" ry="11" style="stroke:#181818;stroke-width:1.0;"/><path d="M30.1656,18.875 Q30.3219,18.6563 30.5094,18.5469 Q30.6969,18.4375 30.9156,18.4375 Q31.2906,18.4375 31.525,18.7031 Q31.7594,18.9531 31.7594,19.5625 L31.7594,21.0156 Q31.7594,21.625 31.525,21.8906 Q31.2906,22.1563 30.9156,22.1563 Q30.5719,22.1563 30.3688,21.9531 Q30.1656,21.7656 30.0563,21.25 Q30.0094,20.8906 29.8219,20.7031 Q29.4938,20.3281 28.8844,20.1094 Q28.275,19.8906 27.65,19.8906 Q26.8844,19.8906 26.2438,20.2188 Q25.6188,20.5469 25.1188,21.2969 Q24.6344,22.0469 24.6344,23.0781 L24.6344,24.1719 Q24.6344,25.4063 25.525,26.2344 Q26.4156,27.0469 28.0094,27.0469 Q28.9469,27.0469 29.6031,26.7969 Q29.9938,26.6406 30.4156,26.2031 Q30.6813,25.9375 30.8219,25.8594 Q30.9781,25.7813 31.1813,25.7813 Q31.5094,25.7813 31.7594,26.0469 Q32.025,26.2969 32.025,26.6406 Q32.025,26.9844 31.6813,27.3906 Q31.1813,27.9688 30.3844,28.2969 Q29.3063,28.75 28.0094,28.75 Q26.4938,28.75 25.2906,28.125 Q24.3063,27.625 23.6188,26.5625 Q22.9313,25.4844 22.9313,24.2031 L22.9313,23.0469 Q22.9313,21.7188 23.5406,20.5781 Q24.1656,19.4219 25.2594,18.8125 Q26.3531,18.1875 27.5875,18.1875 Q28.3219,18.1875 28.9625,18.3594 Q29.6188,18.5156 30.1656,18.875 Z " fill="#000000"/><text fill="#000000" font-family="sans-serif" font-size="14" lengthAdjust="spacing" textLength="34" x="42.6" y="28.7285">Fruta</text><line style="stroke:#181818;stroke-width:0.5;" x1="8" x2="84" y1="39" y2="39"/><text fill="#000000" font-family="sans-serif" font-size="14" lengthAdjust="spacing" textLength="66" x="13" y="57.5332">int tamaño</text><line style="stroke:#181818;stroke-width:0.5;" x1="8" x2="84" y1="64.6094" y2="64.6094"/></g><!--SRC=[Iyv9B2vMS2igBKbKgEPI08BCl1A5aiJSnCCRyxbg0G00]--></g></svg>