<?xml version="1.0" encoding="UTF-8" standalone="no"?><svg xmlns="http://www.w3.org/2000/svg" xmlns:xlink="http://www.w3.org/1999/xlink" contentScriptType="application/ecmascript" contentStyleType="text/css" height="177px" preserveAspectRatio="none" style="width:168px;height:177px;background:#FFFFFF;" version="1.1" viewBox="0 0 168 177" width="168px" zoomAndPan="magnify"><defs><filter height="300%" id="fs5v8xnpv0whx" width="300%" x="-1" y="-1"><feGaussianBlur result="blurOut" stdDeviation="2.0"/><feColorMatrix in="blurOut" result="blurOut2" type="matrix" values="0 0 0 0 0 0 0 0 0 0 0 0 0 0 0 0 0 0 .4 0"/><feOffset dx="4.0" dy="4.0" in="blurOut2" result="blurOut3"/><feBlend in="SourceGraphic" in2="blurOut3" mode="normal"/></filter></defs><g><!--MD5=[1cb3dca014c9afc5465c20d03b3a6575]
class Fruta--><rect fill="#FEFECE" filter="url(#fs5v8xnpv0whx)" height="48" id="Fruta" style="stroke:#A80036;stroke-width:1.5;" width="61" x="51.5" y="7"/><ellipse cx="66.5" cy="23" fill="#ADD1B2" rx="11" ry="11" style="stroke:#A80036;stroke-width:1.0;"/><path d="M68.9731,29.1431 Q68.3921,29.4419 67.7529,29.5913 Q67.1138,29.7407 66.4082,29.7407 Q63.9014,29.7407 62.5815,28.0889 Q61.2617,26.437 61.2617,23.3159 Q61.2617,20.1865 62.5815,18.5347 Q63.9014,16.8828 66.4082,16.8828 Q67.1138,16.8828 67.7612,17.0322 Q68.4087,17.1816 68.9731,17.4805 L68.9731,20.2031 Q68.3423,19.6221 67.7488,19.3523 Q67.1553,19.0825 66.5244,19.0825 Q65.1797,19.0825 64.4949,20.1492 Q63.8101,21.2158 63.8101,23.3159 Q63.8101,25.4077 64.4949,26.4744 Q65.1797,27.541 66.5244,27.541 Q67.1553,27.541 67.7488,27.2712 Q68.3423,27.0015 68.9731,26.4204 Z " fill="#000000"/><text fill="#000000" font-family="sans-serif" font-size="12" lengthAdjust="spacing" textLength="29" x="80.5" y="27.5352">Fruta</text><line style="stroke:#A80036;stroke-width:1.5;" x1="52.5" x2="111.5" y1="39" y2="39"/><line style="stroke:#A80036;stroke-width:1.5;" x1="52.5" x2="111.5" y1="47" y2="47"/><!--MD5=[543bc086b4b831ac4fd764110488922e]
class Tallo--><rect fill="#FEFECE" filter="url(#fs5v8xnpv0whx)" height="48" id="Tallo" style="stroke:#A80036;stroke-width:1.5;" width="60" x="7" y="115"/><ellipse cx="22" cy="131" fill="#ADD1B2" rx="11" ry="11" style="stroke:#A80036;stroke-width:1.0;"/><path d="M24.4731,137.1431 Q23.8921,137.4419 23.2529,137.5913 Q22.6138,137.7407 21.9082,137.7407 Q19.4014,137.7407 18.0815,136.0889 Q16.7617,134.437 16.7617,131.3159 Q16.7617,128.1865 18.0815,126.5347 Q19.4014,124.8828 21.9082,124.8828 Q22.6138,124.8828 23.2612,125.0322 Q23.9087,125.1816 24.4731,125.4805 L24.4731,128.2031 Q23.8423,127.6221 23.2488,127.3523 Q22.6553,127.0825 22.0244,127.0825 Q20.6797,127.0825 19.9949,128.1492 Q19.3101,129.2158 19.3101,131.3159 Q19.3101,133.4077 19.9949,134.4744 Q20.6797,135.541 22.0244,135.541 Q22.6553,135.541 23.2488,135.2712 Q23.8423,135.0015 24.4731,134.4204 Z " fill="#000000"/><text fill="#000000" font-family="sans-serif" font-size="12" lengthAdjust="spacing" textLength="28" x="36" y="135.5352">Tallo</text><line style="stroke:#A80036;stroke-width:1.5;" x1="8" x2="66" y1="147" y2="147"/><line style="stroke:#A80036;stroke-width:1.5;" x1="8" x2="66" y1="155" y2="155"/><!--MD5=[f7243fbbc54184e137491ec4480c650b]
class Piel--><rect fill="#FEFECE" filter="url(#fs5v8xnpv0whx)" height="48" id="Piel" style="stroke:#A80036;stroke-width:1.5;" width="52" x="102" y="115"/><ellipse cx="117" cy="131" fill="#ADD1B2" rx="11" ry="11" style="stroke:#A80036;stroke-width:1.0;"/><path d="M119.4731,137.1431 Q118.8921,137.4419 118.2529,137.5913 Q117.6138,137.7407 116.9082,137.7407 Q114.4014,137.7407 113.0815,136.0889 Q111.7617,134.437 111.7617,131.3159 Q111.7617,128.1865 113.0815,126.5347 Q114.4014,124.8828 116.9082,124.8828 Q117.6138,124.8828 118.2612,125.0322 Q118.9087,125.1816 119.4731,125.4805 L119.4731,128.2031 Q118.8423,127.6221 118.2488,127.3523 Q117.6553,127.0825 117.0244,127.0825 Q115.6797,127.0825 114.9949,128.1492 Q114.3101,129.2158 114.3101,131.3159 Q114.3101,133.4077 114.9949,134.4744 Q115.6797,135.541 117.0244,135.541 Q117.6553,135.541 118.2488,135.2712 Q118.8423,135.0015 119.4731,134.4204 Z " fill="#000000"/><text fill="#000000" font-family="sans-serif" font-size="12" lengthAdjust="spacing" textLength="20" x="131" y="135.5352">Piel</text><line style="stroke:#A80036;stroke-width:1.5;" x1="103" x2="153" y1="147" y2="147"/><line style="stroke:#A80036;stroke-width:1.5;" x1="103" x2="153" y1="155" y2="155"/><!--MD5=[e9c6bea047b3366206cea167014b4c29]
reverse link Fruta to Tallo--><path codeLine="2" d="M66.97,67.4 C60.36,82.97 52.78,100.82 46.9,114.68 " fill="none" id="Fruta-backto-Tallo" style="stroke:#A80036;stroke-width:1.0;"/><polygon fill="#A80036" points="72.24,55,66.2147,58.9618,67.5544,66.0474,73.5797,62.0856,72.24,55" style="stroke:#A80036;stroke-width:1.0;"/><!--MD5=[b6fb8e103298d44e8a339b3361f23341]
reverse link Fruta to Piel--><path codeLine="3" d="M97.16,66.94 C103.96,82.61 111.81,100.68 117.88,114.68 " fill="none" id="Fruta-backto-Piel" style="stroke:#A80036;stroke-width:1.0;"/><polygon fill="#A80036" points="91.98,55,90.7038,62.0973,96.7642,66.0051,98.0405,58.9078,91.98,55" style="stroke:#A80036;stroke-width:1.0;"/><!--MD5=[cafbd500b5f944058c83485e8cdebd12]
@startuml Composición

Fruta *- - Tallo
Fruta *- - Piel

@enduml

PlantUML version 1.2021.8(Sat Jun 26 10:20:59 CEST 2021)
(GPL source distribution)
Java Runtime: OpenJDK Runtime Environment
JVM: OpenJDK 64-Bit Server VM
Default Encoding: UTF-8
Language: es
Country: ES
--></g></svg>