<?xml version="1.0" encoding="UTF-8" standalone="no"?><svg xmlns="http://www.w3.org/2000/svg" xmlns:xlink="http://www.w3.org/1999/xlink" contentStyleType="text/css" height="156px" preserveAspectRatio="none" style="width:283px;height:156px;background:#FFFFFF;" version="1.1" viewBox="0 0 283 156" width="283px" zoomAndPan="magnify"><defs/><g><!--MD5=[a3f6aaa3f93db2c29fed664e0312b4de]
class Weapon--><g id="elem_Weapon"><rect fill="#F1F1F1" height="32" id="Weapon" rx="2.5" ry="2.5" style="stroke:#181818;stroke-width:0.5;" width="85" x="95.5" y="7"/><ellipse cx="110.5" cy="23" fill="#ADD1B2" rx="11" ry="11" style="stroke:#181818;stroke-width:1.0;"/><path d="M113.2656,18.875 Q113.4219,18.6563 113.6094,18.5469 Q113.7969,18.4375 114.0156,18.4375 Q114.3906,18.4375 114.625,18.7031 Q114.8594,18.9531 114.8594,19.5625 L114.8594,21.0156 Q114.8594,21.625 114.625,21.8906 Q114.3906,22.1563 114.0156,22.1563 Q113.6719,22.1563 113.4688,21.9531 Q113.2656,21.7656 113.1563,21.25 Q113.1094,20.8906 112.9219,20.7031 Q112.5938,20.3281 111.9844,20.1094 Q111.375,19.8906 110.75,19.8906 Q109.9844,19.8906 109.3438,20.2188 Q108.7188,20.5469 108.2188,21.2969 Q107.7344,22.0469 107.7344,23.0781 L107.7344,24.1719 Q107.7344,25.4063 108.625,26.2344 Q109.5156,27.0469 111.1094,27.0469 Q112.0469,27.0469 112.7031,26.7969 Q113.0938,26.6406 113.5156,26.2031 Q113.7813,25.9375 113.9219,25.8594 Q114.0781,25.7813 114.2813,25.7813 Q114.6094,25.7813 114.8594,26.0469 Q115.125,26.2969 115.125,26.6406 Q115.125,26.9844 114.7813,27.3906 Q114.2813,27.9688 113.4844,28.2969 Q112.4063,28.75 111.1094,28.75 Q109.5938,28.75 108.3906,28.125 Q107.4063,27.625 106.7188,26.5625 Q106.0313,25.4844 106.0313,24.2031 L106.0313,23.0469 Q106.0313,21.7188 106.6406,20.5781 Q107.2656,19.4219 108.3594,18.8125 Q109.4531,18.1875 110.6875,18.1875 Q111.4219,18.1875 112.0625,18.3594 Q112.7188,18.5156 113.2656,18.875 Z " fill="#000000"/><text fill="#000000" font-family="sans-serif" font-size="14" lengthAdjust="spacing" textLength="53" x="124.5" y="28.7285">Weapon</text></g><!--MD5=[00bfe8363f1fb66a8da2b7e24e291a7c]
class AttackPower--><g id="elem_AttackPower"><rect fill="#F1F1F1" height="32" id="AttackPower" rx="2.5" ry="2.5" style="stroke:#181818;stroke-width:0.5;" width="110" x="7" y="117"/><ellipse cx="22" cy="133" fill="#ADD1B2" rx="11" ry="11" style="stroke:#181818;stroke-width:1.0;"/><path d="M24.7656,128.875 Q24.9219,128.6563 25.1094,128.5469 Q25.2969,128.4375 25.5156,128.4375 Q25.8906,128.4375 26.125,128.7031 Q26.3594,128.9531 26.3594,129.5625 L26.3594,131.0156 Q26.3594,131.625 26.125,131.8906 Q25.8906,132.1563 25.5156,132.1563 Q25.1719,132.1563 24.9688,131.9531 Q24.7656,131.7656 24.6563,131.25 Q24.6094,130.8906 24.4219,130.7031 Q24.0938,130.3281 23.4844,130.1094 Q22.875,129.8906 22.25,129.8906 Q21.4844,129.8906 20.8438,130.2188 Q20.2188,130.5469 19.7188,131.2969 Q19.2344,132.0469 19.2344,133.0781 L19.2344,134.1719 Q19.2344,135.4063 20.125,136.2344 Q21.0156,137.0469 22.6094,137.0469 Q23.5469,137.0469 24.2031,136.7969 Q24.5938,136.6406 25.0156,136.2031 Q25.2813,135.9375 25.4219,135.8594 Q25.5781,135.7813 25.7813,135.7813 Q26.1094,135.7813 26.3594,136.0469 Q26.625,136.2969 26.625,136.6406 Q26.625,136.9844 26.2813,137.3906 Q25.7813,137.9688 24.9844,138.2969 Q23.9063,138.75 22.6094,138.75 Q21.0938,138.75 19.8906,138.125 Q18.9063,137.625 18.2188,136.5625 Q17.5313,135.4844 17.5313,134.2031 L17.5313,133.0469 Q17.5313,131.7188 18.1406,130.5781 Q18.7656,129.4219 19.8594,128.8125 Q20.9531,128.1875 22.1875,128.1875 Q22.9219,128.1875 23.5625,128.3594 Q24.2188,128.5156 24.7656,128.875 Z " fill="#000000"/><text fill="#000000" font-family="sans-serif" font-size="14" lengthAdjust="spacing" textLength="78" x="36" y="138.7285">AttackPower</text></g><!--MD5=[16902cec7454f4669fa8bf65a6169e6a]
class DefensePower--><g id="elem_DefensePower"><rect fill="#F1F1F1" height="32" id="DefensePower" rx="2.5" ry="2.5" style="stroke:#181818;stroke-width:0.5;" width="124" x="152" y="117"/><ellipse cx="167" cy="133" fill="#ADD1B2" rx="11" ry="11" style="stroke:#181818;stroke-width:1.0;"/><path d="M169.7656,128.875 Q169.9219,128.6563 170.1094,128.5469 Q170.2969,128.4375 170.5156,128.4375 Q170.8906,128.4375 171.125,128.7031 Q171.3594,128.9531 171.3594,129.5625 L171.3594,131.0156 Q171.3594,131.625 171.125,131.8906 Q170.8906,132.1563 170.5156,132.1563 Q170.1719,132.1563 169.9688,131.9531 Q169.7656,131.7656 169.6563,131.25 Q169.6094,130.8906 169.4219,130.7031 Q169.0938,130.3281 168.4844,130.1094 Q167.875,129.8906 167.25,129.8906 Q166.4844,129.8906 165.8438,130.2188 Q165.2188,130.5469 164.7188,131.2969 Q164.2344,132.0469 164.2344,133.0781 L164.2344,134.1719 Q164.2344,135.4063 165.125,136.2344 Q166.0156,137.0469 167.6094,137.0469 Q168.5469,137.0469 169.2031,136.7969 Q169.5938,136.6406 170.0156,136.2031 Q170.2813,135.9375 170.4219,135.8594 Q170.5781,135.7813 170.7813,135.7813 Q171.1094,135.7813 171.3594,136.0469 Q171.625,136.2969 171.625,136.6406 Q171.625,136.9844 171.2813,137.3906 Q170.7813,137.9688 169.9844,138.2969 Q168.9063,138.75 167.6094,138.75 Q166.0938,138.75 164.8906,138.125 Q163.9063,137.625 163.2188,136.5625 Q162.5313,135.4844 162.5313,134.2031 L162.5313,133.0469 Q162.5313,131.7188 163.1406,130.5781 Q163.7656,129.4219 164.8594,128.8125 Q165.9531,128.1875 167.1875,128.1875 Q167.9219,128.1875 168.5625,128.3594 Q169.2188,128.5156 169.7656,128.875 Z " fill="#000000"/><text fill="#000000" font-family="sans-serif" font-size="14" lengthAdjust="spacing" textLength="92" x="181" y="138.7285">DefensePower</text></g><!--MD5=[6a853edd5ffd4eb37a19a2944c54a1b1]
reverse link Weapon to AttackPower--><g id="link_Weapon_AttackPower"><path codeLine="1" d="M119.92,49.69 C105.22,70.58 84.97,99.35 72.72,116.76 " fill="none" id="Weapon-backto-AttackPower" style="stroke:#181818;stroke-width:1.0;"/><polygon fill="#181818" points="127.43,39.02,120.7048,41.6222,120.5202,48.8309,127.2454,46.2287,127.43,39.02" style="stroke:#181818;stroke-width:1.0;"/><text fill="#000000" font-family="sans-serif" font-size="13" lengthAdjust="spacing" textLength="47" x="106" y="83.4951">parte de</text></g><!--MD5=[d94df6a114d3ef99dbc8a4020960f4a5]
reverse link Weapon to DefensePower--><g id="link_Weapon_DefensePower"><path codeLine="2" d="M156.08,49.69 C170.78,70.58 191.03,99.35 203.28,116.76 " fill="none" id="Weapon-backto-DefensePower" style="stroke:#181818;stroke-width:1.0;"/><polygon fill="#181818" points="148.57,39.02,148.7546,46.2287,155.4798,48.8309,155.2952,41.6222,148.57,39.02" style="stroke:#181818;stroke-width:1.0;"/><text fill="#000000" font-family="sans-serif" font-size="13" lengthAdjust="spacing" textLength="47" x="181" y="83.4951">parte de</text></g><!--MD5=[06ee93aab99fab3f3184521699e95079]
@startuml
Weapon *- - AttackPower : parte de
Weapon *- - DefensePower : parte de
hide members
@enduml

PlantUML version 1.2022.5(Sat Apr 30 12:55:52 CEST 2022)
(GPL source distribution)
Java Runtime: OpenJDK Runtime Environment
JVM: OpenJDK 64-Bit Server VM
Default Encoding: UTF-8
Language: es
Country: ES
--></g></svg>