<?xml version="1.0" encoding="UTF-8" standalone="no"?><svg xmlns="http://www.w3.org/2000/svg" xmlns:xlink="http://www.w3.org/1999/xlink" contentScriptType="application/ecmascript" contentStyleType="text/css" height="162px" preserveAspectRatio="none" style="width:273px;height:162px;background:#FFFFFF;" version="1.1" viewBox="0 0 273 162" width="273px" zoomAndPan="magnify"><defs><filter height="300%" id="fjbfotd91ttx6" width="300%" x="-1" y="-1"><feGaussianBlur result="blurOut" stdDeviation="2.0"/><feColorMatrix in="blurOut" result="blurOut2" type="matrix" values="0 0 0 0 0 0 0 0 0 0 0 0 0 0 0 0 0 0 .4 0"/><feOffset dx="4.0" dy="4.0" in="blurOut2" result="blurOut3"/><feBlend in="SourceGraphic" in2="blurOut3" mode="normal"/></filter></defs><g><!--MD5=[a3f6aaa3f93db2c29fed664e0312b4de]
class Weapon--><rect fill="#FEFECE" filter="url(#fjbfotd91ttx6)" height="32" id="Weapon" style="stroke:#A80036;stroke-width:1.5;" width="78" x="91.5" y="7"/><ellipse cx="106.5" cy="23" fill="#ADD1B2" rx="11" ry="11" style="stroke:#A80036;stroke-width:1.0;"/><path d="M108.9731,29.1431 Q108.3921,29.4419 107.7529,29.5913 Q107.1138,29.7407 106.4082,29.7407 Q103.9014,29.7407 102.5815,28.0889 Q101.2617,26.437 101.2617,23.3159 Q101.2617,20.1865 102.5815,18.5347 Q103.9014,16.8828 106.4082,16.8828 Q107.1138,16.8828 107.7612,17.0322 Q108.4087,17.1816 108.9731,17.4805 L108.9731,20.2031 Q108.3423,19.6221 107.7488,19.3523 Q107.1553,19.0825 106.5244,19.0825 Q105.1797,19.0825 104.4949,20.1492 Q103.8101,21.2158 103.8101,23.3159 Q103.8101,25.4077 104.4949,26.4744 Q105.1797,27.541 106.5244,27.541 Q107.1553,27.541 107.7488,27.2712 Q108.3423,27.0015 108.9731,26.4204 Z " fill="#000000"/><text fill="#000000" font-family="sans-serif" font-size="12" lengthAdjust="spacing" textLength="46" x="120.5" y="27.5352">Weapon</text><!--MD5=[00bfe8363f1fb66a8da2b7e24e291a7c]
class AttackPower--><rect fill="#FEFECE" filter="url(#fjbfotd91ttx6)" height="32" id="AttackPower" style="stroke:#A80036;stroke-width:1.5;" width="103" x="7" y="116"/><ellipse cx="22" cy="132" fill="#ADD1B2" rx="11" ry="11" style="stroke:#A80036;stroke-width:1.0;"/><path d="M24.4731,138.1431 Q23.8921,138.4419 23.2529,138.5913 Q22.6138,138.7407 21.9082,138.7407 Q19.4014,138.7407 18.0815,137.0889 Q16.7617,135.437 16.7617,132.3159 Q16.7617,129.1865 18.0815,127.5347 Q19.4014,125.8828 21.9082,125.8828 Q22.6138,125.8828 23.2612,126.0322 Q23.9087,126.1816 24.4731,126.4805 L24.4731,129.2031 Q23.8423,128.6221 23.2488,128.3523 Q22.6553,128.0825 22.0244,128.0825 Q20.6797,128.0825 19.9949,129.1492 Q19.3101,130.2158 19.3101,132.3159 Q19.3101,134.4077 19.9949,135.4744 Q20.6797,136.541 22.0244,136.541 Q22.6553,136.541 23.2488,136.2712 Q23.8423,136.0015 24.4731,135.4204 Z " fill="#000000"/><text fill="#000000" font-family="sans-serif" font-size="12" lengthAdjust="spacing" textLength="71" x="36" y="136.5352">AttackPower</text><!--MD5=[16902cec7454f4669fa8bf65a6169e6a]
class DefensePower--><rect fill="#FEFECE" filter="url(#fjbfotd91ttx6)" height="32" id="DefensePower" style="stroke:#A80036;stroke-width:1.5;" width="114" x="145.5" y="116"/><ellipse cx="160.5" cy="132" fill="#ADD1B2" rx="11" ry="11" style="stroke:#A80036;stroke-width:1.0;"/><path d="M162.9731,138.1431 Q162.3921,138.4419 161.7529,138.5913 Q161.1138,138.7407 160.4082,138.7407 Q157.9014,138.7407 156.5815,137.0889 Q155.2617,135.437 155.2617,132.3159 Q155.2617,129.1865 156.5815,127.5347 Q157.9014,125.8828 160.4082,125.8828 Q161.1138,125.8828 161.7612,126.0322 Q162.4087,126.1816 162.9731,126.4805 L162.9731,129.2031 Q162.3423,128.6221 161.7488,128.3523 Q161.1553,128.0825 160.5244,128.0825 Q159.1797,128.0825 158.4949,129.1492 Q157.8101,130.2158 157.8101,132.3159 Q157.8101,134.4077 158.4949,135.4744 Q159.1797,136.541 160.5244,136.541 Q161.1553,136.541 161.7488,136.2712 Q162.3423,136.0015 162.9731,135.4204 Z " fill="#000000"/><text fill="#000000" font-family="sans-serif" font-size="12" lengthAdjust="spacing" textLength="82" x="174.5" y="136.5352">DefensePower</text><!--MD5=[6a853edd5ffd4eb37a19a2944c54a1b1]
reverse link Weapon to AttackPower--><path codeLine="1" d="M112.9,50.16 C99.07,70.71 80.28,98.63 68.8,115.7 " fill="none" id="Weapon-backto-AttackPower" style="stroke:#A80036;stroke-width:1.0;"/><polygon fill="#A80036" points="120.18,39.33,113.5118,42.0751,113.4811,49.2861,120.1492,46.541,120.18,39.33" style="stroke:#A80036;stroke-width:1.0;"/><text fill="#000000" font-family="sans-serif" font-size="13" lengthAdjust="spacing" textLength="51" x="100.5" y="82.5684">parte de</text><!--MD5=[d94df6a114d3ef99dbc8a4020960f4a5]
reverse link Weapon to DefensePower--><path codeLine="2" d="M148.1,50.16 C161.93,70.71 180.72,98.63 192.2,115.7 " fill="none" id="Weapon-backto-DefensePower" style="stroke:#A80036;stroke-width:1.0;"/><polygon fill="#A80036" points="140.82,39.33,140.8508,46.541,147.5189,49.2861,147.4882,42.0751,140.82,39.33" style="stroke:#A80036;stroke-width:1.0;"/><text fill="#000000" font-family="sans-serif" font-size="13" lengthAdjust="spacing" textLength="51" x="171.5" y="82.5684">parte de</text><!--MD5=[da4b39b707d219ac00180147a1d41e93]
@startuml
Weapon *- - AttackPower : parte de
Weapon *- - DefensePower : parte de
hide members
@enduml

PlantUML version 1.2021.8(Sat Jun 26 10:20:59 CEST 2021)
(GPL source distribution)
Java Runtime: OpenJDK Runtime Environment
JVM: OpenJDK 64-Bit Server VM
Default Encoding: UTF-8
Language: es
Country: ES
--></g></svg>