<?xml version="1.0" encoding="UTF-8" standalone="no"?><svg xmlns="http://www.w3.org/2000/svg" xmlns:xlink="http://www.w3.org/1999/xlink" contentScriptType="application/ecmascript" contentStyleType="text/css" height="160px" preserveAspectRatio="none" style="width:284px;height:160px;" version="1.1" viewBox="0 0 284 160" width="284px" zoomAndPan="magnify"><defs><filter height="300%" id="fjbfotd91ttx6" width="300%" x="-1" y="-1"><feGaussianBlur result="blurOut" stdDeviation="2.0"/><feColorMatrix in="blurOut" result="blurOut2" type="matrix" values="0 0 0 0 0 0 0 0 0 0 0 0 0 0 0 0 0 0 .4 0"/><feOffset dx="4.0" dy="4.0" in="blurOut2" result="blurOut3"/><feBlend in="SourceGraphic" in2="blurOut3" mode="normal"/></filter></defs><g><!--class Weapon--><rect fill="#FEFECE" filter="url(#fjbfotd91ttx6)" height="32" id="Weapon" style="stroke: #A80036; stroke-width: 1.5;" width="83" x="94.5" y="8"/><ellipse cx="109.5" cy="24" fill="#ADD1B2" rx="11" ry="11" style="stroke: #A80036; stroke-width: 1.0;"/><path d="M112.4688,29.6406 Q111.8906,29.9375 111.25,30.0781 Q110.6094,30.2344 109.9063,30.2344 Q107.4063,30.2344 106.0781,28.5938 Q104.7656,26.9375 104.7656,23.8125 Q104.7656,20.6875 106.0781,19.0313 Q107.4063,17.375 109.9063,17.375 Q110.6094,17.375 111.25,17.5313 Q111.9063,17.6875 112.4688,17.9844 L112.4688,20.7031 Q111.8438,20.125 111.25,19.8594 Q110.6563,19.5781 110.0313,19.5781 Q108.6875,19.5781 108,20.6563 Q107.3125,21.7188 107.3125,23.8125 Q107.3125,25.9063 108,26.9844 Q108.6875,28.0469 110.0313,28.0469 Q110.6563,28.0469 111.25,27.7813 Q111.8438,27.5 112.4688,26.9219 L112.4688,29.6406 Z "/><text fill="#000000" font-family="sans-serif" font-size="12" lengthAdjust="spacingAndGlyphs" textLength="51" x="123.5" y="28.1807">Weapon</text><!--class AttackPower--><rect fill="#FEFECE" filter="url(#fjbfotd91ttx6)" height="32" id="AttackPower" style="stroke: #A80036; stroke-width: 1.5;" width="110" x="6" y="117"/><ellipse cx="21" cy="133" fill="#ADD1B2" rx="11" ry="11" style="stroke: #A80036; stroke-width: 1.0;"/><path d="M23.9688,138.6406 Q23.3906,138.9375 22.75,139.0781 Q22.1094,139.2344 21.4063,139.2344 Q18.9063,139.2344 17.5781,137.5938 Q16.2656,135.9375 16.2656,132.8125 Q16.2656,129.6875 17.5781,128.0313 Q18.9063,126.375 21.4063,126.375 Q22.1094,126.375 22.75,126.5313 Q23.4063,126.6875 23.9688,126.9844 L23.9688,129.7031 Q23.3438,129.125 22.75,128.8594 Q22.1563,128.5781 21.5313,128.5781 Q20.1875,128.5781 19.5,129.6563 Q18.8125,130.7188 18.8125,132.8125 Q18.8125,134.9063 19.5,135.9844 Q20.1875,137.0469 21.5313,137.0469 Q22.1563,137.0469 22.75,136.7813 Q23.3438,136.5 23.9688,135.9219 L23.9688,138.6406 Z "/><text fill="#000000" font-family="sans-serif" font-size="12" lengthAdjust="spacingAndGlyphs" textLength="78" x="35" y="137.1807">AttackPower</text><!--class DefensePower--><rect fill="#FEFECE" filter="url(#fjbfotd91ttx6)" height="32" id="DefensePower" style="stroke: #A80036; stroke-width: 1.5;" width="122" x="151" y="117"/><ellipse cx="166" cy="133" fill="#ADD1B2" rx="11" ry="11" style="stroke: #A80036; stroke-width: 1.0;"/><path d="M168.9688,138.6406 Q168.3906,138.9375 167.75,139.0781 Q167.1094,139.2344 166.4063,139.2344 Q163.9063,139.2344 162.5781,137.5938 Q161.2656,135.9375 161.2656,132.8125 Q161.2656,129.6875 162.5781,128.0313 Q163.9063,126.375 166.4063,126.375 Q167.1094,126.375 167.75,126.5313 Q168.4063,126.6875 168.9688,126.9844 L168.9688,129.7031 Q168.3438,129.125 167.75,128.8594 Q167.1563,128.5781 166.5313,128.5781 Q165.1875,128.5781 164.5,129.6563 Q163.8125,130.7188 163.8125,132.8125 Q163.8125,134.9063 164.5,135.9844 Q165.1875,137.0469 166.5313,137.0469 Q167.1563,137.0469 167.75,136.7813 Q168.3438,136.5 168.9688,135.9219 L168.9688,138.6406 Z "/><text fill="#000000" font-family="sans-serif" font-size="12" lengthAdjust="spacingAndGlyphs" textLength="90" x="180" y="137.1807">DefensePower</text><!--link Weapon to AttackPower--><path d="M117.66,51.16 C103.26,71.71 83.69,99.63 71.73,116.7 " fill="none" id="Weapon-AttackPower" style="stroke: #A80036; stroke-width: 1.0;"/><polygon fill="#A80036" points="125.25,40.33,118.5288,42.9425,118.3552,50.1515,125.0764,47.539,125.25,40.33" style="stroke: #A80036; stroke-width: 1.0;"/><text fill="#000000" font-family="sans-serif" font-size="13" lengthAdjust="spacingAndGlyphs" textLength="54" x="104" y="83.1494">parte de</text><!--link Weapon to DefensePower--><path d="M154.58,51.16 C169.18,71.71 189.01,99.63 201.13,116.7 " fill="none" id="Weapon-DefensePower" style="stroke: #A80036; stroke-width: 1.0;"/><polygon fill="#A80036" points="146.89,40.33,147.1032,47.538,153.8386,50.1135,153.6255,42.9055,146.89,40.33" style="stroke: #A80036; stroke-width: 1.0;"/><text fill="#000000" font-family="sans-serif" font-size="13" lengthAdjust="spacingAndGlyphs" textLength="54" x="179" y="83.1494">parte de</text><!--
@startuml
Weapon *- - AttackPower : parte de
Weapon *- - DefensePower : parte de
hide members
@enduml

PlantUML version 1.2019.01(Sat Feb 09 16:32:04 CET 2019)
(LGPL source distribution)
Java Runtime: OpenJDK Runtime Environment
JVM: OpenJDK 64-Bit Server VM
Java Version: 1.8.0_265-b01
Operating System: Linux
OS Version: 5.8.12-200.fc32.x86_64
Default Encoding: UTF-8
Language: es
Country: ES
--></g></svg>