<?xml version="1.0" encoding="UTF-8" standalone="no"?><svg xmlns="http://www.w3.org/2000/svg" xmlns:xlink="http://www.w3.org/1999/xlink" contentScriptType="application/ecmascript" contentStyleType="text/css" height="175px" preserveAspectRatio="none" style="width:167px;height:175px;" version="1.1" viewBox="0 0 167 175" width="167px" zoomAndPan="magnify"><defs><filter height="300%" id="fs5v8xnpv0whx" width="300%" x="-1" y="-1"><feGaussianBlur result="blurOut" stdDeviation="2.0"/><feColorMatrix in="blurOut" result="blurOut2" type="matrix" values="0 0 0 0 0 0 0 0 0 0 0 0 0 0 0 0 0 0 .4 0"/><feOffset dx="4.0" dy="4.0" in="blurOut2" result="blurOut3"/><feBlend in="SourceGraphic" in2="blurOut3" mode="normal"/></filter></defs><g><!--class Fruta--><rect fill="#FEFECE" filter="url(#fs5v8xnpv0whx)" height="48" id="Fruta" style="stroke: #A80036; stroke-width: 1.5;" width="65" x="50" y="8"/><ellipse cx="65" cy="24" fill="#ADD1B2" rx="11" ry="11" style="stroke: #A80036; stroke-width: 1.0;"/><path d="M67.9688,29.6406 Q67.3906,29.9375 66.75,30.0781 Q66.1094,30.2344 65.4063,30.2344 Q62.9063,30.2344 61.5781,28.5938 Q60.2656,26.9375 60.2656,23.8125 Q60.2656,20.6875 61.5781,19.0313 Q62.9063,17.375 65.4063,17.375 Q66.1094,17.375 66.75,17.5313 Q67.4063,17.6875 67.9688,17.9844 L67.9688,20.7031 Q67.3438,20.125 66.75,19.8594 Q66.1563,19.5781 65.5313,19.5781 Q64.1875,19.5781 63.5,20.6563 Q62.8125,21.7188 62.8125,23.8125 Q62.8125,25.9063 63.5,26.9844 Q64.1875,28.0469 65.5313,28.0469 Q66.1563,28.0469 66.75,27.7813 Q67.3438,27.5 67.9688,26.9219 L67.9688,29.6406 Z "/><text fill="#000000" font-family="sans-serif" font-size="12" lengthAdjust="spacingAndGlyphs" textLength="33" x="79" y="28.1807">Fruta</text><line style="stroke: #A80036; stroke-width: 1.5;" x1="51" x2="114" y1="40" y2="40"/><line style="stroke: #A80036; stroke-width: 1.5;" x1="51" x2="114" y1="48" y2="48"/><!--class Tallo--><rect fill="#FEFECE" filter="url(#fs5v8xnpv0whx)" height="48" id="Tallo" style="stroke: #A80036; stroke-width: 1.5;" width="61" x="6" y="116"/><ellipse cx="21" cy="132" fill="#ADD1B2" rx="11" ry="11" style="stroke: #A80036; stroke-width: 1.0;"/><path d="M23.9688,137.6406 Q23.3906,137.9375 22.75,138.0781 Q22.1094,138.2344 21.4063,138.2344 Q18.9063,138.2344 17.5781,136.5938 Q16.2656,134.9375 16.2656,131.8125 Q16.2656,128.6875 17.5781,127.0313 Q18.9063,125.375 21.4063,125.375 Q22.1094,125.375 22.75,125.5313 Q23.4063,125.6875 23.9688,125.9844 L23.9688,128.7031 Q23.3438,128.125 22.75,127.8594 Q22.1563,127.5781 21.5313,127.5781 Q20.1875,127.5781 19.5,128.6563 Q18.8125,129.7188 18.8125,131.8125 Q18.8125,133.9063 19.5,134.9844 Q20.1875,136.0469 21.5313,136.0469 Q22.1563,136.0469 22.75,135.7813 Q23.3438,135.5 23.9688,134.9219 L23.9688,137.6406 Z "/><text fill="#000000" font-family="sans-serif" font-size="12" lengthAdjust="spacingAndGlyphs" textLength="29" x="35" y="136.1807">Tallo</text><line style="stroke: #A80036; stroke-width: 1.5;" x1="7" x2="66" y1="148" y2="148"/><line style="stroke: #A80036; stroke-width: 1.5;" x1="7" x2="66" y1="156" y2="156"/><!--class Piel--><rect fill="#FEFECE" filter="url(#fs5v8xnpv0whx)" height="48" id="Piel" style="stroke: #A80036; stroke-width: 1.5;" width="54" x="102.5" y="116"/><ellipse cx="117.5" cy="132" fill="#ADD1B2" rx="11" ry="11" style="stroke: #A80036; stroke-width: 1.0;"/><path d="M120.4688,137.6406 Q119.8906,137.9375 119.25,138.0781 Q118.6094,138.2344 117.9063,138.2344 Q115.4063,138.2344 114.0781,136.5938 Q112.7656,134.9375 112.7656,131.8125 Q112.7656,128.6875 114.0781,127.0313 Q115.4063,125.375 117.9063,125.375 Q118.6094,125.375 119.25,125.5313 Q119.9063,125.6875 120.4688,125.9844 L120.4688,128.7031 Q119.8438,128.125 119.25,127.8594 Q118.6563,127.5781 118.0313,127.5781 Q116.6875,127.5781 116,128.6563 Q115.3125,129.7188 115.3125,131.8125 Q115.3125,133.9063 116,134.9844 Q116.6875,136.0469 118.0313,136.0469 Q118.6563,136.0469 119.25,135.7813 Q119.8438,135.5 120.4688,134.9219 L120.4688,137.6406 Z "/><text fill="#000000" font-family="sans-serif" font-size="12" lengthAdjust="spacingAndGlyphs" textLength="22" x="131.5" y="136.1807">Piel</text><line style="stroke: #A80036; stroke-width: 1.5;" x1="103.5" x2="155.5" y1="148" y2="148"/><line style="stroke: #A80036; stroke-width: 1.5;" x1="103.5" x2="155.5" y1="156" y2="156"/><!--link Fruta to Tallo--><path d="M67.34,67.94 C60.54,83.61 52.69,101.68 46.62,115.68 " fill="none" id="Fruta-Tallo" style="stroke: #A80036; stroke-width: 1.0;"/><polygon fill="#A80036" points="72.52,56,66.4595,59.9078,67.7358,67.0051,73.7962,63.0973,72.52,56" style="stroke: #A80036; stroke-width: 1.0;"/><!--link Fruta to Piel--><path d="M97.99,67.94 C104.94,83.61 112.95,101.68 119.16,115.68 " fill="none" id="Fruta-Piel" style="stroke: #A80036; stroke-width: 1.0;"/><polygon fill="#A80036" points="92.7,56,91.476,63.1065,97.5651,66.9695,98.7891,59.8631,92.7,56" style="stroke: #A80036; stroke-width: 1.0;"/><!--
@startuml Composición

Fruta *- - Tallo
Fruta *- - Piel

@enduml

PlantUML version 1.2019.01(Sat Feb 09 16:32:04 CET 2019)
(LGPL source distribution)
Java Runtime: OpenJDK Runtime Environment
JVM: OpenJDK 64-Bit Server VM
Java Version: 1.8.0_265-b01
Operating System: Linux
OS Version: 5.8.12-200.fc32.x86_64
Default Encoding: UTF-8
Language: es
Country: ES
--></g></svg>