<?xml version="1.0" encoding="UTF-8" standalone="no"?><svg xmlns="http://www.w3.org/2000/svg" xmlns:xlink="http://www.w3.org/1999/xlink" contentStyleType="text/css" height="170px" preserveAspectRatio="none" style="width:167px;height:170px;background:#FFFFFF;" version="1.1" viewBox="0 0 167 170" width="167px" zoomAndPan="magnify"><defs/><g><!--MD5=[1cb3dca014c9afc5465c20d03b3a6575]
class Fruta--><g id="elem_Fruta"><rect fill="#F1F1F1" height="48" id="Fruta" rx="2.5" ry="2.5" style="stroke:#181818;stroke-width:0.5;" width="66" x="52.5" y="7"/><ellipse cx="67.5" cy="23" fill="#ADD1B2" rx="11" ry="11" style="stroke:#181818;stroke-width:1.0;"/><path d="M70.2656,18.875 Q70.4219,18.6563 70.6094,18.5469 Q70.7969,18.4375 71.0156,18.4375 Q71.3906,18.4375 71.625,18.7031 Q71.8594,18.9531 71.8594,19.5625 L71.8594,21.0156 Q71.8594,21.625 71.625,21.8906 Q71.3906,22.1563 71.0156,22.1563 Q70.6719,22.1563 70.4688,21.9531 Q70.2656,21.7656 70.1563,21.25 Q70.1094,20.8906 69.9219,20.7031 Q69.5938,20.3281 68.9844,20.1094 Q68.375,19.8906 67.75,19.8906 Q66.9844,19.8906 66.3438,20.2188 Q65.7188,20.5469 65.2188,21.2969 Q64.7344,22.0469 64.7344,23.0781 L64.7344,24.1719 Q64.7344,25.4063 65.625,26.2344 Q66.5156,27.0469 68.1094,27.0469 Q69.0469,27.0469 69.7031,26.7969 Q70.0938,26.6406 70.5156,26.2031 Q70.7813,25.9375 70.9219,25.8594 Q71.0781,25.7813 71.2813,25.7813 Q71.6094,25.7813 71.8594,26.0469 Q72.125,26.2969 72.125,26.6406 Q72.125,26.9844 71.7813,27.3906 Q71.2813,27.9688 70.4844,28.2969 Q69.4063,28.75 68.1094,28.75 Q66.5938,28.75 65.3906,28.125 Q64.4063,27.625 63.7188,26.5625 Q63.0313,25.4844 63.0313,24.2031 L63.0313,23.0469 Q63.0313,21.7188 63.6406,20.5781 Q64.2656,19.4219 65.3594,18.8125 Q66.4531,18.1875 67.6875,18.1875 Q68.4219,18.1875 69.0625,18.3594 Q69.7188,18.5156 70.2656,18.875 Z " fill="#000000"/><text fill="#000000" font-family="sans-serif" font-size="14" lengthAdjust="spacing" textLength="34" x="81.5" y="28.7285">Fruta</text><line style="stroke:#181818;stroke-width:0.5;" x1="53.5" x2="117.5" y1="39" y2="39"/><line style="stroke:#181818;stroke-width:0.5;" x1="53.5" x2="117.5" y1="47" y2="47"/></g><!--MD5=[543bc086b4b831ac4fd764110488922e]
class Tallo--><g id="elem_Tallo"><rect fill="#F1F1F1" height="48" id="Tallo" rx="2.5" ry="2.5" style="stroke:#181818;stroke-width:0.5;" width="63" x="7" y="115"/><ellipse cx="22" cy="131" fill="#ADD1B2" rx="11" ry="11" style="stroke:#181818;stroke-width:1.0;"/><path d="M24.7656,126.875 Q24.9219,126.6563 25.1094,126.5469 Q25.2969,126.4375 25.5156,126.4375 Q25.8906,126.4375 26.125,126.7031 Q26.3594,126.9531 26.3594,127.5625 L26.3594,129.0156 Q26.3594,129.625 26.125,129.8906 Q25.8906,130.1563 25.5156,130.1563 Q25.1719,130.1563 24.9688,129.9531 Q24.7656,129.7656 24.6563,129.25 Q24.6094,128.8906 24.4219,128.7031 Q24.0938,128.3281 23.4844,128.1094 Q22.875,127.8906 22.25,127.8906 Q21.4844,127.8906 20.8438,128.2188 Q20.2188,128.5469 19.7188,129.2969 Q19.2344,130.0469 19.2344,131.0781 L19.2344,132.1719 Q19.2344,133.4063 20.125,134.2344 Q21.0156,135.0469 22.6094,135.0469 Q23.5469,135.0469 24.2031,134.7969 Q24.5938,134.6406 25.0156,134.2031 Q25.2813,133.9375 25.4219,133.8594 Q25.5781,133.7813 25.7813,133.7813 Q26.1094,133.7813 26.3594,134.0469 Q26.625,134.2969 26.625,134.6406 Q26.625,134.9844 26.2813,135.3906 Q25.7813,135.9688 24.9844,136.2969 Q23.9063,136.75 22.6094,136.75 Q21.0938,136.75 19.8906,136.125 Q18.9063,135.625 18.2188,134.5625 Q17.5313,133.4844 17.5313,132.2031 L17.5313,131.0469 Q17.5313,129.7188 18.1406,128.5781 Q18.7656,127.4219 19.8594,126.8125 Q20.9531,126.1875 22.1875,126.1875 Q22.9219,126.1875 23.5625,126.3594 Q24.2188,126.5156 24.7656,126.875 Z " fill="#000000"/><text fill="#000000" font-family="sans-serif" font-size="14" lengthAdjust="spacing" textLength="31" x="36" y="136.7285">Tallo</text><line style="stroke:#181818;stroke-width:0.5;" x1="8" x2="69" y1="147" y2="147"/><line style="stroke:#181818;stroke-width:0.5;" x1="8" x2="69" y1="155" y2="155"/></g><!--MD5=[f7243fbbc54184e137491ec4480c650b]
class Piel--><g id="elem_Piel"><rect fill="#F1F1F1" height="48" id="Piel" rx="2.5" ry="2.5" style="stroke:#181818;stroke-width:0.5;" width="55" x="105" y="115"/><ellipse cx="120" cy="131" fill="#ADD1B2" rx="11" ry="11" style="stroke:#181818;stroke-width:1.0;"/><path d="M122.7656,126.875 Q122.9219,126.6563 123.1094,126.5469 Q123.2969,126.4375 123.5156,126.4375 Q123.8906,126.4375 124.125,126.7031 Q124.3594,126.9531 124.3594,127.5625 L124.3594,129.0156 Q124.3594,129.625 124.125,129.8906 Q123.8906,130.1563 123.5156,130.1563 Q123.1719,130.1563 122.9688,129.9531 Q122.7656,129.7656 122.6563,129.25 Q122.6094,128.8906 122.4219,128.7031 Q122.0938,128.3281 121.4844,128.1094 Q120.875,127.8906 120.25,127.8906 Q119.4844,127.8906 118.8438,128.2188 Q118.2188,128.5469 117.7188,129.2969 Q117.2344,130.0469 117.2344,131.0781 L117.2344,132.1719 Q117.2344,133.4063 118.125,134.2344 Q119.0156,135.0469 120.6094,135.0469 Q121.5469,135.0469 122.2031,134.7969 Q122.5938,134.6406 123.0156,134.2031 Q123.2813,133.9375 123.4219,133.8594 Q123.5781,133.7813 123.7813,133.7813 Q124.1094,133.7813 124.3594,134.0469 Q124.625,134.2969 124.625,134.6406 Q124.625,134.9844 124.2813,135.3906 Q123.7813,135.9688 122.9844,136.2969 Q121.9063,136.75 120.6094,136.75 Q119.0938,136.75 117.8906,136.125 Q116.9063,135.625 116.2188,134.5625 Q115.5313,133.4844 115.5313,132.2031 L115.5313,131.0469 Q115.5313,129.7188 116.1406,128.5781 Q116.7656,127.4219 117.8594,126.8125 Q118.9531,126.1875 120.1875,126.1875 Q120.9219,126.1875 121.5625,126.3594 Q122.2188,126.5156 122.7656,126.875 Z " fill="#000000"/><text fill="#000000" font-family="sans-serif" font-size="14" lengthAdjust="spacing" textLength="23" x="134" y="136.7285">Piel</text><line style="stroke:#181818;stroke-width:0.5;" x1="106" x2="159" y1="147" y2="147"/><line style="stroke:#181818;stroke-width:0.5;" x1="106" x2="159" y1="155" y2="155"/></g><!--MD5=[e9c6bea047b3366206cea167014b4c29]
reverse link Fruta to Tallo--><g id="link_Fruta_Tallo"><path codeLine="2" d="M70.01,66.94 C63.06,82.61 55.05,100.68 48.84,114.68 " fill="none" id="Fruta-backto-Tallo" style="stroke:#181818;stroke-width:1.0;"/><polygon fill="#181818" points="75.3,55,69.2109,58.8631,70.4349,65.9695,76.524,62.1065,75.3,55" style="stroke:#181818;stroke-width:1.0;"/></g><!--MD5=[b6fb8e103298d44e8a339b3361f23341]
reverse link Fruta to Piel--><g id="link_Fruta_Piel"><path codeLine="3" d="M100.99,66.94 C107.94,82.61 115.95,100.68 122.16,114.68 " fill="none" id="Fruta-backto-Piel" style="stroke:#181818;stroke-width:1.0;"/><polygon fill="#181818" points="95.7,55,94.476,62.1065,100.5651,65.9695,101.7891,58.8631,95.7,55" style="stroke:#181818;stroke-width:1.0;"/></g><!--MD5=[4b526fad6129fe5f5466ec2c58d942ff]
@startuml Composición

Fruta *- - Tallo
Fruta *- - Piel

@enduml

PlantUML version 1.2022.5(Sat Apr 30 12:55:52 CEST 2022)
(GPL source distribution)
Java Runtime: OpenJDK Runtime Environment
JVM: OpenJDK 64-Bit Server VM
Default Encoding: UTF-8
Language: es
Country: ES
--></g></svg>