<?xml version="1.0" encoding="UTF-8" standalone="no"?><svg xmlns="http://www.w3.org/2000/svg" xmlns:xlink="http://www.w3.org/1999/xlink" contentStyleType="text/css" height="376px" preserveAspectRatio="none" style="width:99px;height:376px;background:#FFFFFF;" version="1.1" viewBox="0 0 99 376" width="99px" zoomAndPan="magnify"><defs/><g><!--class Entity--><g id="elem_Entity"><rect fill="#F1F1F1" height="32" id="Entity" rx="2.5" ry="2.5" style="stroke:#181818;stroke-width:0.5;" width="67" x="16" y="7"/><ellipse cx="31" cy="23" fill="#ADD1B2" rx="11" ry="11" style="stroke:#181818;stroke-width:1.0;"/><path d="M33.7656,18.875 Q33.9219,18.6563 34.1094,18.5469 Q34.2969,18.4375 34.5156,18.4375 Q34.8906,18.4375 35.125,18.7031 Q35.3594,18.9531 35.3594,19.5625 L35.3594,21.0156 Q35.3594,21.625 35.125,21.8906 Q34.8906,22.1563 34.5156,22.1563 Q34.1719,22.1563 33.9688,21.9531 Q33.7656,21.7656 33.6563,21.25 Q33.6094,20.8906 33.4219,20.7031 Q33.0938,20.3281 32.4844,20.1094 Q31.875,19.8906 31.25,19.8906 Q30.4844,19.8906 29.8438,20.2188 Q29.2188,20.5469 28.7188,21.2969 Q28.2344,22.0469 28.2344,23.0781 L28.2344,24.1719 Q28.2344,25.4063 29.125,26.2344 Q30.0156,27.0469 31.6094,27.0469 Q32.5469,27.0469 33.2031,26.7969 Q33.5938,26.6406 34.0156,26.2031 Q34.2813,25.9375 34.4219,25.8594 Q34.5781,25.7813 34.7813,25.7813 Q35.1094,25.7813 35.3594,26.0469 Q35.625,26.2969 35.625,26.6406 Q35.625,26.9844 35.2813,27.3906 Q34.7813,27.9688 33.9844,28.2969 Q32.9063,28.75 31.6094,28.75 Q30.0938,28.75 28.8906,28.125 Q27.9063,27.625 27.2188,26.5625 Q26.5313,25.4844 26.5313,24.2031 L26.5313,23.0469 Q26.5313,21.7188 27.1406,20.5781 Q27.7656,19.4219 28.8594,18.8125 Q29.9531,18.1875 31.1875,18.1875 Q31.9219,18.1875 32.5625,18.3594 Q33.2188,18.5156 33.7656,18.875 Z " fill="#000000"/><text fill="#000000" font-family="sans-serif" font-size="14" lengthAdjust="spacing" textLength="35" x="45" y="28.7285">Entity</text></g><!--class Movable--><g id="elem_Movable"><rect fill="#F1F1F1" height="32" id="Movable" rx="2.5" ry="2.5" style="stroke:#181818;stroke-width:0.5;" width="85" x="7" y="117"/><ellipse cx="22" cy="133" fill="#ADD1B2" rx="11" ry="11" style="stroke:#181818;stroke-width:1.0;"/><path d="M24.7656,128.875 Q24.9219,128.6563 25.1094,128.5469 Q25.2969,128.4375 25.5156,128.4375 Q25.8906,128.4375 26.125,128.7031 Q26.3594,128.9531 26.3594,129.5625 L26.3594,131.0156 Q26.3594,131.625 26.125,131.8906 Q25.8906,132.1563 25.5156,132.1563 Q25.1719,132.1563 24.9688,131.9531 Q24.7656,131.7656 24.6563,131.25 Q24.6094,130.8906 24.4219,130.7031 Q24.0938,130.3281 23.4844,130.1094 Q22.875,129.8906 22.25,129.8906 Q21.4844,129.8906 20.8438,130.2188 Q20.2188,130.5469 19.7188,131.2969 Q19.2344,132.0469 19.2344,133.0781 L19.2344,134.1719 Q19.2344,135.4063 20.125,136.2344 Q21.0156,137.0469 22.6094,137.0469 Q23.5469,137.0469 24.2031,136.7969 Q24.5938,136.6406 25.0156,136.2031 Q25.2813,135.9375 25.4219,135.8594 Q25.5781,135.7813 25.7813,135.7813 Q26.1094,135.7813 26.3594,136.0469 Q26.625,136.2969 26.625,136.6406 Q26.625,136.9844 26.2813,137.3906 Q25.7813,137.9688 24.9844,138.2969 Q23.9063,138.75 22.6094,138.75 Q21.0938,138.75 19.8906,138.125 Q18.9063,137.625 18.2188,136.5625 Q17.5313,135.4844 17.5313,134.2031 L17.5313,133.0469 Q17.5313,131.7188 18.1406,130.5781 Q18.7656,129.4219 19.8594,128.8125 Q20.9531,128.1875 22.1875,128.1875 Q22.9219,128.1875 23.5625,128.3594 Q24.2188,128.5156 24.7656,128.875 Z " fill="#000000"/><text fill="#000000" font-family="sans-serif" font-size="14" lengthAdjust="spacing" textLength="53" x="36" y="138.7285">Movable</text></g><!--class Visible--><g id="elem_Visible"><rect fill="#F1F1F1" height="32" id="Visible" rx="2.5" ry="2.5" style="stroke:#181818;stroke-width:0.5;" width="73" x="13" y="227"/><ellipse cx="28" cy="243" fill="#ADD1B2" rx="11" ry="11" style="stroke:#181818;stroke-width:1.0;"/><path d="M30.7656,238.875 Q30.9219,238.6563 31.1094,238.5469 Q31.2969,238.4375 31.5156,238.4375 Q31.8906,238.4375 32.125,238.7031 Q32.3594,238.9531 32.3594,239.5625 L32.3594,241.0156 Q32.3594,241.625 32.125,241.8906 Q31.8906,242.1563 31.5156,242.1563 Q31.1719,242.1563 30.9688,241.9531 Q30.7656,241.7656 30.6563,241.25 Q30.6094,240.8906 30.4219,240.7031 Q30.0938,240.3281 29.4844,240.1094 Q28.875,239.8906 28.25,239.8906 Q27.4844,239.8906 26.8438,240.2188 Q26.2188,240.5469 25.7188,241.2969 Q25.2344,242.0469 25.2344,243.0781 L25.2344,244.1719 Q25.2344,245.4063 26.125,246.2344 Q27.0156,247.0469 28.6094,247.0469 Q29.5469,247.0469 30.2031,246.7969 Q30.5938,246.6406 31.0156,246.2031 Q31.2813,245.9375 31.4219,245.8594 Q31.5781,245.7813 31.7813,245.7813 Q32.1094,245.7813 32.3594,246.0469 Q32.625,246.2969 32.625,246.6406 Q32.625,246.9844 32.2813,247.3906 Q31.7813,247.9688 30.9844,248.2969 Q29.9063,248.75 28.6094,248.75 Q27.0938,248.75 25.8906,248.125 Q24.9063,247.625 24.2188,246.5625 Q23.5313,245.4844 23.5313,244.2031 L23.5313,243.0469 Q23.5313,241.7188 24.1406,240.5781 Q24.7656,239.4219 25.8594,238.8125 Q26.9531,238.1875 28.1875,238.1875 Q28.9219,238.1875 29.5625,238.3594 Q30.2188,238.5156 30.7656,238.875 Z " fill="#000000"/><text fill="#000000" font-family="sans-serif" font-size="14" lengthAdjust="spacing" textLength="41" x="42" y="248.7285">Visible</text></g><!--class Player--><g id="elem_Player"><rect fill="#F1F1F1" height="32" id="Player" rx="2.5" ry="2.5" style="stroke:#181818;stroke-width:0.5;" width="72" x="13.5" y="337"/><ellipse cx="28.5" cy="353" fill="#ADD1B2" rx="11" ry="11" style="stroke:#181818;stroke-width:1.0;"/><path d="M31.2656,348.875 Q31.4219,348.6563 31.6094,348.5469 Q31.7969,348.4375 32.0156,348.4375 Q32.3906,348.4375 32.625,348.7031 Q32.8594,348.9531 32.8594,349.5625 L32.8594,351.0156 Q32.8594,351.625 32.625,351.8906 Q32.3906,352.1563 32.0156,352.1563 Q31.6719,352.1563 31.4688,351.9531 Q31.2656,351.7656 31.1563,351.25 Q31.1094,350.8906 30.9219,350.7031 Q30.5938,350.3281 29.9844,350.1094 Q29.375,349.8906 28.75,349.8906 Q27.9844,349.8906 27.3438,350.2188 Q26.7188,350.5469 26.2188,351.2969 Q25.7344,352.0469 25.7344,353.0781 L25.7344,354.1719 Q25.7344,355.4063 26.625,356.2344 Q27.5156,357.0469 29.1094,357.0469 Q30.0469,357.0469 30.7031,356.7969 Q31.0938,356.6406 31.5156,356.2031 Q31.7813,355.9375 31.9219,355.8594 Q32.0781,355.7813 32.2813,355.7813 Q32.6094,355.7813 32.8594,356.0469 Q33.125,356.2969 33.125,356.6406 Q33.125,356.9844 32.7813,357.3906 Q32.2813,357.9688 31.4844,358.2969 Q30.4063,358.75 29.1094,358.75 Q27.5938,358.75 26.3906,358.125 Q25.4063,357.625 24.7188,356.5625 Q24.0313,355.4844 24.0313,354.2031 L24.0313,353.0469 Q24.0313,351.7188 24.6406,350.5781 Q25.2656,349.4219 26.3594,348.8125 Q27.4531,348.1875 28.6875,348.1875 Q29.4219,348.1875 30.0625,348.3594 Q30.7188,348.5156 31.2656,348.875 Z " fill="#000000"/><text fill="#000000" font-family="sans-serif" font-size="14" lengthAdjust="spacing" textLength="40" x="42.5" y="358.7285">Player</text></g><!--reverse link Entity to Movable--><g id="link_Entity_Movable"><path codeLine="1" d="M49.5,59.11 C49.5,78.61 49.5,101.85 49.5,116.76 " fill="none" id="Entity-backto-Movable" style="stroke:#181818;stroke-width:1.0;"/><polygon fill="none" points="42.5,59.02,49.5,39.02,56.5,59.02,42.5,59.02" style="stroke:#181818;stroke-width:1.0;"/><text fill="#000000" font-family="sans-serif" font-size="13" lengthAdjust="spacing" textLength="32" x="50.5" y="83.4951">es-un</text></g><!--reverse link Movable to Visible--><g id="link_Movable_Visible"><path codeLine="2" d="M49.5,169.11 C49.5,188.61 49.5,211.85 49.5,226.76 " fill="none" id="Movable-backto-Visible" style="stroke:#181818;stroke-width:1.0;"/><polygon fill="none" points="42.5,169.02,49.5,149.02,56.5,169.02,42.5,169.02" style="stroke:#181818;stroke-width:1.0;"/><text fill="#000000" font-family="sans-serif" font-size="13" lengthAdjust="spacing" textLength="32" x="50.5" y="193.4951">es-un</text></g><!--reverse link Visible to Player--><g id="link_Visible_Player"><path codeLine="3" d="M49.5,279.11 C49.5,298.61 49.5,321.85 49.5,336.76 " fill="none" id="Visible-backto-Player" style="stroke:#181818;stroke-width:1.0;"/><polygon fill="none" points="42.5,279.02,49.5,259.02,56.5,279.02,42.5,279.02" style="stroke:#181818;stroke-width:1.0;"/><text fill="#000000" font-family="sans-serif" font-size="13" lengthAdjust="spacing" textLength="32" x="50.5" y="303.4951">es-un</text></g><!--SRC=[SyqhoIofLB2fqTLLyCqlIqpAILMmKaWjrYtDuuBomN9XcSMPo79GFbWk82UnChK8BfMHcPAga9kQcvHQL0m0]--></g></svg>