<?xml version="1.0" encoding="UTF-8" standalone="no"?><svg xmlns="http://www.w3.org/2000/svg" xmlns:xlink="http://www.w3.org/1999/xlink" contentScriptType="application/ecmascript" contentStyleType="text/css" height="380px" preserveAspectRatio="none" style="width:101px;height:380px;background:#FFFFFF;" version="1.1" viewBox="0 0 101 380" width="101px" zoomAndPan="magnify"><defs><filter height="300%" id="fay2261khjbpb" width="300%" x="-1" y="-1"><feGaussianBlur result="blurOut" stdDeviation="2.0"/><feColorMatrix in="blurOut" result="blurOut2" type="matrix" values="0 0 0 0 0 0 0 0 0 0 0 0 0 0 0 0 0 0 .4 0"/><feOffset dx="4.0" dy="4.0" in="blurOut2" result="blurOut3"/><feBlend in="SourceGraphic" in2="blurOut3" mode="normal"/></filter></defs><g><!--MD5=[be996cdb8e6bf2fc7cb89c555f2cd144]
class Entity--><rect fill="#FEFECE" filter="url(#fay2261khjbpb)" height="32" id="Entity" style="stroke:#A80036;stroke-width:1.5;" width="63" x="15.5" y="7"/><ellipse cx="30.5" cy="23" fill="#ADD1B2" rx="11" ry="11" style="stroke:#A80036;stroke-width:1.0;"/><path d="M32.9731,29.1431 Q32.3921,29.4419 31.7529,29.5913 Q31.1138,29.7407 30.4082,29.7407 Q27.9014,29.7407 26.5815,28.0889 Q25.2617,26.437 25.2617,23.3159 Q25.2617,20.1865 26.5815,18.5347 Q27.9014,16.8828 30.4082,16.8828 Q31.1138,16.8828 31.7612,17.0322 Q32.4087,17.1816 32.9731,17.4805 L32.9731,20.2031 Q32.3423,19.6221 31.7488,19.3523 Q31.1553,19.0825 30.5244,19.0825 Q29.1797,19.0825 28.4949,20.1492 Q27.8101,21.2158 27.8101,23.3159 Q27.8101,25.4077 28.4949,26.4744 Q29.1797,27.541 30.5244,27.541 Q31.1553,27.541 31.7488,27.2712 Q32.3423,27.0015 32.9731,26.4204 Z " fill="#000000"/><text fill="#000000" font-family="sans-serif" font-size="12" lengthAdjust="spacing" textLength="31" x="44.5" y="27.5352">Entity</text><!--MD5=[cbc984a6a6086109243884c87806a70e]
class Movable--><rect fill="#FEFECE" filter="url(#fay2261khjbpb)" height="32" id="Movable" style="stroke:#A80036;stroke-width:1.5;" width="80" x="7" y="116"/><ellipse cx="22" cy="132" fill="#ADD1B2" rx="11" ry="11" style="stroke:#A80036;stroke-width:1.0;"/><path d="M24.4731,138.1431 Q23.8921,138.4419 23.2529,138.5913 Q22.6138,138.7407 21.9082,138.7407 Q19.4014,138.7407 18.0815,137.0889 Q16.7617,135.437 16.7617,132.3159 Q16.7617,129.1865 18.0815,127.5347 Q19.4014,125.8828 21.9082,125.8828 Q22.6138,125.8828 23.2612,126.0322 Q23.9087,126.1816 24.4731,126.4805 L24.4731,129.2031 Q23.8423,128.6221 23.2488,128.3523 Q22.6553,128.0825 22.0244,128.0825 Q20.6797,128.0825 19.9949,129.1492 Q19.3101,130.2158 19.3101,132.3159 Q19.3101,134.4077 19.9949,135.4744 Q20.6797,136.541 22.0244,136.541 Q22.6553,136.541 23.2488,136.2712 Q23.8423,136.0015 24.4731,135.4204 Z " fill="#000000"/><text fill="#000000" font-family="sans-serif" font-size="12" lengthAdjust="spacing" textLength="48" x="36" y="136.5352">Movable</text><!--MD5=[35fa7ce99f1adf91ef35d4c75e6a0d1c]
class Visible--><rect fill="#FEFECE" filter="url(#fay2261khjbpb)" height="32" id="Visible" style="stroke:#A80036;stroke-width:1.5;" width="70" x="12" y="225"/><ellipse cx="27" cy="241" fill="#ADD1B2" rx="11" ry="11" style="stroke:#A80036;stroke-width:1.0;"/><path d="M29.4731,247.1431 Q28.8921,247.4419 28.2529,247.5913 Q27.6138,247.7407 26.9082,247.7407 Q24.4014,247.7407 23.0815,246.0889 Q21.7617,244.437 21.7617,241.3159 Q21.7617,238.1865 23.0815,236.5347 Q24.4014,234.8828 26.9082,234.8828 Q27.6138,234.8828 28.2612,235.0322 Q28.9087,235.1816 29.4731,235.4805 L29.4731,238.2031 Q28.8423,237.6221 28.2488,237.3523 Q27.6553,237.0825 27.0244,237.0825 Q25.6797,237.0825 24.9949,238.1492 Q24.3101,239.2158 24.3101,241.3159 Q24.3101,243.4077 24.9949,244.4744 Q25.6797,245.541 27.0244,245.541 Q27.6553,245.541 28.2488,245.2712 Q28.8423,245.0015 29.4731,244.4204 Z " fill="#000000"/><text fill="#000000" font-family="sans-serif" font-size="12" lengthAdjust="spacing" textLength="38" x="41" y="245.5352">Visible</text><!--MD5=[2cb47ba637a0d19583e6199456f6ad0b]
class Player--><rect fill="#FEFECE" filter="url(#fay2261khjbpb)" height="32" id="Player" style="stroke:#A80036;stroke-width:1.5;" width="67" x="13.5" y="334"/><ellipse cx="28.5" cy="350" fill="#ADD1B2" rx="11" ry="11" style="stroke:#A80036;stroke-width:1.0;"/><path d="M30.9731,356.1431 Q30.3921,356.4419 29.7529,356.5913 Q29.1138,356.7407 28.4082,356.7407 Q25.9014,356.7407 24.5815,355.0889 Q23.2617,353.437 23.2617,350.3159 Q23.2617,347.1865 24.5815,345.5347 Q25.9014,343.8828 28.4082,343.8828 Q29.1138,343.8828 29.7612,344.0322 Q30.4087,344.1816 30.9731,344.4805 L30.9731,347.2031 Q30.3423,346.6221 29.7488,346.3523 Q29.1553,346.0825 28.5244,346.0825 Q27.1797,346.0825 26.4949,347.1492 Q25.8101,348.2158 25.8101,350.3159 Q25.8101,352.4077 26.4949,353.4744 Q27.1797,354.541 28.5244,354.541 Q29.1553,354.541 29.7488,354.2712 Q30.3423,354.0015 30.9731,353.4204 Z " fill="#000000"/><text fill="#000000" font-family="sans-serif" font-size="12" lengthAdjust="spacing" textLength="35" x="42.5" y="354.5352">Player</text><!--MD5=[5b8eaa92dd224dc8459d82dba34df021]
reverse link Entity to Movable--><path codeLine="1" d="M47,59.45 C47,78.54 47,101.09 47,115.7 " fill="none" id="Entity-backto-Movable" style="stroke:#A80036;stroke-width:1.0;"/><polygon fill="none" points="40,59.33,47,39.33,54,59.33,40,59.33" style="stroke:#A80036;stroke-width:1.0;"/><text fill="#000000" font-family="sans-serif" font-size="13" lengthAdjust="spacing" textLength="38" x="48" y="82.5684">es-un</text><!--MD5=[26afc2aeaa9b22f65758e6f255594cf4]
reverse link Movable to Visible--><path codeLine="2" d="M47,168.45 C47,187.54 47,210.09 47,224.7 " fill="none" id="Movable-backto-Visible" style="stroke:#A80036;stroke-width:1.0;"/><polygon fill="none" points="40,168.33,47,148.33,54,168.33,40,168.33" style="stroke:#A80036;stroke-width:1.0;"/><text fill="#000000" font-family="sans-serif" font-size="13" lengthAdjust="spacing" textLength="38" x="48" y="191.5684">es-un</text><!--MD5=[489215d9c830386786861197af447043]
reverse link Visible to Player--><path codeLine="3" d="M47,277.45 C47,296.54 47,319.09 47,333.7 " fill="none" id="Visible-backto-Player" style="stroke:#A80036;stroke-width:1.0;"/><polygon fill="none" points="40,277.33,47,257.33,54,277.33,40,277.33" style="stroke:#A80036;stroke-width:1.0;"/><text fill="#000000" font-family="sans-serif" font-size="13" lengthAdjust="spacing" textLength="38" x="48" y="300.5684">es-un</text><!--MD5=[afd32df4429d13702f5fd12de9522307]
@startuml
Entity <|- - Movable : es-un
Movable<|- - Visible : es-un
Visible<|- - Player : es-un
hide members
@enduml

PlantUML version 1.2021.8(Sat Jun 26 10:20:59 CEST 2021)
(GPL source distribution)
Java Runtime: OpenJDK Runtime Environment
JVM: OpenJDK 64-Bit Server VM
Default Encoding: UTF-8
Language: es
Country: ES
--></g></svg>