<?xml version="1.0" encoding="UTF-8" standalone="no"?><svg xmlns="http://www.w3.org/2000/svg" xmlns:xlink="http://www.w3.org/1999/xlink" contentScriptType="application/ecmascript" contentStyleType="text/css" height="346px" preserveAspectRatio="none" style="width:224px;height:346px;" version="1.1" viewBox="0 0 224 346" width="224px" zoomAndPan="magnify"><defs><filter height="300%" id="fz6jl0txnpxck" width="300%" x="-1" y="-1"><feGaussianBlur result="blurOut" stdDeviation="2.0"/><feColorMatrix in="blurOut" result="blurOut2" type="matrix" values="0 0 0 0 0 0 0 0 0 0 0 0 0 0 0 0 0 0 .4 0"/><feOffset dx="4.0" dy="4.0" in="blurOut2" result="blurOut3"/><feBlend in="SourceGraphic" in2="blurOut3" mode="normal"/></filter></defs><g><!--class Entity--><rect fill="#FEFECE" filter="url(#fz6jl0txnpxck)" height="32" id="Entity" style="stroke: #A80036; stroke-width: 1.5;" width="67" x="90.5" y="8"/><ellipse cx="105.5" cy="24" fill="#ADD1B2" rx="11" ry="11" style="stroke: #A80036; stroke-width: 1.0;"/><path d="M108.4688,29.6406 Q107.8906,29.9375 107.25,30.0781 Q106.6094,30.2344 105.9063,30.2344 Q103.4063,30.2344 102.0781,28.5938 Q100.7656,26.9375 100.7656,23.8125 Q100.7656,20.6875 102.0781,19.0313 Q103.4063,17.375 105.9063,17.375 Q106.6094,17.375 107.25,17.5313 Q107.9063,17.6875 108.4688,17.9844 L108.4688,20.7031 Q107.8438,20.125 107.25,19.8594 Q106.6563,19.5781 106.0313,19.5781 Q104.6875,19.5781 104,20.6563 Q103.3125,21.7188 103.3125,23.8125 Q103.3125,25.9063 104,26.9844 Q104.6875,28.0469 106.0313,28.0469 Q106.6563,28.0469 107.25,27.7813 Q107.8438,27.5 108.4688,26.9219 L108.4688,29.6406 Z "/><text fill="#000000" font-family="sans-serif" font-size="12" lengthAdjust="spacingAndGlyphs" textLength="35" x="119.5" y="28.1807">Entity</text><!--class Movable--><rect fill="#FEFECE" filter="url(#fz6jl0txnpxck)" height="32" id="Movable" style="stroke: #A80036; stroke-width: 1.5;" width="83" x="35.5" y="101"/><ellipse cx="50.5" cy="117" fill="#ADD1B2" rx="11" ry="11" style="stroke: #A80036; stroke-width: 1.0;"/><path d="M53.4688,122.6406 Q52.8906,122.9375 52.25,123.0781 Q51.6094,123.2344 50.9063,123.2344 Q48.4063,123.2344 47.0781,121.5938 Q45.7656,119.9375 45.7656,116.8125 Q45.7656,113.6875 47.0781,112.0313 Q48.4063,110.375 50.9063,110.375 Q51.6094,110.375 52.25,110.5313 Q52.9063,110.6875 53.4688,110.9844 L53.4688,113.7031 Q52.8438,113.125 52.25,112.8594 Q51.6563,112.5781 51.0313,112.5781 Q49.6875,112.5781 49,113.6563 Q48.3125,114.7188 48.3125,116.8125 Q48.3125,118.9063 49,119.9844 Q49.6875,121.0469 51.0313,121.0469 Q51.6563,121.0469 52.25,120.7813 Q52.8438,120.5 53.4688,119.9219 L53.4688,122.6406 Z "/><text fill="#000000" font-family="sans-serif" font-size="12" lengthAdjust="spacingAndGlyphs" textLength="51" x="64.5" y="121.1807">Movable</text><!--class Visible--><rect fill="#FEFECE" filter="url(#fz6jl0txnpxck)" height="32" id="Visible" style="stroke: #A80036; stroke-width: 1.5;" width="72" x="6" y="210"/><ellipse cx="21" cy="226" fill="#ADD1B2" rx="11" ry="11" style="stroke: #A80036; stroke-width: 1.0;"/><path d="M23.9688,231.6406 Q23.3906,231.9375 22.75,232.0781 Q22.1094,232.2344 21.4063,232.2344 Q18.9063,232.2344 17.5781,230.5938 Q16.2656,228.9375 16.2656,225.8125 Q16.2656,222.6875 17.5781,221.0313 Q18.9063,219.375 21.4063,219.375 Q22.1094,219.375 22.75,219.5313 Q23.4063,219.6875 23.9688,219.9844 L23.9688,222.7031 Q23.3438,222.125 22.75,221.8594 Q22.1563,221.5781 21.5313,221.5781 Q20.1875,221.5781 19.5,222.6563 Q18.8125,223.7188 18.8125,225.8125 Q18.8125,227.9063 19.5,228.9844 Q20.1875,230.0469 21.5313,230.0469 Q22.1563,230.0469 22.75,229.7813 Q23.3438,229.5 23.9688,228.9219 L23.9688,231.6406 Z "/><text fill="#000000" font-family="sans-serif" font-size="12" lengthAdjust="spacingAndGlyphs" textLength="40" x="35" y="230.1807">Visible</text><!--class Player--><rect fill="#FEFECE" filter="url(#fz6jl0txnpxck)" height="32" id="Player" style="stroke: #A80036; stroke-width: 1.5;" width="70" x="67" y="303"/><ellipse cx="82" cy="319" fill="#ADD1B2" rx="11" ry="11" style="stroke: #A80036; stroke-width: 1.0;"/><path d="M84.9688,324.6406 Q84.3906,324.9375 83.75,325.0781 Q83.1094,325.2344 82.4063,325.2344 Q79.9063,325.2344 78.5781,323.5938 Q77.2656,321.9375 77.2656,318.8125 Q77.2656,315.6875 78.5781,314.0313 Q79.9063,312.375 82.4063,312.375 Q83.1094,312.375 83.75,312.5313 Q84.4063,312.6875 84.9688,312.9844 L84.9688,315.7031 Q84.3438,315.125 83.75,314.8594 Q83.1563,314.5781 82.5313,314.5781 Q81.1875,314.5781 80.5,315.6563 Q79.8125,316.7188 79.8125,318.8125 Q79.8125,320.9063 80.5,321.9844 Q81.1875,323.0469 82.5313,323.0469 Q83.1563,323.0469 83.75,322.7813 Q84.3438,322.5 84.9688,321.9219 L84.9688,324.6406 Z "/><text fill="#000000" font-family="sans-serif" font-size="12" lengthAdjust="spacingAndGlyphs" textLength="38" x="96" y="323.1807">Player</text><!--class NoMovable--><rect fill="#FEFECE" filter="url(#fz6jl0txnpxck)" height="32" id="NoMovable" style="stroke: #A80036; stroke-width: 1.5;" width="100" x="113" y="210"/><ellipse cx="128" cy="226" fill="#ADD1B2" rx="11" ry="11" style="stroke: #A80036; stroke-width: 1.0;"/><path d="M130.9688,231.6406 Q130.3906,231.9375 129.75,232.0781 Q129.1094,232.2344 128.4063,232.2344 Q125.9063,232.2344 124.5781,230.5938 Q123.2656,228.9375 123.2656,225.8125 Q123.2656,222.6875 124.5781,221.0313 Q125.9063,219.375 128.4063,219.375 Q129.1094,219.375 129.75,219.5313 Q130.4063,219.6875 130.9688,219.9844 L130.9688,222.7031 Q130.3438,222.125 129.75,221.8594 Q129.1563,221.5781 128.5313,221.5781 Q127.1875,221.5781 126.5,222.6563 Q125.8125,223.7188 125.8125,225.8125 Q125.8125,227.9063 126.5,228.9844 Q127.1875,230.0469 128.5313,230.0469 Q129.1563,230.0469 129.75,229.7813 Q130.3438,229.5 130.9688,228.9219 L130.9688,231.6406 Z "/><text fill="#000000" font-family="sans-serif" font-size="12" lengthAdjust="spacingAndGlyphs" textLength="68" x="142" y="230.1807">NoMovable</text><!--link Entity to Movable--><path d="M106.84,58.23 C99.27,72.88 90.76,89.35 84.77,100.95 " fill="none" id="Entity-Movable" style="stroke: #A80036; stroke-width: 1.0;"/><polygon fill="none" points="100.84,54.58,116.24,40.03,113.28,61.01,100.84,54.58" style="stroke: #A80036; stroke-width: 1.0;"/><!--link Movable to Visible--><path d="M65.71,152.52 C59.4,171.8 51.86,194.85 47.01,209.7 " fill="none" id="Movable-Visible" style="stroke: #A80036; stroke-width: 1.0;"/><polygon fill="none" points="59.11,150.16,71.99,133.33,72.42,154.52,59.11,150.16" style="stroke: #A80036; stroke-width: 1.0;"/><!--link Visible to Player--><path d="M62.93,258.74 C72.82,273.75 84.17,290.96 92.08,302.95 " fill="none" id="Visible-Player" style="stroke: #A80036; stroke-width: 1.0;"/><polygon fill="none" points="57.07,262.58,51.91,242.03,68.76,254.87,57.07,262.58" style="stroke: #A80036; stroke-width: 1.0;"/><!--link Entity to NoMovable--><path d="M130.77,59.71 C139.37,103.81 153.84,178 160.03,209.79 " fill="none" id="Entity-NoMovable" style="stroke: #A80036; stroke-width: 1.0;"/><polygon fill="none" points="123.89,61,126.93,40.03,137.63,58.32,123.89,61" style="stroke: #A80036; stroke-width: 1.0;"/><!--link NoMovable to Player--><path d="M141.72,258.74 C131.66,273.75 120.13,290.96 112.09,302.95 " fill="none" id="NoMovable-Player" style="stroke: #A80036; stroke-width: 1.0;"/><polygon fill="none" points="135.98,254.74,152.93,242.03,147.61,262.54,135.98,254.74" style="stroke: #A80036; stroke-width: 1.0;"/><!--link Movable to NoMovable--><path d="M79.99,137.99 C82.72,150.97 87.79,167.69 97,180 C105.14,190.88 116.72,200.03 127.91,207.17 " fill="none" id="Movable-NoMovable" style="stroke: #A80036; stroke-width: 1.0;"/><polygon fill="#A80036" points="132.34,209.91,126.7836,201.7782,128.0856,207.2831,122.5807,208.5852,132.34,209.91" style="stroke: #A80036; stroke-width: 1.0;"/><polygon fill="#A80036" points="79.03,133.04,76.8296,142.6399,79.9886,137.9473,84.6812,141.1062,79.03,133.04" style="stroke: #A80036; stroke-width: 1.0;"/><text fill="#000000" font-family="sans-serif" font-size="13" lengthAdjust="spacingAndGlyphs" textLength="47" x="98" y="176.1494">ERROR!</text><!--
@startuml
Entity <|- - Movable
Movable<|- - Visible 
Visible<|- - Player
Entity <|- - NoMovable
NoMovable<|- - Player
Movable <- -> NoMovable : ERROR!
hide members
@enduml

PlantUML version 1.2019.01(Sat Feb 09 16:32:04 CET 2019)
(LGPL source distribution)
Java Runtime: OpenJDK Runtime Environment
JVM: OpenJDK 64-Bit Server VM
Java Version: 1.8.0_265-b01
Operating System: Linux
OS Version: 5.8.12-200.fc32.x86_64
Default Encoding: UTF-8
Language: es
Country: ES
--></g></svg>