<?xml version="1.0" encoding="UTF-8" standalone="no"?><svg xmlns="http://www.w3.org/2000/svg" xmlns:xlink="http://www.w3.org/1999/xlink" contentStyleType="text/css" height="342px" preserveAspectRatio="none" style="width:224px;height:342px;background:#FFFFFF;" version="1.1" viewBox="0 0 224 342" width="224px" zoomAndPan="magnify"><defs/><g><!--class Entity--><g id="elem_Entity"><rect fill="#F1F1F1" height="32" id="Entity" rx="2.5" ry="2.5" style="stroke:#181818;stroke-width:0.5;" width="67" x="94" y="7"/><ellipse cx="109" cy="23" fill="#ADD1B2" rx="11" ry="11" style="stroke:#181818;stroke-width:1.0;"/><path d="M111.7656,18.875 Q111.9219,18.6563 112.1094,18.5469 Q112.2969,18.4375 112.5156,18.4375 Q112.8906,18.4375 113.125,18.7031 Q113.3594,18.9531 113.3594,19.5625 L113.3594,21.0156 Q113.3594,21.625 113.125,21.8906 Q112.8906,22.1563 112.5156,22.1563 Q112.1719,22.1563 111.9688,21.9531 Q111.7656,21.7656 111.6563,21.25 Q111.6094,20.8906 111.4219,20.7031 Q111.0938,20.3281 110.4844,20.1094 Q109.875,19.8906 109.25,19.8906 Q108.4844,19.8906 107.8438,20.2188 Q107.2188,20.5469 106.7188,21.2969 Q106.2344,22.0469 106.2344,23.0781 L106.2344,24.1719 Q106.2344,25.4063 107.125,26.2344 Q108.0156,27.0469 109.6094,27.0469 Q110.5469,27.0469 111.2031,26.7969 Q111.5938,26.6406 112.0156,26.2031 Q112.2813,25.9375 112.4219,25.8594 Q112.5781,25.7813 112.7813,25.7813 Q113.1094,25.7813 113.3594,26.0469 Q113.625,26.2969 113.625,26.6406 Q113.625,26.9844 113.2813,27.3906 Q112.7813,27.9688 111.9844,28.2969 Q110.9063,28.75 109.6094,28.75 Q108.0938,28.75 106.8906,28.125 Q105.9063,27.625 105.2188,26.5625 Q104.5313,25.4844 104.5313,24.2031 L104.5313,23.0469 Q104.5313,21.7188 105.1406,20.5781 Q105.7656,19.4219 106.8594,18.8125 Q107.9531,18.1875 109.1875,18.1875 Q109.9219,18.1875 110.5625,18.3594 Q111.2188,18.5156 111.7656,18.875 Z " fill="#000000"/><text fill="#000000" font-family="sans-serif" font-size="14" lengthAdjust="spacing" textLength="35" x="123" y="28.7285">Entity</text></g><!--class Movable--><g id="elem_Movable"><rect fill="#F1F1F1" height="32" id="Movable" rx="2.5" ry="2.5" style="stroke:#181818;stroke-width:0.5;" width="85" x="37" y="100"/><ellipse cx="52" cy="116" fill="#ADD1B2" rx="11" ry="11" style="stroke:#181818;stroke-width:1.0;"/><path d="M54.7656,111.875 Q54.9219,111.6563 55.1094,111.5469 Q55.2969,111.4375 55.5156,111.4375 Q55.8906,111.4375 56.125,111.7031 Q56.3594,111.9531 56.3594,112.5625 L56.3594,114.0156 Q56.3594,114.625 56.125,114.8906 Q55.8906,115.1563 55.5156,115.1563 Q55.1719,115.1563 54.9688,114.9531 Q54.7656,114.7656 54.6563,114.25 Q54.6094,113.8906 54.4219,113.7031 Q54.0938,113.3281 53.4844,113.1094 Q52.875,112.8906 52.25,112.8906 Q51.4844,112.8906 50.8438,113.2188 Q50.2188,113.5469 49.7188,114.2969 Q49.2344,115.0469 49.2344,116.0781 L49.2344,117.1719 Q49.2344,118.4063 50.125,119.2344 Q51.0156,120.0469 52.6094,120.0469 Q53.5469,120.0469 54.2031,119.7969 Q54.5938,119.6406 55.0156,119.2031 Q55.2813,118.9375 55.4219,118.8594 Q55.5781,118.7813 55.7813,118.7813 Q56.1094,118.7813 56.3594,119.0469 Q56.625,119.2969 56.625,119.6406 Q56.625,119.9844 56.2813,120.3906 Q55.7813,120.9688 54.9844,121.2969 Q53.9063,121.75 52.6094,121.75 Q51.0938,121.75 49.8906,121.125 Q48.9063,120.625 48.2188,119.5625 Q47.5313,118.4844 47.5313,117.2031 L47.5313,116.0469 Q47.5313,114.7188 48.1406,113.5781 Q48.7656,112.4219 49.8594,111.8125 Q50.9531,111.1875 52.1875,111.1875 Q52.9219,111.1875 53.5625,111.3594 Q54.2188,111.5156 54.7656,111.875 Z " fill="#000000"/><text fill="#000000" font-family="sans-serif" font-size="14" lengthAdjust="spacing" textLength="53" x="66" y="121.7285">Movable</text></g><!--class Visible--><g id="elem_Visible"><rect fill="#F1F1F1" height="32" id="Visible" rx="2.5" ry="2.5" style="stroke:#181818;stroke-width:0.5;" width="73" x="7" y="210"/><ellipse cx="22" cy="226" fill="#ADD1B2" rx="11" ry="11" style="stroke:#181818;stroke-width:1.0;"/><path d="M24.7656,221.875 Q24.9219,221.6563 25.1094,221.5469 Q25.2969,221.4375 25.5156,221.4375 Q25.8906,221.4375 26.125,221.7031 Q26.3594,221.9531 26.3594,222.5625 L26.3594,224.0156 Q26.3594,224.625 26.125,224.8906 Q25.8906,225.1563 25.5156,225.1563 Q25.1719,225.1563 24.9688,224.9531 Q24.7656,224.7656 24.6563,224.25 Q24.6094,223.8906 24.4219,223.7031 Q24.0938,223.3281 23.4844,223.1094 Q22.875,222.8906 22.25,222.8906 Q21.4844,222.8906 20.8438,223.2188 Q20.2188,223.5469 19.7188,224.2969 Q19.2344,225.0469 19.2344,226.0781 L19.2344,227.1719 Q19.2344,228.4063 20.125,229.2344 Q21.0156,230.0469 22.6094,230.0469 Q23.5469,230.0469 24.2031,229.7969 Q24.5938,229.6406 25.0156,229.2031 Q25.2813,228.9375 25.4219,228.8594 Q25.5781,228.7813 25.7813,228.7813 Q26.1094,228.7813 26.3594,229.0469 Q26.625,229.2969 26.625,229.6406 Q26.625,229.9844 26.2813,230.3906 Q25.7813,230.9688 24.9844,231.2969 Q23.9063,231.75 22.6094,231.75 Q21.0938,231.75 19.8906,231.125 Q18.9063,230.625 18.2188,229.5625 Q17.5313,228.4844 17.5313,227.2031 L17.5313,226.0469 Q17.5313,224.7188 18.1406,223.5781 Q18.7656,222.4219 19.8594,221.8125 Q20.9531,221.1875 22.1875,221.1875 Q22.9219,221.1875 23.5625,221.3594 Q24.2188,221.5156 24.7656,221.875 Z " fill="#000000"/><text fill="#000000" font-family="sans-serif" font-size="14" lengthAdjust="spacing" textLength="41" x="36" y="231.7285">Visible</text></g><!--class Player--><g id="elem_Player"><rect fill="#F1F1F1" height="32" id="Player" rx="2.5" ry="2.5" style="stroke:#181818;stroke-width:0.5;" width="72" x="68.5" y="303"/><ellipse cx="83.5" cy="319" fill="#ADD1B2" rx="11" ry="11" style="stroke:#181818;stroke-width:1.0;"/><path d="M86.2656,314.875 Q86.4219,314.6563 86.6094,314.5469 Q86.7969,314.4375 87.0156,314.4375 Q87.3906,314.4375 87.625,314.7031 Q87.8594,314.9531 87.8594,315.5625 L87.8594,317.0156 Q87.8594,317.625 87.625,317.8906 Q87.3906,318.1563 87.0156,318.1563 Q86.6719,318.1563 86.4688,317.9531 Q86.2656,317.7656 86.1563,317.25 Q86.1094,316.8906 85.9219,316.7031 Q85.5938,316.3281 84.9844,316.1094 Q84.375,315.8906 83.75,315.8906 Q82.9844,315.8906 82.3438,316.2188 Q81.7188,316.5469 81.2188,317.2969 Q80.7344,318.0469 80.7344,319.0781 L80.7344,320.1719 Q80.7344,321.4063 81.625,322.2344 Q82.5156,323.0469 84.1094,323.0469 Q85.0469,323.0469 85.7031,322.7969 Q86.0938,322.6406 86.5156,322.2031 Q86.7813,321.9375 86.9219,321.8594 Q87.0781,321.7813 87.2813,321.7813 Q87.6094,321.7813 87.8594,322.0469 Q88.125,322.2969 88.125,322.6406 Q88.125,322.9844 87.7813,323.3906 Q87.2813,323.9688 86.4844,324.2969 Q85.4063,324.75 84.1094,324.75 Q82.5938,324.75 81.3906,324.125 Q80.4063,323.625 79.7188,322.5625 Q79.0313,321.4844 79.0313,320.2031 L79.0313,319.0469 Q79.0313,317.7188 79.6406,316.5781 Q80.2656,315.4219 81.3594,314.8125 Q82.4531,314.1875 83.6875,314.1875 Q84.4219,314.1875 85.0625,314.3594 Q85.7188,314.5156 86.2656,314.875 Z " fill="#000000"/><text fill="#000000" font-family="sans-serif" font-size="14" lengthAdjust="spacing" textLength="40" x="97.5" y="324.7285">Player</text></g><!--class NoMovable--><g id="elem_NoMovable"><rect fill="#F1F1F1" height="32" id="NoMovable" rx="2.5" ry="2.5" style="stroke:#181818;stroke-width:0.5;" width="102" x="115.5" y="210"/><ellipse cx="130.5" cy="226" fill="#ADD1B2" rx="11" ry="11" style="stroke:#181818;stroke-width:1.0;"/><path d="M133.2656,221.875 Q133.4219,221.6563 133.6094,221.5469 Q133.7969,221.4375 134.0156,221.4375 Q134.3906,221.4375 134.625,221.7031 Q134.8594,221.9531 134.8594,222.5625 L134.8594,224.0156 Q134.8594,224.625 134.625,224.8906 Q134.3906,225.1563 134.0156,225.1563 Q133.6719,225.1563 133.4688,224.9531 Q133.2656,224.7656 133.1563,224.25 Q133.1094,223.8906 132.9219,223.7031 Q132.5938,223.3281 131.9844,223.1094 Q131.375,222.8906 130.75,222.8906 Q129.9844,222.8906 129.3438,223.2188 Q128.7188,223.5469 128.2188,224.2969 Q127.7344,225.0469 127.7344,226.0781 L127.7344,227.1719 Q127.7344,228.4063 128.625,229.2344 Q129.5156,230.0469 131.1094,230.0469 Q132.0469,230.0469 132.7031,229.7969 Q133.0938,229.6406 133.5156,229.2031 Q133.7813,228.9375 133.9219,228.8594 Q134.0781,228.7813 134.2813,228.7813 Q134.6094,228.7813 134.8594,229.0469 Q135.125,229.2969 135.125,229.6406 Q135.125,229.9844 134.7813,230.3906 Q134.2813,230.9688 133.4844,231.2969 Q132.4063,231.75 131.1094,231.75 Q129.5938,231.75 128.3906,231.125 Q127.4063,230.625 126.7188,229.5625 Q126.0313,228.4844 126.0313,227.2031 L126.0313,226.0469 Q126.0313,224.7188 126.6406,223.5781 Q127.2656,222.4219 128.3594,221.8125 Q129.4531,221.1875 130.6875,221.1875 Q131.4219,221.1875 132.0625,221.3594 Q132.7188,221.5156 133.2656,221.875 Z " fill="#000000"/><text fill="#000000" font-family="sans-serif" font-size="14" lengthAdjust="spacing" textLength="70" x="144.5" y="231.7285">NoMovable</text></g><!--reverse link Entity to Movable--><g id="link_Entity_Movable"><path codeLine="1" d="M110.23,56.73 C102.44,71.5 93.63,88.22 87.44,99.95 " fill="none" id="Entity-backto-Movable" style="stroke:#181818;stroke-width:1.0;"/><polygon fill="none" points="104.05,53.45,119.57,39.03,116.43,59.98,104.05,53.45" style="stroke:#181818;stroke-width:1.0;"/></g><!--reverse link Movable to Visible--><g id="link_Movable_Visible"><path codeLine="2" d="M68.11,151.17 C61.55,170.85 53.63,194.61 48.58,209.76 " fill="none" id="Movable-backto-Visible" style="stroke:#181818;stroke-width:1.0;"/><polygon fill="none" points="61.53,148.78,74.49,132.02,74.81,153.2,61.53,148.78" style="stroke:#181818;stroke-width:1.0;"/></g><!--reverse link Visible to Player--><g id="link_Visible_Player"><path codeLine="3" d="M64.78,258.74 C74.84,273.75 86.37,290.96 94.41,302.95 " fill="none" id="Visible-backto-Player" style="stroke:#181818;stroke-width:1.0;"/><polygon fill="none" points="58.89,262.54,53.57,242.03,70.52,254.74,58.89,262.54" style="stroke:#181818;stroke-width:1.0;"/></g><!--reverse link Entity to NoMovable--><g id="link_Entity_NoMovable"><path codeLine="4" d="M134.28,58.94 C142.91,103.4 157.42,178.21 163.59,209.99 " fill="none" id="Entity-backto-NoMovable" style="stroke:#181818;stroke-width:1.0;"/><polygon fill="none" points="127.37,60.07,130.43,39.11,141.11,57.41,127.37,60.07" style="stroke:#181818;stroke-width:1.0;"/></g><!--reverse link NoMovable to Player--><g id="link_NoMovable_Player"><path codeLine="5" d="M144.88,258.74 C134.65,273.75 122.92,290.96 114.75,302.95 " fill="none" id="NoMovable-backto-Player" style="stroke:#181818;stroke-width:1.0;"/><polygon fill="none" points="139.22,254.61,156.26,242.03,150.79,262.5,139.22,254.61" style="stroke:#181818;stroke-width:1.0;"/></g><!--link Movable to NoMovable--><g id="link_Movable_NoMovable"><path codeLine="6" d="M81.95,137.09 C84.39,150.32 89.17,167.46 98.5,180 C106.7,191.03 118.47,200.17 129.91,207.26 " fill="none" id="Movable-NoMovable" style="stroke:#181818;stroke-width:1.0;"/><polygon fill="#181818" points="81.1,132.05,78.6475,141.5886,81.9289,136.9808,86.5367,140.2623,81.1,132.05" style="stroke:#181818;stroke-width:1.0;"/><polygon fill="#181818" points="134.44,209.98,128.7805,201.9196,130.1525,207.4075,124.6646,208.7795,134.44,209.98" style="stroke:#181818;stroke-width:1.0;"/><text fill="#000000" font-family="sans-serif" font-size="13" lengthAdjust="spacing" textLength="49" x="99.5" y="176.4951">ERROR!</text></g><!--SRC=[SyqhoIofLB2fqTLLyCqlIqpAIUM2qc2niCpYJ21RWGlA00i6v2HMfXPnkIBfzSk7wOQpa9L2XHHiT7Nj46eLh1HSWuByWnIvCZ9JKXLoKtEJKekA0G00]--></g></svg>