<?xml version="1.0" encoding="UTF-8" standalone="no"?><svg xmlns="http://www.w3.org/2000/svg" xmlns:xlink="http://www.w3.org/1999/xlink" contentScriptType="application/ecmascript" contentStyleType="text/css" height="378px" preserveAspectRatio="none" style="width:100px;height:378px;" version="1.1" viewBox="0 0 100 378" width="100px" zoomAndPan="magnify"><defs><filter height="300%" id="fay2261khjbpb" width="300%" x="-1" y="-1"><feGaussianBlur result="blurOut" stdDeviation="2.0"/><feColorMatrix in="blurOut" result="blurOut2" type="matrix" values="0 0 0 0 0 0 0 0 0 0 0 0 0 0 0 0 0 0 .4 0"/><feOffset dx="4.0" dy="4.0" in="blurOut2" result="blurOut3"/><feBlend in="SourceGraphic" in2="blurOut3" mode="normal"/></filter></defs><g><!--class Entity--><rect fill="#FEFECE" filter="url(#fay2261khjbpb)" height="32" id="Entity" style="stroke: #A80036; stroke-width: 1.5;" width="67" x="14" y="8"/><ellipse cx="29" cy="24" fill="#ADD1B2" rx="11" ry="11" style="stroke: #A80036; stroke-width: 1.0;"/><path d="M31.9688,29.6406 Q31.3906,29.9375 30.75,30.0781 Q30.1094,30.2344 29.4063,30.2344 Q26.9063,30.2344 25.5781,28.5938 Q24.2656,26.9375 24.2656,23.8125 Q24.2656,20.6875 25.5781,19.0313 Q26.9063,17.375 29.4063,17.375 Q30.1094,17.375 30.75,17.5313 Q31.4063,17.6875 31.9688,17.9844 L31.9688,20.7031 Q31.3438,20.125 30.75,19.8594 Q30.1563,19.5781 29.5313,19.5781 Q28.1875,19.5781 27.5,20.6563 Q26.8125,21.7188 26.8125,23.8125 Q26.8125,25.9063 27.5,26.9844 Q28.1875,28.0469 29.5313,28.0469 Q30.1563,28.0469 30.75,27.7813 Q31.3438,27.5 31.9688,26.9219 L31.9688,29.6406 Z "/><text fill="#000000" font-family="sans-serif" font-size="12" lengthAdjust="spacingAndGlyphs" textLength="35" x="43" y="28.1807">Entity</text><!--class Movable--><rect fill="#FEFECE" filter="url(#fay2261khjbpb)" height="32" id="Movable" style="stroke: #A80036; stroke-width: 1.5;" width="83" x="6" y="117"/><ellipse cx="21" cy="133" fill="#ADD1B2" rx="11" ry="11" style="stroke: #A80036; stroke-width: 1.0;"/><path d="M23.9688,138.6406 Q23.3906,138.9375 22.75,139.0781 Q22.1094,139.2344 21.4063,139.2344 Q18.9063,139.2344 17.5781,137.5938 Q16.2656,135.9375 16.2656,132.8125 Q16.2656,129.6875 17.5781,128.0313 Q18.9063,126.375 21.4063,126.375 Q22.1094,126.375 22.75,126.5313 Q23.4063,126.6875 23.9688,126.9844 L23.9688,129.7031 Q23.3438,129.125 22.75,128.8594 Q22.1563,128.5781 21.5313,128.5781 Q20.1875,128.5781 19.5,129.6563 Q18.8125,130.7188 18.8125,132.8125 Q18.8125,134.9063 19.5,135.9844 Q20.1875,137.0469 21.5313,137.0469 Q22.1563,137.0469 22.75,136.7813 Q23.3438,136.5 23.9688,135.9219 L23.9688,138.6406 Z "/><text fill="#000000" font-family="sans-serif" font-size="12" lengthAdjust="spacingAndGlyphs" textLength="51" x="35" y="137.1807">Movable</text><!--class Visible--><rect fill="#FEFECE" filter="url(#fay2261khjbpb)" height="32" id="Visible" style="stroke: #A80036; stroke-width: 1.5;" width="72" x="11.5" y="226"/><ellipse cx="26.5" cy="242" fill="#ADD1B2" rx="11" ry="11" style="stroke: #A80036; stroke-width: 1.0;"/><path d="M29.4688,247.6406 Q28.8906,247.9375 28.25,248.0781 Q27.6094,248.2344 26.9063,248.2344 Q24.4063,248.2344 23.0781,246.5938 Q21.7656,244.9375 21.7656,241.8125 Q21.7656,238.6875 23.0781,237.0313 Q24.4063,235.375 26.9063,235.375 Q27.6094,235.375 28.25,235.5313 Q28.9063,235.6875 29.4688,235.9844 L29.4688,238.7031 Q28.8438,238.125 28.25,237.8594 Q27.6563,237.5781 27.0313,237.5781 Q25.6875,237.5781 25,238.6563 Q24.3125,239.7188 24.3125,241.8125 Q24.3125,243.9063 25,244.9844 Q25.6875,246.0469 27.0313,246.0469 Q27.6563,246.0469 28.25,245.7813 Q28.8438,245.5 29.4688,244.9219 L29.4688,247.6406 Z "/><text fill="#000000" font-family="sans-serif" font-size="12" lengthAdjust="spacingAndGlyphs" textLength="40" x="40.5" y="246.1807">Visible</text><!--class Player--><rect fill="#FEFECE" filter="url(#fay2261khjbpb)" height="32" id="Player" style="stroke: #A80036; stroke-width: 1.5;" width="70" x="12.5" y="335"/><ellipse cx="27.5" cy="351" fill="#ADD1B2" rx="11" ry="11" style="stroke: #A80036; stroke-width: 1.0;"/><path d="M30.4688,356.6406 Q29.8906,356.9375 29.25,357.0781 Q28.6094,357.2344 27.9063,357.2344 Q25.4063,357.2344 24.0781,355.5938 Q22.7656,353.9375 22.7656,350.8125 Q22.7656,347.6875 24.0781,346.0313 Q25.4063,344.375 27.9063,344.375 Q28.6094,344.375 29.25,344.5313 Q29.9063,344.6875 30.4688,344.9844 L30.4688,347.7031 Q29.8438,347.125 29.25,346.8594 Q28.6563,346.5781 28.0313,346.5781 Q26.6875,346.5781 26,347.6563 Q25.3125,348.7188 25.3125,350.8125 Q25.3125,352.9063 26,353.9844 Q26.6875,355.0469 28.0313,355.0469 Q28.6563,355.0469 29.25,354.7813 Q29.8438,354.5 30.4688,353.9219 L30.4688,356.6406 Z "/><text fill="#000000" font-family="sans-serif" font-size="12" lengthAdjust="spacingAndGlyphs" textLength="38" x="41.5" y="355.1807">Player</text><!--link Entity to Movable--><path d="M47.5,60.45 C47.5,79.54 47.5,102.09 47.5,116.7 " fill="none" id="Entity-Movable" style="stroke: #A80036; stroke-width: 1.0;"/><polygon fill="none" points="40.5,60.33,47.5,40.33,54.5,60.33,40.5,60.33" style="stroke: #A80036; stroke-width: 1.0;"/><text fill="#000000" font-family="sans-serif" font-size="13" lengthAdjust="spacingAndGlyphs" textLength="36" x="48.5" y="83.1494">es-un</text><!--link Movable to Visible--><path d="M47.5,169.45 C47.5,188.54 47.5,211.09 47.5,225.7 " fill="none" id="Movable-Visible" style="stroke: #A80036; stroke-width: 1.0;"/><polygon fill="none" points="40.5,169.33,47.5,149.33,54.5,169.33,40.5,169.33" style="stroke: #A80036; stroke-width: 1.0;"/><text fill="#000000" font-family="sans-serif" font-size="13" lengthAdjust="spacingAndGlyphs" textLength="36" x="48.5" y="192.1494">es-un</text><!--link Visible to Player--><path d="M47.5,278.45 C47.5,297.54 47.5,320.09 47.5,334.7 " fill="none" id="Visible-Player" style="stroke: #A80036; stroke-width: 1.0;"/><polygon fill="none" points="40.5,278.33,47.5,258.33,54.5,278.33,40.5,278.33" style="stroke: #A80036; stroke-width: 1.0;"/><text fill="#000000" font-family="sans-serif" font-size="13" lengthAdjust="spacingAndGlyphs" textLength="36" x="48.5" y="301.1494">es-un</text><!--
@startuml
Entity <|- - Movable : es-un
Movable<|- - Visible : es-un
Visible<|- - Player : es-un
hide members
@enduml

PlantUML version 1.2019.01(Sat Feb 09 16:32:04 CET 2019)
(LGPL source distribution)
Java Runtime: OpenJDK Runtime Environment
JVM: OpenJDK 64-Bit Server VM
Java Version: 1.8.0_265-b01
Operating System: Linux
OS Version: 5.8.12-200.fc32.x86_64
Default Encoding: UTF-8
Language: es
Country: ES
--></g></svg>