<?xml version="1.0" encoding="UTF-8" standalone="no"?><svg xmlns="http://www.w3.org/2000/svg" xmlns:xlink="http://www.w3.org/1999/xlink" contentScriptType="application/ecmascript" contentStyleType="text/css" height="375px" preserveAspectRatio="none" style="width:101px;height:375px;background:#FFFFFF;" version="1.1" viewBox="0 0 101 375" width="101px" zoomAndPan="magnify"><defs><filter height="300%" id="f118hc9g3rbqrn" width="300%" x="-1" y="-1"><feGaussianBlur result="blurOut" stdDeviation="2.0"/><feColorMatrix in="blurOut" result="blurOut2" type="matrix" values="0 0 0 0 0 0 0 0 0 0 0 0 0 0 0 0 0 0 .4 0"/><feOffset dx="4.0" dy="4.0" in="blurOut2" result="blurOut3"/><feBlend in="SourceGraphic" in2="blurOut3" mode="normal"/></filter></defs><g><!--MD5=[be996cdb8e6bf2fc7cb89c555f2cd144]
class Entity--><rect codeLine="9" fill="#FEFECE" filter="url(#f118hc9g3rbqrn)" height="73.9102" id="Entity" style="stroke:#A80036;stroke-width:1.5;" width="63" x="15.5" y="7"/><ellipse cx="30.5" cy="23" fill="#A9DCDF" rx="11" ry="11" style="stroke:#A80036;stroke-width:1.0;"/><path d="M30.3633,18.3481 L29.2095,23.4199 L31.5254,23.4199 Z M28.8691,16.1069 L31.8657,16.1069 L35.2109,28.5 L32.7622,28.5 L31.9985,25.437 L28.7197,25.437 L27.9727,28.5 L25.5239,28.5 Z " fill="#000000"/><text fill="#000000" font-family="sans-serif" font-size="12" font-style="italic" lengthAdjust="spacing" textLength="31" x="44.5" y="27.5352">Entity</text><line style="stroke:#A80036;stroke-width:1.5;" x1="16.5" x2="77.5" y1="39" y2="39"/><rect fill="none" height="6" style="stroke:#C82930;stroke-width:1.0;" width="6" x="23.5" y="47"/><text fill="#000000" font-family="sans-serif" font-size="11" lengthAdjust="spacing" textLength="10" x="35.5" y="53.6348">id</text><line style="stroke:#A80036;stroke-width:1.5;" x1="16.5" x2="77.5" y1="59.9551" y2="59.9551"/><ellipse cx="26.5" cy="70.9551" fill="#84BE84" rx="3" ry="3" style="stroke:#038048;stroke-width:1.0;"/><text fill="#000000" font-family="sans-serif" font-size="11" font-style="italic" lengthAdjust="spacing" textLength="27" x="35.5" y="74.5898">tick()</text><!--MD5=[cbc984a6a6086109243884c87806a70e]
class Movable--><rect codeLine="13" fill="#FEFECE" filter="url(#f118hc9g3rbqrn)" height="99.8203" id="Movable" style="stroke:#A80036;stroke-width:1.5;" width="80" x="7" y="141"/><ellipse cx="22" cy="157" fill="#A9DCDF" rx="11" ry="11" style="stroke:#A80036;stroke-width:1.0;"/><path d="M21.8633,152.3481 L20.7095,157.4199 L23.0254,157.4199 Z M20.3691,150.1069 L23.3657,150.1069 L26.7109,162.5 L24.2622,162.5 L23.4985,159.437 L20.2197,159.437 L19.4727,162.5 L17.0239,162.5 Z " fill="#000000"/><text fill="#000000" font-family="sans-serif" font-size="12" font-style="italic" lengthAdjust="spacing" textLength="48" x="36" y="161.5352">Movable</text><line style="stroke:#A80036;stroke-width:1.5;" x1="8" x2="86" y1="173" y2="173"/><rect fill="none" height="6" style="stroke:#C82930;stroke-width:1.0;" width="6" x="15" y="181"/><text fill="#000000" font-family="sans-serif" font-size="11" lengthAdjust="spacing" textLength="13" x="27" y="187.6348">vx</text><rect fill="none" height="6" style="stroke:#C82930;stroke-width:1.0;" width="6" x="15" y="193.9551"/><text fill="#000000" font-family="sans-serif" font-size="11" lengthAdjust="spacing" textLength="12" x="27" y="200.5898">vy</text><text fill="#000000" font-family="sans-serif" font-size="11" lengthAdjust="spacing" textLength="13" x="27" y="213.5449">-x</text><text fill="#000000" font-family="sans-serif" font-size="11" lengthAdjust="spacing" textLength="12" x="27" y="226.5">-y</text><line style="stroke:#A80036;stroke-width:1.5;" x1="8" x2="86" y1="232.8203" y2="232.8203"/><!--MD5=[80c532e980642ebbe770e7ed91e479d0]
class Enemy--><rect codeLine="19" fill="#FEFECE" filter="url(#f118hc9g3rbqrn)" height="60.9551" id="Enemy" style="stroke:#A80036;stroke-width:1.5;" width="74" x="10" y="301"/><ellipse cx="26.8" cy="317" fill="#A9DCDF" rx="11" ry="11" style="stroke:#A80036;stroke-width:1.0;"/><path d="M26.6633,312.3481 L25.5095,317.4199 L27.8254,317.4199 Z M25.1691,310.1069 L28.1657,310.1069 L31.5109,322.5 L29.0622,322.5 L28.2985,319.437 L25.0197,319.437 L24.2727,322.5 L21.8239,322.5 Z " fill="#000000"/><text fill="#000000" font-family="sans-serif" font-size="12" font-style="italic" lengthAdjust="spacing" textLength="38" x="41.2" y="321.5352">Enemy</text><line style="stroke:#A80036;stroke-width:1.5;" x1="11" x2="83" y1="333" y2="333"/><rect fill="none" height="6" style="stroke:#C82930;stroke-width:1.0;" width="6" x="18" y="341"/><text fill="#000000" font-family="sans-serif" font-size="11" lengthAdjust="spacing" textLength="48" x="30" y="347.6348">objective</text><line style="stroke:#A80036;stroke-width:1.5;" x1="11" x2="83" y1="353.9551" y2="353.9551"/><!--MD5=[5b8eaa92dd224dc8459d82dba34df021]
reverse link Entity to Movable--><path codeLine="2" d="M47,101.45 C47,114.46 47,128.19 47,140.86 " fill="none" id="Entity-backto-Movable" style="stroke:#A80036;stroke-width:1.0;"/><polygon fill="none" points="40,101.22,47,81.22,54,101.22,40,101.22" style="stroke:#A80036;stroke-width:1.0;"/><!--MD5=[f1170e3d143e45171632921bd569d22f]
reverse link Movable to Enemy--><path codeLine="5" d="M47,261.33 C47,275.24 47,289.14 47,300.79 " fill="none" id="Movable-backto-Enemy" style="stroke:#A80036;stroke-width:1.0;"/><polygon fill="none" points="40,261.22,47,241.22,54,261.22,40,261.22" style="stroke:#A80036;stroke-width:1.0;"/><!--MD5=[7bda10fb4ac111f48b017e41a11cc6f7]
@startuml

Entity <|- - Movable
/' Entity <|- - Weapon '/
/' abstract Movable <|- - Player '/
Movable <|- - Enemy
/' Game "1" *- - "*" Entity '/
/' Player o- - Weapon : aggregation '/
/' hide members '/
abstract class Entity {
    {abstract} +tick()
    -id
}
abstract class Movable {
    -vx
    -vy
    -x
    -y
}
abstract class Enemy {
    -objective
}
@enduml

@startuml

Entity <|- - Movable
Movable <|- - Enemy
abstract class Entity {
    {abstract} +tick()
    -id
}
abstract class Movable {
    -vx
    -vy
    -x
    -y
}
abstract class Enemy {
    -objective
}
@enduml

PlantUML version 1.2021.8(Sat Jun 26 10:20:59 CEST 2021)
(GPL source distribution)
Java Runtime: OpenJDK Runtime Environment
JVM: OpenJDK 64-Bit Server VM
Default Encoding: UTF-8
Language: es
Country: ES
--></g></svg>