<?xml version="1.0" encoding="UTF-8" standalone="no"?><svg xmlns="http://www.w3.org/2000/svg" xmlns:xlink="http://www.w3.org/1999/xlink" contentScriptType="application/ecmascript" contentStyleType="text/css" height="373px" preserveAspectRatio="none" style="width:100px;height:373px;" version="1.1" viewBox="0 0 100 373" width="100px" zoomAndPan="magnify"><defs><filter height="300%" id="f118hc9g3rbqrn" width="300%" x="-1" y="-1"><feGaussianBlur result="blurOut" stdDeviation="2.0"/><feColorMatrix in="blurOut" result="blurOut2" type="matrix" values="0 0 0 0 0 0 0 0 0 0 0 0 0 0 0 0 0 0 .4 0"/><feOffset dx="4.0" dy="4.0" in="blurOut2" result="blurOut3"/><feBlend in="SourceGraphic" in2="blurOut3" mode="normal"/></filter></defs><g><!--class Entity--><rect fill="#FEFECE" filter="url(#f118hc9g3rbqrn)" height="73.7007" id="Entity" style="stroke: #A80036; stroke-width: 1.5;" width="68" x="13.5" y="8"/><ellipse cx="28.5" cy="24" fill="#A9DCDF" rx="11" ry="11" style="stroke: #A80036; stroke-width: 1.0;"/><path d="M28.6094,19.3438 L27.4531,24.4219 L29.7813,24.4219 L28.6094,19.3438 Z M27.125,17.1094 L30.1094,17.1094 L33.4688,29.5 L31.0156,29.5 L30.25,26.4375 L26.9688,26.4375 L26.2188,29.5 L23.7813,29.5 L27.125,17.1094 Z "/><text fill="#000000" font-family="sans-serif" font-size="12" font-style="italic" lengthAdjust="spacingAndGlyphs" textLength="36" x="42.5" y="28.1543">Entity</text><line style="stroke: #A80036; stroke-width: 1.5;" x1="14.5" x2="80.5" y1="40" y2="40"/><rect fill="none" height="6" style="stroke: #C82930; stroke-width: 1.0;" width="6" x="21.5" y="48.948"/><text fill="#000000" font-family="sans-serif" font-size="11" lengthAdjust="spacingAndGlyphs" textLength="10" x="33.5" y="54.2803">id</text><line style="stroke: #A80036; stroke-width: 1.5;" x1="14.5" x2="80.5" y1="60.896" y2="60.896"/><ellipse cx="24.5" cy="72.7983" fill="#84BE84" rx="3" ry="3" style="stroke: #038048; stroke-width: 1.0;"/><text fill="#000000" font-family="sans-serif" font-size="11" font-style="italic" lengthAdjust="spacingAndGlyphs" textLength="27" x="33.5" y="75.1064">tick()</text><!--class Movable--><rect fill="#FEFECE" filter="url(#f118hc9g3rbqrn)" height="99.584" id="Movable" style="stroke: #A80036; stroke-width: 1.5;" width="83" x="6" y="142"/><ellipse cx="21" cy="158" fill="#A9DCDF" rx="11" ry="11" style="stroke: #A80036; stroke-width: 1.0;"/><path d="M21.1094,153.3438 L19.9531,158.4219 L22.2813,158.4219 L21.1094,153.3438 Z M19.625,151.1094 L22.6094,151.1094 L25.9688,163.5 L23.5156,163.5 L22.75,160.4375 L19.4688,160.4375 L18.7188,163.5 L16.2813,163.5 L19.625,151.1094 Z "/><text fill="#000000" font-family="sans-serif" font-size="12" font-style="italic" lengthAdjust="spacingAndGlyphs" textLength="51" x="35" y="162.1543">Movable</text><line style="stroke: #A80036; stroke-width: 1.5;" x1="7" x2="88" y1="174" y2="174"/><rect fill="none" height="6" style="stroke: #C82930; stroke-width: 1.0;" width="6" x="14" y="182.948"/><text fill="#000000" font-family="sans-serif" font-size="11" lengthAdjust="spacingAndGlyphs" textLength="12" x="26" y="188.2803">vx</text><rect fill="none" height="6" style="stroke: #C82930; stroke-width: 1.0;" width="6" x="14" y="195.844"/><text fill="#000000" font-family="sans-serif" font-size="11" lengthAdjust="spacingAndGlyphs" textLength="12" x="26" y="201.1763">vy</text><text fill="#000000" font-family="sans-serif" font-size="11" lengthAdjust="spacingAndGlyphs" textLength="10" x="26" y="214.0723">-x</text><text fill="#000000" font-family="sans-serif" font-size="11" lengthAdjust="spacingAndGlyphs" textLength="10" x="26" y="226.9683">-y</text><line style="stroke: #A80036; stroke-width: 1.5;" x1="7" x2="88" y1="233.584" y2="233.584"/><!--class Enemy--><rect fill="#FEFECE" filter="url(#f118hc9g3rbqrn)" height="60.896" id="Enemy" style="stroke: #A80036; stroke-width: 1.5;" width="76" x="9.5" y="302"/><ellipse cx="25.4" cy="318" fill="#A9DCDF" rx="11" ry="11" style="stroke: #A80036; stroke-width: 1.0;"/><path d="M25.5094,313.3438 L24.3531,318.4219 L26.6813,318.4219 L25.5094,313.3438 Z M24.025,311.1094 L27.0094,311.1094 L30.3688,323.5 L27.9156,323.5 L27.15,320.4375 L23.8688,320.4375 L23.1188,323.5 L20.6813,323.5 L24.025,311.1094 Z "/><text fill="#000000" font-family="sans-serif" font-size="12" font-style="italic" lengthAdjust="spacingAndGlyphs" textLength="42" x="39.6" y="322.1543">Enemy</text><line style="stroke: #A80036; stroke-width: 1.5;" x1="10.5" x2="84.5" y1="334" y2="334"/><rect fill="none" height="6" style="stroke: #C82930; stroke-width: 1.0;" width="6" x="17.5" y="342.948"/><text fill="#000000" font-family="sans-serif" font-size="11" lengthAdjust="spacingAndGlyphs" textLength="50" x="29.5" y="348.2803">objective</text><line style="stroke: #A80036; stroke-width: 1.5;" x1="10.5" x2="84.5" y1="354.896" y2="354.896"/><!--link Entity to Movable--><path d="M47.5,102.45 C47.5,115.46 47.5,129.19 47.5,141.86 " fill="none" id="Entity-Movable" style="stroke: #A80036; stroke-width: 1.0;"/><polygon fill="none" points="40.5,102.22,47.5,82.22,54.5,102.22,40.5,102.22" style="stroke: #A80036; stroke-width: 1.0;"/><!--link Movable to Enemy--><path d="M47.5,262.33 C47.5,276.24 47.5,290.14 47.5,301.79 " fill="none" id="Movable-Enemy" style="stroke: #A80036; stroke-width: 1.0;"/><polygon fill="none" points="40.5,262.22,47.5,242.22,54.5,262.22,40.5,262.22" style="stroke: #A80036; stroke-width: 1.0;"/><!--
@startuml

Entity <|- - Movable
Movable <|- - Enemy
abstract class Entity {
    {abstract} +tick()
    -id
}
abstract class Movable {
    -vx
    -vy
    -x
    -y
}
abstract class Enemy {
    -objective
}
@enduml

PlantUML version 1.2019.01(Sat Feb 09 16:32:04 CET 2019)
(LGPL source distribution)
Java Runtime: OpenJDK Runtime Environment
JVM: OpenJDK 64-Bit Server VM
Java Version: 1.8.0_265-b01
Operating System: Linux
OS Version: 5.8.12-200.fc32.x86_64
Default Encoding: UTF-8
Language: es
Country: ES
--></g></svg>