<?xml version="1.0" encoding="UTF-8" standalone="no"?><svg xmlns="http://www.w3.org/2000/svg" xmlns:xlink="http://www.w3.org/1999/xlink" contentStyleType="text/css" height="313px" preserveAspectRatio="none" style="width:254px;height:313px;background:#FFFFFF;" version="1.1" viewBox="0 0 254 313" width="254px" zoomAndPan="magnify"><defs/><g><!--class Fruta--><g id="elem_Fruta"><rect codeLine="1" fill="#F1F1F1" height="83.2188" id="Fruta" rx="2.5" ry="2.5" style="stroke:#181818;stroke-width:0.5;" width="91" x="114.5" y="7"/><ellipse cx="140.75" cy="23" fill="#ADD1B2" rx="11" ry="11" style="stroke:#181818;stroke-width:1.0;"/><path d="M143.5156,18.875 Q143.6719,18.6563 143.8594,18.5469 Q144.0469,18.4375 144.2656,18.4375 Q144.6406,18.4375 144.875,18.7031 Q145.1094,18.9531 145.1094,19.5625 L145.1094,21.0156 Q145.1094,21.625 144.875,21.8906 Q144.6406,22.1563 144.2656,22.1563 Q143.9219,22.1563 143.7188,21.9531 Q143.5156,21.7656 143.4063,21.25 Q143.3594,20.8906 143.1719,20.7031 Q142.8438,20.3281 142.2344,20.1094 Q141.625,19.8906 141,19.8906 Q140.2344,19.8906 139.5938,20.2188 Q138.9688,20.5469 138.4688,21.2969 Q137.9844,22.0469 137.9844,23.0781 L137.9844,24.1719 Q137.9844,25.4063 138.875,26.2344 Q139.7656,27.0469 141.3594,27.0469 Q142.2969,27.0469 142.9531,26.7969 Q143.3438,26.6406 143.7656,26.2031 Q144.0313,25.9375 144.1719,25.8594 Q144.3281,25.7813 144.5313,25.7813 Q144.8594,25.7813 145.1094,26.0469 Q145.375,26.2969 145.375,26.6406 Q145.375,26.9844 145.0313,27.3906 Q144.5313,27.9688 143.7344,28.2969 Q142.6563,28.75 141.3594,28.75 Q139.8438,28.75 138.6406,28.125 Q137.6563,27.625 136.9688,26.5625 Q136.2813,25.4844 136.2813,24.2031 L136.2813,23.0469 Q136.2813,21.7188 136.8906,20.5781 Q137.5156,19.4219 138.6094,18.8125 Q139.7031,18.1875 140.9375,18.1875 Q141.6719,18.1875 142.3125,18.3594 Q142.9688,18.5156 143.5156,18.875 Z " fill="#000000"/><text fill="#000000" font-family="sans-serif" font-size="14" lengthAdjust="spacing" textLength="34" x="157.25" y="28.7285">Fruta</text><line style="stroke:#181818;stroke-width:0.5;" x1="115.5" x2="204.5" y1="39" y2="39"/><text fill="#000000" font-family="sans-serif" font-size="14" lengthAdjust="spacing" textLength="66" x="120.5" y="57.5332">int tamaño</text><line style="stroke:#181818;stroke-width:0.5;" x1="115.5" x2="204.5" y1="64.6094" y2="64.6094"/><text fill="#000000" font-family="sans-serif" font-size="14" lengthAdjust="spacing" textLength="79" x="120.5" y="83.1426">void comer()</text></g><!--class Manzana--><g id="elem_Manzana"><rect fill="#F1F1F1" height="48" id="Manzana" rx="2.5" ry="2.5" style="stroke:#181818;stroke-width:0.5;" width="89" x="60.5" y="150"/><ellipse cx="75.5" cy="166" fill="#ADD1B2" rx="11" ry="11" style="stroke:#181818;stroke-width:1.0;"/><path d="M78.2656,161.875 Q78.4219,161.6563 78.6094,161.5469 Q78.7969,161.4375 79.0156,161.4375 Q79.3906,161.4375 79.625,161.7031 Q79.8594,161.9531 79.8594,162.5625 L79.8594,164.0156 Q79.8594,164.625 79.625,164.8906 Q79.3906,165.1563 79.0156,165.1563 Q78.6719,165.1563 78.4688,164.9531 Q78.2656,164.7656 78.1563,164.25 Q78.1094,163.8906 77.9219,163.7031 Q77.5938,163.3281 76.9844,163.1094 Q76.375,162.8906 75.75,162.8906 Q74.9844,162.8906 74.3438,163.2188 Q73.7188,163.5469 73.2188,164.2969 Q72.7344,165.0469 72.7344,166.0781 L72.7344,167.1719 Q72.7344,168.4063 73.625,169.2344 Q74.5156,170.0469 76.1094,170.0469 Q77.0469,170.0469 77.7031,169.7969 Q78.0938,169.6406 78.5156,169.2031 Q78.7813,168.9375 78.9219,168.8594 Q79.0781,168.7813 79.2813,168.7813 Q79.6094,168.7813 79.8594,169.0469 Q80.125,169.2969 80.125,169.6406 Q80.125,169.9844 79.7813,170.3906 Q79.2813,170.9688 78.4844,171.2969 Q77.4063,171.75 76.1094,171.75 Q74.5938,171.75 73.3906,171.125 Q72.4063,170.625 71.7188,169.5625 Q71.0313,168.4844 71.0313,167.2031 L71.0313,166.0469 Q71.0313,164.7188 71.6406,163.5781 Q72.2656,162.4219 73.3594,161.8125 Q74.4531,161.1875 75.6875,161.1875 Q76.4219,161.1875 77.0625,161.3594 Q77.7188,161.5156 78.2656,161.875 Z " fill="#000000"/><text fill="#000000" font-family="sans-serif" font-size="14" lengthAdjust="spacing" textLength="57" x="89.5" y="171.7285">Manzana</text><line style="stroke:#181818;stroke-width:0.5;" x1="61.5" x2="148.5" y1="182" y2="182"/><line style="stroke:#181818;stroke-width:0.5;" x1="61.5" x2="148.5" y1="190" y2="190"/></g><!--class Pera--><g id="elem_Pera"><rect fill="#F1F1F1" height="48" id="Pera" rx="2.5" ry="2.5" style="stroke:#181818;stroke-width:0.5;" width="62" x="185" y="150"/><ellipse cx="200" cy="166" fill="#ADD1B2" rx="11" ry="11" style="stroke:#181818;stroke-width:1.0;"/><path d="M202.7656,161.875 Q202.9219,161.6563 203.1094,161.5469 Q203.2969,161.4375 203.5156,161.4375 Q203.8906,161.4375 204.125,161.7031 Q204.3594,161.9531 204.3594,162.5625 L204.3594,164.0156 Q204.3594,164.625 204.125,164.8906 Q203.8906,165.1563 203.5156,165.1563 Q203.1719,165.1563 202.9688,164.9531 Q202.7656,164.7656 202.6563,164.25 Q202.6094,163.8906 202.4219,163.7031 Q202.0938,163.3281 201.4844,163.1094 Q200.875,162.8906 200.25,162.8906 Q199.4844,162.8906 198.8438,163.2188 Q198.2188,163.5469 197.7188,164.2969 Q197.2344,165.0469 197.2344,166.0781 L197.2344,167.1719 Q197.2344,168.4063 198.125,169.2344 Q199.0156,170.0469 200.6094,170.0469 Q201.5469,170.0469 202.2031,169.7969 Q202.5938,169.6406 203.0156,169.2031 Q203.2813,168.9375 203.4219,168.8594 Q203.5781,168.7813 203.7813,168.7813 Q204.1094,168.7813 204.3594,169.0469 Q204.625,169.2969 204.625,169.6406 Q204.625,169.9844 204.2813,170.3906 Q203.7813,170.9688 202.9844,171.2969 Q201.9063,171.75 200.6094,171.75 Q199.0938,171.75 197.8906,171.125 Q196.9063,170.625 196.2188,169.5625 Q195.5313,168.4844 195.5313,167.2031 L195.5313,166.0469 Q195.5313,164.7188 196.1406,163.5781 Q196.7656,162.4219 197.8594,161.8125 Q198.9531,161.1875 200.1875,161.1875 Q200.9219,161.1875 201.5625,161.3594 Q202.2188,161.5156 202.7656,161.875 Z " fill="#000000"/><text fill="#000000" font-family="sans-serif" font-size="14" lengthAdjust="spacing" textLength="30" x="214" y="171.7285">Pera</text><line style="stroke:#181818;stroke-width:0.5;" x1="186" x2="246" y1="182" y2="182"/><line style="stroke:#181818;stroke-width:0.5;" x1="186" x2="246" y1="190" y2="190"/></g><!--class Golden--><g id="elem_Golden"><rect fill="#F1F1F1" height="48" id="Golden" rx="2.5" ry="2.5" style="stroke:#181818;stroke-width:0.5;" width="78" x="7" y="258"/><ellipse cx="22" cy="274" fill="#ADD1B2" rx="11" ry="11" style="stroke:#181818;stroke-width:1.0;"/><path d="M24.7656,269.875 Q24.9219,269.6563 25.1094,269.5469 Q25.2969,269.4375 25.5156,269.4375 Q25.8906,269.4375 26.125,269.7031 Q26.3594,269.9531 26.3594,270.5625 L26.3594,272.0156 Q26.3594,272.625 26.125,272.8906 Q25.8906,273.1563 25.5156,273.1563 Q25.1719,273.1563 24.9688,272.9531 Q24.7656,272.7656 24.6563,272.25 Q24.6094,271.8906 24.4219,271.7031 Q24.0938,271.3281 23.4844,271.1094 Q22.875,270.8906 22.25,270.8906 Q21.4844,270.8906 20.8438,271.2188 Q20.2188,271.5469 19.7188,272.2969 Q19.2344,273.0469 19.2344,274.0781 L19.2344,275.1719 Q19.2344,276.4063 20.125,277.2344 Q21.0156,278.0469 22.6094,278.0469 Q23.5469,278.0469 24.2031,277.7969 Q24.5938,277.6406 25.0156,277.2031 Q25.2813,276.9375 25.4219,276.8594 Q25.5781,276.7813 25.7813,276.7813 Q26.1094,276.7813 26.3594,277.0469 Q26.625,277.2969 26.625,277.6406 Q26.625,277.9844 26.2813,278.3906 Q25.7813,278.9688 24.9844,279.2969 Q23.9063,279.75 22.6094,279.75 Q21.0938,279.75 19.8906,279.125 Q18.9063,278.625 18.2188,277.5625 Q17.5313,276.4844 17.5313,275.2031 L17.5313,274.0469 Q17.5313,272.7188 18.1406,271.5781 Q18.7656,270.4219 19.8594,269.8125 Q20.9531,269.1875 22.1875,269.1875 Q22.9219,269.1875 23.5625,269.3594 Q24.2188,269.5156 24.7656,269.875 Z " fill="#000000"/><text fill="#000000" font-family="sans-serif" font-size="14" lengthAdjust="spacing" textLength="46" x="36" y="279.7285">Golden</text><line style="stroke:#181818;stroke-width:0.5;" x1="8" x2="84" y1="290" y2="290"/><line style="stroke:#181818;stroke-width:0.5;" x1="8" x2="84" y1="298" y2="298"/></g><!--class PinkLady--><g id="elem_PinkLady"><rect fill="#F1F1F1" height="48" id="PinkLady" rx="2.5" ry="2.5" style="stroke:#181818;stroke-width:0.5;" width="90" x="120" y="258"/><ellipse cx="135" cy="274" fill="#ADD1B2" rx="11" ry="11" style="stroke:#181818;stroke-width:1.0;"/><path d="M137.7656,269.875 Q137.9219,269.6563 138.1094,269.5469 Q138.2969,269.4375 138.5156,269.4375 Q138.8906,269.4375 139.125,269.7031 Q139.3594,269.9531 139.3594,270.5625 L139.3594,272.0156 Q139.3594,272.625 139.125,272.8906 Q138.8906,273.1563 138.5156,273.1563 Q138.1719,273.1563 137.9688,272.9531 Q137.7656,272.7656 137.6563,272.25 Q137.6094,271.8906 137.4219,271.7031 Q137.0938,271.3281 136.4844,271.1094 Q135.875,270.8906 135.25,270.8906 Q134.4844,270.8906 133.8438,271.2188 Q133.2188,271.5469 132.7188,272.2969 Q132.2344,273.0469 132.2344,274.0781 L132.2344,275.1719 Q132.2344,276.4063 133.125,277.2344 Q134.0156,278.0469 135.6094,278.0469 Q136.5469,278.0469 137.2031,277.7969 Q137.5938,277.6406 138.0156,277.2031 Q138.2813,276.9375 138.4219,276.8594 Q138.5781,276.7813 138.7813,276.7813 Q139.1094,276.7813 139.3594,277.0469 Q139.625,277.2969 139.625,277.6406 Q139.625,277.9844 139.2813,278.3906 Q138.7813,278.9688 137.9844,279.2969 Q136.9063,279.75 135.6094,279.75 Q134.0938,279.75 132.8906,279.125 Q131.9063,278.625 131.2188,277.5625 Q130.5313,276.4844 130.5313,275.2031 L130.5313,274.0469 Q130.5313,272.7188 131.1406,271.5781 Q131.7656,270.4219 132.8594,269.8125 Q133.9531,269.1875 135.1875,269.1875 Q135.9219,269.1875 136.5625,269.3594 Q137.2188,269.5156 137.7656,269.875 Z " fill="#000000"/><text fill="#000000" font-family="sans-serif" font-size="14" lengthAdjust="spacing" textLength="58" x="149" y="279.7285">PinkLady</text><line style="stroke:#181818;stroke-width:0.5;" x1="121" x2="209" y1="290" y2="290"/><line style="stroke:#181818;stroke-width:0.5;" x1="121" x2="209" y1="298" y2="298"/></g><!--reverse link Fruta to Manzana--><g id="link_Fruta_Manzana"><path codeLine="6" d="M133.49,109.03 C127.01,123.57 120.46,138.28 115.28,149.91 " fill="none" id="Fruta-backto-Manzana" style="stroke:#181818;stroke-width:1.0;"/><polygon fill="none" points="127.31,105.7,141.84,90.28,140.1,111.4,127.31,105.7" style="stroke:#181818;stroke-width:1.0;"/></g><!--reverse link Fruta to Pera--><g id="link_Fruta_Pera"><path codeLine="7" d="M186.77,108.54 C193.44,123.24 200.2,138.14 205.53,149.91 " fill="none" id="Fruta-backto-Pera" style="stroke:#181818;stroke-width:1.0;"/><polygon fill="none" points="180.38,111.39,178.49,90.28,193.13,105.6,180.38,111.39" style="stroke:#181818;stroke-width:1.0;"/></g><!--reverse link Manzana to Golden--><g id="link_Manzana_Golden"><path codeLine="9" d="M82.39,215.61 C74.47,229.85 65.85,245.35 58.98,257.68 " fill="none" id="Manzana-backto-Golden" style="stroke:#181818;stroke-width:1.0;"/><polygon fill="none" points="76.35,212.07,92.2,198,88.59,218.88,76.35,212.07" style="stroke:#181818;stroke-width:1.0;"/></g><!--reverse link Manzana to PinkLady--><g id="link_Manzana_PinkLady"><path codeLine="10" d="M127.99,215.61 C136.05,229.85 144.82,245.35 151.8,257.68 " fill="none" id="Manzana-backto-PinkLady" style="stroke:#181818;stroke-width:1.0;"/><polygon fill="none" points="121.78,218.85,118.02,198,133.96,211.96,121.78,218.85" style="stroke:#181818;stroke-width:1.0;"/></g><!--SRC=[Iyv9B2vMS2igBKbKgEPI08BCl1A5aiJSnCCRyy7yilpC58Na_DpK8WrDhbekBeXQcnfTNGNVnBognBn4PA60rA94BYwe14J8FJyd9JKFLImWCo_R9p6b4W00]--></g></svg>