<?xml version="1.0" encoding="UTF-8" standalone="no"?><svg xmlns="http://www.w3.org/2000/svg" xmlns:xlink="http://www.w3.org/1999/xlink" contentStyleType="text/css" height="400px" preserveAspectRatio="none" style="width:99px;height:400px;background:#FFFFFF;" version="1.1" viewBox="0 0 99 400" width="99px" zoomAndPan="magnify"><defs/><g><!--class Entity--><g id="elem_Entity"><rect codeLine="9" fill="#F1F1F1" height="83.2188" id="Entity" rx="2.5" ry="2.5" style="stroke:#181818;stroke-width:0.5;" width="67" x="16" y="7"/><ellipse cx="31" cy="23" fill="#A9DCDF" rx="11" ry="11" style="stroke:#181818;stroke-width:1.0;"/><path d="M33.1875,24.7656 L29.0469,24.7656 L28.625,25.7969 L29.0469,25.7969 Q29.6563,25.7969 29.9219,26.0313 Q30.1875,26.2656 30.1875,26.6563 Q30.1875,27.0313 29.9219,27.2656 Q29.6563,27.5 29.0469,27.5 L26.75,27.5 Q26.1406,27.5 25.8906,27.2656 Q25.625,27.0313 25.625,26.6406 Q25.625,26.2656 25.9063,26.0313 Q26.1719,25.7813 26.7969,25.7969 L29.4688,19.1406 L28.3594,19.1406 Q27.75,19.1406 27.4844,18.9063 Q27.2188,18.6719 27.2188,18.2813 Q27.2188,17.9063 27.4844,17.6719 Q27.75,17.4375 28.3594,17.4375 L32.0313,17.4375 L35.4219,25.7969 Q36.0156,25.7969 36.2031,25.9375 Q36.5938,26.2031 36.5938,26.6563 Q36.5938,27.0313 36.3281,27.2656 Q36.0781,27.5 35.4688,27.5 L33.1719,27.5 Q32.5625,27.5 32.2969,27.2656 Q32.0313,27.0313 32.0313,26.6406 Q32.0313,26.2656 32.2969,26.0313 Q32.5625,25.7969 33.1719,25.7969 L33.5938,25.7969 L33.1875,24.7656 Z M32.4688,23.0625 L31.1094,19.6875 L29.7344,23.0625 L32.4688,23.0625 Z " fill="#000000"/><text fill="#000000" font-family="sans-serif" font-size="14" font-style="italic" lengthAdjust="spacing" textLength="35" x="45" y="28.7285">Entity</text><line style="stroke:#181818;stroke-width:0.5;" x1="17" x2="82" y1="39" y2="39"/><rect fill="none" height="6" style="stroke:#C82930;stroke-width:1.0;" width="6" x="24" y="50.3047"/><text fill="#000000" font-family="sans-serif" font-size="14" lengthAdjust="spacing" textLength="11" x="36" y="57.5332">id</text><line style="stroke:#181818;stroke-width:0.5;" x1="17" x2="82" y1="64.6094" y2="64.6094"/><ellipse cx="27" cy="78.9141" fill="#84BE84" rx="3" ry="3" style="stroke:#038048;stroke-width:1.0;"/><text fill="#000000" font-family="sans-serif" font-size="14" font-style="italic" lengthAdjust="spacing" textLength="32" x="36" y="83.1426">tick()</text></g><!--class Movable--><g id="elem_Movable"><rect codeLine="13" fill="#F1F1F1" height="118.4375" id="Movable" rx="2.5" ry="2.5" style="stroke:#181818;stroke-width:0.5;" width="85" x="7" y="150"/><ellipse cx="22" cy="166" fill="#A9DCDF" rx="11" ry="11" style="stroke:#181818;stroke-width:1.0;"/><path d="M24.1875,167.7656 L20.0469,167.7656 L19.625,168.7969 L20.0469,168.7969 Q20.6563,168.7969 20.9219,169.0313 Q21.1875,169.2656 21.1875,169.6563 Q21.1875,170.0313 20.9219,170.2656 Q20.6563,170.5 20.0469,170.5 L17.75,170.5 Q17.1406,170.5 16.8906,170.2656 Q16.625,170.0313 16.625,169.6406 Q16.625,169.2656 16.9063,169.0313 Q17.1719,168.7813 17.7969,168.7969 L20.4688,162.1406 L19.3594,162.1406 Q18.75,162.1406 18.4844,161.9063 Q18.2188,161.6719 18.2188,161.2813 Q18.2188,160.9063 18.4844,160.6719 Q18.75,160.4375 19.3594,160.4375 L23.0313,160.4375 L26.4219,168.7969 Q27.0156,168.7969 27.2031,168.9375 Q27.5938,169.2031 27.5938,169.6563 Q27.5938,170.0313 27.3281,170.2656 Q27.0781,170.5 26.4688,170.5 L24.1719,170.5 Q23.5625,170.5 23.2969,170.2656 Q23.0313,170.0313 23.0313,169.6406 Q23.0313,169.2656 23.2969,169.0313 Q23.5625,168.7969 24.1719,168.7969 L24.5938,168.7969 L24.1875,167.7656 Z M23.4688,166.0625 L22.1094,162.6875 L20.7344,166.0625 L23.4688,166.0625 Z " fill="#000000"/><text fill="#000000" font-family="sans-serif" font-size="14" font-style="italic" lengthAdjust="spacing" textLength="53" x="36" y="171.7285">Movable</text><line style="stroke:#181818;stroke-width:0.5;" x1="8" x2="91" y1="182" y2="182"/><rect fill="none" height="6" style="stroke:#C82930;stroke-width:1.0;" width="6" x="15" y="193.3047"/><text fill="#000000" font-family="sans-serif" font-size="14" lengthAdjust="spacing" textLength="13" x="27" y="200.5332">vx</text><rect fill="none" height="6" style="stroke:#C82930;stroke-width:1.0;" width="6" x="15" y="210.9141"/><text fill="#000000" font-family="sans-serif" font-size="14" lengthAdjust="spacing" textLength="14" x="27" y="218.1426">vy</text><text fill="#000000" font-family="sans-serif" font-size="14" lengthAdjust="spacing" textLength="11" x="27" y="235.752">-x</text><text fill="#000000" font-family="sans-serif" font-size="14" lengthAdjust="spacing" textLength="12" x="27" y="253.3613">-y</text><line style="stroke:#181818;stroke-width:0.5;" x1="8" x2="91" y1="260.4375" y2="260.4375"/></g><!--class Enemy--><g id="elem_Enemy"><rect codeLine="19" fill="#F1F1F1" height="65.6094" id="Enemy" rx="2.5" ry="2.5" style="stroke:#181818;stroke-width:0.5;" width="82" x="8.5" y="328"/><ellipse cx="26.65" cy="344" fill="#A9DCDF" rx="11" ry="11" style="stroke:#181818;stroke-width:1.0;"/><path d="M28.8375,345.7656 L24.6969,345.7656 L24.275,346.7969 L24.6969,346.7969 Q25.3063,346.7969 25.5719,347.0313 Q25.8375,347.2656 25.8375,347.6563 Q25.8375,348.0313 25.5719,348.2656 Q25.3063,348.5 24.6969,348.5 L22.4,348.5 Q21.7906,348.5 21.5406,348.2656 Q21.275,348.0313 21.275,347.6406 Q21.275,347.2656 21.5563,347.0313 Q21.8219,346.7813 22.4469,346.7969 L25.1188,340.1406 L24.0094,340.1406 Q23.4,340.1406 23.1344,339.9063 Q22.8688,339.6719 22.8688,339.2813 Q22.8688,338.9063 23.1344,338.6719 Q23.4,338.4375 24.0094,338.4375 L27.6813,338.4375 L31.0719,346.7969 Q31.6656,346.7969 31.8531,346.9375 Q32.2438,347.2031 32.2438,347.6563 Q32.2438,348.0313 31.9781,348.2656 Q31.7281,348.5 31.1188,348.5 L28.8219,348.5 Q28.2125,348.5 27.9469,348.2656 Q27.6813,348.0313 27.6813,347.6406 Q27.6813,347.2656 27.9469,347.0313 Q28.2125,346.7969 28.8219,346.7969 L29.2438,346.7969 L28.8375,345.7656 Z M28.1188,344.0625 L26.7594,340.6875 L25.3844,344.0625 L28.1188,344.0625 Z " fill="#000000"/><text fill="#000000" font-family="sans-serif" font-size="14" font-style="italic" lengthAdjust="spacing" textLength="43" x="41.35" y="349.7285">Enemy</text><line style="stroke:#181818;stroke-width:0.5;" x1="9.5" x2="89.5" y1="360" y2="360"/><rect fill="none" height="6" style="stroke:#C82930;stroke-width:1.0;" width="6" x="16.5" y="371.3047"/><text fill="#000000" font-family="sans-serif" font-size="14" lengthAdjust="spacing" textLength="56" x="28.5" y="378.5332">objective</text><line style="stroke:#181818;stroke-width:0.5;" x1="9.5" x2="89.5" y1="385.6094" y2="385.6094"/></g><!--reverse link Entity to Movable--><g id="link_Entity_Movable"><path codeLine="2" d="M49.5,110.55 C49.5,123.51 49.5,137.16 49.5,150 " fill="none" id="Entity-backto-Movable" style="stroke:#181818;stroke-width:1.0;"/><polygon fill="none" points="42.5,110.32,49.5,90.32,56.5,110.32,42.5,110.32" style="stroke:#181818;stroke-width:1.0;"/></g><!--reverse link Movable to Enemy--><g id="link_Movable_Enemy"><path codeLine="5" d="M49.5,288.67 C49.5,302.56 49.5,316.28 49.5,327.92 " fill="none" id="Movable-backto-Enemy" style="stroke:#181818;stroke-width:1.0;"/><polygon fill="none" points="42.5,288.42,49.5,268.42,56.5,288.42,42.5,288.42" style="stroke:#181818;stroke-width:1.0;"/></g><!--SRC=[POzF3u8m3CNl-nGD5nIp4A_6A_5auirp1mrE6JEm41VakyiOmt-xD7jzlzSsguqq5lPFpk6eEnGLiJI6x4C-4zvr3N7g6YXQqs1kWjbRJXLQQfpbIyvgKjPH1rG4qJQ2P5IZ90hvFdEczNlM3h0i6ohHo6NoHHO4YfIWfdNIiabUOTk6n9x1-FhG761ZP7vRhIUPou8Dls3Os9EyUypL-Zf_xJyuNHSmBQwK6zaH6ru0]--></g></svg>