<?xml version="1.0" encoding="UTF-8" standalone="no"?><svg xmlns="http://www.w3.org/2000/svg" xmlns:xlink="http://www.w3.org/1999/xlink" contentScriptType="application/ecmascript" contentStyleType="text/css" height="348px" preserveAspectRatio="none" style="width:222px;height:348px;background:#FFFFFF;" version="1.1" viewBox="0 0 222 348" width="222px" zoomAndPan="magnify"><defs><filter height="300%" id="fz6jl0txnpxck" width="300%" x="-1" y="-1"><feGaussianBlur result="blurOut" stdDeviation="2.0"/><feColorMatrix in="blurOut" result="blurOut2" type="matrix" values="0 0 0 0 0 0 0 0 0 0 0 0 0 0 0 0 0 0 .4 0"/><feOffset dx="4.0" dy="4.0" in="blurOut2" result="blurOut3"/><feBlend in="SourceGraphic" in2="blurOut3" mode="normal"/></filter></defs><g><!--MD5=[be996cdb8e6bf2fc7cb89c555f2cd144]
class Entity--><rect fill="#FEFECE" filter="url(#fz6jl0txnpxck)" height="32" id="Entity" style="stroke:#A80036;stroke-width:1.5;" width="63" x="91.5" y="7"/><ellipse cx="106.5" cy="23" fill="#ADD1B2" rx="11" ry="11" style="stroke:#A80036;stroke-width:1.0;"/><path d="M108.9731,29.1431 Q108.3921,29.4419 107.7529,29.5913 Q107.1138,29.7407 106.4082,29.7407 Q103.9014,29.7407 102.5815,28.0889 Q101.2617,26.437 101.2617,23.3159 Q101.2617,20.1865 102.5815,18.5347 Q103.9014,16.8828 106.4082,16.8828 Q107.1138,16.8828 107.7612,17.0322 Q108.4087,17.1816 108.9731,17.4805 L108.9731,20.2031 Q108.3423,19.6221 107.7488,19.3523 Q107.1553,19.0825 106.5244,19.0825 Q105.1797,19.0825 104.4949,20.1492 Q103.8101,21.2158 103.8101,23.3159 Q103.8101,25.4077 104.4949,26.4744 Q105.1797,27.541 106.5244,27.541 Q107.1553,27.541 107.7488,27.2712 Q108.3423,27.0015 108.9731,26.4204 Z " fill="#000000"/><text fill="#000000" font-family="sans-serif" font-size="12" lengthAdjust="spacing" textLength="31" x="120.5" y="27.5352">Entity</text><!--MD5=[cbc984a6a6086109243884c87806a70e]
class Movable--><rect fill="#FEFECE" filter="url(#fz6jl0txnpxck)" height="32" id="Movable" style="stroke:#A80036;stroke-width:1.5;" width="80" x="37" y="100"/><ellipse cx="52" cy="116" fill="#ADD1B2" rx="11" ry="11" style="stroke:#A80036;stroke-width:1.0;"/><path d="M54.4731,122.1431 Q53.8921,122.4419 53.2529,122.5913 Q52.6138,122.7407 51.9082,122.7407 Q49.4014,122.7407 48.0815,121.0889 Q46.7617,119.437 46.7617,116.3159 Q46.7617,113.1865 48.0815,111.5347 Q49.4014,109.8828 51.9082,109.8828 Q52.6138,109.8828 53.2612,110.0322 Q53.9087,110.1816 54.4731,110.4805 L54.4731,113.2031 Q53.8423,112.6221 53.2488,112.3523 Q52.6553,112.0825 52.0244,112.0825 Q50.6797,112.0825 49.9949,113.1492 Q49.3101,114.2158 49.3101,116.3159 Q49.3101,118.4077 49.9949,119.4744 Q50.6797,120.541 52.0244,120.541 Q52.6553,120.541 53.2488,120.2712 Q53.8423,120.0015 54.4731,119.4204 Z " fill="#000000"/><text fill="#000000" font-family="sans-serif" font-size="12" lengthAdjust="spacing" textLength="48" x="66" y="120.5352">Movable</text><!--MD5=[35fa7ce99f1adf91ef35d4c75e6a0d1c]
class Visible--><rect fill="#FEFECE" filter="url(#fz6jl0txnpxck)" height="32" id="Visible" style="stroke:#A80036;stroke-width:1.5;" width="70" x="7" y="209"/><ellipse cx="22" cy="225" fill="#ADD1B2" rx="11" ry="11" style="stroke:#A80036;stroke-width:1.0;"/><path d="M24.4731,231.1431 Q23.8921,231.4419 23.2529,231.5913 Q22.6138,231.7407 21.9082,231.7407 Q19.4014,231.7407 18.0815,230.0889 Q16.7617,228.437 16.7617,225.3159 Q16.7617,222.1865 18.0815,220.5347 Q19.4014,218.8828 21.9082,218.8828 Q22.6138,218.8828 23.2612,219.0322 Q23.9087,219.1816 24.4731,219.4805 L24.4731,222.2031 Q23.8423,221.6221 23.2488,221.3523 Q22.6553,221.0825 22.0244,221.0825 Q20.6797,221.0825 19.9949,222.1492 Q19.3101,223.2158 19.3101,225.3159 Q19.3101,227.4077 19.9949,228.4744 Q20.6797,229.541 22.0244,229.541 Q22.6553,229.541 23.2488,229.2712 Q23.8423,229.0015 24.4731,228.4204 Z " fill="#000000"/><text fill="#000000" font-family="sans-serif" font-size="12" lengthAdjust="spacing" textLength="38" x="36" y="229.5352">Visible</text><!--MD5=[2cb47ba637a0d19583e6199456f6ad0b]
class Player--><rect fill="#FEFECE" filter="url(#fz6jl0txnpxck)" height="32" id="Player" style="stroke:#A80036;stroke-width:1.5;" width="67" x="66.5" y="302"/><ellipse cx="81.5" cy="318" fill="#ADD1B2" rx="11" ry="11" style="stroke:#A80036;stroke-width:1.0;"/><path d="M83.9731,324.1431 Q83.3921,324.4419 82.7529,324.5913 Q82.1138,324.7407 81.4082,324.7407 Q78.9014,324.7407 77.5815,323.0889 Q76.2617,321.437 76.2617,318.3159 Q76.2617,315.1865 77.5815,313.5347 Q78.9014,311.8828 81.4082,311.8828 Q82.1138,311.8828 82.7612,312.0322 Q83.4087,312.1816 83.9731,312.4805 L83.9731,315.2031 Q83.3423,314.6221 82.7488,314.3523 Q82.1553,314.0825 81.5244,314.0825 Q80.1797,314.0825 79.4949,315.1492 Q78.8101,316.2158 78.8101,318.3159 Q78.8101,320.4077 79.4949,321.4744 Q80.1797,322.541 81.5244,322.541 Q82.1553,322.541 82.7488,322.2712 Q83.3423,322.0015 83.9731,321.4204 Z " fill="#000000"/><text fill="#000000" font-family="sans-serif" font-size="12" lengthAdjust="spacing" textLength="35" x="95.5" y="322.5352">Player</text><!--MD5=[d40c32ef1bef2a38eff78b9fac40bbc6]
class NoMovable--><rect fill="#FEFECE" filter="url(#fz6jl0txnpxck)" height="32" id="NoMovable" style="stroke:#A80036;stroke-width:1.5;" width="96" x="112" y="209"/><ellipse cx="127" cy="225" fill="#ADD1B2" rx="11" ry="11" style="stroke:#A80036;stroke-width:1.0;"/><path d="M129.4731,231.1431 Q128.8921,231.4419 128.2529,231.5913 Q127.6138,231.7407 126.9082,231.7407 Q124.4014,231.7407 123.0815,230.0889 Q121.7617,228.437 121.7617,225.3159 Q121.7617,222.1865 123.0815,220.5347 Q124.4014,218.8828 126.9082,218.8828 Q127.6138,218.8828 128.2612,219.0322 Q128.9087,219.1816 129.4731,219.4805 L129.4731,222.2031 Q128.8423,221.6221 128.2488,221.3523 Q127.6553,221.0825 127.0244,221.0825 Q125.6797,221.0825 124.9949,222.1492 Q124.3101,223.2158 124.3101,225.3159 Q124.3101,227.4077 124.9949,228.4744 Q125.6797,229.541 127.0244,229.541 Q127.6553,229.541 128.2488,229.2712 Q128.8423,229.0015 129.4731,228.4204 Z " fill="#000000"/><text fill="#000000" font-family="sans-serif" font-size="12" lengthAdjust="spacing" textLength="64" x="141" y="229.5352">NoMovable</text><!--MD5=[5b8eaa92dd224dc8459d82dba34df021]
reverse link Entity to Movable--><path codeLine="1" d="M106.2,57.23 C98.8,71.88 90.47,88.35 84.61,99.95 " fill="none" id="Entity-backto-Movable" style="stroke:#A80036;stroke-width:1.0;"/><polygon fill="none" points="100.13,53.72,115.4,39.03,112.63,60.03,100.13,53.72" style="stroke:#A80036;stroke-width:1.0;"/><!--MD5=[26afc2aeaa9b22f65758e6f255594cf4]
reverse link Movable to Visible--><path codeLine="2" d="M65.71,151.52 C59.4,170.8 51.86,193.85 47.01,208.7 " fill="none" id="Movable-backto-Visible" style="stroke:#A80036;stroke-width:1.0;"/><polygon fill="none" points="59.11,149.16,71.99,132.33,72.42,153.52,59.11,149.16" style="stroke:#A80036;stroke-width:1.0;"/><!--MD5=[489215d9c830386786861197af447043]
reverse link Visible to Player--><path codeLine="3" d="M62.55,258.23 C72.03,273.12 82.85,290.09 90.41,301.95 " fill="none" id="Visible-backto-Player" style="stroke:#A80036;stroke-width:1.0;"/><polygon fill="none" points="56.42,261.65,51.58,241.03,68.23,254.13,56.42,261.65" style="stroke:#A80036;stroke-width:1.0;"/><!--MD5=[5757f323eecd90ca1e44263ec6c75f91]
reverse link Entity to NoMovable--><path codeLine="4" d="M129.42,58.71 C137.58,102.81 151.31,177 157.19,208.79 " fill="none" id="Entity-backto-NoMovable" style="stroke:#A80036;stroke-width:1.0;"/><polygon fill="none" points="122.54,59.97,125.78,39.03,136.3,57.43,122.54,59.97" style="stroke:#A80036;stroke-width:1.0;"/><!--MD5=[af91887629caa025fa10e8516394ded2]
reverse link NoMovable to Player--><path codeLine="5" d="M139.07,257.74 C129.18,272.75 117.83,289.96 109.92,301.95 " fill="none" id="NoMovable-backto-Player" style="stroke:#A80036;stroke-width:1.0;"/><polygon fill="none" points="133.24,253.87,150.09,241.03,144.93,261.58,133.24,253.87" style="stroke:#A80036;stroke-width:1.0;"/><!--MD5=[c99717c02f416564d99c8962fe0bde1e]
link Movable to NoMovable--><path codeLine="6" d="M80.14,137.18 C82.91,150.09 87.98,166.67 97,179 C104.84,189.73 116.03,198.88 126.8,206.08 " fill="none" id="Movable-NoMovable" style="stroke:#A80036;stroke-width:1.0;"/><polygon fill="#A80036" points="131.06,208.84,125.6722,200.5955,126.8606,206.1261,121.33,207.3145,131.06,208.84" style="stroke:#A80036;stroke-width:1.0;"/><polygon fill="#A80036" points="79.15,132.25,77.0035,141.8621,80.1361,137.1518,84.8464,140.2844,79.15,132.25" style="stroke:#A80036;stroke-width:1.0;"/><text fill="#000000" font-family="sans-serif" font-size="13" lengthAdjust="spacing" textLength="45" x="98" y="175.5684">ERROR!</text><!--MD5=[e67d35aae80741d089bdab29eeaa7026]
@startuml
Entity <|- - Movable
Movable<|- - Visible 
Visible<|- - Player
Entity <|- - NoMovable
NoMovable<|- - Player
Movable <- -> NoMovable : ERROR!
hide members
@enduml

PlantUML version 1.2021.8(Sat Jun 26 10:20:59 CEST 2021)
(GPL source distribution)
Java Runtime: OpenJDK Runtime Environment
JVM: OpenJDK 64-Bit Server VM
Default Encoding: UTF-8
Language: es
Country: ES
--></g></svg>