<?xml version="1.0" encoding="UTF-8" standalone="no"?><svg xmlns="http://www.w3.org/2000/svg" xmlns:xlink="http://www.w3.org/1999/xlink" contentScriptType="application/ecmascript" contentStyleType="text/css" height="380px" preserveAspectRatio="none" style="width:106px;height:380px;" version="1.1" viewBox="0 0 106 380" width="106px" zoomAndPan="magnify"><defs><filter height="300%" id="f118hc9g3rbqrn" width="300%" x="-1" y="-1"><feGaussianBlur result="blurOut" stdDeviation="2.0"/><feColorMatrix in="blurOut" result="blurOut2" type="matrix" values="0 0 0 0 0 0 0 0 0 0 0 0 0 0 0 0 0 0 .4 0"/><feOffset dx="4.0" dy="4.0" in="blurOut2" result="blurOut3"/><feBlend in="SourceGraphic" in2="blurOut3" mode="normal"/></filter></defs><g><!--MD5=[be996cdb8e6bf2fc7cb89c555f2cd144]
class Entity--><rect codeLine="9" fill="#FEFECE" filter="url(#f118hc9g3rbqrn)" height="73.9102" id="Entity" style="stroke: #A80036; stroke-width: 1.5;" width="63" x="15.5" y="7"/><ellipse cx="30.5" cy="23" fill="#A9DCDF" rx="11" ry="11" style="stroke: #A80036; stroke-width: 1.0;"/><path d="M30.6133,18.5981 L29.4595,23.6699 L31.7754,23.6699 Z M29.1191,16.3569 L32.1157,16.3569 L35.4609,28.75 L33.0122,28.75 L32.2485,25.687 L28.9697,25.687 L28.2227,28.75 L25.7739,28.75 Z "/><text fill="#000000" font-family="sans-serif" font-size="12" font-style="italic" lengthAdjust="spacingAndGlyphs" textLength="31" x="44.5" y="27.5352">Entity</text><line style="stroke: #A80036; stroke-width: 1.5;" x1="16.5" x2="77.5" y1="39" y2="39"/><rect fill="none" height="6" style="stroke: #C82930; stroke-width: 1.0;" width="6" x="23.5" y="47"/><text fill="#000000" font-family="sans-serif" font-size="11" lengthAdjust="spacingAndGlyphs" textLength="10" x="35.5" y="53.6348">id</text><line style="stroke: #A80036; stroke-width: 1.5;" x1="16.5" x2="77.5" y1="59.9551" y2="59.9551"/><ellipse cx="26.5" cy="70.9551" fill="#84BE84" rx="3" ry="3" style="stroke: #038048; stroke-width: 1.0;"/><text fill="#000000" font-family="sans-serif" font-size="11" font-style="italic" lengthAdjust="spacingAndGlyphs" textLength="27" x="35.5" y="74.5898">tick()</text><!--MD5=[cbc984a6a6086109243884c87806a70e]
class Movable--><rect codeLine="13" fill="#FEFECE" filter="url(#f118hc9g3rbqrn)" height="99.8203" id="Movable" style="stroke: #A80036; stroke-width: 1.5;" width="80" x="7" y="141"/><ellipse cx="22" cy="157" fill="#A9DCDF" rx="11" ry="11" style="stroke: #A80036; stroke-width: 1.0;"/><path d="M22.1133,152.5981 L20.9595,157.6699 L23.2754,157.6699 Z M20.6191,150.3569 L23.6157,150.3569 L26.9609,162.75 L24.5122,162.75 L23.7485,159.687 L20.4697,159.687 L19.7227,162.75 L17.2739,162.75 Z "/><text fill="#000000" font-family="sans-serif" font-size="12" font-style="italic" lengthAdjust="spacingAndGlyphs" textLength="48" x="36" y="161.5352">Movable</text><line style="stroke: #A80036; stroke-width: 1.5;" x1="8" x2="86" y1="173" y2="173"/><rect fill="none" height="6" style="stroke: #C82930; stroke-width: 1.0;" width="6" x="15" y="181"/><text fill="#000000" font-family="sans-serif" font-size="11" lengthAdjust="spacingAndGlyphs" textLength="13" x="27" y="187.6348">vx</text><rect fill="none" height="6" style="stroke: #C82930; stroke-width: 1.0;" width="6" x="15" y="193.9551"/><text fill="#000000" font-family="sans-serif" font-size="11" lengthAdjust="spacingAndGlyphs" textLength="12" x="27" y="200.5898">vy</text><text fill="#000000" font-family="sans-serif" font-size="11" lengthAdjust="spacingAndGlyphs" textLength="13" x="27" y="213.5449">-x</text><text fill="#000000" font-family="sans-serif" font-size="11" lengthAdjust="spacingAndGlyphs" textLength="12" x="27" y="226.5">-y</text><line style="stroke: #A80036; stroke-width: 1.5;" x1="8" x2="86" y1="232.8203" y2="232.8203"/><!--MD5=[80c532e980642ebbe770e7ed91e479d0]
class Enemy--><rect codeLine="19" fill="#FEFECE" filter="url(#f118hc9g3rbqrn)" height="60.9551" id="Enemy" style="stroke: #A80036; stroke-width: 1.5;" width="74" x="10" y="301"/><ellipse cx="26.8" cy="317" fill="#A9DCDF" rx="11" ry="11" style="stroke: #A80036; stroke-width: 1.0;"/><path d="M26.9133,312.5981 L25.7595,317.6699 L28.0754,317.6699 Z M25.4191,310.3569 L28.4157,310.3569 L31.7609,322.75 L29.3122,322.75 L28.5485,319.687 L25.2697,319.687 L24.5227,322.75 L22.0739,322.75 Z "/><text fill="#000000" font-family="sans-serif" font-size="12" font-style="italic" lengthAdjust="spacingAndGlyphs" textLength="38" x="41.2" y="321.5352">Enemy</text><line style="stroke: #A80036; stroke-width: 1.5;" x1="11" x2="83" y1="333" y2="333"/><rect fill="none" height="6" style="stroke: #C82930; stroke-width: 1.0;" width="6" x="18" y="341"/><text fill="#000000" font-family="sans-serif" font-size="11" lengthAdjust="spacingAndGlyphs" textLength="48" x="30" y="347.6348">objective</text><line style="stroke: #A80036; stroke-width: 1.5;" x1="11" x2="83" y1="353.9551" y2="353.9551"/><!--MD5=[5b8eaa92dd224dc8459d82dba34df021]
reverse link Entity to Movable--><path codeLine="2" d="M47,101.45 C47,114.46 47,128.19 47,140.86 " fill="none" id="Entity-backto-Movable" style="stroke: #A80036; stroke-width: 1.0;"/><polygon fill="none" points="40,101.22,47,81.22,54,101.22,40,101.22" style="stroke: #A80036; stroke-width: 1.0;"/><!--MD5=[f1170e3d143e45171632921bd569d22f]
reverse link Movable to Enemy--><path codeLine="5" d="M47,261.33 C47,275.24 47,289.14 47,300.79 " fill="none" id="Movable-backto-Enemy" style="stroke: #A80036; stroke-width: 1.0;"/><polygon fill="none" points="40,261.22,47,241.22,54,261.22,40,261.22" style="stroke: #A80036; stroke-width: 1.0;"/><!--MD5=[b85e367538c846c6583673b9eab1fe78]
@startuml

Entity <|- - Movable
/' Entity <|- - Weapon '/
/' abstract Movable <|- - Player '/
Movable <|- - Enemy
/' Game "1" *- - "*" Entity '/
/' Player o- - Weapon : aggregation '/
/' hide members '/
abstract class Entity {
    {abstract} +tick()
    -id
}
abstract class Movable {
    -vx
    -vy
    -x
    -y
}
abstract class Enemy {
    -objective
}
@enduml

@startuml

Entity <|- - Movable
Movable <|- - Enemy
abstract class Entity {
    {abstract} +tick()
    -id
}
abstract class Movable {
    -vx
    -vy
    -x
    -y
}
abstract class Enemy {
    -objective
}
@enduml

PlantUML version 1.2020.16(Sun Aug 23 22:20:43 CEST 2020)
(GPL source distribution)
Java Runtime: OpenJDK Runtime Environment
JVM: OpenJDK 64-Bit Server VM
Default Encoding: UTF-8
Language: es
Country: ES
--></g></svg>