<?xml version="1.0" encoding="UTF-8" standalone="no"?><svg xmlns="http://www.w3.org/2000/svg" xmlns:xlink="http://www.w3.org/1999/xlink" contentScriptType="application/ecmascript" contentStyleType="text/css" height="311px" preserveAspectRatio="none" style="width:248px;height:311px;background:#FFFFFF;" version="1.1" viewBox="0 0 248 311" width="248px" zoomAndPan="magnify"><defs><filter height="300%" id="f1nrchg55bfejb" width="300%" x="-1" y="-1"><feGaussianBlur result="blurOut" stdDeviation="2.0"/><feColorMatrix in="blurOut" result="blurOut2" type="matrix" values="0 0 0 0 0 0 0 0 0 0 0 0 0 0 0 0 0 0 .4 0"/><feOffset dx="4.0" dy="4.0" in="blurOut2" result="blurOut3"/><feBlend in="SourceGraphic" in2="blurOut3" mode="normal"/></filter></defs><g><!--MD5=[1cb3dca014c9afc5465c20d03b3a6575]
class Fruta--><rect codeLine="1" fill="#FEFECE" filter="url(#f1nrchg55bfejb)" height="73.9102" id="Fruta" style="stroke:#A80036;stroke-width:1.5;" width="80" x="112.5" y="7"/><ellipse cx="136.05" cy="23" fill="#ADD1B2" rx="11" ry="11" style="stroke:#A80036;stroke-width:1.0;"/><path d="M138.5231,29.1431 Q137.9421,29.4419 137.3029,29.5913 Q136.6638,29.7407 135.9582,29.7407 Q133.4514,29.7407 132.1315,28.0889 Q130.8117,26.437 130.8117,23.3159 Q130.8117,20.1865 132.1315,18.5347 Q133.4514,16.8828 135.9582,16.8828 Q136.6638,16.8828 137.3112,17.0322 Q137.9587,17.1816 138.5231,17.4805 L138.5231,20.2031 Q137.8923,19.6221 137.2988,19.3523 Q136.7053,19.0825 136.0744,19.0825 Q134.7297,19.0825 134.0449,20.1492 Q133.3601,21.2158 133.3601,23.3159 Q133.3601,25.4077 134.0449,26.4744 Q134.7297,27.541 136.0744,27.541 Q136.7053,27.541 137.2988,27.2712 Q137.8923,27.0015 138.5231,26.4204 Z " fill="#000000"/><text fill="#000000" font-family="sans-serif" font-size="12" lengthAdjust="spacing" textLength="29" x="151.95" y="27.5352">Fruta</text><line style="stroke:#A80036;stroke-width:1.5;" x1="113.5" x2="191.5" y1="39" y2="39"/><text fill="#000000" font-family="sans-serif" font-size="11" lengthAdjust="spacing" textLength="57" x="118.5" y="53.6348">int tamaño</text><line style="stroke:#A80036;stroke-width:1.5;" x1="113.5" x2="191.5" y1="59.9551" y2="59.9551"/><text fill="#000000" font-family="sans-serif" font-size="11" lengthAdjust="spacing" textLength="68" x="118.5" y="74.5898">void comer()</text><!--MD5=[bb464e4caa4f7f005857ca9509a61a47]
class Manzana--><rect fill="#FEFECE" filter="url(#f1nrchg55bfejb)" height="48" id="Manzana" style="stroke:#A80036;stroke-width:1.5;" width="84" x="57.5" y="141"/><ellipse cx="72.5" cy="157" fill="#ADD1B2" rx="11" ry="11" style="stroke:#A80036;stroke-width:1.0;"/><path d="M74.9731,163.1431 Q74.3921,163.4419 73.7529,163.5913 Q73.1138,163.7407 72.4082,163.7407 Q69.9014,163.7407 68.5815,162.0889 Q67.2617,160.437 67.2617,157.3159 Q67.2617,154.1865 68.5815,152.5347 Q69.9014,150.8828 72.4082,150.8828 Q73.1138,150.8828 73.7612,151.0322 Q74.4087,151.1816 74.9731,151.4805 L74.9731,154.2031 Q74.3423,153.6221 73.7488,153.3523 Q73.1553,153.0825 72.5244,153.0825 Q71.1797,153.0825 70.4949,154.1492 Q69.8101,155.2158 69.8101,157.3159 Q69.8101,159.4077 70.4949,160.4744 Q71.1797,161.541 72.5244,161.541 Q73.1553,161.541 73.7488,161.2712 Q74.3423,161.0015 74.9731,160.4204 Z " fill="#000000"/><text fill="#000000" font-family="sans-serif" font-size="12" lengthAdjust="spacing" textLength="52" x="86.5" y="161.5352">Manzana</text><line style="stroke:#A80036;stroke-width:1.5;" x1="58.5" x2="140.5" y1="173" y2="173"/><line style="stroke:#A80036;stroke-width:1.5;" x1="58.5" x2="140.5" y1="181" y2="181"/><!--MD5=[1508bf63183502ad5201ded5f8c5cf37]
class Pera--><rect fill="#FEFECE" filter="url(#f1nrchg55bfejb)" height="48" id="Pera" style="stroke:#A80036;stroke-width:1.5;" width="58" x="176.5" y="141"/><ellipse cx="191.5" cy="157" fill="#ADD1B2" rx="11" ry="11" style="stroke:#A80036;stroke-width:1.0;"/><path d="M193.9731,163.1431 Q193.3921,163.4419 192.7529,163.5913 Q192.1138,163.7407 191.4082,163.7407 Q188.9014,163.7407 187.5815,162.0889 Q186.2617,160.437 186.2617,157.3159 Q186.2617,154.1865 187.5815,152.5347 Q188.9014,150.8828 191.4082,150.8828 Q192.1138,150.8828 192.7612,151.0322 Q193.4087,151.1816 193.9731,151.4805 L193.9731,154.2031 Q193.3423,153.6221 192.7488,153.3523 Q192.1553,153.0825 191.5244,153.0825 Q190.1797,153.0825 189.4949,154.1492 Q188.8101,155.2158 188.8101,157.3159 Q188.8101,159.4077 189.4949,160.4744 Q190.1797,161.541 191.5244,161.541 Q192.1553,161.541 192.7488,161.2712 Q193.3423,161.0015 193.9731,160.4204 Z " fill="#000000"/><text fill="#000000" font-family="sans-serif" font-size="12" lengthAdjust="spacing" textLength="26" x="205.5" y="161.5352">Pera</text><line style="stroke:#A80036;stroke-width:1.5;" x1="177.5" x2="233.5" y1="173" y2="173"/><line style="stroke:#A80036;stroke-width:1.5;" x1="177.5" x2="233.5" y1="181" y2="181"/><!--MD5=[6713ca452e1b73d9b4e011ef9f2420d3]
class Golden--><rect fill="#FEFECE" filter="url(#f1nrchg55bfejb)" height="48" id="Golden" style="stroke:#A80036;stroke-width:1.5;" width="73" x="7" y="249"/><ellipse cx="22" cy="265" fill="#ADD1B2" rx="11" ry="11" style="stroke:#A80036;stroke-width:1.0;"/><path d="M24.4731,271.1431 Q23.8921,271.4419 23.2529,271.5913 Q22.6138,271.7407 21.9082,271.7407 Q19.4014,271.7407 18.0815,270.0889 Q16.7617,268.437 16.7617,265.3159 Q16.7617,262.1865 18.0815,260.5347 Q19.4014,258.8828 21.9082,258.8828 Q22.6138,258.8828 23.2612,259.0322 Q23.9087,259.1816 24.4731,259.4805 L24.4731,262.2031 Q23.8423,261.6221 23.2488,261.3523 Q22.6553,261.0825 22.0244,261.0825 Q20.6797,261.0825 19.9949,262.1492 Q19.3101,263.2158 19.3101,265.3159 Q19.3101,267.4077 19.9949,268.4744 Q20.6797,269.541 22.0244,269.541 Q22.6553,269.541 23.2488,269.2712 Q23.8423,269.0015 24.4731,268.4204 Z " fill="#000000"/><text fill="#000000" font-family="sans-serif" font-size="12" lengthAdjust="spacing" textLength="41" x="36" y="269.5352">Golden</text><line style="stroke:#A80036;stroke-width:1.5;" x1="8" x2="79" y1="281" y2="281"/><line style="stroke:#A80036;stroke-width:1.5;" x1="8" x2="79" y1="289" y2="289"/><!--MD5=[b382c621d7e414247e2ba32cfea47feb]
class PinkLady--><rect fill="#FEFECE" filter="url(#f1nrchg55bfejb)" height="48" id="PinkLady" style="stroke:#A80036;stroke-width:1.5;" width="83" x="115" y="249"/><ellipse cx="130" cy="265" fill="#ADD1B2" rx="11" ry="11" style="stroke:#A80036;stroke-width:1.0;"/><path d="M132.4731,271.1431 Q131.8921,271.4419 131.2529,271.5913 Q130.6138,271.7407 129.9082,271.7407 Q127.4014,271.7407 126.0815,270.0889 Q124.7617,268.437 124.7617,265.3159 Q124.7617,262.1865 126.0815,260.5347 Q127.4014,258.8828 129.9082,258.8828 Q130.6138,258.8828 131.2612,259.0322 Q131.9087,259.1816 132.4731,259.4805 L132.4731,262.2031 Q131.8423,261.6221 131.2488,261.3523 Q130.6553,261.0825 130.0244,261.0825 Q128.6797,261.0825 127.9949,262.1492 Q127.3101,263.2158 127.3101,265.3159 Q127.3101,267.4077 127.9949,268.4744 Q128.6797,269.541 130.0244,269.541 Q130.6553,269.541 131.2488,269.2712 Q131.8423,269.0015 132.4731,268.4204 Z " fill="#000000"/><text fill="#000000" font-family="sans-serif" font-size="12" lengthAdjust="spacing" textLength="51" x="144" y="269.5352">PinkLady</text><line style="stroke:#A80036;stroke-width:1.5;" x1="116" x2="197" y1="281" y2="281"/><line style="stroke:#A80036;stroke-width:1.5;" x1="116" x2="197" y1="289" y2="289"/><!--MD5=[bcd85ef2a3bef1409025fd08fdc954d2]
reverse link Fruta to Manzana--><path codeLine="6" d="M128.18,99.6 C121.71,114.12 115.07,129.04 109.81,140.85 " fill="none" id="Fruta-backto-Manzana" style="stroke:#A80036;stroke-width:1.0;"/><polygon fill="none" points="121.92,96.45,136.45,81.03,134.71,102.14,121.92,96.45" style="stroke:#A80036;stroke-width:1.0;"/><!--MD5=[b9224d04003462a4d489fd8f39a8b3f8]
reverse link Fruta to Pera--><path codeLine="7" d="M176.82,99.6 C183.29,114.12 189.93,129.04 195.19,140.85 " fill="none" id="Fruta-backto-Pera" style="stroke:#A80036;stroke-width:1.0;"/><polygon fill="none" points="170.29,102.14,168.55,81.03,183.08,96.45,170.29,102.14" style="stroke:#A80036;stroke-width:1.0;"/><!--MD5=[a39614a96946516b7c90e96ee034d8e4]
reverse link Manzana to Golden--><path codeLine="9" d="M77.79,207.09 C70.34,221.2 62.26,236.48 55.82,248.68 " fill="none" id="Manzana-backto-Golden" style="stroke:#A80036;stroke-width:1.0;"/><polygon fill="none" points="71.82,203.41,87.35,189,84.2,209.95,71.82,203.41" style="stroke:#A80036;stroke-width:1.0;"/><!--MD5=[18e3f184e009a8c76f8f9b2381bef4ee]
reverse link Manzana to PinkLady--><path codeLine="10" d="M121.6,207.09 C129.18,221.2 137.4,236.48 143.96,248.68 " fill="none" id="Manzana-backto-PinkLady" style="stroke:#A80036;stroke-width:1.0;"/><polygon fill="none" points="115.18,209.93,111.87,189,127.51,203.3,115.18,209.93" style="stroke:#A80036;stroke-width:1.0;"/><!--MD5=[147d1fcf7c47ca21ca55aa3643d01281]
@startuml Herencia
class Fruta {
    int tamaño
    void comer()
}

Fruta <|- - Manzana
Fruta <|- - Pera

Manzana <|- - Golden
Manzana <|- - PinkLady
@enduml

PlantUML version 1.2021.8(Sat Jun 26 10:20:59 CEST 2021)
(GPL source distribution)
Java Runtime: OpenJDK Runtime Environment
JVM: OpenJDK 64-Bit Server VM
Default Encoding: UTF-8
Language: es
Country: ES
--></g></svg>