<?xml version="1.0" encoding="UTF-8" standalone="no"?><svg xmlns="http://www.w3.org/2000/svg" xmlns:xlink="http://www.w3.org/1999/xlink" contentScriptType="application/ecmascript" contentStyleType="text/css" height="309px" preserveAspectRatio="none" style="width:252px;height:309px;" version="1.1" viewBox="0 0 252 309" width="252px" zoomAndPan="magnify"><defs><filter height="300%" id="f1nrchg55bfejb" width="300%" x="-1" y="-1"><feGaussianBlur result="blurOut" stdDeviation="2.0"/><feColorMatrix in="blurOut" result="blurOut2" type="matrix" values="0 0 0 0 0 0 0 0 0 0 0 0 0 0 0 0 0 0 .4 0"/><feOffset dx="4.0" dy="4.0" in="blurOut2" result="blurOut3"/><feBlend in="SourceGraphic" in2="blurOut3" mode="normal"/></filter></defs><g><!--class Fruta--><rect fill="#FEFECE" filter="url(#f1nrchg55bfejb)" height="73.792" id="Fruta" style="stroke: #A80036; stroke-width: 1.5;" width="83" x="114.5" y="8"/><ellipse cx="137.6" cy="24" fill="#ADD1B2" rx="11" ry="11" style="stroke: #A80036; stroke-width: 1.0;"/><path d="M140.5688,29.6406 Q139.9906,29.9375 139.35,30.0781 Q138.7094,30.2344 138.0063,30.2344 Q135.5063,30.2344 134.1781,28.5938 Q132.8656,26.9375 132.8656,23.8125 Q132.8656,20.6875 134.1781,19.0313 Q135.5063,17.375 138.0063,17.375 Q138.7094,17.375 139.35,17.5313 Q140.0063,17.6875 140.5688,17.9844 L140.5688,20.7031 Q139.9438,20.125 139.35,19.8594 Q138.7563,19.5781 138.1313,19.5781 Q136.7875,19.5781 136.1,20.6563 Q135.4125,21.7188 135.4125,23.8125 Q135.4125,25.9063 136.1,26.9844 Q136.7875,28.0469 138.1313,28.0469 Q138.7563,28.0469 139.35,27.7813 Q139.9438,27.5 140.5688,26.9219 L140.5688,29.6406 Z "/><text fill="#000000" font-family="sans-serif" font-size="12" lengthAdjust="spacingAndGlyphs" textLength="33" x="153.4" y="28.1807">Fruta</text><line style="stroke: #A80036; stroke-width: 1.5;" x1="115.5" x2="196.5" y1="40" y2="40"/><text fill="#000000" font-family="sans-serif" font-size="11" lengthAdjust="spacingAndGlyphs" textLength="61" x="120.5" y="54.2803">int tamaño</text><line style="stroke: #A80036; stroke-width: 1.5;" x1="115.5" x2="196.5" y1="60.896" y2="60.896"/><text fill="#000000" font-family="sans-serif" font-size="11" lengthAdjust="spacingAndGlyphs" textLength="71" x="120.5" y="75.1763">void comer()</text><!--class Manzana--><rect fill="#FEFECE" filter="url(#f1nrchg55bfejb)" height="48" id="Manzana" style="stroke: #A80036; stroke-width: 1.5;" width="87" x="58.5" y="142"/><ellipse cx="73.5" cy="158" fill="#ADD1B2" rx="11" ry="11" style="stroke: #A80036; stroke-width: 1.0;"/><path d="M76.4688,163.6406 Q75.8906,163.9375 75.25,164.0781 Q74.6094,164.2344 73.9063,164.2344 Q71.4063,164.2344 70.0781,162.5938 Q68.7656,160.9375 68.7656,157.8125 Q68.7656,154.6875 70.0781,153.0313 Q71.4063,151.375 73.9063,151.375 Q74.6094,151.375 75.25,151.5313 Q75.9063,151.6875 76.4688,151.9844 L76.4688,154.7031 Q75.8438,154.125 75.25,153.8594 Q74.6563,153.5781 74.0313,153.5781 Q72.6875,153.5781 72,154.6563 Q71.3125,155.7188 71.3125,157.8125 Q71.3125,159.9063 72,160.9844 Q72.6875,162.0469 74.0313,162.0469 Q74.6563,162.0469 75.25,161.7813 Q75.8438,161.5 76.4688,160.9219 L76.4688,163.6406 Z "/><text fill="#000000" font-family="sans-serif" font-size="12" lengthAdjust="spacingAndGlyphs" textLength="55" x="87.5" y="162.1807">Manzana</text><line style="stroke: #A80036; stroke-width: 1.5;" x1="59.5" x2="144.5" y1="174" y2="174"/><line style="stroke: #A80036; stroke-width: 1.5;" x1="59.5" x2="144.5" y1="182" y2="182"/><!--class Pera--><rect fill="#FEFECE" filter="url(#f1nrchg55bfejb)" height="48" id="Pera" style="stroke: #A80036; stroke-width: 1.5;" width="61" x="180.5" y="142"/><ellipse cx="195.5" cy="158" fill="#ADD1B2" rx="11" ry="11" style="stroke: #A80036; stroke-width: 1.0;"/><path d="M198.4688,163.6406 Q197.8906,163.9375 197.25,164.0781 Q196.6094,164.2344 195.9063,164.2344 Q193.4063,164.2344 192.0781,162.5938 Q190.7656,160.9375 190.7656,157.8125 Q190.7656,154.6875 192.0781,153.0313 Q193.4063,151.375 195.9063,151.375 Q196.6094,151.375 197.25,151.5313 Q197.9063,151.6875 198.4688,151.9844 L198.4688,154.7031 Q197.8438,154.125 197.25,153.8594 Q196.6563,153.5781 196.0313,153.5781 Q194.6875,153.5781 194,154.6563 Q193.3125,155.7188 193.3125,157.8125 Q193.3125,159.9063 194,160.9844 Q194.6875,162.0469 196.0313,162.0469 Q196.6563,162.0469 197.25,161.7813 Q197.8438,161.5 198.4688,160.9219 L198.4688,163.6406 Z "/><text fill="#000000" font-family="sans-serif" font-size="12" lengthAdjust="spacingAndGlyphs" textLength="29" x="209.5" y="162.1807">Pera</text><line style="stroke: #A80036; stroke-width: 1.5;" x1="181.5" x2="240.5" y1="174" y2="174"/><line style="stroke: #A80036; stroke-width: 1.5;" x1="181.5" x2="240.5" y1="182" y2="182"/><!--class Golden--><rect fill="#FEFECE" filter="url(#f1nrchg55bfejb)" height="48" id="Golden" style="stroke: #A80036; stroke-width: 1.5;" width="76" x="6" y="250"/><ellipse cx="21" cy="266" fill="#ADD1B2" rx="11" ry="11" style="stroke: #A80036; stroke-width: 1.0;"/><path d="M23.9688,271.6406 Q23.3906,271.9375 22.75,272.0781 Q22.1094,272.2344 21.4063,272.2344 Q18.9063,272.2344 17.5781,270.5938 Q16.2656,268.9375 16.2656,265.8125 Q16.2656,262.6875 17.5781,261.0313 Q18.9063,259.375 21.4063,259.375 Q22.1094,259.375 22.75,259.5313 Q23.4063,259.6875 23.9688,259.9844 L23.9688,262.7031 Q23.3438,262.125 22.75,261.8594 Q22.1563,261.5781 21.5313,261.5781 Q20.1875,261.5781 19.5,262.6563 Q18.8125,263.7188 18.8125,265.8125 Q18.8125,267.9063 19.5,268.9844 Q20.1875,270.0469 21.5313,270.0469 Q22.1563,270.0469 22.75,269.7813 Q23.3438,269.5 23.9688,268.9219 L23.9688,271.6406 Z "/><text fill="#000000" font-family="sans-serif" font-size="12" lengthAdjust="spacingAndGlyphs" textLength="44" x="35" y="270.1807">Golden</text><line style="stroke: #A80036; stroke-width: 1.5;" x1="7" x2="81" y1="282" y2="282"/><line style="stroke: #A80036; stroke-width: 1.5;" x1="7" x2="81" y1="290" y2="290"/><!--class PinkLady--><rect fill="#FEFECE" filter="url(#f1nrchg55bfejb)" height="48" id="PinkLady" style="stroke: #A80036; stroke-width: 1.5;" width="86" x="117" y="250"/><ellipse cx="132" cy="266" fill="#ADD1B2" rx="11" ry="11" style="stroke: #A80036; stroke-width: 1.0;"/><path d="M134.9688,271.6406 Q134.3906,271.9375 133.75,272.0781 Q133.1094,272.2344 132.4063,272.2344 Q129.9063,272.2344 128.5781,270.5938 Q127.2656,268.9375 127.2656,265.8125 Q127.2656,262.6875 128.5781,261.0313 Q129.9063,259.375 132.4063,259.375 Q133.1094,259.375 133.75,259.5313 Q134.4063,259.6875 134.9688,259.9844 L134.9688,262.7031 Q134.3438,262.125 133.75,261.8594 Q133.1563,261.5781 132.5313,261.5781 Q131.1875,261.5781 130.5,262.6563 Q129.8125,263.7188 129.8125,265.8125 Q129.8125,267.9063 130.5,268.9844 Q131.1875,270.0469 132.5313,270.0469 Q133.1563,270.0469 133.75,269.7813 Q134.3438,269.5 134.9688,268.9219 L134.9688,271.6406 Z "/><text fill="#000000" font-family="sans-serif" font-size="12" lengthAdjust="spacingAndGlyphs" textLength="54" x="146" y="270.1807">PinkLady</text><line style="stroke: #A80036; stroke-width: 1.5;" x1="118" x2="202" y1="282" y2="282"/><line style="stroke: #A80036; stroke-width: 1.5;" x1="118" x2="202" y1="290" y2="290"/><!--link Fruta to Manzana--><path d="M131.22,100.6 C124.63,115.12 117.87,130.04 112.5,141.85 " fill="none" id="Fruta-Manzana" style="stroke: #A80036; stroke-width: 1.0;"/><polygon fill="none" points="125.01,97.35,139.65,82.03,137.76,103.13,125.01,97.35" style="stroke: #A80036; stroke-width: 1.0;"/><!--link Fruta to Pera--><path d="M181.23,100.6 C187.95,115.12 194.84,130.04 200.3,141.85 " fill="none" id="Fruta-Pera" style="stroke: #A80036; stroke-width: 1.0;"/><polygon fill="none" points="174.69,103.12,172.65,82.03,187.4,97.24,174.69,103.12" style="stroke: #A80036; stroke-width: 1.0;"/><!--link Manzana to Golden--><path d="M79.78,207.61 C71.99,221.85 63.51,237.35 56.76,249.68 " fill="none" id="Manzana-Golden" style="stroke: #A80036; stroke-width: 1.0;"/><polygon fill="none" points="73.67,204.19,89.41,190,85.96,210.91,73.67,204.19" style="stroke: #A80036; stroke-width: 1.0;"/><!--link Manzana to PinkLady--><path d="M124.22,207.61 C132.01,221.85 140.49,237.35 147.24,249.68 " fill="none" id="Manzana-PinkLady" style="stroke: #A80036; stroke-width: 1.0;"/><polygon fill="none" points="118.04,210.91,114.59,190,130.33,204.19,118.04,210.91" style="stroke: #A80036; stroke-width: 1.0;"/><!--
@startuml Herencia
class Fruta {
    int tamaño
    void comer()
}

Fruta <|- - Manzana
Fruta <|- - Pera

Manzana <|- - Golden
Manzana <|- - PinkLady
@enduml

PlantUML version 1.2019.01(Sat Feb 09 16:32:04 CET 2019)
(LGPL source distribution)
Java Runtime: OpenJDK Runtime Environment
JVM: OpenJDK 64-Bit Server VM
Java Version: 1.8.0_265-b01
Operating System: Linux
OS Version: 5.8.12-200.fc32.x86_64
Default Encoding: UTF-8
Language: es
Country: ES
--></g></svg>