<?xml version="1.0" encoding="UTF-8" standalone="no"?><svg xmlns="http://www.w3.org/2000/svg" xmlns:xlink="http://www.w3.org/1999/xlink" contentScriptType="application/ecmascript" contentStyleType="text/css" height="404px" preserveAspectRatio="none" style="width:252px;height:404px;" version="1.1" viewBox="0 0 252 404" width="252px" zoomAndPan="magnify"><defs><filter height="300%" id="f1sqrlysgt7g2b" width="300%" x="-1" y="-1"><feGaussianBlur result="blurOut" stdDeviation="2.0"/><feColorMatrix in="blurOut" result="blurOut2" type="matrix" values="0 0 0 0 0 0 0 0 0 0 0 0 0 0 0 0 0 0 .4 0"/><feOffset dx="4.0" dy="4.0" in="blurOut2" result="blurOut3"/><feBlend in="SourceGraphic" in2="blurOut3" mode="normal"/></filter></defs><g><!--class EsComible--><rect fill="#FEFECE" filter="url(#f1sqrlysgt7g2b)" height="60.896" id="EsComible" style="stroke: #A80036; stroke-width: 1.5;" width="96" x="108" y="8"/><ellipse cx="123" cy="24" fill="#ADD1B2" rx="11" ry="11" style="stroke: #A80036; stroke-width: 1.0;"/><path d="M125.9688,29.6406 Q125.3906,29.9375 124.75,30.0781 Q124.1094,30.2344 123.4063,30.2344 Q120.9063,30.2344 119.5781,28.5938 Q118.2656,26.9375 118.2656,23.8125 Q118.2656,20.6875 119.5781,19.0313 Q120.9063,17.375 123.4063,17.375 Q124.1094,17.375 124.75,17.5313 Q125.4063,17.6875 125.9688,17.9844 L125.9688,20.7031 Q125.3438,20.125 124.75,19.8594 Q124.1563,19.5781 123.5313,19.5781 Q122.1875,19.5781 121.5,20.6563 Q120.8125,21.7188 120.8125,23.8125 Q120.8125,25.9063 121.5,26.9844 Q122.1875,28.0469 123.5313,28.0469 Q124.1563,28.0469 124.75,27.7813 Q125.3438,27.5 125.9688,26.9219 L125.9688,29.6406 Z "/><text fill="#000000" font-family="sans-serif" font-size="12" lengthAdjust="spacingAndGlyphs" textLength="64" x="137" y="28.1807">EsComible</text><line style="stroke: #A80036; stroke-width: 1.5;" x1="109" x2="203" y1="40" y2="40"/><line style="stroke: #A80036; stroke-width: 1.5;" x1="109" x2="203" y1="48" y2="48"/><text fill="#000000" font-family="sans-serif" font-size="11" lengthAdjust="spacingAndGlyphs" textLength="71" x="114" y="62.2803">void comer()</text><!--class Fruta--><rect fill="#FEFECE" filter="url(#f1sqrlysgt7g2b)" height="48" id="Fruta" style="stroke: #A80036; stroke-width: 1.5;" width="65" x="123.5" y="129"/><ellipse cx="138.5" cy="145" fill="#ADD1B2" rx="11" ry="11" style="stroke: #A80036; stroke-width: 1.0;"/><path d="M141.4688,150.6406 Q140.8906,150.9375 140.25,151.0781 Q139.6094,151.2344 138.9063,151.2344 Q136.4063,151.2344 135.0781,149.5938 Q133.7656,147.9375 133.7656,144.8125 Q133.7656,141.6875 135.0781,140.0313 Q136.4063,138.375 138.9063,138.375 Q139.6094,138.375 140.25,138.5313 Q140.9063,138.6875 141.4688,138.9844 L141.4688,141.7031 Q140.8438,141.125 140.25,140.8594 Q139.6563,140.5781 139.0313,140.5781 Q137.6875,140.5781 137,141.6563 Q136.3125,142.7188 136.3125,144.8125 Q136.3125,146.9063 137,147.9844 Q137.6875,149.0469 139.0313,149.0469 Q139.6563,149.0469 140.25,148.7813 Q140.8438,148.5 141.4688,147.9219 L141.4688,150.6406 Z "/><text fill="#000000" font-family="sans-serif" font-size="12" lengthAdjust="spacingAndGlyphs" textLength="33" x="152.5" y="149.1807">Fruta</text><line style="stroke: #A80036; stroke-width: 1.5;" x1="124.5" x2="187.5" y1="161" y2="161"/><line style="stroke: #A80036; stroke-width: 1.5;" x1="124.5" x2="187.5" y1="169" y2="169"/><!--class Manzana--><rect fill="#FEFECE" filter="url(#f1sqrlysgt7g2b)" height="48" id="Manzana" style="stroke: #A80036; stroke-width: 1.5;" width="87" x="58.5" y="237"/><ellipse cx="73.5" cy="253" fill="#ADD1B2" rx="11" ry="11" style="stroke: #A80036; stroke-width: 1.0;"/><path d="M76.4688,258.6406 Q75.8906,258.9375 75.25,259.0781 Q74.6094,259.2344 73.9063,259.2344 Q71.4063,259.2344 70.0781,257.5938 Q68.7656,255.9375 68.7656,252.8125 Q68.7656,249.6875 70.0781,248.0313 Q71.4063,246.375 73.9063,246.375 Q74.6094,246.375 75.25,246.5313 Q75.9063,246.6875 76.4688,246.9844 L76.4688,249.7031 Q75.8438,249.125 75.25,248.8594 Q74.6563,248.5781 74.0313,248.5781 Q72.6875,248.5781 72,249.6563 Q71.3125,250.7188 71.3125,252.8125 Q71.3125,254.9063 72,255.9844 Q72.6875,257.0469 74.0313,257.0469 Q74.6563,257.0469 75.25,256.7813 Q75.8438,256.5 76.4688,255.9219 L76.4688,258.6406 Z "/><text fill="#000000" font-family="sans-serif" font-size="12" lengthAdjust="spacingAndGlyphs" textLength="55" x="87.5" y="257.1807">Manzana</text><line style="stroke: #A80036; stroke-width: 1.5;" x1="59.5" x2="144.5" y1="269" y2="269"/><line style="stroke: #A80036; stroke-width: 1.5;" x1="59.5" x2="144.5" y1="277" y2="277"/><!--class Pera--><rect fill="#FEFECE" filter="url(#f1sqrlysgt7g2b)" height="48" id="Pera" style="stroke: #A80036; stroke-width: 1.5;" width="61" x="180.5" y="237"/><ellipse cx="195.5" cy="253" fill="#ADD1B2" rx="11" ry="11" style="stroke: #A80036; stroke-width: 1.0;"/><path d="M198.4688,258.6406 Q197.8906,258.9375 197.25,259.0781 Q196.6094,259.2344 195.9063,259.2344 Q193.4063,259.2344 192.0781,257.5938 Q190.7656,255.9375 190.7656,252.8125 Q190.7656,249.6875 192.0781,248.0313 Q193.4063,246.375 195.9063,246.375 Q196.6094,246.375 197.25,246.5313 Q197.9063,246.6875 198.4688,246.9844 L198.4688,249.7031 Q197.8438,249.125 197.25,248.8594 Q196.6563,248.5781 196.0313,248.5781 Q194.6875,248.5781 194,249.6563 Q193.3125,250.7188 193.3125,252.8125 Q193.3125,254.9063 194,255.9844 Q194.6875,257.0469 196.0313,257.0469 Q196.6563,257.0469 197.25,256.7813 Q197.8438,256.5 198.4688,255.9219 L198.4688,258.6406 Z "/><text fill="#000000" font-family="sans-serif" font-size="12" lengthAdjust="spacingAndGlyphs" textLength="29" x="209.5" y="257.1807">Pera</text><line style="stroke: #A80036; stroke-width: 1.5;" x1="181.5" x2="240.5" y1="269" y2="269"/><line style="stroke: #A80036; stroke-width: 1.5;" x1="181.5" x2="240.5" y1="277" y2="277"/><!--class Golden--><rect fill="#FEFECE" filter="url(#f1sqrlysgt7g2b)" height="48" id="Golden" style="stroke: #A80036; stroke-width: 1.5;" width="76" x="6" y="345"/><ellipse cx="21" cy="361" fill="#ADD1B2" rx="11" ry="11" style="stroke: #A80036; stroke-width: 1.0;"/><path d="M23.9688,366.6406 Q23.3906,366.9375 22.75,367.0781 Q22.1094,367.2344 21.4063,367.2344 Q18.9063,367.2344 17.5781,365.5938 Q16.2656,363.9375 16.2656,360.8125 Q16.2656,357.6875 17.5781,356.0313 Q18.9063,354.375 21.4063,354.375 Q22.1094,354.375 22.75,354.5313 Q23.4063,354.6875 23.9688,354.9844 L23.9688,357.7031 Q23.3438,357.125 22.75,356.8594 Q22.1563,356.5781 21.5313,356.5781 Q20.1875,356.5781 19.5,357.6563 Q18.8125,358.7188 18.8125,360.8125 Q18.8125,362.9063 19.5,363.9844 Q20.1875,365.0469 21.5313,365.0469 Q22.1563,365.0469 22.75,364.7813 Q23.3438,364.5 23.9688,363.9219 L23.9688,366.6406 Z "/><text fill="#000000" font-family="sans-serif" font-size="12" lengthAdjust="spacingAndGlyphs" textLength="44" x="35" y="365.1807">Golden</text><line style="stroke: #A80036; stroke-width: 1.5;" x1="7" x2="81" y1="377" y2="377"/><line style="stroke: #A80036; stroke-width: 1.5;" x1="7" x2="81" y1="385" y2="385"/><!--class PinkLady--><rect fill="#FEFECE" filter="url(#f1sqrlysgt7g2b)" height="48" id="PinkLady" style="stroke: #A80036; stroke-width: 1.5;" width="86" x="117" y="345"/><ellipse cx="132" cy="361" fill="#ADD1B2" rx="11" ry="11" style="stroke: #A80036; stroke-width: 1.0;"/><path d="M134.9688,366.6406 Q134.3906,366.9375 133.75,367.0781 Q133.1094,367.2344 132.4063,367.2344 Q129.9063,367.2344 128.5781,365.5938 Q127.2656,363.9375 127.2656,360.8125 Q127.2656,357.6875 128.5781,356.0313 Q129.9063,354.375 132.4063,354.375 Q133.1094,354.375 133.75,354.5313 Q134.4063,354.6875 134.9688,354.9844 L134.9688,357.7031 Q134.3438,357.125 133.75,356.8594 Q133.1563,356.5781 132.5313,356.5781 Q131.1875,356.5781 130.5,357.6563 Q129.8125,358.7188 129.8125,360.8125 Q129.8125,362.9063 130.5,363.9844 Q131.1875,365.0469 132.5313,365.0469 Q133.1563,365.0469 133.75,364.7813 Q134.3438,364.5 134.9688,363.9219 L134.9688,366.6406 Z "/><text fill="#000000" font-family="sans-serif" font-size="12" lengthAdjust="spacingAndGlyphs" textLength="54" x="146" y="365.1807">PinkLady</text><line style="stroke: #A80036; stroke-width: 1.5;" x1="118" x2="202" y1="377" y2="377"/><line style="stroke: #A80036; stroke-width: 1.5;" x1="118" x2="202" y1="385" y2="385"/><!--link Fruta to Manzana--><path d="M135.07,195.09 C127.88,209.2 120.09,224.48 113.88,236.68 " fill="none" id="Fruta-Manzana" style="stroke: #A80036; stroke-width: 1.0;"/><polygon fill="none" points="128.97,191.64,144.28,177,141.44,198,128.97,191.64" style="stroke: #A80036; stroke-width: 1.0;"/><!--link Fruta to Pera--><path d="M177.32,195.09 C184.64,209.2 192.57,224.48 198.9,236.68 " fill="none" id="Fruta-Pera" style="stroke: #A80036; stroke-width: 1.0;"/><polygon fill="none" points="170.93,197.98,167.93,177,183.36,191.53,170.93,197.98" style="stroke: #A80036; stroke-width: 1.0;"/><!--link EsComible to Fruta--><path d="M156,89.11 C156,102.88 156,117.18 156,128.67 " fill="none" id="EsComible-Fruta" style="stroke: #A80036; stroke-width: 1.0; stroke-dasharray: 7.0,7.0;"/><polygon fill="none" points="149,89.06,156,69.06,163,89.06,149,89.06" style="stroke: #A80036; stroke-width: 1.0;"/><!--link Manzana to Golden--><path d="M79.78,302.61 C71.99,316.85 63.51,332.35 56.76,344.68 " fill="none" id="Manzana-Golden" style="stroke: #A80036; stroke-width: 1.0;"/><polygon fill="none" points="73.67,299.19,89.41,285,85.96,305.91,73.67,299.19" style="stroke: #A80036; stroke-width: 1.0;"/><!--link Manzana to PinkLady--><path d="M124.22,302.61 C132.01,316.85 140.49,332.35 147.24,344.68 " fill="none" id="Manzana-PinkLady" style="stroke: #A80036; stroke-width: 1.0;"/><polygon fill="none" points="118.04,305.91,114.59,285,130.33,299.19,118.04,305.91" style="stroke: #A80036; stroke-width: 1.0;"/><!--
@startuml Herencia
class EsComible {
    void comer()
}

Fruta <|- - Manzana
Fruta <|- - Pera

EsComible <|.. Fruta


Manzana <|- - Golden
Manzana <|- - PinkLady
@enduml

PlantUML version 1.2019.01(Sat Feb 09 16:32:04 CET 2019)
(LGPL source distribution)
Java Runtime: OpenJDK Runtime Environment
JVM: OpenJDK 64-Bit Server VM
Java Version: 1.8.0_265-b01
Operating System: Linux
OS Version: 5.8.12-200.fc32.x86_64
Default Encoding: UTF-8
Language: es
Country: ES
--></g></svg>