<?xml version="1.0" encoding="UTF-8" standalone="no"?><svg xmlns="http://www.w3.org/2000/svg" xmlns:xlink="http://www.w3.org/1999/xlink" contentStyleType="text/css" height="404px" preserveAspectRatio="none" style="width:254px;height:404px;background:#FFFFFF;" version="1.1" viewBox="0 0 254 404" width="254px" zoomAndPan="magnify"><defs/><g><!--MD5=[5fecf7a560310301be6a50ad973ce2a9]
class EsComible--><g id="elem_EsComible"><rect codeLine="1" fill="#F1F1F1" height="65.6094" id="EsComible" rx="2.5" ry="2.5" style="stroke:#181818;stroke-width:0.5;" width="99" x="110.5" y="7"/><ellipse cx="125.5" cy="23" fill="#ADD1B2" rx="11" ry="11" style="stroke:#181818;stroke-width:1.0;"/><path d="M128.2656,18.875 Q128.4219,18.6563 128.6094,18.5469 Q128.7969,18.4375 129.0156,18.4375 Q129.3906,18.4375 129.625,18.7031 Q129.8594,18.9531 129.8594,19.5625 L129.8594,21.0156 Q129.8594,21.625 129.625,21.8906 Q129.3906,22.1563 129.0156,22.1563 Q128.6719,22.1563 128.4688,21.9531 Q128.2656,21.7656 128.1563,21.25 Q128.1094,20.8906 127.9219,20.7031 Q127.5938,20.3281 126.9844,20.1094 Q126.375,19.8906 125.75,19.8906 Q124.9844,19.8906 124.3438,20.2188 Q123.7188,20.5469 123.2188,21.2969 Q122.7344,22.0469 122.7344,23.0781 L122.7344,24.1719 Q122.7344,25.4063 123.625,26.2344 Q124.5156,27.0469 126.1094,27.0469 Q127.0469,27.0469 127.7031,26.7969 Q128.0938,26.6406 128.5156,26.2031 Q128.7813,25.9375 128.9219,25.8594 Q129.0781,25.7813 129.2813,25.7813 Q129.6094,25.7813 129.8594,26.0469 Q130.125,26.2969 130.125,26.6406 Q130.125,26.9844 129.7813,27.3906 Q129.2813,27.9688 128.4844,28.2969 Q127.4063,28.75 126.1094,28.75 Q124.5938,28.75 123.3906,28.125 Q122.4063,27.625 121.7188,26.5625 Q121.0313,25.4844 121.0313,24.2031 L121.0313,23.0469 Q121.0313,21.7188 121.6406,20.5781 Q122.2656,19.4219 123.3594,18.8125 Q124.4531,18.1875 125.6875,18.1875 Q126.4219,18.1875 127.0625,18.3594 Q127.7188,18.5156 128.2656,18.875 Z " fill="#000000"/><text fill="#000000" font-family="sans-serif" font-size="14" lengthAdjust="spacing" textLength="67" x="139.5" y="28.7285">EsComible</text><line style="stroke:#181818;stroke-width:0.5;" x1="111.5" x2="208.5" y1="39" y2="39"/><line style="stroke:#181818;stroke-width:0.5;" x1="111.5" x2="208.5" y1="47" y2="47"/><text fill="#000000" font-family="sans-serif" font-size="14" lengthAdjust="spacing" textLength="79" x="116.5" y="65.5332">void comer()</text></g><!--MD5=[1cb3dca014c9afc5465c20d03b3a6575]
class Fruta--><g id="elem_Fruta"><rect fill="#F1F1F1" height="48" id="Fruta" rx="2.5" ry="2.5" style="stroke:#181818;stroke-width:0.5;" width="66" x="127" y="133"/><ellipse cx="142" cy="149" fill="#ADD1B2" rx="11" ry="11" style="stroke:#181818;stroke-width:1.0;"/><path d="M144.7656,144.875 Q144.9219,144.6563 145.1094,144.5469 Q145.2969,144.4375 145.5156,144.4375 Q145.8906,144.4375 146.125,144.7031 Q146.3594,144.9531 146.3594,145.5625 L146.3594,147.0156 Q146.3594,147.625 146.125,147.8906 Q145.8906,148.1563 145.5156,148.1563 Q145.1719,148.1563 144.9688,147.9531 Q144.7656,147.7656 144.6563,147.25 Q144.6094,146.8906 144.4219,146.7031 Q144.0938,146.3281 143.4844,146.1094 Q142.875,145.8906 142.25,145.8906 Q141.4844,145.8906 140.8438,146.2188 Q140.2188,146.5469 139.7188,147.2969 Q139.2344,148.0469 139.2344,149.0781 L139.2344,150.1719 Q139.2344,151.4063 140.125,152.2344 Q141.0156,153.0469 142.6094,153.0469 Q143.5469,153.0469 144.2031,152.7969 Q144.5938,152.6406 145.0156,152.2031 Q145.2813,151.9375 145.4219,151.8594 Q145.5781,151.7813 145.7813,151.7813 Q146.1094,151.7813 146.3594,152.0469 Q146.625,152.2969 146.625,152.6406 Q146.625,152.9844 146.2813,153.3906 Q145.7813,153.9688 144.9844,154.2969 Q143.9063,154.75 142.6094,154.75 Q141.0938,154.75 139.8906,154.125 Q138.9063,153.625 138.2188,152.5625 Q137.5313,151.4844 137.5313,150.2031 L137.5313,149.0469 Q137.5313,147.7188 138.1406,146.5781 Q138.7656,145.4219 139.8594,144.8125 Q140.9531,144.1875 142.1875,144.1875 Q142.9219,144.1875 143.5625,144.3594 Q144.2188,144.5156 144.7656,144.875 Z " fill="#000000"/><text fill="#000000" font-family="sans-serif" font-size="14" lengthAdjust="spacing" textLength="34" x="156" y="154.7285">Fruta</text><line style="stroke:#181818;stroke-width:0.5;" x1="128" x2="192" y1="165" y2="165"/><line style="stroke:#181818;stroke-width:0.5;" x1="128" x2="192" y1="173" y2="173"/></g><!--MD5=[bb464e4caa4f7f005857ca9509a61a47]
class Manzana--><g id="elem_Manzana"><rect fill="#F1F1F1" height="48" id="Manzana" rx="2.5" ry="2.5" style="stroke:#181818;stroke-width:0.5;" width="89" x="60.5" y="241"/><ellipse cx="75.5" cy="257" fill="#ADD1B2" rx="11" ry="11" style="stroke:#181818;stroke-width:1.0;"/><path d="M78.2656,252.875 Q78.4219,252.6563 78.6094,252.5469 Q78.7969,252.4375 79.0156,252.4375 Q79.3906,252.4375 79.625,252.7031 Q79.8594,252.9531 79.8594,253.5625 L79.8594,255.0156 Q79.8594,255.625 79.625,255.8906 Q79.3906,256.1563 79.0156,256.1563 Q78.6719,256.1563 78.4688,255.9531 Q78.2656,255.7656 78.1563,255.25 Q78.1094,254.8906 77.9219,254.7031 Q77.5938,254.3281 76.9844,254.1094 Q76.375,253.8906 75.75,253.8906 Q74.9844,253.8906 74.3438,254.2188 Q73.7188,254.5469 73.2188,255.2969 Q72.7344,256.0469 72.7344,257.0781 L72.7344,258.1719 Q72.7344,259.4063 73.625,260.2344 Q74.5156,261.0469 76.1094,261.0469 Q77.0469,261.0469 77.7031,260.7969 Q78.0938,260.6406 78.5156,260.2031 Q78.7813,259.9375 78.9219,259.8594 Q79.0781,259.7813 79.2813,259.7813 Q79.6094,259.7813 79.8594,260.0469 Q80.125,260.2969 80.125,260.6406 Q80.125,260.9844 79.7813,261.3906 Q79.2813,261.9688 78.4844,262.2969 Q77.4063,262.75 76.1094,262.75 Q74.5938,262.75 73.3906,262.125 Q72.4063,261.625 71.7188,260.5625 Q71.0313,259.4844 71.0313,258.2031 L71.0313,257.0469 Q71.0313,255.7188 71.6406,254.5781 Q72.2656,253.4219 73.3594,252.8125 Q74.4531,252.1875 75.6875,252.1875 Q76.4219,252.1875 77.0625,252.3594 Q77.7188,252.5156 78.2656,252.875 Z " fill="#000000"/><text fill="#000000" font-family="sans-serif" font-size="14" lengthAdjust="spacing" textLength="57" x="89.5" y="262.7285">Manzana</text><line style="stroke:#181818;stroke-width:0.5;" x1="61.5" x2="148.5" y1="273" y2="273"/><line style="stroke:#181818;stroke-width:0.5;" x1="61.5" x2="148.5" y1="281" y2="281"/></g><!--MD5=[1508bf63183502ad5201ded5f8c5cf37]
class Pera--><g id="elem_Pera"><rect fill="#F1F1F1" height="48" id="Pera" rx="2.5" ry="2.5" style="stroke:#181818;stroke-width:0.5;" width="62" x="185" y="241"/><ellipse cx="200" cy="257" fill="#ADD1B2" rx="11" ry="11" style="stroke:#181818;stroke-width:1.0;"/><path d="M202.7656,252.875 Q202.9219,252.6563 203.1094,252.5469 Q203.2969,252.4375 203.5156,252.4375 Q203.8906,252.4375 204.125,252.7031 Q204.3594,252.9531 204.3594,253.5625 L204.3594,255.0156 Q204.3594,255.625 204.125,255.8906 Q203.8906,256.1563 203.5156,256.1563 Q203.1719,256.1563 202.9688,255.9531 Q202.7656,255.7656 202.6563,255.25 Q202.6094,254.8906 202.4219,254.7031 Q202.0938,254.3281 201.4844,254.1094 Q200.875,253.8906 200.25,253.8906 Q199.4844,253.8906 198.8438,254.2188 Q198.2188,254.5469 197.7188,255.2969 Q197.2344,256.0469 197.2344,257.0781 L197.2344,258.1719 Q197.2344,259.4063 198.125,260.2344 Q199.0156,261.0469 200.6094,261.0469 Q201.5469,261.0469 202.2031,260.7969 Q202.5938,260.6406 203.0156,260.2031 Q203.2813,259.9375 203.4219,259.8594 Q203.5781,259.7813 203.7813,259.7813 Q204.1094,259.7813 204.3594,260.0469 Q204.625,260.2969 204.625,260.6406 Q204.625,260.9844 204.2813,261.3906 Q203.7813,261.9688 202.9844,262.2969 Q201.9063,262.75 200.6094,262.75 Q199.0938,262.75 197.8906,262.125 Q196.9063,261.625 196.2188,260.5625 Q195.5313,259.4844 195.5313,258.2031 L195.5313,257.0469 Q195.5313,255.7188 196.1406,254.5781 Q196.7656,253.4219 197.8594,252.8125 Q198.9531,252.1875 200.1875,252.1875 Q200.9219,252.1875 201.5625,252.3594 Q202.2188,252.5156 202.7656,252.875 Z " fill="#000000"/><text fill="#000000" font-family="sans-serif" font-size="14" lengthAdjust="spacing" textLength="30" x="214" y="262.7285">Pera</text><line style="stroke:#181818;stroke-width:0.5;" x1="186" x2="246" y1="273" y2="273"/><line style="stroke:#181818;stroke-width:0.5;" x1="186" x2="246" y1="281" y2="281"/></g><!--MD5=[6713ca452e1b73d9b4e011ef9f2420d3]
class Golden--><g id="elem_Golden"><rect fill="#F1F1F1" height="48" id="Golden" rx="2.5" ry="2.5" style="stroke:#181818;stroke-width:0.5;" width="78" x="7" y="349"/><ellipse cx="22" cy="365" fill="#ADD1B2" rx="11" ry="11" style="stroke:#181818;stroke-width:1.0;"/><path d="M24.7656,360.875 Q24.9219,360.6563 25.1094,360.5469 Q25.2969,360.4375 25.5156,360.4375 Q25.8906,360.4375 26.125,360.7031 Q26.3594,360.9531 26.3594,361.5625 L26.3594,363.0156 Q26.3594,363.625 26.125,363.8906 Q25.8906,364.1563 25.5156,364.1563 Q25.1719,364.1563 24.9688,363.9531 Q24.7656,363.7656 24.6563,363.25 Q24.6094,362.8906 24.4219,362.7031 Q24.0938,362.3281 23.4844,362.1094 Q22.875,361.8906 22.25,361.8906 Q21.4844,361.8906 20.8438,362.2188 Q20.2188,362.5469 19.7188,363.2969 Q19.2344,364.0469 19.2344,365.0781 L19.2344,366.1719 Q19.2344,367.4063 20.125,368.2344 Q21.0156,369.0469 22.6094,369.0469 Q23.5469,369.0469 24.2031,368.7969 Q24.5938,368.6406 25.0156,368.2031 Q25.2813,367.9375 25.4219,367.8594 Q25.5781,367.7813 25.7813,367.7813 Q26.1094,367.7813 26.3594,368.0469 Q26.625,368.2969 26.625,368.6406 Q26.625,368.9844 26.2813,369.3906 Q25.7813,369.9688 24.9844,370.2969 Q23.9063,370.75 22.6094,370.75 Q21.0938,370.75 19.8906,370.125 Q18.9063,369.625 18.2188,368.5625 Q17.5313,367.4844 17.5313,366.2031 L17.5313,365.0469 Q17.5313,363.7188 18.1406,362.5781 Q18.7656,361.4219 19.8594,360.8125 Q20.9531,360.1875 22.1875,360.1875 Q22.9219,360.1875 23.5625,360.3594 Q24.2188,360.5156 24.7656,360.875 Z " fill="#000000"/><text fill="#000000" font-family="sans-serif" font-size="14" lengthAdjust="spacing" textLength="46" x="36" y="370.7285">Golden</text><line style="stroke:#181818;stroke-width:0.5;" x1="8" x2="84" y1="381" y2="381"/><line style="stroke:#181818;stroke-width:0.5;" x1="8" x2="84" y1="389" y2="389"/></g><!--MD5=[b382c621d7e414247e2ba32cfea47feb]
class PinkLady--><g id="elem_PinkLady"><rect fill="#F1F1F1" height="48" id="PinkLady" rx="2.5" ry="2.5" style="stroke:#181818;stroke-width:0.5;" width="90" x="120" y="349"/><ellipse cx="135" cy="365" fill="#ADD1B2" rx="11" ry="11" style="stroke:#181818;stroke-width:1.0;"/><path d="M137.7656,360.875 Q137.9219,360.6563 138.1094,360.5469 Q138.2969,360.4375 138.5156,360.4375 Q138.8906,360.4375 139.125,360.7031 Q139.3594,360.9531 139.3594,361.5625 L139.3594,363.0156 Q139.3594,363.625 139.125,363.8906 Q138.8906,364.1563 138.5156,364.1563 Q138.1719,364.1563 137.9688,363.9531 Q137.7656,363.7656 137.6563,363.25 Q137.6094,362.8906 137.4219,362.7031 Q137.0938,362.3281 136.4844,362.1094 Q135.875,361.8906 135.25,361.8906 Q134.4844,361.8906 133.8438,362.2188 Q133.2188,362.5469 132.7188,363.2969 Q132.2344,364.0469 132.2344,365.0781 L132.2344,366.1719 Q132.2344,367.4063 133.125,368.2344 Q134.0156,369.0469 135.6094,369.0469 Q136.5469,369.0469 137.2031,368.7969 Q137.5938,368.6406 138.0156,368.2031 Q138.2813,367.9375 138.4219,367.8594 Q138.5781,367.7813 138.7813,367.7813 Q139.1094,367.7813 139.3594,368.0469 Q139.625,368.2969 139.625,368.6406 Q139.625,368.9844 139.2813,369.3906 Q138.7813,369.9688 137.9844,370.2969 Q136.9063,370.75 135.6094,370.75 Q134.0938,370.75 132.8906,370.125 Q131.9063,369.625 131.2188,368.5625 Q130.5313,367.4844 130.5313,366.2031 L130.5313,365.0469 Q130.5313,363.7188 131.1406,362.5781 Q131.7656,361.4219 132.8594,360.8125 Q133.9531,360.1875 135.1875,360.1875 Q135.9219,360.1875 136.5625,360.3594 Q137.2188,360.5156 137.7656,360.875 Z " fill="#000000"/><text fill="#000000" font-family="sans-serif" font-size="14" lengthAdjust="spacing" textLength="58" x="149" y="370.7285">PinkLady</text><line style="stroke:#181818;stroke-width:0.5;" x1="121" x2="209" y1="381" y2="381"/><line style="stroke:#181818;stroke-width:0.5;" x1="121" x2="209" y1="389" y2="389"/></g><!--MD5=[bcd85ef2a3bef1409025fd08fdc954d2]
reverse link Fruta to Manzana--><g id="link_Fruta_Manzana"><path codeLine="5" d="M138.68,199.09 C131.36,213.2 123.43,228.48 117.1,240.68 " fill="none" id="Fruta-backto-Manzana" style="stroke:#181818;stroke-width:1.0;"/><polygon fill="none" points="132.64,195.53,148.07,181,145.07,201.98,132.64,195.53" style="stroke:#181818;stroke-width:1.0;"/></g><!--MD5=[b9224d04003462a4d489fd8f39a8b3f8]
reverse link Fruta to Pera--><g id="link_Fruta_Pera"><path codeLine="6" d="M181.71,199.09 C189.16,213.2 197.24,228.48 203.68,240.68 " fill="none" id="Fruta-backto-Pera" style="stroke:#181818;stroke-width:1.0;"/><polygon fill="none" points="175.3,201.95,172.15,181,187.68,195.41,175.3,201.95" style="stroke:#181818;stroke-width:1.0;"/></g><!--MD5=[1a9bf5fdb8dc62dbc961c5b8a4e48908]
reverse link EsComible to Fruta--><g id="link_EsComible_Fruta"><path codeLine="8" d="M160,93.34 C160,107.21 160,121.47 160,132.89 " fill="none" id="EsComible-backto-Fruta" style="stroke:#181818;stroke-width:1.0;stroke-dasharray:7.0,7.0;"/><polygon fill="none" points="153,93.03,160,73.03,167,93.03,153,93.03" style="stroke:#181818;stroke-width:1.0;"/></g><!--MD5=[a39614a96946516b7c90e96ee034d8e4]
reverse link Manzana to Golden--><g id="link_Manzana_Golden"><path codeLine="11" d="M82.39,306.61 C74.47,320.85 65.85,336.35 58.98,348.68 " fill="none" id="Manzana-backto-Golden" style="stroke:#181818;stroke-width:1.0;"/><polygon fill="none" points="76.35,303.07,92.2,289,88.59,309.88,76.35,303.07" style="stroke:#181818;stroke-width:1.0;"/></g><!--MD5=[18e3f184e009a8c76f8f9b2381bef4ee]
reverse link Manzana to PinkLady--><g id="link_Manzana_PinkLady"><path codeLine="12" d="M127.99,306.61 C136.05,320.85 144.82,336.35 151.8,348.68 " fill="none" id="Manzana-backto-PinkLady" style="stroke:#181818;stroke-width:1.0;"/><polygon fill="none" points="121.78,309.85,118.02,289,133.96,302.96,121.78,309.85" style="stroke:#181818;stroke-width:1.0;"/></g><!--MD5=[b8fdd80343ff7e8b5550adf39ff85a9f]
@startuml Herencia
class EsComible {
    void comer()
}

Fruta <|- - Manzana
Fruta <|- - Pera

EsComible <|.. Fruta


Manzana <|- - Golden
Manzana <|- - PinkLady
@enduml

PlantUML version 1.2022.5(Sat Apr 30 12:55:52 CEST 2022)
(GPL source distribution)
Java Runtime: OpenJDK Runtime Environment
JVM: OpenJDK 64-Bit Server VM
Default Encoding: UTF-8
Language: es
Country: ES
--></g></svg>