<?xml version="1.0" encoding="UTF-8" standalone="no"?><svg xmlns="http://www.w3.org/2000/svg" xmlns:xlink="http://www.w3.org/1999/xlink" contentScriptType="application/ecmascript" contentStyleType="text/css" height="406px" preserveAspectRatio="none" style="width:248px;height:406px;background:#FFFFFF;" version="1.1" viewBox="0 0 248 406" width="248px" zoomAndPan="magnify"><defs><filter height="300%" id="f1sqrlysgt7g2b" width="300%" x="-1" y="-1"><feGaussianBlur result="blurOut" stdDeviation="2.0"/><feColorMatrix in="blurOut" result="blurOut2" type="matrix" values="0 0 0 0 0 0 0 0 0 0 0 0 0 0 0 0 0 0 .4 0"/><feOffset dx="4.0" dy="4.0" in="blurOut2" result="blurOut3"/><feBlend in="SourceGraphic" in2="blurOut3" mode="normal"/></filter></defs><g><!--MD5=[5fecf7a560310301be6a50ad973ce2a9]
class EsComible--><rect codeLine="1" fill="#FEFECE" filter="url(#f1sqrlysgt7g2b)" height="60.9551" id="EsComible" style="stroke:#A80036;stroke-width:1.5;" width="92" x="106.5" y="7"/><ellipse cx="121.5" cy="23" fill="#ADD1B2" rx="11" ry="11" style="stroke:#A80036;stroke-width:1.0;"/><path d="M123.9731,29.1431 Q123.3921,29.4419 122.7529,29.5913 Q122.1138,29.7407 121.4082,29.7407 Q118.9014,29.7407 117.5815,28.0889 Q116.2617,26.437 116.2617,23.3159 Q116.2617,20.1865 117.5815,18.5347 Q118.9014,16.8828 121.4082,16.8828 Q122.1138,16.8828 122.7612,17.0322 Q123.4087,17.1816 123.9731,17.4805 L123.9731,20.2031 Q123.3423,19.6221 122.7488,19.3523 Q122.1553,19.0825 121.5244,19.0825 Q120.1797,19.0825 119.4949,20.1492 Q118.8101,21.2158 118.8101,23.3159 Q118.8101,25.4077 119.4949,26.4744 Q120.1797,27.541 121.5244,27.541 Q122.1553,27.541 122.7488,27.2712 Q123.3423,27.0015 123.9731,26.4204 Z " fill="#000000"/><text fill="#000000" font-family="sans-serif" font-size="12" lengthAdjust="spacing" textLength="60" x="135.5" y="27.5352">EsComible</text><line style="stroke:#A80036;stroke-width:1.5;" x1="107.5" x2="197.5" y1="39" y2="39"/><line style="stroke:#A80036;stroke-width:1.5;" x1="107.5" x2="197.5" y1="47" y2="47"/><text fill="#000000" font-family="sans-serif" font-size="11" lengthAdjust="spacing" textLength="68" x="112.5" y="61.6348">void comer()</text><!--MD5=[1cb3dca014c9afc5465c20d03b3a6575]
class Fruta--><rect fill="#FEFECE" filter="url(#f1sqrlysgt7g2b)" height="48" id="Fruta" style="stroke:#A80036;stroke-width:1.5;" width="61" x="122" y="128"/><ellipse cx="137" cy="144" fill="#ADD1B2" rx="11" ry="11" style="stroke:#A80036;stroke-width:1.0;"/><path d="M139.4731,150.1431 Q138.8921,150.4419 138.2529,150.5913 Q137.6138,150.7407 136.9082,150.7407 Q134.4014,150.7407 133.0815,149.0889 Q131.7617,147.437 131.7617,144.3159 Q131.7617,141.1865 133.0815,139.5347 Q134.4014,137.8828 136.9082,137.8828 Q137.6138,137.8828 138.2612,138.0322 Q138.9087,138.1816 139.4731,138.4805 L139.4731,141.2031 Q138.8423,140.6221 138.2488,140.3523 Q137.6553,140.0825 137.0244,140.0825 Q135.6797,140.0825 134.9949,141.1492 Q134.3101,142.2158 134.3101,144.3159 Q134.3101,146.4077 134.9949,147.4744 Q135.6797,148.541 137.0244,148.541 Q137.6553,148.541 138.2488,148.2712 Q138.8423,148.0015 139.4731,147.4204 Z " fill="#000000"/><text fill="#000000" font-family="sans-serif" font-size="12" lengthAdjust="spacing" textLength="29" x="151" y="148.5352">Fruta</text><line style="stroke:#A80036;stroke-width:1.5;" x1="123" x2="182" y1="160" y2="160"/><line style="stroke:#A80036;stroke-width:1.5;" x1="123" x2="182" y1="168" y2="168"/><!--MD5=[bb464e4caa4f7f005857ca9509a61a47]
class Manzana--><rect fill="#FEFECE" filter="url(#f1sqrlysgt7g2b)" height="48" id="Manzana" style="stroke:#A80036;stroke-width:1.5;" width="84" x="57.5" y="236"/><ellipse cx="72.5" cy="252" fill="#ADD1B2" rx="11" ry="11" style="stroke:#A80036;stroke-width:1.0;"/><path d="M74.9731,258.1431 Q74.3921,258.4419 73.7529,258.5913 Q73.1138,258.7407 72.4082,258.7407 Q69.9014,258.7407 68.5815,257.0889 Q67.2617,255.437 67.2617,252.3159 Q67.2617,249.1865 68.5815,247.5347 Q69.9014,245.8828 72.4082,245.8828 Q73.1138,245.8828 73.7612,246.0322 Q74.4087,246.1816 74.9731,246.4805 L74.9731,249.2031 Q74.3423,248.6221 73.7488,248.3523 Q73.1553,248.0825 72.5244,248.0825 Q71.1797,248.0825 70.4949,249.1492 Q69.8101,250.2158 69.8101,252.3159 Q69.8101,254.4077 70.4949,255.4744 Q71.1797,256.541 72.5244,256.541 Q73.1553,256.541 73.7488,256.2712 Q74.3423,256.0015 74.9731,255.4204 Z " fill="#000000"/><text fill="#000000" font-family="sans-serif" font-size="12" lengthAdjust="spacing" textLength="52" x="86.5" y="256.5352">Manzana</text><line style="stroke:#A80036;stroke-width:1.5;" x1="58.5" x2="140.5" y1="268" y2="268"/><line style="stroke:#A80036;stroke-width:1.5;" x1="58.5" x2="140.5" y1="276" y2="276"/><!--MD5=[1508bf63183502ad5201ded5f8c5cf37]
class Pera--><rect fill="#FEFECE" filter="url(#f1sqrlysgt7g2b)" height="48" id="Pera" style="stroke:#A80036;stroke-width:1.5;" width="58" x="176.5" y="236"/><ellipse cx="191.5" cy="252" fill="#ADD1B2" rx="11" ry="11" style="stroke:#A80036;stroke-width:1.0;"/><path d="M193.9731,258.1431 Q193.3921,258.4419 192.7529,258.5913 Q192.1138,258.7407 191.4082,258.7407 Q188.9014,258.7407 187.5815,257.0889 Q186.2617,255.437 186.2617,252.3159 Q186.2617,249.1865 187.5815,247.5347 Q188.9014,245.8828 191.4082,245.8828 Q192.1138,245.8828 192.7612,246.0322 Q193.4087,246.1816 193.9731,246.4805 L193.9731,249.2031 Q193.3423,248.6221 192.7488,248.3523 Q192.1553,248.0825 191.5244,248.0825 Q190.1797,248.0825 189.4949,249.1492 Q188.8101,250.2158 188.8101,252.3159 Q188.8101,254.4077 189.4949,255.4744 Q190.1797,256.541 191.5244,256.541 Q192.1553,256.541 192.7488,256.2712 Q193.3423,256.0015 193.9731,255.4204 Z " fill="#000000"/><text fill="#000000" font-family="sans-serif" font-size="12" lengthAdjust="spacing" textLength="26" x="205.5" y="256.5352">Pera</text><line style="stroke:#A80036;stroke-width:1.5;" x1="177.5" x2="233.5" y1="268" y2="268"/><line style="stroke:#A80036;stroke-width:1.5;" x1="177.5" x2="233.5" y1="276" y2="276"/><!--MD5=[6713ca452e1b73d9b4e011ef9f2420d3]
class Golden--><rect fill="#FEFECE" filter="url(#f1sqrlysgt7g2b)" height="48" id="Golden" style="stroke:#A80036;stroke-width:1.5;" width="73" x="7" y="344"/><ellipse cx="22" cy="360" fill="#ADD1B2" rx="11" ry="11" style="stroke:#A80036;stroke-width:1.0;"/><path d="M24.4731,366.1431 Q23.8921,366.4419 23.2529,366.5913 Q22.6138,366.7407 21.9082,366.7407 Q19.4014,366.7407 18.0815,365.0889 Q16.7617,363.437 16.7617,360.3159 Q16.7617,357.1865 18.0815,355.5347 Q19.4014,353.8828 21.9082,353.8828 Q22.6138,353.8828 23.2612,354.0322 Q23.9087,354.1816 24.4731,354.4805 L24.4731,357.2031 Q23.8423,356.6221 23.2488,356.3523 Q22.6553,356.0825 22.0244,356.0825 Q20.6797,356.0825 19.9949,357.1492 Q19.3101,358.2158 19.3101,360.3159 Q19.3101,362.4077 19.9949,363.4744 Q20.6797,364.541 22.0244,364.541 Q22.6553,364.541 23.2488,364.2712 Q23.8423,364.0015 24.4731,363.4204 Z " fill="#000000"/><text fill="#000000" font-family="sans-serif" font-size="12" lengthAdjust="spacing" textLength="41" x="36" y="364.5352">Golden</text><line style="stroke:#A80036;stroke-width:1.5;" x1="8" x2="79" y1="376" y2="376"/><line style="stroke:#A80036;stroke-width:1.5;" x1="8" x2="79" y1="384" y2="384"/><!--MD5=[b382c621d7e414247e2ba32cfea47feb]
class PinkLady--><rect fill="#FEFECE" filter="url(#f1sqrlysgt7g2b)" height="48" id="PinkLady" style="stroke:#A80036;stroke-width:1.5;" width="83" x="115" y="344"/><ellipse cx="130" cy="360" fill="#ADD1B2" rx="11" ry="11" style="stroke:#A80036;stroke-width:1.0;"/><path d="M132.4731,366.1431 Q131.8921,366.4419 131.2529,366.5913 Q130.6138,366.7407 129.9082,366.7407 Q127.4014,366.7407 126.0815,365.0889 Q124.7617,363.437 124.7617,360.3159 Q124.7617,357.1865 126.0815,355.5347 Q127.4014,353.8828 129.9082,353.8828 Q130.6138,353.8828 131.2612,354.0322 Q131.9087,354.1816 132.4731,354.4805 L132.4731,357.2031 Q131.8423,356.6221 131.2488,356.3523 Q130.6553,356.0825 130.0244,356.0825 Q128.6797,356.0825 127.9949,357.1492 Q127.3101,358.2158 127.3101,360.3159 Q127.3101,362.4077 127.9949,363.4744 Q128.6797,364.541 130.0244,364.541 Q130.6553,364.541 131.2488,364.2712 Q131.8423,364.0015 132.4731,363.4204 Z " fill="#000000"/><text fill="#000000" font-family="sans-serif" font-size="12" lengthAdjust="spacing" textLength="51" x="144" y="364.5352">PinkLady</text><line style="stroke:#A80036;stroke-width:1.5;" x1="116" x2="197" y1="376" y2="376"/><line style="stroke:#A80036;stroke-width:1.5;" x1="116" x2="197" y1="384" y2="384"/><!--MD5=[bcd85ef2a3bef1409025fd08fdc954d2]
reverse link Fruta to Manzana--><path codeLine="5" d="M131.95,194.09 C124.9,208.2 117.26,223.48 111.16,235.68 " fill="none" id="Fruta-backto-Manzana" style="stroke:#A80036;stroke-width:1.0;"/><polygon fill="none" points="125.79,190.76,141,176,138.32,197.02,125.79,190.76" style="stroke:#A80036;stroke-width:1.0;"/><!--MD5=[b9224d04003462a4d489fd8f39a8b3f8]
reverse link Fruta to Pera--><path codeLine="6" d="M173.05,194.09 C180.1,208.2 187.74,223.48 193.84,235.68 " fill="none" id="Fruta-backto-Pera" style="stroke:#A80036;stroke-width:1.0;"/><polygon fill="none" points="166.68,197.02,164,176,179.21,190.76,166.68,197.02" style="stroke:#A80036;stroke-width:1.0;"/><!--MD5=[1a9bf5fdb8dc62dbc961c5b8a4e48908]
reverse link EsComible to Fruta--><path codeLine="8" d="M152.5,88.11 C152.5,101.88 152.5,116.18 152.5,127.67 " fill="none" id="EsComible-backto-Fruta" style="stroke:#A80036;stroke-width:1.0;stroke-dasharray:7.0,7.0;"/><polygon fill="none" points="145.5,88.06,152.5,68.06,159.5,88.06,145.5,88.06" style="stroke:#A80036;stroke-width:1.0;"/><!--MD5=[a39614a96946516b7c90e96ee034d8e4]
reverse link Manzana to Golden--><path codeLine="11" d="M77.79,302.09 C70.34,316.2 62.26,331.48 55.82,343.68 " fill="none" id="Manzana-backto-Golden" style="stroke:#A80036;stroke-width:1.0;"/><polygon fill="none" points="71.82,298.41,87.35,284,84.2,304.95,71.82,298.41" style="stroke:#A80036;stroke-width:1.0;"/><!--MD5=[18e3f184e009a8c76f8f9b2381bef4ee]
reverse link Manzana to PinkLady--><path codeLine="12" d="M121.6,302.09 C129.18,316.2 137.4,331.48 143.96,343.68 " fill="none" id="Manzana-backto-PinkLady" style="stroke:#A80036;stroke-width:1.0;"/><polygon fill="none" points="115.18,304.93,111.87,284,127.51,298.3,115.18,304.93" style="stroke:#A80036;stroke-width:1.0;"/><!--MD5=[a9ddd991e8b22b6a72bab55bac224604]
@startuml Herencia
class EsComible {
    void comer()
}

Fruta <|- - Manzana
Fruta <|- - Pera

EsComible <|.. Fruta


Manzana <|- - Golden
Manzana <|- - PinkLady
@enduml

PlantUML version 1.2021.8(Sat Jun 26 10:20:59 CEST 2021)
(GPL source distribution)
Java Runtime: OpenJDK Runtime Environment
JVM: OpenJDK 64-Bit Server VM
Default Encoding: UTF-8
Language: es
Country: ES
--></g></svg>