<?xml version="1.0" encoding="UTF-8" standalone="no"?><svg xmlns="http://www.w3.org/2000/svg" xmlns:xlink="http://www.w3.org/1999/xlink" contentScriptType="application/ecmascript" contentStyleType="text/css" height="92px" preserveAspectRatio="none" style="width:100px;height:92px;" version="1.1" viewBox="0 0 100 92" width="100px" zoomAndPan="magnify"><defs><filter height="300%" id="f1p3n8i4dydgkl" width="300%" x="-1" y="-1"><feGaussianBlur result="blurOut" stdDeviation="2.0"/><feColorMatrix in="blurOut" result="blurOut2" type="matrix" values="0 0 0 0 0 0 0 0 0 0 0 0 0 0 0 0 0 0 .4 0"/><feOffset dx="4.0" dy="4.0" in="blurOut2" result="blurOut3"/><feBlend in="SourceGraphic" in2="blurOut3" mode="normal"/></filter></defs><g><!--class Fruta--><rect fill="#FEFECE" filter="url(#f1p3n8i4dydgkl)" height="73.792" id="Fruta" style="stroke: #A80036; stroke-width: 1.5;" width="83" x="6" y="8"/><ellipse cx="29.1" cy="24" fill="#ADD1B2" rx="11" ry="11" style="stroke: #A80036; stroke-width: 1.0;"/><path d="M32.0688,29.6406 Q31.4906,29.9375 30.85,30.0781 Q30.2094,30.2344 29.5063,30.2344 Q27.0063,30.2344 25.6781,28.5938 Q24.3656,26.9375 24.3656,23.8125 Q24.3656,20.6875 25.6781,19.0313 Q27.0063,17.375 29.5063,17.375 Q30.2094,17.375 30.85,17.5313 Q31.5063,17.6875 32.0688,17.9844 L32.0688,20.7031 Q31.4438,20.125 30.85,19.8594 Q30.2563,19.5781 29.6313,19.5781 Q28.2875,19.5781 27.6,20.6563 Q26.9125,21.7188 26.9125,23.8125 Q26.9125,25.9063 27.6,26.9844 Q28.2875,28.0469 29.6313,28.0469 Q30.2563,28.0469 30.85,27.7813 Q31.4438,27.5 32.0688,26.9219 L32.0688,29.6406 Z "/><text fill="#000000" font-family="sans-serif" font-size="12" lengthAdjust="spacingAndGlyphs" textLength="33" x="44.9" y="28.1807">Fruta</text><line style="stroke: #A80036; stroke-width: 1.5;" x1="7" x2="88" y1="40" y2="40"/><text fill="#000000" font-family="sans-serif" font-size="11" lengthAdjust="spacingAndGlyphs" textLength="61" x="12" y="54.2803">int tamaño</text><line style="stroke: #A80036; stroke-width: 1.5;" x1="7" x2="88" y1="60.896" y2="60.896"/><text fill="#000000" font-family="sans-serif" font-size="11" lengthAdjust="spacingAndGlyphs" textLength="71" x="12" y="75.1763">void comer()</text><!--
@startuml
class Fruta {
    int tamaño
    void comer()
}
@enduml

PlantUML version 1.2019.01(Sat Feb 09 16:32:04 CET 2019)
(LGPL source distribution)
Java Runtime: OpenJDK Runtime Environment
JVM: OpenJDK 64-Bit Server VM
Java Version: 1.8.0_265-b01
Operating System: Linux
OS Version: 5.8.12-200.fc32.x86_64
Default Encoding: UTF-8
Language: es
Country: ES
--></g></svg>