<?xml version="1.0" encoding="UTF-8" standalone="no"?><svg xmlns="http://www.w3.org/2000/svg" xmlns:xlink="http://www.w3.org/1999/xlink" contentScriptType="application/ecmascript" contentStyleType="text/css" height="94px" preserveAspectRatio="none" style="width:101px;height:94px;background:#FFFFFF;" version="1.1" viewBox="0 0 101 94" width="101px" zoomAndPan="magnify"><defs><filter height="300%" id="f1p3n8i4dydgkl" width="300%" x="-1" y="-1"><feGaussianBlur result="blurOut" stdDeviation="2.0"/><feColorMatrix in="blurOut" result="blurOut2" type="matrix" values="0 0 0 0 0 0 0 0 0 0 0 0 0 0 0 0 0 0 .4 0"/><feOffset dx="4.0" dy="4.0" in="blurOut2" result="blurOut3"/><feBlend in="SourceGraphic" in2="blurOut3" mode="normal"/></filter></defs><g><!--MD5=[1cb3dca014c9afc5465c20d03b3a6575]
class Fruta--><rect codeLine="1" fill="#FEFECE" filter="url(#f1p3n8i4dydgkl)" height="73.9102" id="Fruta" style="stroke:#A80036;stroke-width:1.5;" width="80" x="7" y="7"/><ellipse cx="30.55" cy="23" fill="#ADD1B2" rx="11" ry="11" style="stroke:#A80036;stroke-width:1.0;"/><path d="M33.0231,29.1431 Q32.4421,29.4419 31.8029,29.5913 Q31.1638,29.7407 30.4582,29.7407 Q27.9514,29.7407 26.6315,28.0889 Q25.3117,26.437 25.3117,23.3159 Q25.3117,20.1865 26.6315,18.5347 Q27.9514,16.8828 30.4582,16.8828 Q31.1638,16.8828 31.8112,17.0322 Q32.4587,17.1816 33.0231,17.4805 L33.0231,20.2031 Q32.3923,19.6221 31.7988,19.3523 Q31.2053,19.0825 30.5744,19.0825 Q29.2297,19.0825 28.5449,20.1492 Q27.8601,21.2158 27.8601,23.3159 Q27.8601,25.4077 28.5449,26.4744 Q29.2297,27.541 30.5744,27.541 Q31.2053,27.541 31.7988,27.2712 Q32.3923,27.0015 33.0231,26.4204 Z " fill="#000000"/><text fill="#000000" font-family="sans-serif" font-size="12" lengthAdjust="spacing" textLength="29" x="46.45" y="27.5352">Fruta</text><line style="stroke:#A80036;stroke-width:1.5;" x1="8" x2="86" y1="39" y2="39"/><text fill="#000000" font-family="sans-serif" font-size="11" lengthAdjust="spacing" textLength="57" x="13" y="53.6348">int tamaño</text><line style="stroke:#A80036;stroke-width:1.5;" x1="8" x2="86" y1="59.9551" y2="59.9551"/><text fill="#000000" font-family="sans-serif" font-size="11" lengthAdjust="spacing" textLength="68" x="13" y="74.5898">void comer()</text><!--MD5=[4cdaa9ad73c0b2cef7c99a55b37c6faa]
@startuml
class Fruta {
    int tamaño
    void comer()
}
@enduml

PlantUML version 1.2021.8(Sat Jun 26 10:20:59 CEST 2021)
(GPL source distribution)
Java Runtime: OpenJDK Runtime Environment
JVM: OpenJDK 64-Bit Server VM
Default Encoding: UTF-8
Language: es
Country: ES
--></g></svg>