<?xml version="1.0" encoding="UTF-8" standalone="no"?><svg xmlns="http://www.w3.org/2000/svg" xmlns:xlink="http://www.w3.org/1999/xlink" contentStyleType="text/css" height="104px" preserveAspectRatio="none" style="width:112px;height:104px;background:#FFFFFF;" version="1.1" viewBox="0 0 112 104" width="112px" zoomAndPan="magnify"><defs/><g><!--class Fruta--><g id="elem_Fruta"><rect codeLine="1" fill="#F1F1F1" height="83.2188" id="Fruta" rx="2.5" ry="2.5" style="stroke:#181818;stroke-width:0.5;" width="91" x="7" y="7"/><ellipse cx="33.25" cy="23" fill="#ADD1B2" rx="11" ry="11" style="stroke:#181818;stroke-width:1.0;"/><path d="M36.0156,18.875 Q36.1719,18.6563 36.3594,18.5469 Q36.5469,18.4375 36.7656,18.4375 Q37.1406,18.4375 37.375,18.7031 Q37.6094,18.9531 37.6094,19.5625 L37.6094,21.0156 Q37.6094,21.625 37.375,21.8906 Q37.1406,22.1563 36.7656,22.1563 Q36.4219,22.1563 36.2188,21.9531 Q36.0156,21.7656 35.9063,21.25 Q35.8594,20.8906 35.6719,20.7031 Q35.3438,20.3281 34.7344,20.1094 Q34.125,19.8906 33.5,19.8906 Q32.7344,19.8906 32.0938,20.2188 Q31.4688,20.5469 30.9688,21.2969 Q30.4844,22.0469 30.4844,23.0781 L30.4844,24.1719 Q30.4844,25.4063 31.375,26.2344 Q32.2656,27.0469 33.8594,27.0469 Q34.7969,27.0469 35.4531,26.7969 Q35.8438,26.6406 36.2656,26.2031 Q36.5313,25.9375 36.6719,25.8594 Q36.8281,25.7813 37.0313,25.7813 Q37.3594,25.7813 37.6094,26.0469 Q37.875,26.2969 37.875,26.6406 Q37.875,26.9844 37.5313,27.3906 Q37.0313,27.9688 36.2344,28.2969 Q35.1563,28.75 33.8594,28.75 Q32.3438,28.75 31.1406,28.125 Q30.1563,27.625 29.4688,26.5625 Q28.7813,25.4844 28.7813,24.2031 L28.7813,23.0469 Q28.7813,21.7188 29.3906,20.5781 Q30.0156,19.4219 31.1094,18.8125 Q32.2031,18.1875 33.4375,18.1875 Q34.1719,18.1875 34.8125,18.3594 Q35.4688,18.5156 36.0156,18.875 Z " fill="#000000"/><text fill="#000000" font-family="sans-serif" font-size="14" lengthAdjust="spacing" textLength="34" x="49.75" y="28.7285">Fruta</text><line style="stroke:#181818;stroke-width:0.5;" x1="8" x2="97" y1="39" y2="39"/><text fill="#000000" font-family="sans-serif" font-size="14" lengthAdjust="spacing" textLength="66" x="13" y="57.5332">int tamaño</text><line style="stroke:#181818;stroke-width:0.5;" x1="8" x2="97" y1="64.6094" y2="64.6094"/><text fill="#000000" font-family="sans-serif" font-size="14" lengthAdjust="spacing" textLength="79" x="13" y="83.1426">void comer()</text></g><!--SRC=[Iyv9B2vMS2igBKbKgEPI08BCl1A5aiJSnCCRyy7yilpC58Na_DpK8WrDhbe0]--></g></svg>