<?xml version="1.0" encoding="UTF-8" standalone="no"?><svg xmlns="http://www.w3.org/2000/svg" xmlns:xlink="http://www.w3.org/1999/xlink" contentScriptType="application/ecmascript" contentStyleType="text/css" height="279px" preserveAspectRatio="none" style="width:131px;height:279px;" version="1.1" viewBox="0 0 131 279" width="131px" zoomAndPan="magnify"><defs><filter height="300%" id="fu7ngzw1cbq9r" width="300%" x="-1" y="-1"><feGaussianBlur result="blurOut" stdDeviation="2.0"/><feColorMatrix in="blurOut" result="blurOut2" type="matrix" values="0 0 0 0 0 0 0 0 0 0 0 0 0 0 0 0 0 0 .4 0"/><feOffset dx="4.0" dy="4.0" in="blurOut2" result="blurOut3"/><feBlend in="SourceGraphic" in2="blurOut3" mode="normal"/></filter></defs><g><!--class Object--><rect fill="#FEFECE" filter="url(#fu7ngzw1cbq9r)" height="32" id="Object" style="stroke: #A80036; stroke-width: 1.5;" width="72" x="27" y="8"/><ellipse cx="42" cy="24" fill="#ADD1B2" rx="11" ry="11" style="stroke: #A80036; stroke-width: 1.0;"/><path d="M44.9688,29.6406 Q44.3906,29.9375 43.75,30.0781 Q43.1094,30.2344 42.4063,30.2344 Q39.9063,30.2344 38.5781,28.5938 Q37.2656,26.9375 37.2656,23.8125 Q37.2656,20.6875 38.5781,19.0313 Q39.9063,17.375 42.4063,17.375 Q43.1094,17.375 43.75,17.5313 Q44.4063,17.6875 44.9688,17.9844 L44.9688,20.7031 Q44.3438,20.125 43.75,19.8594 Q43.1563,19.5781 42.5313,19.5781 Q41.1875,19.5781 40.5,20.6563 Q39.8125,21.7188 39.8125,23.8125 Q39.8125,25.9063 40.5,26.9844 Q41.1875,28.0469 42.5313,28.0469 Q43.1563,28.0469 43.75,27.7813 Q44.3438,27.5 44.9688,26.9219 L44.9688,29.6406 Z "/><text fill="#000000" font-family="sans-serif" font-size="12" lengthAdjust="spacingAndGlyphs" textLength="40" x="56" y="28.1807">Object</text><!--class Sword--><rect fill="#FEFECE" filter="url(#fu7ngzw1cbq9r)" height="32" id="Sword" style="stroke: #A80036; stroke-width: 1.5;" width="70" x="28" y="101"/><ellipse cx="43" cy="117" fill="#ADD1B2" rx="11" ry="11" style="stroke: #A80036; stroke-width: 1.0;"/><path d="M45.9688,122.6406 Q45.3906,122.9375 44.75,123.0781 Q44.1094,123.2344 43.4063,123.2344 Q40.9063,123.2344 39.5781,121.5938 Q38.2656,119.9375 38.2656,116.8125 Q38.2656,113.6875 39.5781,112.0313 Q40.9063,110.375 43.4063,110.375 Q44.1094,110.375 44.75,110.5313 Q45.4063,110.6875 45.9688,110.9844 L45.9688,113.7031 Q45.3438,113.125 44.75,112.8594 Q44.1563,112.5781 43.5313,112.5781 Q42.1875,112.5781 41.5,113.6563 Q40.8125,114.7188 40.8125,116.8125 Q40.8125,118.9063 41.5,119.9844 Q42.1875,121.0469 43.5313,121.0469 Q44.1563,121.0469 44.75,120.7813 Q45.3438,120.5 45.9688,119.9219 L45.9688,122.6406 Z "/><text fill="#000000" font-family="sans-serif" font-size="12" lengthAdjust="spacingAndGlyphs" textLength="38" x="57" y="121.1807">Sword</text><!--class Takeable--><rect fill="#FEFECE" filter="url(#fu7ngzw1cbq9r)" height="58.9331" id="Takeable" style="stroke: #A80036; stroke-width: 1.5;" width="114" x="6" y="210"/><ellipse cx="32.25" cy="229.0186" fill="#ADD1B2" rx="11" ry="11" style="stroke: #A80036; stroke-width: 1.0;"/><path d="M35.2188,234.6592 Q34.6406,234.9561 34,235.0967 Q33.3594,235.2529 32.6563,235.2529 Q30.1563,235.2529 28.8281,233.6123 Q27.5156,231.9561 27.5156,228.8311 Q27.5156,225.7061 28.8281,224.0498 Q30.1563,222.3936 32.6563,222.3936 Q33.3594,222.3936 34,222.5498 Q34.6563,222.7061 35.2188,223.0029 L35.2188,225.7217 Q34.5938,225.1436 34,224.8779 Q33.4063,224.5967 32.7813,224.5967 Q31.4375,224.5967 30.75,225.6748 Q30.0625,226.7373 30.0625,228.8311 Q30.0625,230.9248 30.75,232.0029 Q31.4375,233.0654 32.7813,233.0654 Q33.4063,233.0654 34,232.7998 Q34.5938,232.5186 35.2188,231.9404 L35.2188,234.6592 Z "/><text fill="#000000" font-family="sans-serif" font-size="12" font-style="italic" lengthAdjust="spacingAndGlyphs" textLength="46" x="54.25" y="226.1387">«mixin»</text><text fill="#000000" font-family="sans-serif" font-size="12" lengthAdjust="spacingAndGlyphs" textLength="57" x="48.75" y="240.1836">Takeable</text><line style="stroke: #A80036; stroke-width: 1.5;" x1="7" x2="119" y1="248.0371" y2="248.0371"/><ellipse cx="17" cy="259.9851" fill="#84BE84" rx="3" ry="3" style="stroke: #038048; stroke-width: 1.0;"/><text fill="#000000" font-family="sans-serif" font-size="11" lengthAdjust="spacingAndGlyphs" textLength="88" x="26" y="262.3174">putInInventory()</text><!--link Object to Sword--><path d="M63,60.24 C63,74.36 63,89.88 63,100.95 " fill="none" id="Object-Sword" style="stroke: #A80036; stroke-width: 1.0;"/><polygon fill="none" points="56,60.03,63,40.03,70,60.03,56,60.03" style="stroke: #A80036; stroke-width: 1.0;"/><!--link Sword to Takeable--><path d="M63,133.26 C63,152.39 63,185.56 63,209.56 " fill="none" id="Sword-Takeable" style="stroke: #A80036; stroke-width: 1.0;"/><text fill="#000000" font-family="sans-serif" font-size="13" lengthAdjust="spacingAndGlyphs" textLength="41" x="64" y="176.1494">assign</text><!--
@startuml

Object <|- - Sword
class Takeable <<mixin>> {
    +putInInventory()
}
Sword - - Takeable : assign
hide empty members

@enduml

PlantUML version 1.2019.01(Sat Feb 09 16:32:04 CET 2019)
(LGPL source distribution)
Java Runtime: OpenJDK Runtime Environment
JVM: OpenJDK 64-Bit Server VM
Java Version: 1.8.0_265-b01
Operating System: Linux
OS Version: 5.8.12-200.fc32.x86_64
Default Encoding: UTF-8
Language: es
Country: ES
--></g></svg>