<?xml version="1.0" encoding="UTF-8" standalone="no"?><svg xmlns="http://www.w3.org/2000/svg" xmlns:xlink="http://www.w3.org/1999/xlink" contentStyleType="text/css" height="285px" preserveAspectRatio="none" style="width:139px;height:285px;background:#FFFFFF;" version="1.1" viewBox="0 0 139 285" width="139px" zoomAndPan="magnify"><defs/><g><!--MD5=[aa7f586532e18719e6cefa70fc650583]
class Object--><g id="elem_Object"><rect fill="#F1F1F1" height="32" id="Object" rx="2.5" ry="2.5" style="stroke:#181818;stroke-width:0.5;" width="73" x="33" y="7"/><ellipse cx="48" cy="23" fill="#ADD1B2" rx="11" ry="11" style="stroke:#181818;stroke-width:1.0;"/><path d="M50.7656,18.875 Q50.9219,18.6563 51.1094,18.5469 Q51.2969,18.4375 51.5156,18.4375 Q51.8906,18.4375 52.125,18.7031 Q52.3594,18.9531 52.3594,19.5625 L52.3594,21.0156 Q52.3594,21.625 52.125,21.8906 Q51.8906,22.1563 51.5156,22.1563 Q51.1719,22.1563 50.9688,21.9531 Q50.7656,21.7656 50.6563,21.25 Q50.6094,20.8906 50.4219,20.7031 Q50.0938,20.3281 49.4844,20.1094 Q48.875,19.8906 48.25,19.8906 Q47.4844,19.8906 46.8438,20.2188 Q46.2188,20.5469 45.7188,21.2969 Q45.2344,22.0469 45.2344,23.0781 L45.2344,24.1719 Q45.2344,25.4063 46.125,26.2344 Q47.0156,27.0469 48.6094,27.0469 Q49.5469,27.0469 50.2031,26.7969 Q50.5938,26.6406 51.0156,26.2031 Q51.2813,25.9375 51.4219,25.8594 Q51.5781,25.7813 51.7813,25.7813 Q52.1094,25.7813 52.3594,26.0469 Q52.625,26.2969 52.625,26.6406 Q52.625,26.9844 52.2813,27.3906 Q51.7813,27.9688 50.9844,28.2969 Q49.9063,28.75 48.6094,28.75 Q47.0938,28.75 45.8906,28.125 Q44.9063,27.625 44.2188,26.5625 Q43.5313,25.4844 43.5313,24.2031 L43.5313,23.0469 Q43.5313,21.7188 44.1406,20.5781 Q44.7656,19.4219 45.8594,18.8125 Q46.9531,18.1875 48.1875,18.1875 Q48.9219,18.1875 49.5625,18.3594 Q50.2188,18.5156 50.7656,18.875 Z " fill="#000000"/><text fill="#000000" font-family="sans-serif" font-size="14" lengthAdjust="spacing" textLength="41" x="62" y="28.7285">Object</text></g><!--MD5=[53a1db06a8ddb586c04aec032f1cb7b6]
class Sword--><g id="elem_Sword"><rect fill="#F1F1F1" height="32" id="Sword" rx="2.5" ry="2.5" style="stroke:#181818;stroke-width:0.5;" width="71" x="34" y="100"/><ellipse cx="49" cy="116" fill="#ADD1B2" rx="11" ry="11" style="stroke:#181818;stroke-width:1.0;"/><path d="M51.7656,111.875 Q51.9219,111.6563 52.1094,111.5469 Q52.2969,111.4375 52.5156,111.4375 Q52.8906,111.4375 53.125,111.7031 Q53.3594,111.9531 53.3594,112.5625 L53.3594,114.0156 Q53.3594,114.625 53.125,114.8906 Q52.8906,115.1563 52.5156,115.1563 Q52.1719,115.1563 51.9688,114.9531 Q51.7656,114.7656 51.6563,114.25 Q51.6094,113.8906 51.4219,113.7031 Q51.0938,113.3281 50.4844,113.1094 Q49.875,112.8906 49.25,112.8906 Q48.4844,112.8906 47.8438,113.2188 Q47.2188,113.5469 46.7188,114.2969 Q46.2344,115.0469 46.2344,116.0781 L46.2344,117.1719 Q46.2344,118.4063 47.125,119.2344 Q48.0156,120.0469 49.6094,120.0469 Q50.5469,120.0469 51.2031,119.7969 Q51.5938,119.6406 52.0156,119.2031 Q52.2813,118.9375 52.4219,118.8594 Q52.5781,118.7813 52.7813,118.7813 Q53.1094,118.7813 53.3594,119.0469 Q53.625,119.2969 53.625,119.6406 Q53.625,119.9844 53.2813,120.3906 Q52.7813,120.9688 51.9844,121.2969 Q50.9063,121.75 49.6094,121.75 Q48.0938,121.75 46.8906,121.125 Q45.9063,120.625 45.2188,119.5625 Q44.5313,118.4844 44.5313,117.2031 L44.5313,116.0469 Q44.5313,114.7188 45.1406,113.5781 Q45.7656,112.4219 46.8594,111.8125 Q47.9531,111.1875 49.1875,111.1875 Q49.9219,111.1875 50.5625,111.3594 Q51.2188,111.5156 51.7656,111.875 Z " fill="#000000"/><text fill="#000000" font-family="sans-serif" font-size="14" lengthAdjust="spacing" textLength="39" x="63" y="121.7285">Sword</text></g><!--MD5=[f4febecabb2afb1136f859ff08728f31]
class Takeable--><g id="elem_Takeable"><rect codeLine="3" fill="#F1F1F1" height="68.3125" id="Takeable" rx="2.5" ry="2.5" style="stroke:#181818;stroke-width:0.5;" width="125" x="7" y="210"/><ellipse cx="37.3" cy="231.3516" fill="#ADD1B2" rx="11" ry="11" style="stroke:#181818;stroke-width:1.0;"/><path d="M40.0656,227.2266 Q40.2219,227.0078 40.4094,226.8984 Q40.5969,226.7891 40.8156,226.7891 Q41.1906,226.7891 41.425,227.0547 Q41.6594,227.3047 41.6594,227.9141 L41.6594,229.3672 Q41.6594,229.9766 41.425,230.2422 Q41.1906,230.5078 40.8156,230.5078 Q40.4719,230.5078 40.2688,230.3047 Q40.0656,230.1172 39.9563,229.6016 Q39.9094,229.2422 39.7219,229.0547 Q39.3938,228.6797 38.7844,228.4609 Q38.175,228.2422 37.55,228.2422 Q36.7844,228.2422 36.1438,228.5703 Q35.5188,228.8984 35.0188,229.6484 Q34.5344,230.3984 34.5344,231.4297 L34.5344,232.5234 Q34.5344,233.7578 35.425,234.5859 Q36.3156,235.3984 37.9094,235.3984 Q38.8469,235.3984 39.5031,235.1484 Q39.8938,234.9922 40.3156,234.5547 Q40.5813,234.2891 40.7219,234.2109 Q40.8781,234.1328 41.0813,234.1328 Q41.4094,234.1328 41.6594,234.3984 Q41.925,234.6484 41.925,234.9922 Q41.925,235.3359 41.5813,235.7422 Q41.0813,236.3203 40.2844,236.6484 Q39.2063,237.1016 37.9094,237.1016 Q36.3938,237.1016 35.1906,236.4766 Q34.2063,235.9766 33.5188,234.9141 Q32.8313,233.8359 32.8313,232.5547 L32.8313,231.3984 Q32.8313,230.0703 33.4406,228.9297 Q34.0656,227.7734 35.1594,227.1641 Q36.2531,226.5391 37.4875,226.5391 Q38.2219,226.5391 38.8625,226.7109 Q39.5188,226.8672 40.0656,227.2266 Z " fill="#000000"/><text fill="#000000" font-family="sans-serif" font-size="12" font-style="italic" lengthAdjust="spacing" textLength="44" x="62.2" y="227.457">«mixin»</text><text fill="#000000" font-family="sans-serif" font-size="14" lengthAdjust="spacing" textLength="59" x="54.7" y="244.627">Takeable</text><line style="stroke:#181818;stroke-width:0.5;" x1="8" x2="131" y1="252.7031" y2="252.7031"/><ellipse cx="18" cy="263.7031" fill="#84BE84" rx="3" ry="3" style="stroke:#038048;stroke-width:1.0;"/><text fill="#000000" font-family="sans-serif" font-size="14" lengthAdjust="spacing" textLength="99" x="27" y="271.2363">putInInventory()</text></g><!--MD5=[d595eb0bf37c2aa97fcf96a78955ac35]
reverse link Object to Sword--><g id="link_Object_Sword"><path codeLine="2" d="M69.5,59.24 C69.5,73.36 69.5,88.88 69.5,99.95 " fill="none" id="Object-backto-Sword" style="stroke:#181818;stroke-width:1.0;"/><polygon fill="none" points="62.5,59.03,69.5,39.03,76.5,59.03,62.5,59.03" style="stroke:#181818;stroke-width:1.0;"/></g><!--MD5=[4366b7c502c393479bed7f11328783b2]
link Sword to Takeable--><g id="link_Sword_Takeable"><path codeLine="6" d="M69.5,132.45 C69.5,151.64 69.5,184.9 69.5,209.94 " fill="none" id="Sword-Takeable" style="stroke:#181818;stroke-width:1.0;"/><text fill="#000000" font-family="sans-serif" font-size="13" lengthAdjust="spacing" textLength="38" x="70.5" y="176.4951">assign</text></g><!--MD5=[2fc9bd881f2a8ea804855e903cc5f069]
@startuml

Object <|- - Sword
class Takeable <<mixin>> {
    +putInInventory()
}
Sword - - Takeable : assign
hide empty members

@enduml

PlantUML version 1.2022.5(Sat Apr 30 12:55:52 CEST 2022)
(GPL source distribution)
Java Runtime: OpenJDK Runtime Environment
JVM: OpenJDK 64-Bit Server VM
Default Encoding: UTF-8
Language: es
Country: ES
--></g></svg>