<?xml version="1.0" encoding="UTF-8" standalone="no"?><svg xmlns="http://www.w3.org/2000/svg" xmlns:xlink="http://www.w3.org/1999/xlink" contentScriptType="application/ecmascript" contentStyleType="text/css" height="282px" preserveAspectRatio="none" style="width:134px;height:282px;background:#FFFFFF;" version="1.1" viewBox="0 0 134 282" width="134px" zoomAndPan="magnify"><defs><filter height="300%" id="fu7ngzw1cbq9r" width="300%" x="-1" y="-1"><feGaussianBlur result="blurOut" stdDeviation="2.0"/><feColorMatrix in="blurOut" result="blurOut2" type="matrix" values="0 0 0 0 0 0 0 0 0 0 0 0 0 0 0 0 0 0 .4 0"/><feOffset dx="4.0" dy="4.0" in="blurOut2" result="blurOut3"/><feBlend in="SourceGraphic" in2="blurOut3" mode="normal"/></filter></defs><g><!--MD5=[aa7f586532e18719e6cefa70fc650583]
class Object--><rect fill="#FEFECE" filter="url(#fu7ngzw1cbq9r)" height="32" id="Object" style="stroke:#A80036;stroke-width:1.5;" width="70" x="28.5" y="7"/><ellipse cx="43.5" cy="23" fill="#ADD1B2" rx="11" ry="11" style="stroke:#A80036;stroke-width:1.0;"/><path d="M45.9731,29.1431 Q45.3921,29.4419 44.7529,29.5913 Q44.1138,29.7407 43.4082,29.7407 Q40.9014,29.7407 39.5815,28.0889 Q38.2617,26.437 38.2617,23.3159 Q38.2617,20.1865 39.5815,18.5347 Q40.9014,16.8828 43.4082,16.8828 Q44.1138,16.8828 44.7612,17.0322 Q45.4087,17.1816 45.9731,17.4805 L45.9731,20.2031 Q45.3423,19.6221 44.7488,19.3523 Q44.1553,19.0825 43.5244,19.0825 Q42.1797,19.0825 41.4949,20.1492 Q40.8101,21.2158 40.8101,23.3159 Q40.8101,25.4077 41.4949,26.4744 Q42.1797,27.541 43.5244,27.541 Q44.1553,27.541 44.7488,27.2712 Q45.3423,27.0015 45.9731,26.4204 Z " fill="#000000"/><text fill="#000000" font-family="sans-serif" font-size="12" lengthAdjust="spacing" textLength="38" x="57.5" y="27.5352">Object</text><!--MD5=[53a1db06a8ddb586c04aec032f1cb7b6]
class Sword--><rect fill="#FEFECE" filter="url(#fu7ngzw1cbq9r)" height="32" id="Sword" style="stroke:#A80036;stroke-width:1.5;" width="67" x="30" y="100"/><ellipse cx="45" cy="116" fill="#ADD1B2" rx="11" ry="11" style="stroke:#A80036;stroke-width:1.0;"/><path d="M47.4731,122.1431 Q46.8921,122.4419 46.2529,122.5913 Q45.6138,122.7407 44.9082,122.7407 Q42.4014,122.7407 41.0815,121.0889 Q39.7617,119.437 39.7617,116.3159 Q39.7617,113.1865 41.0815,111.5347 Q42.4014,109.8828 44.9082,109.8828 Q45.6138,109.8828 46.2612,110.0322 Q46.9087,110.1816 47.4731,110.4805 L47.4731,113.2031 Q46.8423,112.6221 46.2488,112.3523 Q45.6553,112.0825 45.0244,112.0825 Q43.6797,112.0825 42.9949,113.1492 Q42.3101,114.2158 42.3101,116.3159 Q42.3101,118.4077 42.9949,119.4744 Q43.6797,120.541 45.0244,120.541 Q45.6553,120.541 46.2488,120.2712 Q46.8423,120.0015 47.4731,119.4204 Z " fill="#000000"/><text fill="#000000" font-family="sans-serif" font-size="12" lengthAdjust="spacing" textLength="35" x="59" y="120.5352">Sword</text><!--MD5=[f4febecabb2afb1136f859ff08728f31]
class Takeable--><rect codeLine="3" fill="#FEFECE" filter="url(#fu7ngzw1cbq9r)" height="59.2207" id="Takeable" style="stroke:#A80036;stroke-width:1.5;" width="113" x="7" y="209"/><ellipse cx="34.15" cy="228.1328" fill="#ADD1B2" rx="11" ry="11" style="stroke:#A80036;stroke-width:1.0;"/><path d="M36.6231,234.2759 Q36.0421,234.5747 35.4029,234.7241 Q34.7638,234.8735 34.0582,234.8735 Q31.5514,234.8735 30.2315,233.2217 Q28.9117,231.5698 28.9117,228.4487 Q28.9117,225.3193 30.2315,223.6675 Q31.5514,222.0156 34.0582,222.0156 Q34.7638,222.0156 35.4112,222.165 Q36.0587,222.3145 36.6231,222.6133 L36.6231,225.3359 Q35.9923,224.7549 35.3988,224.4851 Q34.8053,224.2153 34.1744,224.2153 Q32.8297,224.2153 32.1449,225.282 Q31.4601,226.3486 31.4601,228.4487 Q31.4601,230.5405 32.1449,231.6072 Q32.8297,232.6738 34.1744,232.6738 Q34.8053,232.6738 35.3988,232.4041 Q35.9923,232.1343 36.6231,231.5532 Z " fill="#000000"/><text fill="#000000" font-family="sans-serif" font-size="12" font-style="italic" lengthAdjust="spacing" textLength="43" x="56.35" y="225.6016">«mixin»</text><text fill="#000000" font-family="sans-serif" font-size="12" lengthAdjust="spacing" textLength="54" x="50.85" y="239.7344">Takeable</text><line style="stroke:#A80036;stroke-width:1.5;" x1="8" x2="119" y1="247.2656" y2="247.2656"/><ellipse cx="18" cy="258.2656" fill="#84BE84" rx="3" ry="3" style="stroke:#038048;stroke-width:1.0;"/><text fill="#000000" font-family="sans-serif" font-size="11" lengthAdjust="spacing" textLength="87" x="27" y="261.9004">putInInventory()</text><!--MD5=[d595eb0bf37c2aa97fcf96a78955ac35]
reverse link Object to Sword--><path codeLine="2" d="M63.5,59.24 C63.5,73.36 63.5,88.88 63.5,99.95 " fill="none" id="Object-backto-Sword" style="stroke:#A80036;stroke-width:1.0;"/><polygon fill="none" points="56.5,59.03,63.5,39.03,70.5,59.03,56.5,59.03" style="stroke:#A80036;stroke-width:1.0;"/><!--MD5=[4366b7c502c393479bed7f11328783b2]
link Sword to Takeable--><path codeLine="6" d="M63.5,132.26 C63.5,151.39 63.5,184.56 63.5,208.56 " fill="none" id="Sword-Takeable" style="stroke:#A80036;stroke-width:1.0;"/><text fill="#000000" font-family="sans-serif" font-size="13" lengthAdjust="spacing" textLength="41" x="64.5" y="175.5684">assign</text><!--MD5=[9ca02e4913d91353dd8ed9c9e7ee5a60]
@startuml

Object <|- - Sword
class Takeable <<mixin>> {
    +putInInventory()
}
Sword - - Takeable : assign
hide empty members

@enduml

PlantUML version 1.2021.8(Sat Jun 26 10:20:59 CEST 2021)
(GPL source distribution)
Java Runtime: OpenJDK Runtime Environment
JVM: OpenJDK 64-Bit Server VM
Default Encoding: UTF-8
Language: es
Country: ES
--></g></svg>