<?xml version="1.0" encoding="UTF-8" standalone="no"?><svg xmlns="http://www.w3.org/2000/svg" xmlns:xlink="http://www.w3.org/1999/xlink" contentScriptType="application/ecmascript" contentStyleType="text/css" height="203px" preserveAspectRatio="none" style="width:220px;height:203px;background:#FFFFFF;" version="1.1" viewBox="0 0 220 203" width="220px" zoomAndPan="magnify"><defs><filter height="300%" id="f1h551fk1i670u" width="300%" x="-1" y="-1"><feGaussianBlur result="blurOut" stdDeviation="2.0"/><feColorMatrix in="blurOut" result="blurOut2" type="matrix" values="0 0 0 0 0 0 0 0 0 0 0 0 0 0 0 0 0 0 .4 0"/><feOffset dx="4.0" dy="4.0" in="blurOut2" result="blurOut3"/><feBlend in="SourceGraphic" in2="blurOut3" mode="normal"/></filter></defs><g><!--MD5=[1cb3dca014c9afc5465c20d03b3a6575]
class Fruta--><rect codeLine="1" fill="#FEFECE" filter="url(#f1h551fk1i670u)" height="73.9102" id="Fruta" style="stroke:#A80036;stroke-width:1.5;" width="80" x="7" y="7"/><ellipse cx="30.55" cy="23" fill="#ADD1B2" rx="11" ry="11" style="stroke:#A80036;stroke-width:1.0;"/><path d="M33.0231,29.1431 Q32.4421,29.4419 31.8029,29.5913 Q31.1638,29.7407 30.4582,29.7407 Q27.9514,29.7407 26.6315,28.0889 Q25.3117,26.437 25.3117,23.3159 Q25.3117,20.1865 26.6315,18.5347 Q27.9514,16.8828 30.4582,16.8828 Q31.1638,16.8828 31.8112,17.0322 Q32.4587,17.1816 33.0231,17.4805 L33.0231,20.2031 Q32.3923,19.6221 31.7988,19.3523 Q31.2053,19.0825 30.5744,19.0825 Q29.2297,19.0825 28.5449,20.1492 Q27.8601,21.2158 27.8601,23.3159 Q27.8601,25.4077 28.5449,26.4744 Q29.2297,27.541 30.5744,27.541 Q31.2053,27.541 31.7988,27.2712 Q32.3923,27.0015 33.0231,26.4204 Z " fill="#000000"/><text fill="#000000" font-family="sans-serif" font-size="12" lengthAdjust="spacing" textLength="29" x="46.45" y="27.5352">Fruta</text><line style="stroke:#A80036;stroke-width:1.5;" x1="8" x2="86" y1="39" y2="39"/><text fill="#000000" font-family="sans-serif" font-size="11" lengthAdjust="spacing" textLength="57" x="13" y="53.6348">int tamaño</text><line style="stroke:#A80036;stroke-width:1.5;" x1="8" x2="86" y1="59.9551" y2="59.9551"/><text fill="#000000" font-family="sans-serif" font-size="11" lengthAdjust="spacing" textLength="68" x="13" y="74.5898">void comer()</text><!--MD5=[bb464e4caa4f7f005857ca9509a61a47]
class Manzana--><rect codeLine="6" fill="#FEFECE" filter="url(#f1h551fk1i670u)" height="48" id="Manzana" style="stroke:#A80036;stroke-width:1.5;" width="84" x="122" y="20"/><ellipse cx="137" cy="36" fill="#ADD1B2" rx="11" ry="11" style="stroke:#A80036;stroke-width:1.0;"/><path d="M139.4731,42.1431 Q138.8921,42.4419 138.2529,42.5913 Q137.6138,42.7407 136.9082,42.7407 Q134.4014,42.7407 133.0815,41.0889 Q131.7617,39.437 131.7617,36.3159 Q131.7617,33.1865 133.0815,31.5347 Q134.4014,29.8828 136.9082,29.8828 Q137.6138,29.8828 138.2612,30.0322 Q138.9087,30.1816 139.4731,30.4805 L139.4731,33.2031 Q138.8423,32.6221 138.2488,32.3523 Q137.6553,32.0825 137.0244,32.0825 Q135.6797,32.0825 134.9949,33.1492 Q134.3101,34.2158 134.3101,36.3159 Q134.3101,38.4077 134.9949,39.4744 Q135.6797,40.541 137.0244,40.541 Q137.6553,40.541 138.2488,40.2712 Q138.8423,40.0015 139.4731,39.4204 Z " fill="#000000"/><text fill="#000000" font-family="sans-serif" font-size="12" lengthAdjust="spacing" textLength="52" x="151" y="40.5352">Manzana</text><line style="stroke:#A80036;stroke-width:1.5;" x1="123" x2="205" y1="52" y2="52"/><line style="stroke:#A80036;stroke-width:1.5;" x1="123" x2="205" y1="60" y2="60"/><!--MD5=[1508bf63183502ad5201ded5f8c5cf37]
class Pera--><rect codeLine="7" fill="#FEFECE" filter="url(#f1h551fk1i670u)" height="48" id="Pera" style="stroke:#A80036;stroke-width:1.5;" width="58" x="18" y="141"/><ellipse cx="33" cy="157" fill="#ADD1B2" rx="11" ry="11" style="stroke:#A80036;stroke-width:1.0;"/><path d="M35.4731,163.1431 Q34.8921,163.4419 34.2529,163.5913 Q33.6138,163.7407 32.9082,163.7407 Q30.4014,163.7407 29.0815,162.0889 Q27.7617,160.437 27.7617,157.3159 Q27.7617,154.1865 29.0815,152.5347 Q30.4014,150.8828 32.9082,150.8828 Q33.6138,150.8828 34.2612,151.0322 Q34.9087,151.1816 35.4731,151.4805 L35.4731,154.2031 Q34.8423,153.6221 34.2488,153.3523 Q33.6553,153.0825 33.0244,153.0825 Q31.6797,153.0825 30.9949,154.1492 Q30.3101,155.2158 30.3101,157.3159 Q30.3101,159.4077 30.9949,160.4744 Q31.6797,161.541 33.0244,161.541 Q33.6553,161.541 34.2488,161.2712 Q34.8423,161.0015 35.4731,160.4204 Z " fill="#000000"/><text fill="#000000" font-family="sans-serif" font-size="12" lengthAdjust="spacing" textLength="26" x="47" y="161.5352">Pera</text><line style="stroke:#A80036;stroke-width:1.5;" x1="19" x2="75" y1="173" y2="173"/><line style="stroke:#A80036;stroke-width:1.5;" x1="19" x2="75" y1="181" y2="181"/><!--MD5=[4b43efe331bf2fb823de145f3146a02f]
link Fruta to Manzana--><!--MD5=[98a69daa6fc6630c26df619c3a7072fa]
link Fruta to Pera--><!--MD5=[6a9e883cec647202123f63e5f250c3e0]
@startuml
class Fruta {
    int tamaño
    void comer()
}

class Manzana
class Pera
@enduml

PlantUML version 1.2021.8(Sat Jun 26 10:20:59 CEST 2021)
(GPL source distribution)
Java Runtime: OpenJDK Runtime Environment
JVM: OpenJDK 64-Bit Server VM
Default Encoding: UTF-8
Language: es
Country: ES
--></g></svg>