<?xml version="1.0" encoding="UTF-8" standalone="no"?><svg xmlns="http://www.w3.org/2000/svg" xmlns:xlink="http://www.w3.org/1999/xlink" contentScriptType="application/ecmascript" contentStyleType="text/css" height="201px" preserveAspectRatio="none" style="width:222px;height:201px;" version="1.1" viewBox="0 0 222 201" width="222px" zoomAndPan="magnify"><defs><filter height="300%" id="f1h551fk1i670u" width="300%" x="-1" y="-1"><feGaussianBlur result="blurOut" stdDeviation="2.0"/><feColorMatrix in="blurOut" result="blurOut2" type="matrix" values="0 0 0 0 0 0 0 0 0 0 0 0 0 0 0 0 0 0 .4 0"/><feOffset dx="4.0" dy="4.0" in="blurOut2" result="blurOut3"/><feBlend in="SourceGraphic" in2="blurOut3" mode="normal"/></filter></defs><g><!--class Fruta--><rect fill="#FEFECE" filter="url(#f1h551fk1i670u)" height="73.792" id="Fruta" style="stroke: #A80036; stroke-width: 1.5;" width="83" x="6" y="8"/><ellipse cx="29.1" cy="24" fill="#ADD1B2" rx="11" ry="11" style="stroke: #A80036; stroke-width: 1.0;"/><path d="M32.0688,29.6406 Q31.4906,29.9375 30.85,30.0781 Q30.2094,30.2344 29.5063,30.2344 Q27.0063,30.2344 25.6781,28.5938 Q24.3656,26.9375 24.3656,23.8125 Q24.3656,20.6875 25.6781,19.0313 Q27.0063,17.375 29.5063,17.375 Q30.2094,17.375 30.85,17.5313 Q31.5063,17.6875 32.0688,17.9844 L32.0688,20.7031 Q31.4438,20.125 30.85,19.8594 Q30.2563,19.5781 29.6313,19.5781 Q28.2875,19.5781 27.6,20.6563 Q26.9125,21.7188 26.9125,23.8125 Q26.9125,25.9063 27.6,26.9844 Q28.2875,28.0469 29.6313,28.0469 Q30.2563,28.0469 30.85,27.7813 Q31.4438,27.5 32.0688,26.9219 L32.0688,29.6406 Z "/><text fill="#000000" font-family="sans-serif" font-size="12" lengthAdjust="spacingAndGlyphs" textLength="33" x="44.9" y="28.1807">Fruta</text><line style="stroke: #A80036; stroke-width: 1.5;" x1="7" x2="88" y1="40" y2="40"/><text fill="#000000" font-family="sans-serif" font-size="11" lengthAdjust="spacingAndGlyphs" textLength="61" x="12" y="54.2803">int tamaño</text><line style="stroke: #A80036; stroke-width: 1.5;" x1="7" x2="88" y1="60.896" y2="60.896"/><text fill="#000000" font-family="sans-serif" font-size="11" lengthAdjust="spacingAndGlyphs" textLength="71" x="12" y="75.1763">void comer()</text><!--class Manzana--><rect fill="#FEFECE" filter="url(#f1h551fk1i670u)" height="48" id="Manzana" style="stroke: #A80036; stroke-width: 1.5;" width="87" x="124" y="21"/><ellipse cx="139" cy="37" fill="#ADD1B2" rx="11" ry="11" style="stroke: #A80036; stroke-width: 1.0;"/><path d="M141.9688,42.6406 Q141.3906,42.9375 140.75,43.0781 Q140.1094,43.2344 139.4063,43.2344 Q136.9063,43.2344 135.5781,41.5938 Q134.2656,39.9375 134.2656,36.8125 Q134.2656,33.6875 135.5781,32.0313 Q136.9063,30.375 139.4063,30.375 Q140.1094,30.375 140.75,30.5313 Q141.4063,30.6875 141.9688,30.9844 L141.9688,33.7031 Q141.3438,33.125 140.75,32.8594 Q140.1563,32.5781 139.5313,32.5781 Q138.1875,32.5781 137.5,33.6563 Q136.8125,34.7188 136.8125,36.8125 Q136.8125,38.9063 137.5,39.9844 Q138.1875,41.0469 139.5313,41.0469 Q140.1563,41.0469 140.75,40.7813 Q141.3438,40.5 141.9688,39.9219 L141.9688,42.6406 Z "/><text fill="#000000" font-family="sans-serif" font-size="12" lengthAdjust="spacingAndGlyphs" textLength="55" x="153" y="41.1807">Manzana</text><line style="stroke: #A80036; stroke-width: 1.5;" x1="125" x2="210" y1="53" y2="53"/><line style="stroke: #A80036; stroke-width: 1.5;" x1="125" x2="210" y1="61" y2="61"/><!--class Pera--><rect fill="#FEFECE" filter="url(#f1h551fk1i670u)" height="48" id="Pera" style="stroke: #A80036; stroke-width: 1.5;" width="61" x="17" y="142"/><ellipse cx="32" cy="158" fill="#ADD1B2" rx="11" ry="11" style="stroke: #A80036; stroke-width: 1.0;"/><path d="M34.9688,163.6406 Q34.3906,163.9375 33.75,164.0781 Q33.1094,164.2344 32.4063,164.2344 Q29.9063,164.2344 28.5781,162.5938 Q27.2656,160.9375 27.2656,157.8125 Q27.2656,154.6875 28.5781,153.0313 Q29.9063,151.375 32.4063,151.375 Q33.1094,151.375 33.75,151.5313 Q34.4063,151.6875 34.9688,151.9844 L34.9688,154.7031 Q34.3438,154.125 33.75,153.8594 Q33.1563,153.5781 32.5313,153.5781 Q31.1875,153.5781 30.5,154.6563 Q29.8125,155.7188 29.8125,157.8125 Q29.8125,159.9063 30.5,160.9844 Q31.1875,162.0469 32.5313,162.0469 Q33.1563,162.0469 33.75,161.7813 Q34.3438,161.5 34.9688,160.9219 L34.9688,163.6406 Z "/><text fill="#000000" font-family="sans-serif" font-size="12" lengthAdjust="spacingAndGlyphs" textLength="29" x="46" y="162.1807">Pera</text><line style="stroke: #A80036; stroke-width: 1.5;" x1="18" x2="77" y1="174" y2="174"/><line style="stroke: #A80036; stroke-width: 1.5;" x1="18" x2="77" y1="182" y2="182"/><!--link Fruta to Manzana--><!--link Fruta to Pera--><!--
@startuml
class Fruta {
    int tamaño
    void comer()
}

class Manzana
class Pera
@enduml

PlantUML version 1.2019.01(Sat Feb 09 16:32:04 CET 2019)
(LGPL source distribution)
Java Runtime: OpenJDK Runtime Environment
JVM: OpenJDK 64-Bit Server VM
Java Version: 1.8.0_265-b01
Operating System: Linux
OS Version: 5.8.12-200.fc32.x86_64
Default Encoding: UTF-8
Language: es
Country: ES
--></g></svg>