<?xml version="1.0" encoding="UTF-8" standalone="no"?><svg xmlns="http://www.w3.org/2000/svg" xmlns:xlink="http://www.w3.org/1999/xlink" contentStyleType="text/css" height="205px" preserveAspectRatio="none" style="width:229px;height:205px;background:#FFFFFF;" version="1.1" viewBox="0 0 229 205" width="229px" zoomAndPan="magnify"><defs/><g><!--class Fruta--><g id="elem_Fruta"><rect codeLine="1" fill="#F1F1F1" height="83.2188" id="Fruta" rx="2.5" ry="2.5" style="stroke:#181818;stroke-width:0.5;" width="91" x="7" y="7"/><ellipse cx="33.25" cy="23" fill="#ADD1B2" rx="11" ry="11" style="stroke:#181818;stroke-width:1.0;"/><path d="M36.0156,18.875 Q36.1719,18.6563 36.3594,18.5469 Q36.5469,18.4375 36.7656,18.4375 Q37.1406,18.4375 37.375,18.7031 Q37.6094,18.9531 37.6094,19.5625 L37.6094,21.0156 Q37.6094,21.625 37.375,21.8906 Q37.1406,22.1563 36.7656,22.1563 Q36.4219,22.1563 36.2188,21.9531 Q36.0156,21.7656 35.9063,21.25 Q35.8594,20.8906 35.6719,20.7031 Q35.3438,20.3281 34.7344,20.1094 Q34.125,19.8906 33.5,19.8906 Q32.7344,19.8906 32.0938,20.2188 Q31.4688,20.5469 30.9688,21.2969 Q30.4844,22.0469 30.4844,23.0781 L30.4844,24.1719 Q30.4844,25.4063 31.375,26.2344 Q32.2656,27.0469 33.8594,27.0469 Q34.7969,27.0469 35.4531,26.7969 Q35.8438,26.6406 36.2656,26.2031 Q36.5313,25.9375 36.6719,25.8594 Q36.8281,25.7813 37.0313,25.7813 Q37.3594,25.7813 37.6094,26.0469 Q37.875,26.2969 37.875,26.6406 Q37.875,26.9844 37.5313,27.3906 Q37.0313,27.9688 36.2344,28.2969 Q35.1563,28.75 33.8594,28.75 Q32.3438,28.75 31.1406,28.125 Q30.1563,27.625 29.4688,26.5625 Q28.7813,25.4844 28.7813,24.2031 L28.7813,23.0469 Q28.7813,21.7188 29.3906,20.5781 Q30.0156,19.4219 31.1094,18.8125 Q32.2031,18.1875 33.4375,18.1875 Q34.1719,18.1875 34.8125,18.3594 Q35.4688,18.5156 36.0156,18.875 Z " fill="#000000"/><text fill="#000000" font-family="sans-serif" font-size="14" lengthAdjust="spacing" textLength="34" x="49.75" y="28.7285">Fruta</text><line style="stroke:#181818;stroke-width:0.5;" x1="8" x2="97" y1="39" y2="39"/><text fill="#000000" font-family="sans-serif" font-size="14" lengthAdjust="spacing" textLength="66" x="13" y="57.5332">int tamaño</text><line style="stroke:#181818;stroke-width:0.5;" x1="8" x2="97" y1="64.6094" y2="64.6094"/><text fill="#000000" font-family="sans-serif" font-size="14" lengthAdjust="spacing" textLength="79" x="13" y="83.1426">void comer()</text></g><!--class Manzana--><g id="elem_Manzana"><rect codeLine="6" fill="#F1F1F1" height="48" id="Manzana" rx="2.5" ry="2.5" style="stroke:#181818;stroke-width:0.5;" width="89" x="133" y="24.5"/><ellipse cx="148" cy="40.5" fill="#ADD1B2" rx="11" ry="11" style="stroke:#181818;stroke-width:1.0;"/><path d="M150.7656,36.375 Q150.9219,36.1563 151.1094,36.0469 Q151.2969,35.9375 151.5156,35.9375 Q151.8906,35.9375 152.125,36.2031 Q152.3594,36.4531 152.3594,37.0625 L152.3594,38.5156 Q152.3594,39.125 152.125,39.3906 Q151.8906,39.6563 151.5156,39.6563 Q151.1719,39.6563 150.9688,39.4531 Q150.7656,39.2656 150.6563,38.75 Q150.6094,38.3906 150.4219,38.2031 Q150.0938,37.8281 149.4844,37.6094 Q148.875,37.3906 148.25,37.3906 Q147.4844,37.3906 146.8438,37.7188 Q146.2188,38.0469 145.7188,38.7969 Q145.2344,39.5469 145.2344,40.5781 L145.2344,41.6719 Q145.2344,42.9063 146.125,43.7344 Q147.0156,44.5469 148.6094,44.5469 Q149.5469,44.5469 150.2031,44.2969 Q150.5938,44.1406 151.0156,43.7031 Q151.2813,43.4375 151.4219,43.3594 Q151.5781,43.2813 151.7813,43.2813 Q152.1094,43.2813 152.3594,43.5469 Q152.625,43.7969 152.625,44.1406 Q152.625,44.4844 152.2813,44.8906 Q151.7813,45.4688 150.9844,45.7969 Q149.9063,46.25 148.6094,46.25 Q147.0938,46.25 145.8906,45.625 Q144.9063,45.125 144.2188,44.0625 Q143.5313,42.9844 143.5313,41.7031 L143.5313,40.5469 Q143.5313,39.2188 144.1406,38.0781 Q144.7656,36.9219 145.8594,36.3125 Q146.9531,35.6875 148.1875,35.6875 Q148.9219,35.6875 149.5625,35.8594 Q150.2188,36.0156 150.7656,36.375 Z " fill="#000000"/><text fill="#000000" font-family="sans-serif" font-size="14" lengthAdjust="spacing" textLength="57" x="162" y="46.2285">Manzana</text><line style="stroke:#181818;stroke-width:0.5;" x1="134" x2="221" y1="56.5" y2="56.5"/><line style="stroke:#181818;stroke-width:0.5;" x1="134" x2="221" y1="64.5" y2="64.5"/></g><!--class Pera--><g id="elem_Pera"><rect codeLine="7" fill="#F1F1F1" height="48" id="Pera" rx="2.5" ry="2.5" style="stroke:#181818;stroke-width:0.5;" width="62" x="21.5" y="150"/><ellipse cx="36.5" cy="166" fill="#ADD1B2" rx="11" ry="11" style="stroke:#181818;stroke-width:1.0;"/><path d="M39.2656,161.875 Q39.4219,161.6563 39.6094,161.5469 Q39.7969,161.4375 40.0156,161.4375 Q40.3906,161.4375 40.625,161.7031 Q40.8594,161.9531 40.8594,162.5625 L40.8594,164.0156 Q40.8594,164.625 40.625,164.8906 Q40.3906,165.1563 40.0156,165.1563 Q39.6719,165.1563 39.4688,164.9531 Q39.2656,164.7656 39.1563,164.25 Q39.1094,163.8906 38.9219,163.7031 Q38.5938,163.3281 37.9844,163.1094 Q37.375,162.8906 36.75,162.8906 Q35.9844,162.8906 35.3438,163.2188 Q34.7188,163.5469 34.2188,164.2969 Q33.7344,165.0469 33.7344,166.0781 L33.7344,167.1719 Q33.7344,168.4063 34.625,169.2344 Q35.5156,170.0469 37.1094,170.0469 Q38.0469,170.0469 38.7031,169.7969 Q39.0938,169.6406 39.5156,169.2031 Q39.7813,168.9375 39.9219,168.8594 Q40.0781,168.7813 40.2813,168.7813 Q40.6094,168.7813 40.8594,169.0469 Q41.125,169.2969 41.125,169.6406 Q41.125,169.9844 40.7813,170.3906 Q40.2813,170.9688 39.4844,171.2969 Q38.4063,171.75 37.1094,171.75 Q35.5938,171.75 34.3906,171.125 Q33.4063,170.625 32.7188,169.5625 Q32.0313,168.4844 32.0313,167.2031 L32.0313,166.0469 Q32.0313,164.7188 32.6406,163.5781 Q33.2656,162.4219 34.3594,161.8125 Q35.4531,161.1875 36.6875,161.1875 Q37.4219,161.1875 38.0625,161.3594 Q38.7188,161.5156 39.2656,161.875 Z " fill="#000000"/><text fill="#000000" font-family="sans-serif" font-size="14" lengthAdjust="spacing" textLength="30" x="50.5" y="171.7285">Pera</text><line style="stroke:#181818;stroke-width:0.5;" x1="22.5" x2="82.5" y1="182" y2="182"/><line style="stroke:#181818;stroke-width:0.5;" x1="22.5" x2="82.5" y1="190" y2="190"/></g><!--SRC=[Iyv9B2vMS2igBKbKgEPI08BCl1A5aiJSnCCRyy7yilpC58Na_DpK8WrDhbekhcIm3j_4lAh4l4GeBo2rA140]--></g></svg>