<?xml version="1.0" encoding="UTF-8" standalone="no"?><svg xmlns="http://www.w3.org/2000/svg" xmlns:xlink="http://www.w3.org/1999/xlink" contentScriptType="application/ecmascript" contentStyleType="text/css" height="419px" preserveAspectRatio="none" style="width:446px;height:419px;" version="1.1" viewBox="0 0 446 419" width="446px" zoomAndPan="magnify"><defs><filter height="300%" id="f1g29ad0pdiwiv" width="300%" x="-1" y="-1"><feGaussianBlur result="blurOut" stdDeviation="2.0"/><feColorMatrix in="blurOut" result="blurOut2" type="matrix" values="0 0 0 0 0 0 0 0 0 0 0 0 0 0 0 0 0 0 .4 0"/><feOffset dx="4.0" dy="4.0" in="blurOut2" result="blurOut3"/><feBlend in="SourceGraphic" in2="blurOut3" mode="normal"/></filter></defs><g><!--class Manager--><rect fill="#FEFECE" filter="url(#f1g29ad0pdiwiv)" height="32" id="Manager" style="stroke: #A80036; stroke-width: 1.5;" width="87" x="162.5" y="192"/><ellipse cx="177.5" cy="208" fill="#A9DCDF" rx="11" ry="11" style="stroke: #A80036; stroke-width: 1.0;"/><path d="M177.6094,203.3438 L176.4531,208.4219 L178.7813,208.4219 L177.6094,203.3438 Z M176.125,201.1094 L179.1094,201.1094 L182.4688,213.5 L180.0156,213.5 L179.25,210.4375 L175.9688,210.4375 L175.2188,213.5 L172.7813,213.5 L176.125,201.1094 Z "/><text fill="#000000" font-family="sans-serif" font-size="12" font-style="italic" lengthAdjust="spacingAndGlyphs" textLength="55" x="191.5" y="212.1543">Manager</text><!--class Component--><rect fill="#FEFECE" filter="url(#f1g29ad0pdiwiv)" height="32" id="Component" style="stroke: #A80036; stroke-width: 1.5;" width="104" x="6" y="284"/><ellipse cx="21" cy="300" fill="#A9DCDF" rx="11" ry="11" style="stroke: #A80036; stroke-width: 1.0;"/><path d="M21.1094,295.3438 L19.9531,300.4219 L22.2813,300.4219 L21.1094,295.3438 Z M19.625,293.1094 L22.6094,293.1094 L25.9688,305.5 L23.5156,305.5 L22.75,302.4375 L19.4688,302.4375 L18.7188,305.5 L16.2813,305.5 L19.625,293.1094 Z "/><text fill="#000000" font-family="sans-serif" font-size="12" font-style="italic" lengthAdjust="spacingAndGlyphs" textLength="72" x="35" y="304.1543">Component</text><!--class PhysicsManager--><rect fill="#FEFECE" filter="url(#f1g29ad0pdiwiv)" height="32" id="PhysicsManager" style="stroke: #A80036; stroke-width: 1.5;" width="133" x="302.5" y="284"/><ellipse cx="317.5" cy="300" fill="#ADD1B2" rx="11" ry="11" style="stroke: #A80036; stroke-width: 1.0;"/><path d="M320.4688,305.6406 Q319.8906,305.9375 319.25,306.0781 Q318.6094,306.2344 317.9063,306.2344 Q315.4063,306.2344 314.0781,304.5938 Q312.7656,302.9375 312.7656,299.8125 Q312.7656,296.6875 314.0781,295.0313 Q315.4063,293.375 317.9063,293.375 Q318.6094,293.375 319.25,293.5313 Q319.9063,293.6875 320.4688,293.9844 L320.4688,296.7031 Q319.8438,296.125 319.25,295.8594 Q318.6563,295.5781 318.0313,295.5781 Q316.6875,295.5781 316,296.6563 Q315.3125,297.7188 315.3125,299.8125 Q315.3125,301.9063 316,302.9844 Q316.6875,304.0469 318.0313,304.0469 Q318.6563,304.0469 319.25,303.7813 Q319.8438,303.5 320.4688,302.9219 L320.4688,305.6406 Z "/><text fill="#000000" font-family="sans-serif" font-size="12" lengthAdjust="spacingAndGlyphs" textLength="101" x="331.5" y="304.1807">PhysicsManager</text><!--class AudioManager--><rect fill="#FEFECE" filter="url(#f1g29ad0pdiwiv)" height="32" id="AudioManager" style="stroke: #A80036; stroke-width: 1.5;" width="122" x="145" y="284"/><ellipse cx="160" cy="300" fill="#ADD1B2" rx="11" ry="11" style="stroke: #A80036; stroke-width: 1.0;"/><path d="M162.9688,305.6406 Q162.3906,305.9375 161.75,306.0781 Q161.1094,306.2344 160.4063,306.2344 Q157.9063,306.2344 156.5781,304.5938 Q155.2656,302.9375 155.2656,299.8125 Q155.2656,296.6875 156.5781,295.0313 Q157.9063,293.375 160.4063,293.375 Q161.1094,293.375 161.75,293.5313 Q162.4063,293.6875 162.9688,293.9844 L162.9688,296.7031 Q162.3438,296.125 161.75,295.8594 Q161.1563,295.5781 160.5313,295.5781 Q159.1875,295.5781 158.5,296.6563 Q157.8125,297.7188 157.8125,299.8125 Q157.8125,301.9063 158.5,302.9844 Q159.1875,304.0469 160.5313,304.0469 Q161.1563,304.0469 161.75,303.7813 Q162.3438,303.5 162.9688,302.9219 L162.9688,305.6406 Z "/><text fill="#000000" font-family="sans-serif" font-size="12" lengthAdjust="spacingAndGlyphs" textLength="90" x="174" y="304.1807">AudioManager</text><!--class Game--><rect fill="#FEFECE" filter="url(#f1g29ad0pdiwiv)" height="32" id="Game" style="stroke: #A80036; stroke-width: 1.5;" width="68" x="97" y="8"/><ellipse cx="112" cy="24" fill="#ADD1B2" rx="11" ry="11" style="stroke: #A80036; stroke-width: 1.0;"/><path d="M114.9688,29.6406 Q114.3906,29.9375 113.75,30.0781 Q113.1094,30.2344 112.4063,30.2344 Q109.9063,30.2344 108.5781,28.5938 Q107.2656,26.9375 107.2656,23.8125 Q107.2656,20.6875 108.5781,19.0313 Q109.9063,17.375 112.4063,17.375 Q113.1094,17.375 113.75,17.5313 Q114.4063,17.6875 114.9688,17.9844 L114.9688,20.7031 Q114.3438,20.125 113.75,19.8594 Q113.1563,19.5781 112.5313,19.5781 Q111.1875,19.5781 110.5,20.6563 Q109.8125,21.7188 109.8125,23.8125 Q109.8125,25.9063 110.5,26.9844 Q111.1875,28.0469 112.5313,28.0469 Q113.1563,28.0469 113.75,27.7813 Q114.3438,27.5 114.9688,26.9219 L114.9688,29.6406 Z "/><text fill="#000000" font-family="sans-serif" font-size="12" lengthAdjust="spacingAndGlyphs" textLength="36" x="126" y="28.1807">Game</text><!--class Scenario--><rect fill="#FEFECE" filter="url(#f1g29ad0pdiwiv)" height="32" id="Scenario" style="stroke: #A80036; stroke-width: 1.5;" width="87" x="39.5" y="100"/><ellipse cx="54.5" cy="116" fill="#ADD1B2" rx="11" ry="11" style="stroke: #A80036; stroke-width: 1.0;"/><path d="M57.4688,121.6406 Q56.8906,121.9375 56.25,122.0781 Q55.6094,122.2344 54.9063,122.2344 Q52.4063,122.2344 51.0781,120.5938 Q49.7656,118.9375 49.7656,115.8125 Q49.7656,112.6875 51.0781,111.0313 Q52.4063,109.375 54.9063,109.375 Q55.6094,109.375 56.25,109.5313 Q56.9063,109.6875 57.4688,109.9844 L57.4688,112.7031 Q56.8438,112.125 56.25,111.8594 Q55.6563,111.5781 55.0313,111.5781 Q53.6875,111.5781 53,112.6563 Q52.3125,113.7188 52.3125,115.8125 Q52.3125,117.9063 53,118.9844 Q53.6875,120.0469 55.0313,120.0469 Q55.6563,120.0469 56.25,119.7813 Q56.8438,119.5 57.4688,118.9219 L57.4688,121.6406 Z "/><text fill="#000000" font-family="sans-serif" font-size="12" lengthAdjust="spacingAndGlyphs" textLength="55" x="68.5" y="120.1807">Scenario</text><!--class Entity--><rect fill="#FEFECE" filter="url(#f1g29ad0pdiwiv)" height="32" id="Entity" style="stroke: #A80036; stroke-width: 1.5;" width="67" x="42.5" y="192"/><ellipse cx="57.5" cy="208" fill="#ADD1B2" rx="11" ry="11" style="stroke: #A80036; stroke-width: 1.0;"/><path d="M60.4688,213.6406 Q59.8906,213.9375 59.25,214.0781 Q58.6094,214.2344 57.9063,214.2344 Q55.4063,214.2344 54.0781,212.5938 Q52.7656,210.9375 52.7656,207.8125 Q52.7656,204.6875 54.0781,203.0313 Q55.4063,201.375 57.9063,201.375 Q58.6094,201.375 59.25,201.5313 Q59.9063,201.6875 60.4688,201.9844 L60.4688,204.7031 Q59.8438,204.125 59.25,203.8594 Q58.6563,203.5781 58.0313,203.5781 Q56.6875,203.5781 56,204.6563 Q55.3125,205.7188 55.3125,207.8125 Q55.3125,209.9063 56,210.9844 Q56.6875,212.0469 58.0313,212.0469 Q58.6563,212.0469 59.25,211.7813 Q59.8438,211.5 60.4688,210.9219 L60.4688,213.6406 Z "/><text fill="#000000" font-family="sans-serif" font-size="12" lengthAdjust="spacingAndGlyphs" textLength="35" x="71.5" y="212.1807">Entity</text><!--class PhysicsComponent--><rect fill="#FEFECE" filter="url(#f1g29ad0pdiwiv)" height="32" id="PhysicsComponent" style="stroke: #A80036; stroke-width: 1.5;" width="150" x="261" y="376"/><ellipse cx="276" cy="392" fill="#ADD1B2" rx="11" ry="11" style="stroke: #A80036; stroke-width: 1.0;"/><path d="M278.9688,397.6406 Q278.3906,397.9375 277.75,398.0781 Q277.1094,398.2344 276.4063,398.2344 Q273.9063,398.2344 272.5781,396.5938 Q271.2656,394.9375 271.2656,391.8125 Q271.2656,388.6875 272.5781,387.0313 Q273.9063,385.375 276.4063,385.375 Q277.1094,385.375 277.75,385.5313 Q278.4063,385.6875 278.9688,385.9844 L278.9688,388.7031 Q278.3438,388.125 277.75,387.8594 Q277.1563,387.5781 276.5313,387.5781 Q275.1875,387.5781 274.5,388.6563 Q273.8125,389.7188 273.8125,391.8125 Q273.8125,393.9063 274.5,394.9844 Q275.1875,396.0469 276.5313,396.0469 Q277.1563,396.0469 277.75,395.7813 Q278.3438,395.5 278.9688,394.9219 L278.9688,397.6406 Z "/><text fill="#000000" font-family="sans-serif" font-size="12" lengthAdjust="spacingAndGlyphs" textLength="118" x="290" y="396.1807">PhysicsComponent</text><!--class AudioComponent--><rect fill="#FEFECE" filter="url(#f1g29ad0pdiwiv)" height="32" id="AudioComponent" style="stroke: #A80036; stroke-width: 1.5;" width="139" x="53.5" y="376"/><ellipse cx="68.5" cy="392" fill="#ADD1B2" rx="11" ry="11" style="stroke: #A80036; stroke-width: 1.0;"/><path d="M71.4688,397.6406 Q70.8906,397.9375 70.25,398.0781 Q69.6094,398.2344 68.9063,398.2344 Q66.4063,398.2344 65.0781,396.5938 Q63.7656,394.9375 63.7656,391.8125 Q63.7656,388.6875 65.0781,387.0313 Q66.4063,385.375 68.9063,385.375 Q69.6094,385.375 70.25,385.5313 Q70.9063,385.6875 71.4688,385.9844 L71.4688,388.7031 Q70.8438,388.125 70.25,387.8594 Q69.6563,387.5781 69.0313,387.5781 Q67.6875,387.5781 67,388.6563 Q66.3125,389.7188 66.3125,391.8125 Q66.3125,393.9063 67,394.9844 Q67.6875,396.0469 69.0313,396.0469 Q69.6563,396.0469 70.25,395.7813 Q70.8438,395.5 71.4688,394.9219 L71.4688,397.6406 Z "/><text fill="#000000" font-family="sans-serif" font-size="12" lengthAdjust="spacingAndGlyphs" textLength="107" x="82.5" y="396.1807">AudioComponent</text><!--link Manager to PhysicsManager--><path d="M251.04,233.87 C280.09,249.91 316.92,270.24 341.63,283.89 " fill="none" id="Manager-PhysicsManager" style="stroke: #A80036; stroke-width: 1.0;"/><polygon fill="none" points="247.41,239.86,233.28,224.06,254.17,227.6,247.41,239.86" style="stroke: #A80036; stroke-width: 1.0;"/><!--link Manager to AudioManager--><path d="M206,244.61 C206,258.31 206,273.22 206,283.96 " fill="none" id="Manager-AudioManager" style="stroke: #A80036; stroke-width: 1.0;"/><polygon fill="none" points="199,244.27,206,224.27,213,244.27,199,244.27" style="stroke: #A80036; stroke-width: 1.0;"/><!--link Game to Manager--><path d="M142.26,52.33 C158.3,91.26 187.18,161.32 199.81,191.97 " fill="none" id="Game-Manager" style="stroke: #A80036; stroke-width: 1.0;"/><polygon fill="#A80036" points="137.27,40.2,135.8579,47.2715,141.8423,51.2948,143.2544,44.2233,137.27,40.2" style="stroke: #A80036; stroke-width: 1.0;"/><text fill="#000000" font-family="sans-serif" font-size="13" lengthAdjust="spacingAndGlyphs" textLength="8" x="130.0219" y="60.2399">1</text><text fill="#000000" font-family="sans-serif" font-size="13" lengthAdjust="spacingAndGlyphs" textLength="7" x="189.3579" y="180.7797">*</text><!--link Game to Scenario--><path d="M116.64,51.93 C108.25,67.65 97.99,86.89 91.02,99.96 " fill="none" id="Game-Scenario" style="stroke: #A80036; stroke-width: 1.0;"/><polygon fill="#A80036" points="122.86,40.27,116.5062,43.6801,117.2102,50.8568,123.564,47.4467,122.86,40.27" style="stroke: #A80036; stroke-width: 1.0;"/><!--link Scenario to Entity--><path d="M80.8,145.34 C79.59,160.79 78.16,179.28 77.17,191.96 " fill="none" id="Scenario-Entity" style="stroke: #A80036; stroke-width: 1.0;"/><polygon fill="#A80036" points="81.81,132.27,77.3602,137.9444,80.8866,144.2344,85.3364,138.56,81.81,132.27" style="stroke: #A80036; stroke-width: 1.0;"/><text fill="#000000" font-family="sans-serif" font-size="13" lengthAdjust="spacingAndGlyphs" textLength="8" x="72.1557" y="152.0345">1</text><text fill="#000000" font-family="sans-serif" font-size="13" lengthAdjust="spacingAndGlyphs" textLength="36" x="35.1743" y="180.7662">many</text><!--link Entity to Component--><path d="M70.33,237.34 C67.24,252.79 63.54,271.28 61.01,283.96 " fill="none" id="Entity-Component" style="stroke: #A80036; stroke-width: 1.0;"/><polygon fill="#A80036" points="72.95,224.27,67.8477,229.3657,70.589,236.0354,75.6913,230.9397,72.95,224.27" style="stroke: #A80036; stroke-width: 1.0;"/><text fill="#000000" font-family="sans-serif" font-size="13" lengthAdjust="spacingAndGlyphs" textLength="8" x="62.7028" y="244.0345">1</text><text fill="#000000" font-family="sans-serif" font-size="13" lengthAdjust="spacingAndGlyphs" textLength="36" x="19.6698" y="272.7662">many</text><!--link Component to PhysicsComponent--><path d="M123.74,322.28 C174.67,338.77 243.96,361.2 289.32,375.89 " fill="none" id="Component-PhysicsComponent" style="stroke: #A80036; stroke-width: 1.0;"/><polygon fill="none" points="121.4,328.88,104.53,316.06,125.71,315.56,121.4,328.88" style="stroke: #A80036; stroke-width: 1.0;"/><!--link Component to AudioComponent--><path d="M80.89,332.69 C91.51,347.4 103.63,364.18 112.14,375.96 " fill="none" id="Component-AudioComponent" style="stroke: #A80036; stroke-width: 1.0;"/><polygon fill="none" points="75.06,336.58,69.03,316.27,86.41,328.38,75.06,336.58" style="stroke: #A80036; stroke-width: 1.0;"/><!--link PhysicsManager to PhysicsComponent--><path d="M363.4,316.27 C357.87,331.36 349.38,354.52 343.31,371.06 " fill="none" id="PhysicsManager-PhysicsComponent" style="stroke: #A80036; stroke-width: 1.0;"/><polygon fill="#A80036" points="341.52,375.96,348.3807,368.8939,343.2459,371.2673,340.8724,366.1325,341.52,375.96" style="stroke: #A80036; stroke-width: 1.0;"/><!--link AudioManager to AudioComponent--><path d="M191.92,316.27 C177.76,331.62 155.9,355.32 140.61,371.9 " fill="none" id="AudioManager-AudioComponent" style="stroke: #A80036; stroke-width: 1.0;"/><polygon fill="#A80036" points="136.87,375.96,145.9118,372.0555,140.2596,372.2843,140.0308,366.6321,136.87,375.96" style="stroke: #A80036; stroke-width: 1.0;"/><!--
@startuml
abstract Manager
abstract Component
Manager <|- - PhysicsManager
Manager <|- - AudioManager
Game "1" *- - "*" Manager
Game *- - Scenario
Scenario "1" *- - "many" Entity
Entity "1" *- - "many" Component
Component <|- - PhysicsComponent
Component <|- - AudioComponent
PhysicsManager - -> PhysicsComponent
AudioManager - -> AudioComponent
hide members
@enduml

PlantUML version 1.2019.01(Sat Feb 09 16:32:04 CET 2019)
(LGPL source distribution)
Java Runtime: OpenJDK Runtime Environment
JVM: OpenJDK 64-Bit Server VM
Java Version: 1.8.0_265-b01
Operating System: Linux
OS Version: 5.8.12-200.fc32.x86_64
Default Encoding: UTF-8
Language: es
Country: ES
--></g></svg>