<?xml version="1.0" encoding="UTF-8" standalone="no"?><svg xmlns="http://www.w3.org/2000/svg" xmlns:xlink="http://www.w3.org/1999/xlink" contentStyleType="text/css" height="414px" preserveAspectRatio="none" style="width:449px;height:414px;background:#FFFFFF;" version="1.1" viewBox="0 0 449 414" width="449px" zoomAndPan="magnify"><defs/><g><!--MD5=[b24ed8d4ae84bae9290d9aab401637c7]
class Manager--><g id="elem_Manager"><rect codeLine="1" fill="#F1F1F1" height="32" id="Manager" rx="2.5" ry="2.5" style="stroke:#181818;stroke-width:0.5;" width="89" x="165" y="191"/><ellipse cx="180" cy="207" fill="#A9DCDF" rx="11" ry="11" style="stroke:#181818;stroke-width:1.0;"/><path d="M182.1875,208.7656 L178.0469,208.7656 L177.625,209.7969 L178.0469,209.7969 Q178.6563,209.7969 178.9219,210.0313 Q179.1875,210.2656 179.1875,210.6563 Q179.1875,211.0313 178.9219,211.2656 Q178.6563,211.5 178.0469,211.5 L175.75,211.5 Q175.1406,211.5 174.8906,211.2656 Q174.625,211.0313 174.625,210.6406 Q174.625,210.2656 174.9063,210.0313 Q175.1719,209.7813 175.7969,209.7969 L178.4688,203.1406 L177.3594,203.1406 Q176.75,203.1406 176.4844,202.9063 Q176.2188,202.6719 176.2188,202.2813 Q176.2188,201.9063 176.4844,201.6719 Q176.75,201.4375 177.3594,201.4375 L181.0313,201.4375 L184.4219,209.7969 Q185.0156,209.7969 185.2031,209.9375 Q185.5938,210.2031 185.5938,210.6563 Q185.5938,211.0313 185.3281,211.2656 Q185.0781,211.5 184.4688,211.5 L182.1719,211.5 Q181.5625,211.5 181.2969,211.2656 Q181.0313,211.0313 181.0313,210.6406 Q181.0313,210.2656 181.2969,210.0313 Q181.5625,209.7969 182.1719,209.7969 L182.5938,209.7969 L182.1875,208.7656 Z M181.4688,207.0625 L180.1094,203.6875 L178.7344,207.0625 L181.4688,207.0625 Z " fill="#000000"/><text fill="#000000" font-family="sans-serif" font-size="14" font-style="italic" lengthAdjust="spacing" textLength="57" x="194" y="212.7285">Manager</text></g><!--MD5=[4e13963c9dc916a21a8436ef39422b32]
class Component--><g id="elem_Component"><rect codeLine="2" fill="#F1F1F1" height="32" id="Component" rx="2.5" ry="2.5" style="stroke:#181818;stroke-width:0.5;" width="105" x="7" y="283"/><ellipse cx="22" cy="299" fill="#A9DCDF" rx="11" ry="11" style="stroke:#181818;stroke-width:1.0;"/><path d="M24.1875,300.7656 L20.0469,300.7656 L19.625,301.7969 L20.0469,301.7969 Q20.6563,301.7969 20.9219,302.0313 Q21.1875,302.2656 21.1875,302.6563 Q21.1875,303.0313 20.9219,303.2656 Q20.6563,303.5 20.0469,303.5 L17.75,303.5 Q17.1406,303.5 16.8906,303.2656 Q16.625,303.0313 16.625,302.6406 Q16.625,302.2656 16.9063,302.0313 Q17.1719,301.7813 17.7969,301.7969 L20.4688,295.1406 L19.3594,295.1406 Q18.75,295.1406 18.4844,294.9063 Q18.2188,294.6719 18.2188,294.2813 Q18.2188,293.9063 18.4844,293.6719 Q18.75,293.4375 19.3594,293.4375 L23.0313,293.4375 L26.4219,301.7969 Q27.0156,301.7969 27.2031,301.9375 Q27.5938,302.2031 27.5938,302.6563 Q27.5938,303.0313 27.3281,303.2656 Q27.0781,303.5 26.4688,303.5 L24.1719,303.5 Q23.5625,303.5 23.2969,303.2656 Q23.0313,303.0313 23.0313,302.6406 Q23.0313,302.2656 23.2969,302.0313 Q23.5625,301.7969 24.1719,301.7969 L24.5938,301.7969 L24.1875,300.7656 Z M23.4688,299.0625 L22.1094,295.6875 L20.7344,299.0625 L23.4688,299.0625 Z " fill="#000000"/><text fill="#000000" font-family="sans-serif" font-size="14" font-style="italic" lengthAdjust="spacing" textLength="73" x="36" y="304.7285">Component</text></g><!--MD5=[84ad90da8a72978c983c597bd934c6f7]
class PhysicsManager--><g id="elem_PhysicsManager"><rect fill="#F1F1F1" height="32" id="PhysicsManager" rx="2.5" ry="2.5" style="stroke:#181818;stroke-width:0.5;" width="136" x="306.5" y="283"/><ellipse cx="321.5" cy="299" fill="#ADD1B2" rx="11" ry="11" style="stroke:#181818;stroke-width:1.0;"/><path d="M324.2656,294.875 Q324.4219,294.6563 324.6094,294.5469 Q324.7969,294.4375 325.0156,294.4375 Q325.3906,294.4375 325.625,294.7031 Q325.8594,294.9531 325.8594,295.5625 L325.8594,297.0156 Q325.8594,297.625 325.625,297.8906 Q325.3906,298.1563 325.0156,298.1563 Q324.6719,298.1563 324.4688,297.9531 Q324.2656,297.7656 324.1563,297.25 Q324.1094,296.8906 323.9219,296.7031 Q323.5938,296.3281 322.9844,296.1094 Q322.375,295.8906 321.75,295.8906 Q320.9844,295.8906 320.3438,296.2188 Q319.7188,296.5469 319.2188,297.2969 Q318.7344,298.0469 318.7344,299.0781 L318.7344,300.1719 Q318.7344,301.4063 319.625,302.2344 Q320.5156,303.0469 322.1094,303.0469 Q323.0469,303.0469 323.7031,302.7969 Q324.0938,302.6406 324.5156,302.2031 Q324.7813,301.9375 324.9219,301.8594 Q325.0781,301.7813 325.2813,301.7813 Q325.6094,301.7813 325.8594,302.0469 Q326.125,302.2969 326.125,302.6406 Q326.125,302.9844 325.7813,303.3906 Q325.2813,303.9688 324.4844,304.2969 Q323.4063,304.75 322.1094,304.75 Q320.5938,304.75 319.3906,304.125 Q318.4063,303.625 317.7188,302.5625 Q317.0313,301.4844 317.0313,300.2031 L317.0313,299.0469 Q317.0313,297.7188 317.6406,296.5781 Q318.2656,295.4219 319.3594,294.8125 Q320.4531,294.1875 321.6875,294.1875 Q322.4219,294.1875 323.0625,294.3594 Q323.7188,294.5156 324.2656,294.875 Z " fill="#000000"/><text fill="#000000" font-family="sans-serif" font-size="14" lengthAdjust="spacing" textLength="104" x="335.5" y="304.7285">PhysicsManager</text></g><!--MD5=[347a6de240a7e533fe3f585d0ed7a7fe]
class AudioManager--><g id="elem_AudioManager"><rect fill="#F1F1F1" height="32" id="AudioManager" rx="2.5" ry="2.5" style="stroke:#181818;stroke-width:0.5;" width="124" x="147.5" y="283"/><ellipse cx="162.5" cy="299" fill="#ADD1B2" rx="11" ry="11" style="stroke:#181818;stroke-width:1.0;"/><path d="M165.2656,294.875 Q165.4219,294.6563 165.6094,294.5469 Q165.7969,294.4375 166.0156,294.4375 Q166.3906,294.4375 166.625,294.7031 Q166.8594,294.9531 166.8594,295.5625 L166.8594,297.0156 Q166.8594,297.625 166.625,297.8906 Q166.3906,298.1563 166.0156,298.1563 Q165.6719,298.1563 165.4688,297.9531 Q165.2656,297.7656 165.1563,297.25 Q165.1094,296.8906 164.9219,296.7031 Q164.5938,296.3281 163.9844,296.1094 Q163.375,295.8906 162.75,295.8906 Q161.9844,295.8906 161.3438,296.2188 Q160.7188,296.5469 160.2188,297.2969 Q159.7344,298.0469 159.7344,299.0781 L159.7344,300.1719 Q159.7344,301.4063 160.625,302.2344 Q161.5156,303.0469 163.1094,303.0469 Q164.0469,303.0469 164.7031,302.7969 Q165.0938,302.6406 165.5156,302.2031 Q165.7813,301.9375 165.9219,301.8594 Q166.0781,301.7813 166.2813,301.7813 Q166.6094,301.7813 166.8594,302.0469 Q167.125,302.2969 167.125,302.6406 Q167.125,302.9844 166.7813,303.3906 Q166.2813,303.9688 165.4844,304.2969 Q164.4063,304.75 163.1094,304.75 Q161.5938,304.75 160.3906,304.125 Q159.4063,303.625 158.7188,302.5625 Q158.0313,301.4844 158.0313,300.2031 L158.0313,299.0469 Q158.0313,297.7188 158.6406,296.5781 Q159.2656,295.4219 160.3594,294.8125 Q161.4531,294.1875 162.6875,294.1875 Q163.4219,294.1875 164.0625,294.3594 Q164.7188,294.5156 165.2656,294.875 Z " fill="#000000"/><text fill="#000000" font-family="sans-serif" font-size="14" lengthAdjust="spacing" textLength="92" x="176.5" y="304.7285">AudioManager</text></g><!--MD5=[b6dcce5e5ef3c84b0b048d11301373dd]
class Game--><g id="elem_Game"><rect fill="#F1F1F1" height="32" id="Game" rx="2.5" ry="2.5" style="stroke:#181818;stroke-width:0.5;" width="70" x="99.5" y="7"/><ellipse cx="114.5" cy="23" fill="#ADD1B2" rx="11" ry="11" style="stroke:#181818;stroke-width:1.0;"/><path d="M117.2656,18.875 Q117.4219,18.6563 117.6094,18.5469 Q117.7969,18.4375 118.0156,18.4375 Q118.3906,18.4375 118.625,18.7031 Q118.8594,18.9531 118.8594,19.5625 L118.8594,21.0156 Q118.8594,21.625 118.625,21.8906 Q118.3906,22.1563 118.0156,22.1563 Q117.6719,22.1563 117.4688,21.9531 Q117.2656,21.7656 117.1563,21.25 Q117.1094,20.8906 116.9219,20.7031 Q116.5938,20.3281 115.9844,20.1094 Q115.375,19.8906 114.75,19.8906 Q113.9844,19.8906 113.3438,20.2188 Q112.7188,20.5469 112.2188,21.2969 Q111.7344,22.0469 111.7344,23.0781 L111.7344,24.1719 Q111.7344,25.4063 112.625,26.2344 Q113.5156,27.0469 115.1094,27.0469 Q116.0469,27.0469 116.7031,26.7969 Q117.0938,26.6406 117.5156,26.2031 Q117.7813,25.9375 117.9219,25.8594 Q118.0781,25.7813 118.2813,25.7813 Q118.6094,25.7813 118.8594,26.0469 Q119.125,26.2969 119.125,26.6406 Q119.125,26.9844 118.7813,27.3906 Q118.2813,27.9688 117.4844,28.2969 Q116.4063,28.75 115.1094,28.75 Q113.5938,28.75 112.3906,28.125 Q111.4063,27.625 110.7188,26.5625 Q110.0313,25.4844 110.0313,24.2031 L110.0313,23.0469 Q110.0313,21.7188 110.6406,20.5781 Q111.2656,19.4219 112.3594,18.8125 Q113.4531,18.1875 114.6875,18.1875 Q115.4219,18.1875 116.0625,18.3594 Q116.7188,18.5156 117.2656,18.875 Z " fill="#000000"/><text fill="#000000" font-family="sans-serif" font-size="14" lengthAdjust="spacing" textLength="38" x="128.5" y="28.7285">Game</text></g><!--MD5=[3618a374bd976662547feba7b42f282d]
class Scenario--><g id="elem_Scenario"><rect fill="#F1F1F1" height="32" id="Scenario" rx="2.5" ry="2.5" style="stroke:#181818;stroke-width:0.5;" width="88" x="42.5" y="99"/><ellipse cx="57.5" cy="115" fill="#ADD1B2" rx="11" ry="11" style="stroke:#181818;stroke-width:1.0;"/><path d="M60.2656,110.875 Q60.4219,110.6563 60.6094,110.5469 Q60.7969,110.4375 61.0156,110.4375 Q61.3906,110.4375 61.625,110.7031 Q61.8594,110.9531 61.8594,111.5625 L61.8594,113.0156 Q61.8594,113.625 61.625,113.8906 Q61.3906,114.1563 61.0156,114.1563 Q60.6719,114.1563 60.4688,113.9531 Q60.2656,113.7656 60.1563,113.25 Q60.1094,112.8906 59.9219,112.7031 Q59.5938,112.3281 58.9844,112.1094 Q58.375,111.8906 57.75,111.8906 Q56.9844,111.8906 56.3438,112.2188 Q55.7188,112.5469 55.2188,113.2969 Q54.7344,114.0469 54.7344,115.0781 L54.7344,116.1719 Q54.7344,117.4063 55.625,118.2344 Q56.5156,119.0469 58.1094,119.0469 Q59.0469,119.0469 59.7031,118.7969 Q60.0938,118.6406 60.5156,118.2031 Q60.7813,117.9375 60.9219,117.8594 Q61.0781,117.7813 61.2813,117.7813 Q61.6094,117.7813 61.8594,118.0469 Q62.125,118.2969 62.125,118.6406 Q62.125,118.9844 61.7813,119.3906 Q61.2813,119.9688 60.4844,120.2969 Q59.4063,120.75 58.1094,120.75 Q56.5938,120.75 55.3906,120.125 Q54.4063,119.625 53.7188,118.5625 Q53.0313,117.4844 53.0313,116.2031 L53.0313,115.0469 Q53.0313,113.7188 53.6406,112.5781 Q54.2656,111.4219 55.3594,110.8125 Q56.4531,110.1875 57.6875,110.1875 Q58.4219,110.1875 59.0625,110.3594 Q59.7188,110.5156 60.2656,110.875 Z " fill="#000000"/><text fill="#000000" font-family="sans-serif" font-size="14" lengthAdjust="spacing" textLength="56" x="71.5" y="120.7285">Scenario</text></g><!--MD5=[be996cdb8e6bf2fc7cb89c555f2cd144]
class Entity--><g id="elem_Entity"><rect fill="#F1F1F1" height="32" id="Entity" rx="2.5" ry="2.5" style="stroke:#181818;stroke-width:0.5;" width="67" x="45" y="191"/><ellipse cx="60" cy="207" fill="#ADD1B2" rx="11" ry="11" style="stroke:#181818;stroke-width:1.0;"/><path d="M62.7656,202.875 Q62.9219,202.6563 63.1094,202.5469 Q63.2969,202.4375 63.5156,202.4375 Q63.8906,202.4375 64.125,202.7031 Q64.3594,202.9531 64.3594,203.5625 L64.3594,205.0156 Q64.3594,205.625 64.125,205.8906 Q63.8906,206.1563 63.5156,206.1563 Q63.1719,206.1563 62.9688,205.9531 Q62.7656,205.7656 62.6563,205.25 Q62.6094,204.8906 62.4219,204.7031 Q62.0938,204.3281 61.4844,204.1094 Q60.875,203.8906 60.25,203.8906 Q59.4844,203.8906 58.8438,204.2188 Q58.2188,204.5469 57.7188,205.2969 Q57.2344,206.0469 57.2344,207.0781 L57.2344,208.1719 Q57.2344,209.4063 58.125,210.2344 Q59.0156,211.0469 60.6094,211.0469 Q61.5469,211.0469 62.2031,210.7969 Q62.5938,210.6406 63.0156,210.2031 Q63.2813,209.9375 63.4219,209.8594 Q63.5781,209.7813 63.7813,209.7813 Q64.1094,209.7813 64.3594,210.0469 Q64.625,210.2969 64.625,210.6406 Q64.625,210.9844 64.2813,211.3906 Q63.7813,211.9688 62.9844,212.2969 Q61.9063,212.75 60.6094,212.75 Q59.0938,212.75 57.8906,212.125 Q56.9063,211.625 56.2188,210.5625 Q55.5313,209.4844 55.5313,208.2031 L55.5313,207.0469 Q55.5313,205.7188 56.1406,204.5781 Q56.7656,203.4219 57.8594,202.8125 Q58.9531,202.1875 60.1875,202.1875 Q60.9219,202.1875 61.5625,202.3594 Q62.2188,202.5156 62.7656,202.875 Z " fill="#000000"/><text fill="#000000" font-family="sans-serif" font-size="14" lengthAdjust="spacing" textLength="35" x="74" y="212.7285">Entity</text></g><!--MD5=[bbcd2da526b70b90dae59809b1d6ce91]
class PhysicsComponent--><g id="elem_PhysicsComponent"><rect fill="#F1F1F1" height="32" id="PhysicsComponent" rx="2.5" ry="2.5" style="stroke:#181818;stroke-width:0.5;" width="153" x="264" y="375"/><ellipse cx="279" cy="391" fill="#ADD1B2" rx="11" ry="11" style="stroke:#181818;stroke-width:1.0;"/><path d="M281.7656,386.875 Q281.9219,386.6563 282.1094,386.5469 Q282.2969,386.4375 282.5156,386.4375 Q282.8906,386.4375 283.125,386.7031 Q283.3594,386.9531 283.3594,387.5625 L283.3594,389.0156 Q283.3594,389.625 283.125,389.8906 Q282.8906,390.1563 282.5156,390.1563 Q282.1719,390.1563 281.9688,389.9531 Q281.7656,389.7656 281.6563,389.25 Q281.6094,388.8906 281.4219,388.7031 Q281.0938,388.3281 280.4844,388.1094 Q279.875,387.8906 279.25,387.8906 Q278.4844,387.8906 277.8438,388.2188 Q277.2188,388.5469 276.7188,389.2969 Q276.2344,390.0469 276.2344,391.0781 L276.2344,392.1719 Q276.2344,393.4063 277.125,394.2344 Q278.0156,395.0469 279.6094,395.0469 Q280.5469,395.0469 281.2031,394.7969 Q281.5938,394.6406 282.0156,394.2031 Q282.2813,393.9375 282.4219,393.8594 Q282.5781,393.7813 282.7813,393.7813 Q283.1094,393.7813 283.3594,394.0469 Q283.625,394.2969 283.625,394.6406 Q283.625,394.9844 283.2813,395.3906 Q282.7813,395.9688 281.9844,396.2969 Q280.9063,396.75 279.6094,396.75 Q278.0938,396.75 276.8906,396.125 Q275.9063,395.625 275.2188,394.5625 Q274.5313,393.4844 274.5313,392.2031 L274.5313,391.0469 Q274.5313,389.7188 275.1406,388.5781 Q275.7656,387.4219 276.8594,386.8125 Q277.9531,386.1875 279.1875,386.1875 Q279.9219,386.1875 280.5625,386.3594 Q281.2188,386.5156 281.7656,386.875 Z " fill="#000000"/><text fill="#000000" font-family="sans-serif" font-size="14" lengthAdjust="spacing" textLength="121" x="293" y="396.7285">PhysicsComponent</text></g><!--MD5=[a187f55a710015c4da85db0794286a31]
class AudioComponent--><g id="elem_AudioComponent"><rect fill="#F1F1F1" height="32" id="AudioComponent" rx="2.5" ry="2.5" style="stroke:#181818;stroke-width:0.5;" width="141" x="55" y="375"/><ellipse cx="70" cy="391" fill="#ADD1B2" rx="11" ry="11" style="stroke:#181818;stroke-width:1.0;"/><path d="M72.7656,386.875 Q72.9219,386.6563 73.1094,386.5469 Q73.2969,386.4375 73.5156,386.4375 Q73.8906,386.4375 74.125,386.7031 Q74.3594,386.9531 74.3594,387.5625 L74.3594,389.0156 Q74.3594,389.625 74.125,389.8906 Q73.8906,390.1563 73.5156,390.1563 Q73.1719,390.1563 72.9688,389.9531 Q72.7656,389.7656 72.6563,389.25 Q72.6094,388.8906 72.4219,388.7031 Q72.0938,388.3281 71.4844,388.1094 Q70.875,387.8906 70.25,387.8906 Q69.4844,387.8906 68.8438,388.2188 Q68.2188,388.5469 67.7188,389.2969 Q67.2344,390.0469 67.2344,391.0781 L67.2344,392.1719 Q67.2344,393.4063 68.125,394.2344 Q69.0156,395.0469 70.6094,395.0469 Q71.5469,395.0469 72.2031,394.7969 Q72.5938,394.6406 73.0156,394.2031 Q73.2813,393.9375 73.4219,393.8594 Q73.5781,393.7813 73.7813,393.7813 Q74.1094,393.7813 74.3594,394.0469 Q74.625,394.2969 74.625,394.6406 Q74.625,394.9844 74.2813,395.3906 Q73.7813,395.9688 72.9844,396.2969 Q71.9063,396.75 70.6094,396.75 Q69.0938,396.75 67.8906,396.125 Q66.9063,395.625 66.2188,394.5625 Q65.5313,393.4844 65.5313,392.2031 L65.5313,391.0469 Q65.5313,389.7188 66.1406,388.5781 Q66.7656,387.4219 67.8594,386.8125 Q68.9531,386.1875 70.1875,386.1875 Q70.9219,386.1875 71.5625,386.3594 Q72.2188,386.5156 72.7656,386.875 Z " fill="#000000"/><text fill="#000000" font-family="sans-serif" font-size="14" lengthAdjust="spacing" textLength="109" x="84" y="396.7285">AudioComponent</text></g><!--MD5=[6fdb646c2e1421a83d3e5db06014fdc5]
reverse link Manager to PhysicsManager--><g id="link_Manager_PhysicsManager"><path codeLine="3" d="M255.09,232.87 C284.5,248.91 321.78,269.24 346.79,282.89 " fill="none" id="Manager-backto-PhysicsManager" style="stroke:#181818;stroke-width:1.0;"/><polygon fill="none" points="251.32,238.79,237.12,223.06,258.03,226.5,251.32,238.79" style="stroke:#181818;stroke-width:1.0;"/></g><!--MD5=[5099b3acf022badf43e55e67dd6d2c10]
reverse link Manager to AudioManager--><g id="link_Manager_AudioManager"><path codeLine="4" d="M209.5,243.61 C209.5,257.31 209.5,272.22 209.5,282.96 " fill="none" id="Manager-backto-AudioManager" style="stroke:#181818;stroke-width:1.0;"/><polygon fill="none" points="202.5,243.27,209.5,223.27,216.5,243.27,202.5,243.27" style="stroke:#181818;stroke-width:1.0;"/></g><!--MD5=[f28bbcf03f541345c0ac0ba9d578a966]
reverse link Game to Manager--><g id="link_Game_Manager"><path codeLine="5" d="M145.76,51.33 C161.8,90.26 190.68,160.32 203.31,190.97 " fill="none" id="Game-backto-Manager" style="stroke:#181818;stroke-width:1.0;"/><polygon fill="#181818" points="140.77,39.2,139.3579,46.2715,145.3423,50.2948,146.7544,43.2233,140.77,39.2" style="stroke:#181818;stroke-width:1.0;"/><text fill="#000000" font-family="sans-serif" font-size="13" lengthAdjust="spacing" textLength="7" x="134.6529" y="60.4649">1</text><text fill="#000000" font-family="sans-serif" font-size="13" lengthAdjust="spacing" textLength="5" x="195.3228" y="180.2652">*</text></g><!--MD5=[918c0fffe07024551ce11cc4b640af71]
reverse link Game to Scenario--><g id="link_Game_Scenario"><path codeLine="6" d="M120.14,50.93 C111.75,66.65 101.49,85.89 94.52,98.96 " fill="none" id="Game-backto-Scenario" style="stroke:#181818;stroke-width:1.0;"/><polygon fill="#181818" points="126.36,39.27,120.0062,42.6801,120.7102,49.8568,127.064,46.4467,126.36,39.27" style="stroke:#181818;stroke-width:1.0;"/></g><!--MD5=[2a51148274640ba548856dd26771aee1]
reverse link Scenario to Entity--><g id="link_Scenario_Entity"><path codeLine="7" d="M83.98,144.34 C82.61,159.79 80.96,178.28 79.84,190.96 " fill="none" id="Scenario-backto-Entity" style="stroke:#181818;stroke-width:1.0;"/><polygon fill="#181818" points="85.14,131.27,80.6216,136.89,84.0714,143.2223,88.5898,137.6024,85.14,131.27" style="stroke:#181818;stroke-width:1.0;"/><text fill="#000000" font-family="sans-serif" font-size="13" lengthAdjust="spacing" textLength="7" x="76.5909" y="152.5572">1</text><text fill="#000000" font-family="sans-serif" font-size="13" lengthAdjust="spacing" textLength="32" x="42.8006" y="180.2518">many</text></g><!--MD5=[02aabbcdf2913bdf78d2840a740aa5c1]
reverse link Entity to Component--><g id="link_Entity_Component"><path codeLine="8" d="M72.52,236.34 C69.26,251.79 65.35,270.28 62.68,282.96 " fill="none" id="Entity-backto-Component" style="stroke:#181818;stroke-width:1.0;"/><polygon fill="#181818" points="75.28,223.27,70.1263,228.3138,72.7999,235.0109,77.9536,229.9672,75.28,223.27" style="stroke:#181818;stroke-width:1.0;"/><text fill="#000000" font-family="sans-serif" font-size="13" lengthAdjust="spacing" textLength="7" x="66.138" y="244.5572">1</text><text fill="#000000" font-family="sans-serif" font-size="13" lengthAdjust="spacing" textLength="32" x="26.2731" y="272.2518">many</text></g><!--MD5=[96cb58b9e4876c634ed6fb1a74c7b251]
reverse link Component to PhysicsComponent--><g id="link_Component_PhysicsComponent"><path codeLine="9" d="M125.61,321.17 C177.12,337.67 247.37,360.17 293.31,374.89 " fill="none" id="Component-backto-PhysicsComponent" style="stroke:#181818;stroke-width:1.0;"/><polygon fill="none" points="123.44,327.83,106.53,315.06,127.72,314.5,123.44,327.83" style="stroke:#181818;stroke-width:1.0;"/></g><!--MD5=[acdbaadc89fe3efbcfbceecf21c9e3c5]
reverse link Component to AudioComponent--><g id="link_Component_AudioComponent"><path codeLine="10" d="M82.74,331.69 C93.52,346.4 105.84,363.18 114.47,374.96 " fill="none" id="Component-backto-AudioComponent" style="stroke:#181818;stroke-width:1.0;"/><polygon fill="none" points="76.88,335.53,70.7,315.27,88.17,327.26,76.88,335.53" style="stroke:#181818;stroke-width:1.0;"/></g><!--MD5=[f6064ae34f2c1d1c9e915ffd1489f176]
link PhysicsManager to PhysicsComponent--><g id="link_PhysicsManager_PhysicsComponent"><path codeLine="11" d="M368.73,315.27 C363.03,330.36 354.28,353.52 348.03,370.06 " fill="none" id="PhysicsManager-to-PhysicsComponent" style="stroke:#181818;stroke-width:1.0;"/><polygon fill="#181818" points="346.18,374.96,353.1042,367.956,347.9481,370.2831,345.621,365.127,346.18,374.96" style="stroke:#181818;stroke-width:1.0;"/></g><!--MD5=[20b682cadc58cf6125ea69912e74c11a]
link AudioManager to AudioComponent--><g id="link_AudioManager_AudioComponent"><path codeLine="12" d="M195.25,315.27 C180.92,330.62 158.8,354.32 143.32,370.9 " fill="none" id="AudioManager-to-AudioComponent" style="stroke:#181818;stroke-width:1.0;"/><polygon fill="#181818" points="139.54,374.96,148.6056,371.111,142.9521,371.3052,142.7579,365.6517,139.54,374.96" style="stroke:#181818;stroke-width:1.0;"/></g><!--MD5=[6bdf10f80f13d178ae42ef9f6ac0da42]
@startuml
abstract Manager
abstract Component
Manager <|- - PhysicsManager
Manager <|- - AudioManager
Game "1" *- - "*" Manager
Game *- - Scenario
Scenario "1" *- - "many" Entity
Entity "1" *- - "many" Component
Component <|- - PhysicsComponent
Component <|- - AudioComponent
PhysicsManager - -> PhysicsComponent
AudioManager - -> AudioComponent
hide members
@enduml

PlantUML version 1.2022.5(Sat Apr 30 12:55:52 CEST 2022)
(GPL source distribution)
Java Runtime: OpenJDK Runtime Environment
JVM: OpenJDK 64-Bit Server VM
Default Encoding: UTF-8
Language: es
Country: ES
--></g></svg>