<?xml version="1.0" encoding="UTF-8" standalone="no"?><svg xmlns="http://www.w3.org/2000/svg" xmlns:xlink="http://www.w3.org/1999/xlink" contentScriptType="application/ecmascript" contentStyleType="text/css" height="421px" preserveAspectRatio="none" style="width:427px;height:421px;background:#FFFFFF;" version="1.1" viewBox="0 0 427 421" width="427px" zoomAndPan="magnify"><defs><filter height="300%" id="f1g29ad0pdiwiv" width="300%" x="-1" y="-1"><feGaussianBlur result="blurOut" stdDeviation="2.0"/><feColorMatrix in="blurOut" result="blurOut2" type="matrix" values="0 0 0 0 0 0 0 0 0 0 0 0 0 0 0 0 0 0 .4 0"/><feOffset dx="4.0" dy="4.0" in="blurOut2" result="blurOut3"/><feBlend in="SourceGraphic" in2="blurOut3" mode="normal"/></filter></defs><g><!--MD5=[b24ed8d4ae84bae9290d9aab401637c7]
class Manager--><rect codeLine="1" fill="#FEFECE" filter="url(#f1g29ad0pdiwiv)" height="32" id="Manager" style="stroke:#A80036;stroke-width:1.5;" width="82" x="157" y="191"/><ellipse cx="172" cy="207" fill="#A9DCDF" rx="11" ry="11" style="stroke:#A80036;stroke-width:1.0;"/><path d="M171.8633,202.3481 L170.7095,207.4199 L173.0254,207.4199 Z M170.3691,200.1069 L173.3657,200.1069 L176.7109,212.5 L174.2622,212.5 L173.4985,209.437 L170.2197,209.437 L169.4727,212.5 L167.0239,212.5 Z " fill="#000000"/><text fill="#000000" font-family="sans-serif" font-size="12" font-style="italic" lengthAdjust="spacing" textLength="50" x="186" y="211.5352">Manager</text><!--MD5=[4e13963c9dc916a21a8436ef39422b32]
class Component--><rect codeLine="2" fill="#FEFECE" filter="url(#f1g29ad0pdiwiv)" height="32" id="Component" style="stroke:#A80036;stroke-width:1.5;" width="98" x="7" y="283"/><ellipse cx="22" cy="299" fill="#A9DCDF" rx="11" ry="11" style="stroke:#A80036;stroke-width:1.0;"/><path d="M21.8633,294.3481 L20.7095,299.4199 L23.0254,299.4199 Z M20.3691,292.1069 L23.3657,292.1069 L26.7109,304.5 L24.2622,304.5 L23.4985,301.437 L20.2197,301.437 L19.4727,304.5 L17.0239,304.5 Z " fill="#000000"/><text fill="#000000" font-family="sans-serif" font-size="12" font-style="italic" lengthAdjust="spacing" textLength="66" x="36" y="303.5352">Component</text><!--MD5=[84ad90da8a72978c983c597bd934c6f7]
class PhysicsManager--><rect fill="#FEFECE" filter="url(#f1g29ad0pdiwiv)" height="32" id="PhysicsManager" style="stroke:#A80036;stroke-width:1.5;" width="123" x="290.5" y="283"/><ellipse cx="305.5" cy="299" fill="#ADD1B2" rx="11" ry="11" style="stroke:#A80036;stroke-width:1.0;"/><path d="M307.9731,305.1431 Q307.3921,305.4419 306.7529,305.5913 Q306.1138,305.7407 305.4082,305.7407 Q302.9014,305.7407 301.5815,304.0889 Q300.2617,302.437 300.2617,299.3159 Q300.2617,296.1865 301.5815,294.5347 Q302.9014,292.8828 305.4082,292.8828 Q306.1138,292.8828 306.7612,293.0322 Q307.4087,293.1816 307.9731,293.4805 L307.9731,296.2031 Q307.3423,295.6221 306.7488,295.3523 Q306.1553,295.0825 305.5244,295.0825 Q304.1797,295.0825 303.4949,296.1492 Q302.8101,297.2158 302.8101,299.3159 Q302.8101,301.4077 303.4949,302.4744 Q304.1797,303.541 305.5244,303.541 Q306.1553,303.541 306.7488,303.2712 Q307.3423,303.0015 307.9731,302.4204 Z " fill="#000000"/><text fill="#000000" font-family="sans-serif" font-size="12" lengthAdjust="spacing" textLength="91" x="319.5" y="303.5352">PhysicsManager</text><!--MD5=[347a6de240a7e533fe3f585d0ed7a7fe]
class AudioManager--><rect fill="#FEFECE" filter="url(#f1g29ad0pdiwiv)" height="32" id="AudioManager" style="stroke:#A80036;stroke-width:1.5;" width="115" x="140.5" y="283"/><ellipse cx="155.5" cy="299" fill="#ADD1B2" rx="11" ry="11" style="stroke:#A80036;stroke-width:1.0;"/><path d="M157.9731,305.1431 Q157.3921,305.4419 156.7529,305.5913 Q156.1138,305.7407 155.4082,305.7407 Q152.9014,305.7407 151.5815,304.0889 Q150.2617,302.437 150.2617,299.3159 Q150.2617,296.1865 151.5815,294.5347 Q152.9014,292.8828 155.4082,292.8828 Q156.1138,292.8828 156.7612,293.0322 Q157.4087,293.1816 157.9731,293.4805 L157.9731,296.2031 Q157.3423,295.6221 156.7488,295.3523 Q156.1553,295.0825 155.5244,295.0825 Q154.1797,295.0825 153.4949,296.1492 Q152.8101,297.2158 152.8101,299.3159 Q152.8101,301.4077 153.4949,302.4744 Q154.1797,303.541 155.5244,303.541 Q156.1553,303.541 156.7488,303.2712 Q157.3423,303.0015 157.9731,302.4204 Z " fill="#000000"/><text fill="#000000" font-family="sans-serif" font-size="12" lengthAdjust="spacing" textLength="83" x="169.5" y="303.5352">AudioManager</text><!--MD5=[b6dcce5e5ef3c84b0b048d11301373dd]
class Game--><rect fill="#FEFECE" filter="url(#f1g29ad0pdiwiv)" height="32" id="Game" style="stroke:#A80036;stroke-width:1.5;" width="66" x="93" y="7"/><ellipse cx="108" cy="23" fill="#ADD1B2" rx="11" ry="11" style="stroke:#A80036;stroke-width:1.0;"/><path d="M110.4731,29.1431 Q109.8921,29.4419 109.2529,29.5913 Q108.6138,29.7407 107.9082,29.7407 Q105.4014,29.7407 104.0815,28.0889 Q102.7617,26.437 102.7617,23.3159 Q102.7617,20.1865 104.0815,18.5347 Q105.4014,16.8828 107.9082,16.8828 Q108.6138,16.8828 109.2612,17.0322 Q109.9087,17.1816 110.4731,17.4805 L110.4731,20.2031 Q109.8423,19.6221 109.2488,19.3523 Q108.6553,19.0825 108.0244,19.0825 Q106.6797,19.0825 105.9949,20.1492 Q105.3101,21.2158 105.3101,23.3159 Q105.3101,25.4077 105.9949,26.4744 Q106.6797,27.541 108.0244,27.541 Q108.6553,27.541 109.2488,27.2712 Q109.8423,27.0015 110.4731,26.4204 Z " fill="#000000"/><text fill="#000000" font-family="sans-serif" font-size="12" lengthAdjust="spacing" textLength="34" x="122" y="27.5352">Game</text><!--MD5=[3618a374bd976662547feba7b42f282d]
class Scenario--><rect fill="#FEFECE" filter="url(#f1g29ad0pdiwiv)" height="32" id="Scenario" style="stroke:#A80036;stroke-width:1.5;" width="80" x="40" y="99"/><ellipse cx="55" cy="115" fill="#ADD1B2" rx="11" ry="11" style="stroke:#A80036;stroke-width:1.0;"/><path d="M57.4731,121.1431 Q56.8921,121.4419 56.2529,121.5913 Q55.6138,121.7407 54.9082,121.7407 Q52.4014,121.7407 51.0815,120.0889 Q49.7617,118.437 49.7617,115.3159 Q49.7617,112.1865 51.0815,110.5347 Q52.4014,108.8828 54.9082,108.8828 Q55.6138,108.8828 56.2612,109.0322 Q56.9087,109.1816 57.4731,109.4805 L57.4731,112.2031 Q56.8423,111.6221 56.2488,111.3523 Q55.6553,111.0825 55.0244,111.0825 Q53.6797,111.0825 52.9949,112.1492 Q52.3101,113.2158 52.3101,115.3159 Q52.3101,117.4077 52.9949,118.4744 Q53.6797,119.541 55.0244,119.541 Q55.6553,119.541 56.2488,119.2712 Q56.8423,119.0015 57.4731,118.4204 Z " fill="#000000"/><text fill="#000000" font-family="sans-serif" font-size="12" lengthAdjust="spacing" textLength="48" x="69" y="119.5352">Scenario</text><!--MD5=[be996cdb8e6bf2fc7cb89c555f2cd144]
class Entity--><rect fill="#FEFECE" filter="url(#f1g29ad0pdiwiv)" height="32" id="Entity" style="stroke:#A80036;stroke-width:1.5;" width="63" x="41.5" y="191"/><ellipse cx="56.5" cy="207" fill="#ADD1B2" rx="11" ry="11" style="stroke:#A80036;stroke-width:1.0;"/><path d="M58.9731,213.1431 Q58.3921,213.4419 57.7529,213.5913 Q57.1138,213.7407 56.4082,213.7407 Q53.9014,213.7407 52.5815,212.0889 Q51.2617,210.437 51.2617,207.3159 Q51.2617,204.1865 52.5815,202.5347 Q53.9014,200.8828 56.4082,200.8828 Q57.1138,200.8828 57.7612,201.0322 Q58.4087,201.1816 58.9731,201.4805 L58.9731,204.2031 Q58.3423,203.6221 57.7488,203.3523 Q57.1553,203.0825 56.5244,203.0825 Q55.1797,203.0825 54.4949,204.1492 Q53.8101,205.2158 53.8101,207.3159 Q53.8101,209.4077 54.4949,210.4744 Q55.1797,211.541 56.5244,211.541 Q57.1553,211.541 57.7488,211.2712 Q58.3423,211.0015 58.9731,210.4204 Z " fill="#000000"/><text fill="#000000" font-family="sans-serif" font-size="12" lengthAdjust="spacing" textLength="31" x="70.5" y="211.5352">Entity</text><!--MD5=[bbcd2da526b70b90dae59809b1d6ce91]
class PhysicsComponent--><rect fill="#FEFECE" filter="url(#f1g29ad0pdiwiv)" height="32" id="PhysicsComponent" style="stroke:#A80036;stroke-width:1.5;" width="139" x="250.5" y="375"/><ellipse cx="265.5" cy="391" fill="#ADD1B2" rx="11" ry="11" style="stroke:#A80036;stroke-width:1.0;"/><path d="M267.9731,397.1431 Q267.3921,397.4419 266.7529,397.5913 Q266.1138,397.7407 265.4082,397.7407 Q262.9014,397.7407 261.5815,396.0889 Q260.2617,394.437 260.2617,391.3159 Q260.2617,388.1865 261.5815,386.5347 Q262.9014,384.8828 265.4082,384.8828 Q266.1138,384.8828 266.7612,385.0322 Q267.4087,385.1816 267.9731,385.4805 L267.9731,388.2031 Q267.3423,387.6221 266.7488,387.3523 Q266.1553,387.0825 265.5244,387.0825 Q264.1797,387.0825 263.4949,388.1492 Q262.8101,389.2158 262.8101,391.3159 Q262.8101,393.4077 263.4949,394.4744 Q264.1797,395.541 265.5244,395.541 Q266.1553,395.541 266.7488,395.2712 Q267.3423,395.0015 267.9731,394.4204 Z " fill="#000000"/><text fill="#000000" font-family="sans-serif" font-size="12" lengthAdjust="spacing" textLength="107" x="279.5" y="395.5352">PhysicsComponent</text><!--MD5=[a187f55a710015c4da85db0794286a31]
class AudioComponent--><rect fill="#FEFECE" filter="url(#f1g29ad0pdiwiv)" height="32" id="AudioComponent" style="stroke:#A80036;stroke-width:1.5;" width="131" x="53.5" y="375"/><ellipse cx="68.5" cy="391" fill="#ADD1B2" rx="11" ry="11" style="stroke:#A80036;stroke-width:1.0;"/><path d="M70.9731,397.1431 Q70.3921,397.4419 69.7529,397.5913 Q69.1138,397.7407 68.4082,397.7407 Q65.9014,397.7407 64.5815,396.0889 Q63.2617,394.437 63.2617,391.3159 Q63.2617,388.1865 64.5815,386.5347 Q65.9014,384.8828 68.4082,384.8828 Q69.1138,384.8828 69.7612,385.0322 Q70.4087,385.1816 70.9731,385.4805 L70.9731,388.2031 Q70.3423,387.6221 69.7488,387.3523 Q69.1553,387.0825 68.5244,387.0825 Q67.1797,387.0825 66.4949,388.1492 Q65.8101,389.2158 65.8101,391.3159 Q65.8101,393.4077 66.4949,394.4744 Q67.1797,395.541 68.5244,395.541 Q69.1553,395.541 69.7488,395.2712 Q70.3423,395.0015 70.9731,394.4204 Z " fill="#000000"/><text fill="#000000" font-family="sans-serif" font-size="12" lengthAdjust="spacing" textLength="99" x="82.5" y="395.5352">AudioComponent</text><!--MD5=[6fdb646c2e1421a83d3e5db06014fdc5]
reverse link Manager to PhysicsManager--><path codeLine="3" d="M241.34,233.33 C268.66,249.29 303.02,269.37 326.14,282.89 " fill="none" id="Manager-backto-PhysicsManager" style="stroke:#A80036;stroke-width:1.0;"/><polygon fill="none" points="237.51,239.2,223.78,223.06,244.58,227.11,237.51,239.2" style="stroke:#A80036;stroke-width:1.0;"/><!--MD5=[5099b3acf022badf43e55e67dd6d2c10]
reverse link Manager to AudioManager--><path codeLine="4" d="M198,243.61 C198,257.31 198,272.22 198,282.96 " fill="none" id="Manager-backto-AudioManager" style="stroke:#A80036;stroke-width:1.0;"/><polygon fill="none" points="191,243.27,198,223.27,205,243.27,191,243.27" style="stroke:#A80036;stroke-width:1.0;"/><!--MD5=[f28bbcf03f541345c0ac0ba9d578a966]
reverse link Game to Manager--><path codeLine="5" d="M136.81,51.33 C152.21,90.26 179.93,160.32 192.05,190.97 " fill="none" id="Game-backto-Manager" style="stroke:#A80036;stroke-width:1.0;"/><polygon fill="#A80036" points="132.01,39.2,130.5,46.2512,136.428,50.3571,137.938,43.3059,132.01,39.2" style="stroke:#A80036;stroke-width:1.0;"/><text fill="#000000" font-family="sans-serif" font-size="13" lengthAdjust="spacing" textLength="8" x="124.6758" y="59.6704">1</text><text fill="#000000" font-family="sans-serif" font-size="13" lengthAdjust="spacing" textLength="6" x="182.8616" y="180.2111">*</text><!--MD5=[918c0fffe07024551ce11cc4b640af71]
reverse link Game to Scenario--><path codeLine="6" d="M112.24,50.93 C104.2,66.65 94.37,85.89 87.69,98.96 " fill="none" id="Game-backto-Scenario" style="stroke:#A80036;stroke-width:1.0;"/><polygon fill="#A80036" points="118.2,39.27,111.9076,42.7922,112.7387,49.9552,119.0311,46.4331,118.2,39.27" style="stroke:#A80036;stroke-width:1.0;"/><!--MD5=[2a51148274640ba548856dd26771aee1]
reverse link Scenario to Entity--><path codeLine="7" d="M77.8,144.34 C76.59,159.79 75.16,178.28 74.17,190.96 " fill="none" id="Scenario-backto-Entity" style="stroke:#A80036;stroke-width:1.0;"/><polygon fill="#A80036" points="78.81,131.27,74.3602,136.9444,77.8866,143.2344,82.3364,137.56,78.81,131.27" style="stroke:#A80036;stroke-width:1.0;"/><text fill="#000000" font-family="sans-serif" font-size="13" lengthAdjust="spacing" textLength="8" x="69.1557" y="151.4645">1</text><text fill="#000000" font-family="sans-serif" font-size="13" lengthAdjust="spacing" textLength="34" x="34.5306" y="180.1976">many</text><!--MD5=[02aabbcdf2913bdf78d2840a740aa5c1]
reverse link Entity to Component--><path codeLine="8" d="M67.65,236.34 C64.73,251.79 61.24,270.28 58.84,282.96 " fill="none" id="Entity-backto-Component" style="stroke:#A80036;stroke-width:1.0;"/><polygon fill="#A80036" points="70.12,223.27,65.0751,228.4226,67.891,235.0612,72.9359,229.9086,70.12,223.27" style="stroke:#A80036;stroke-width:1.0;"/><text fill="#000000" font-family="sans-serif" font-size="13" lengthAdjust="spacing" textLength="8" x="59.927" y="243.4645">1</text><text fill="#000000" font-family="sans-serif" font-size="13" lengthAdjust="spacing" textLength="34" x="19.7955" y="272.1976">many</text><!--MD5=[96cb58b9e4876c634ed6fb1a74c7b251]
reverse link Component to PhysicsComponent--><path codeLine="9" d="M119.4,321.61 C167.66,338.07 232.88,360.3 275.67,374.89 " fill="none" id="Component-backto-PhysicsComponent" style="stroke:#A80036;stroke-width:1.0;"/><polygon fill="none" points="116.86,328.14,100.19,315.06,121.38,314.89,116.86,328.14" style="stroke:#A80036;stroke-width:1.0;"/><!--MD5=[acdbaadc89fe3efbcfbceecf21c9e3c5]
reverse link Component to AudioComponent--><path codeLine="10" d="M78.19,331.69 C88.48,346.4 100.23,363.18 108.47,374.96 " fill="none" id="Component-backto-AudioComponent" style="stroke:#A80036;stroke-width:1.0;"/><polygon fill="none" points="72.42,335.67,66.69,315.27,83.89,327.64,72.42,335.67" style="stroke:#A80036;stroke-width:1.0;"/><!--MD5=[f6064ae34f2c1d1c9e915ffd1489f176]
link PhysicsManager to PhysicsComponent--><path codeLine="11" d="M346.57,315.27 C341.21,330.36 332.97,353.52 327.09,370.06 " fill="none" id="PhysicsManager-to-PhysicsComponent" style="stroke:#A80036;stroke-width:1.0;"/><polygon fill="#A80036" points="325.35,374.96,332.1275,367.814,327.0208,370.2474,324.5874,365.1407,325.35,374.96" style="stroke:#A80036;stroke-width:1.0;"/><!--MD5=[20b682cadc58cf6125ea69912e74c11a]
link AudioManager to AudioComponent--><path codeLine="12" d="M184.6,315.27 C171.13,330.62 150.32,354.32 135.76,370.9 " fill="none" id="AudioManager-to-AudioComponent" style="stroke:#A80036;stroke-width:1.0;"/><polygon fill="#A80036" points="132.2,374.96,141.1357,370.8184,135.4915,371.1962,135.1137,365.552,132.2,374.96" style="stroke:#A80036;stroke-width:1.0;"/><!--MD5=[604d3a3f1b52cda28230a2cdb0506966]
@startuml
abstract Manager
abstract Component
Manager <|- - PhysicsManager
Manager <|- - AudioManager
Game "1" *- - "*" Manager
Game *- - Scenario
Scenario "1" *- - "many" Entity
Entity "1" *- - "many" Component
Component <|- - PhysicsComponent
Component <|- - AudioComponent
PhysicsManager - -> PhysicsComponent
AudioManager - -> AudioComponent
hide members
@enduml

PlantUML version 1.2021.8(Sat Jun 26 10:20:59 CEST 2021)
(GPL source distribution)
Java Runtime: OpenJDK Runtime Environment
JVM: OpenJDK 64-Bit Server VM
Default Encoding: UTF-8
Language: es
Country: ES
--></g></svg>