<?xml version="1.0" encoding="UTF-8" standalone="no"?><svg xmlns="http://www.w3.org/2000/svg" xmlns:xlink="http://www.w3.org/1999/xlink" contentStyleType="text/css" height="435px" preserveAspectRatio="none" style="width:237px;height:435px;background:#FFFFFF;" version="1.1" viewBox="0 0 237 435" width="237px" zoomAndPan="magnify"><defs/><g><!--class Entity--><g id="elem_Entity"><rect codeLine="1" fill="#F1F1F1" height="32" id="Entity" rx="2.5" ry="2.5" style="stroke:#181818;stroke-width:0.5;" width="67" x="161.5" y="100"/><ellipse cx="176.5" cy="116" fill="#A9DCDF" rx="11" ry="11" style="stroke:#181818;stroke-width:1.0;"/><path d="M178.6875,117.7656 L174.5469,117.7656 L174.125,118.7969 L174.5469,118.7969 Q175.1563,118.7969 175.4219,119.0313 Q175.6875,119.2656 175.6875,119.6563 Q175.6875,120.0313 175.4219,120.2656 Q175.1563,120.5 174.5469,120.5 L172.25,120.5 Q171.6406,120.5 171.3906,120.2656 Q171.125,120.0313 171.125,119.6406 Q171.125,119.2656 171.4063,119.0313 Q171.6719,118.7813 172.2969,118.7969 L174.9688,112.1406 L173.8594,112.1406 Q173.25,112.1406 172.9844,111.9063 Q172.7188,111.6719 172.7188,111.2813 Q172.7188,110.9063 172.9844,110.6719 Q173.25,110.4375 173.8594,110.4375 L177.5313,110.4375 L180.9219,118.7969 Q181.5156,118.7969 181.7031,118.9375 Q182.0938,119.2031 182.0938,119.6563 Q182.0938,120.0313 181.8281,120.2656 Q181.5781,120.5 180.9688,120.5 L178.6719,120.5 Q178.0625,120.5 177.7969,120.2656 Q177.5313,120.0313 177.5313,119.6406 Q177.5313,119.2656 177.7969,119.0313 Q178.0625,118.7969 178.6719,118.7969 L179.0938,118.7969 L178.6875,117.7656 Z M177.9688,116.0625 L176.6094,112.6875 L175.2344,116.0625 L177.9688,116.0625 Z " fill="#000000"/><text fill="#000000" font-family="sans-serif" font-size="14" font-style="italic" lengthAdjust="spacing" textLength="35" x="190.5" y="121.7285">Entity</text></g><!--class Movable--><g id="elem_Movable"><rect codeLine="4" fill="#F1F1F1" height="32" id="Movable" rx="2.5" ry="2.5" style="stroke:#181818;stroke-width:0.5;" width="85" x="104.5" y="193"/><ellipse cx="119.5" cy="209" fill="#A9DCDF" rx="11" ry="11" style="stroke:#181818;stroke-width:1.0;"/><path d="M121.6875,210.7656 L117.5469,210.7656 L117.125,211.7969 L117.5469,211.7969 Q118.1563,211.7969 118.4219,212.0313 Q118.6875,212.2656 118.6875,212.6563 Q118.6875,213.0313 118.4219,213.2656 Q118.1563,213.5 117.5469,213.5 L115.25,213.5 Q114.6406,213.5 114.3906,213.2656 Q114.125,213.0313 114.125,212.6406 Q114.125,212.2656 114.4063,212.0313 Q114.6719,211.7813 115.2969,211.7969 L117.9688,205.1406 L116.8594,205.1406 Q116.25,205.1406 115.9844,204.9063 Q115.7188,204.6719 115.7188,204.2813 Q115.7188,203.9063 115.9844,203.6719 Q116.25,203.4375 116.8594,203.4375 L120.5313,203.4375 L123.9219,211.7969 Q124.5156,211.7969 124.7031,211.9375 Q125.0938,212.2031 125.0938,212.6563 Q125.0938,213.0313 124.8281,213.2656 Q124.5781,213.5 123.9688,213.5 L121.6719,213.5 Q121.0625,213.5 120.7969,213.2656 Q120.5313,213.0313 120.5313,212.6406 Q120.5313,212.2656 120.7969,212.0313 Q121.0625,211.7969 121.6719,211.7969 L122.0938,211.7969 L121.6875,210.7656 Z M120.9688,209.0625 L119.6094,205.6875 L118.2344,209.0625 L120.9688,209.0625 Z " fill="#000000"/><text fill="#000000" font-family="sans-serif" font-size="14" font-style="italic" lengthAdjust="spacing" textLength="53" x="133.5" y="214.7285">Movable</text></g><!--class Weapon--><g id="elem_Weapon"><rect fill="#F1F1F1" height="32" id="Weapon" rx="2.5" ry="2.5" style="stroke:#181818;stroke-width:0.5;" width="85" x="100.5" y="396"/><ellipse cx="115.5" cy="412" fill="#ADD1B2" rx="11" ry="11" style="stroke:#181818;stroke-width:1.0;"/><path d="M118.2656,407.875 Q118.4219,407.6563 118.6094,407.5469 Q118.7969,407.4375 119.0156,407.4375 Q119.3906,407.4375 119.625,407.7031 Q119.8594,407.9531 119.8594,408.5625 L119.8594,410.0156 Q119.8594,410.625 119.625,410.8906 Q119.3906,411.1563 119.0156,411.1563 Q118.6719,411.1563 118.4688,410.9531 Q118.2656,410.7656 118.1563,410.25 Q118.1094,409.8906 117.9219,409.7031 Q117.5938,409.3281 116.9844,409.1094 Q116.375,408.8906 115.75,408.8906 Q114.9844,408.8906 114.3438,409.2188 Q113.7188,409.5469 113.2188,410.2969 Q112.7344,411.0469 112.7344,412.0781 L112.7344,413.1719 Q112.7344,414.4063 113.625,415.2344 Q114.5156,416.0469 116.1094,416.0469 Q117.0469,416.0469 117.7031,415.7969 Q118.0938,415.6406 118.5156,415.2031 Q118.7813,414.9375 118.9219,414.8594 Q119.0781,414.7813 119.2813,414.7813 Q119.6094,414.7813 119.8594,415.0469 Q120.125,415.2969 120.125,415.6406 Q120.125,415.9844 119.7813,416.3906 Q119.2813,416.9688 118.4844,417.2969 Q117.4063,417.75 116.1094,417.75 Q114.5938,417.75 113.3906,417.125 Q112.4063,416.625 111.7188,415.5625 Q111.0313,414.4844 111.0313,413.2031 L111.0313,412.0469 Q111.0313,410.7188 111.6406,409.5781 Q112.2656,408.4219 113.3594,407.8125 Q114.4531,407.1875 115.6875,407.1875 Q116.4219,407.1875 117.0625,407.3594 Q117.7188,407.5156 118.2656,407.875 Z " fill="#000000"/><text fill="#000000" font-family="sans-serif" font-size="14" lengthAdjust="spacing" textLength="53" x="129.5" y="417.7285">Weapon</text></g><!--class Player--><g id="elem_Player"><rect fill="#F1F1F1" height="32" id="Player" rx="2.5" ry="2.5" style="stroke:#181818;stroke-width:0.5;" width="72" x="7" y="286"/><ellipse cx="22" cy="302" fill="#ADD1B2" rx="11" ry="11" style="stroke:#181818;stroke-width:1.0;"/><path d="M24.7656,297.875 Q24.9219,297.6563 25.1094,297.5469 Q25.2969,297.4375 25.5156,297.4375 Q25.8906,297.4375 26.125,297.7031 Q26.3594,297.9531 26.3594,298.5625 L26.3594,300.0156 Q26.3594,300.625 26.125,300.8906 Q25.8906,301.1563 25.5156,301.1563 Q25.1719,301.1563 24.9688,300.9531 Q24.7656,300.7656 24.6563,300.25 Q24.6094,299.8906 24.4219,299.7031 Q24.0938,299.3281 23.4844,299.1094 Q22.875,298.8906 22.25,298.8906 Q21.4844,298.8906 20.8438,299.2188 Q20.2188,299.5469 19.7188,300.2969 Q19.2344,301.0469 19.2344,302.0781 L19.2344,303.1719 Q19.2344,304.4063 20.125,305.2344 Q21.0156,306.0469 22.6094,306.0469 Q23.5469,306.0469 24.2031,305.7969 Q24.5938,305.6406 25.0156,305.2031 Q25.2813,304.9375 25.4219,304.8594 Q25.5781,304.7813 25.7813,304.7813 Q26.1094,304.7813 26.3594,305.0469 Q26.625,305.2969 26.625,305.6406 Q26.625,305.9844 26.2813,306.3906 Q25.7813,306.9688 24.9844,307.2969 Q23.9063,307.75 22.6094,307.75 Q21.0938,307.75 19.8906,307.125 Q18.9063,306.625 18.2188,305.5625 Q17.5313,304.4844 17.5313,303.2031 L17.5313,302.0469 Q17.5313,300.7188 18.1406,299.5781 Q18.7656,298.4219 19.8594,297.8125 Q20.9531,297.1875 22.1875,297.1875 Q22.9219,297.1875 23.5625,297.3594 Q24.2188,297.5156 24.7656,297.875 Z " fill="#000000"/><text fill="#000000" font-family="sans-serif" font-size="14" lengthAdjust="spacing" textLength="40" x="36" y="307.7285">Player</text></g><!--class Enemy--><g id="elem_Enemy"><rect fill="#F1F1F1" height="32" id="Enemy" rx="2.5" ry="2.5" style="stroke:#181818;stroke-width:0.5;" width="75" x="114.5" y="286"/><ellipse cx="129.5" cy="302" fill="#ADD1B2" rx="11" ry="11" style="stroke:#181818;stroke-width:1.0;"/><path d="M132.2656,297.875 Q132.4219,297.6563 132.6094,297.5469 Q132.7969,297.4375 133.0156,297.4375 Q133.3906,297.4375 133.625,297.7031 Q133.8594,297.9531 133.8594,298.5625 L133.8594,300.0156 Q133.8594,300.625 133.625,300.8906 Q133.3906,301.1563 133.0156,301.1563 Q132.6719,301.1563 132.4688,300.9531 Q132.2656,300.7656 132.1563,300.25 Q132.1094,299.8906 131.9219,299.7031 Q131.5938,299.3281 130.9844,299.1094 Q130.375,298.8906 129.75,298.8906 Q128.9844,298.8906 128.3438,299.2188 Q127.7188,299.5469 127.2188,300.2969 Q126.7344,301.0469 126.7344,302.0781 L126.7344,303.1719 Q126.7344,304.4063 127.625,305.2344 Q128.5156,306.0469 130.1094,306.0469 Q131.0469,306.0469 131.7031,305.7969 Q132.0938,305.6406 132.5156,305.2031 Q132.7813,304.9375 132.9219,304.8594 Q133.0781,304.7813 133.2813,304.7813 Q133.6094,304.7813 133.8594,305.0469 Q134.125,305.2969 134.125,305.6406 Q134.125,305.9844 133.7813,306.3906 Q133.2813,306.9688 132.4844,307.2969 Q131.4063,307.75 130.1094,307.75 Q128.5938,307.75 127.3906,307.125 Q126.4063,306.625 125.7188,305.5625 Q125.0313,304.4844 125.0313,303.2031 L125.0313,302.0469 Q125.0313,300.7188 125.6406,299.5781 Q126.2656,298.4219 127.3594,297.8125 Q128.4531,297.1875 129.6875,297.1875 Q130.4219,297.1875 131.0625,297.3594 Q131.7188,297.5156 132.2656,297.875 Z " fill="#000000"/><text fill="#000000" font-family="sans-serif" font-size="14" lengthAdjust="spacing" textLength="43" x="143.5" y="307.7285">Enemy</text></g><!--class Game--><g id="elem_Game"><rect fill="#F1F1F1" height="32" id="Game" rx="2.5" ry="2.5" style="stroke:#181818;stroke-width:0.5;" width="70" x="160" y="7"/><ellipse cx="175" cy="23" fill="#ADD1B2" rx="11" ry="11" style="stroke:#181818;stroke-width:1.0;"/><path d="M177.7656,18.875 Q177.9219,18.6563 178.1094,18.5469 Q178.2969,18.4375 178.5156,18.4375 Q178.8906,18.4375 179.125,18.7031 Q179.3594,18.9531 179.3594,19.5625 L179.3594,21.0156 Q179.3594,21.625 179.125,21.8906 Q178.8906,22.1563 178.5156,22.1563 Q178.1719,22.1563 177.9688,21.9531 Q177.7656,21.7656 177.6563,21.25 Q177.6094,20.8906 177.4219,20.7031 Q177.0938,20.3281 176.4844,20.1094 Q175.875,19.8906 175.25,19.8906 Q174.4844,19.8906 173.8438,20.2188 Q173.2188,20.5469 172.7188,21.2969 Q172.2344,22.0469 172.2344,23.0781 L172.2344,24.1719 Q172.2344,25.4063 173.125,26.2344 Q174.0156,27.0469 175.6094,27.0469 Q176.5469,27.0469 177.2031,26.7969 Q177.5938,26.6406 178.0156,26.2031 Q178.2813,25.9375 178.4219,25.8594 Q178.5781,25.7813 178.7813,25.7813 Q179.1094,25.7813 179.3594,26.0469 Q179.625,26.2969 179.625,26.6406 Q179.625,26.9844 179.2813,27.3906 Q178.7813,27.9688 177.9844,28.2969 Q176.9063,28.75 175.6094,28.75 Q174.0938,28.75 172.8906,28.125 Q171.9063,27.625 171.2188,26.5625 Q170.5313,25.4844 170.5313,24.2031 L170.5313,23.0469 Q170.5313,21.7188 171.1406,20.5781 Q171.7656,19.4219 172.8594,18.8125 Q173.9531,18.1875 175.1875,18.1875 Q175.9219,18.1875 176.5625,18.3594 Q177.2188,18.5156 177.7656,18.875 Z " fill="#000000"/><text fill="#000000" font-family="sans-serif" font-size="14" lengthAdjust="spacing" textLength="38" x="189" y="28.7285">Game</text></g><!--reverse link Entity to Movable--><g id="link_Entity_Movable"><path codeLine="2" d="M177.73,149.73 C169.94,164.5 161.13,181.22 154.94,192.95 " fill="none" id="Entity-backto-Movable" style="stroke:#181818;stroke-width:1.0;"/><polygon fill="none" points="171.55,146.45,187.07,132.03,183.93,152.98,171.55,146.45" style="stroke:#181818;stroke-width:1.0;"/></g><!--reverse link Entity to Weapon--><g id="link_Entity_Weapon"><path codeLine="3" d="M204.11,151.69 C213.21,192.41 223.64,261.55 207,318 C197.85,349.02 173.91,378.69 158.04,395.86 " fill="none" id="Entity-backto-Weapon" style="stroke:#181818;stroke-width:1.0;"/><polygon fill="none" points="197.25,153.11,199.31,132.02,210.85,149.79,197.25,153.11" style="stroke:#181818;stroke-width:1.0;"/></g><!--reverse link Movable to Player--><g id="link_Movable_Player"><path codeLine="5" d="M114.64,238.32 C96.64,254.07 74.96,273.03 60.2,285.95 " fill="none" id="Movable-backto-Player" style="stroke:#181818;stroke-width:1.0;"/><polygon fill="none" points="110.17,232.93,129.83,225.03,119.38,243.46,110.17,232.93" style="stroke:#181818;stroke-width:1.0;"/></g><!--reverse link Movable to Enemy--><g id="link_Movable_Enemy"><path codeLine="6" d="M148.94,245.24 C149.71,259.36 150.56,274.88 151.17,285.95 " fill="none" id="Movable-backto-Enemy" style="stroke:#181818;stroke-width:1.0;"/><polygon fill="none" points="141.93,245.38,147.83,225.03,155.91,244.61,141.93,245.38" style="stroke:#181818;stroke-width:1.0;"/></g><!--reverse link Game to Entity--><g id="link_Game_Entity"><path codeLine="7" d="M195,52.32 C195,68.07 195,87.03 195,99.95 " fill="none" id="Game-backto-Entity" style="stroke:#181818;stroke-width:1.0;"/><polygon fill="#181818" points="195,39.03,191,45.03,195,51.03,199,45.03,195,39.03" style="stroke:#181818;stroke-width:1.0;"/><text fill="#000000" font-family="sans-serif" font-size="13" lengthAdjust="spacing" textLength="7" x="186.8406" y="60.5433">1</text><text fill="#000000" font-family="sans-serif" font-size="13" lengthAdjust="spacing" textLength="5" x="189.1406" y="89.2384">*</text></g><!--reverse link Player to Weapon--><g id="link_Player_Weapon"><path codeLine="8" d="M65.99,327.82 C85.39,348.78 112.55,378.11 128.89,395.76 " fill="none" id="Player-backto-Weapon" style="stroke:#181818;stroke-width:1.0;"/><polygon fill="none" points="56.9,318.02,58.0442,325.1398,65.0563,326.822,63.9121,319.7022,56.9,318.02" style="stroke:#181818;stroke-width:1.0;"/><text fill="#000000" font-family="sans-serif" font-size="13" lengthAdjust="spacing" textLength="67" x="100" y="362.4951">aggregation</text></g><!--SRC=[IqmgBYbAJ2vHSCqhoIofv89G2ZOrkheAllbbYKavgIXYuQc91VbvN8amRJ0rK1gYA20diJAr25NCDIyrjvBBFJ4tLK79K4b12oYafAK4inQYGo4VReE2bK9YUdfHQdfYIIRGlepCb5I5tDJSfDIYOW00]--></g></svg>