<?xml version="1.0" encoding="UTF-8" standalone="no"?><svg xmlns="http://www.w3.org/2000/svg" xmlns:xlink="http://www.w3.org/1999/xlink" contentScriptType="application/ecmascript" contentStyleType="text/css" height="441px" preserveAspectRatio="none" style="width:232px;height:441px;background:#FFFFFF;" version="1.1" viewBox="0 0 232 441" width="232px" zoomAndPan="magnify"><defs><filter height="300%" id="f1szxrufhimpxy" width="300%" x="-1" y="-1"><feGaussianBlur result="blurOut" stdDeviation="2.0"/><feColorMatrix in="blurOut" result="blurOut2" type="matrix" values="0 0 0 0 0 0 0 0 0 0 0 0 0 0 0 0 0 0 .4 0"/><feOffset dx="4.0" dy="4.0" in="blurOut2" result="blurOut3"/><feBlend in="SourceGraphic" in2="blurOut3" mode="normal"/></filter></defs><g><!--MD5=[be996cdb8e6bf2fc7cb89c555f2cd144]
class Entity--><rect codeLine="1" fill="#FEFECE" filter="url(#f1szxrufhimpxy)" height="32" id="Entity" style="stroke:#A80036;stroke-width:1.5;" width="63" x="154" y="100"/><ellipse cx="169" cy="116" fill="#A9DCDF" rx="11" ry="11" style="stroke:#A80036;stroke-width:1.0;"/><path d="M168.8633,111.3481 L167.7095,116.4199 L170.0254,116.4199 Z M167.3691,109.1069 L170.3657,109.1069 L173.7109,121.5 L171.2622,121.5 L170.4985,118.437 L167.2197,118.437 L166.4727,121.5 L164.0239,121.5 Z " fill="#000000"/><text fill="#000000" font-family="sans-serif" font-size="12" font-style="italic" lengthAdjust="spacing" textLength="31" x="183" y="120.5352">Entity</text><!--MD5=[cbc984a6a6086109243884c87806a70e]
class Movable--><rect codeLine="4" fill="#FEFECE" filter="url(#f1szxrufhimpxy)" height="32" id="Movable" style="stroke:#A80036;stroke-width:1.5;" width="80" x="99.5" y="193"/><ellipse cx="114.5" cy="209" fill="#A9DCDF" rx="11" ry="11" style="stroke:#A80036;stroke-width:1.0;"/><path d="M114.3633,204.3481 L113.2095,209.4199 L115.5254,209.4199 Z M112.8691,202.1069 L115.8657,202.1069 L119.2109,214.5 L116.7622,214.5 L115.9985,211.437 L112.7197,211.437 L111.9727,214.5 L109.5239,214.5 Z " fill="#000000"/><text fill="#000000" font-family="sans-serif" font-size="12" font-style="italic" lengthAdjust="spacing" textLength="48" x="128.5" y="213.5352">Movable</text><!--MD5=[a3f6aaa3f93db2c29fed664e0312b4de]
class Weapon--><rect fill="#FEFECE" filter="url(#f1szxrufhimpxy)" height="32" id="Weapon" style="stroke:#A80036;stroke-width:1.5;" width="78" x="97.5" y="395"/><ellipse cx="112.5" cy="411" fill="#ADD1B2" rx="11" ry="11" style="stroke:#A80036;stroke-width:1.0;"/><path d="M114.9731,417.1431 Q114.3921,417.4419 113.7529,417.5913 Q113.1138,417.7407 112.4082,417.7407 Q109.9014,417.7407 108.5815,416.0889 Q107.2617,414.437 107.2617,411.3159 Q107.2617,408.1865 108.5815,406.5347 Q109.9014,404.8828 112.4082,404.8828 Q113.1138,404.8828 113.7612,405.0322 Q114.4087,405.1816 114.9731,405.4805 L114.9731,408.2031 Q114.3423,407.6221 113.7488,407.3523 Q113.1553,407.0825 112.5244,407.0825 Q111.1797,407.0825 110.4949,408.1492 Q109.8101,409.2158 109.8101,411.3159 Q109.8101,413.4077 110.4949,414.4744 Q111.1797,415.541 112.5244,415.541 Q113.1553,415.541 113.7488,415.2712 Q114.3423,415.0015 114.9731,414.4204 Z " fill="#000000"/><text fill="#000000" font-family="sans-serif" font-size="12" lengthAdjust="spacing" textLength="46" x="126.5" y="415.5352">Weapon</text><!--MD5=[2cb47ba637a0d19583e6199456f6ad0b]
class Player--><rect fill="#FEFECE" filter="url(#f1szxrufhimpxy)" height="32" id="Player" style="stroke:#A80036;stroke-width:1.5;" width="67" x="7" y="286"/><ellipse cx="22" cy="302" fill="#ADD1B2" rx="11" ry="11" style="stroke:#A80036;stroke-width:1.0;"/><path d="M24.4731,308.1431 Q23.8921,308.4419 23.2529,308.5913 Q22.6138,308.7407 21.9082,308.7407 Q19.4014,308.7407 18.0815,307.0889 Q16.7617,305.437 16.7617,302.3159 Q16.7617,299.1865 18.0815,297.5347 Q19.4014,295.8828 21.9082,295.8828 Q22.6138,295.8828 23.2612,296.0322 Q23.9087,296.1816 24.4731,296.4805 L24.4731,299.2031 Q23.8423,298.6221 23.2488,298.3523 Q22.6553,298.0825 22.0244,298.0825 Q20.6797,298.0825 19.9949,299.1492 Q19.3101,300.2158 19.3101,302.3159 Q19.3101,304.4077 19.9949,305.4744 Q20.6797,306.541 22.0244,306.541 Q22.6553,306.541 23.2488,306.2712 Q23.8423,306.0015 24.4731,305.4204 Z " fill="#000000"/><text fill="#000000" font-family="sans-serif" font-size="12" lengthAdjust="spacing" textLength="35" x="36" y="306.5352">Player</text><!--MD5=[80c532e980642ebbe770e7ed91e479d0]
class Enemy--><rect fill="#FEFECE" filter="url(#f1szxrufhimpxy)" height="32" id="Enemy" style="stroke:#A80036;stroke-width:1.5;" width="70" x="109.5" y="286"/><ellipse cx="124.5" cy="302" fill="#ADD1B2" rx="11" ry="11" style="stroke:#A80036;stroke-width:1.0;"/><path d="M126.9731,308.1431 Q126.3921,308.4419 125.7529,308.5913 Q125.1138,308.7407 124.4082,308.7407 Q121.9014,308.7407 120.5815,307.0889 Q119.2617,305.437 119.2617,302.3159 Q119.2617,299.1865 120.5815,297.5347 Q121.9014,295.8828 124.4082,295.8828 Q125.1138,295.8828 125.7612,296.0322 Q126.4087,296.1816 126.9731,296.4805 L126.9731,299.2031 Q126.3423,298.6221 125.7488,298.3523 Q125.1553,298.0825 124.5244,298.0825 Q123.1797,298.0825 122.4949,299.1492 Q121.8101,300.2158 121.8101,302.3159 Q121.8101,304.4077 122.4949,305.4744 Q123.1797,306.541 124.5244,306.541 Q125.1553,306.541 125.7488,306.2712 Q126.3423,306.0015 126.9731,305.4204 Z " fill="#000000"/><text fill="#000000" font-family="sans-serif" font-size="12" lengthAdjust="spacing" textLength="38" x="138.5" y="306.5352">Enemy</text><!--MD5=[b6dcce5e5ef3c84b0b048d11301373dd]
class Game--><rect fill="#FEFECE" filter="url(#f1szxrufhimpxy)" height="32" id="Game" style="stroke:#A80036;stroke-width:1.5;" width="66" x="152.5" y="7"/><ellipse cx="167.5" cy="23" fill="#ADD1B2" rx="11" ry="11" style="stroke:#A80036;stroke-width:1.0;"/><path d="M169.9731,29.1431 Q169.3921,29.4419 168.7529,29.5913 Q168.1138,29.7407 167.4082,29.7407 Q164.9014,29.7407 163.5815,28.0889 Q162.2617,26.437 162.2617,23.3159 Q162.2617,20.1865 163.5815,18.5347 Q164.9014,16.8828 167.4082,16.8828 Q168.1138,16.8828 168.7612,17.0322 Q169.4087,17.1816 169.9731,17.4805 L169.9731,20.2031 Q169.3423,19.6221 168.7488,19.3523 Q168.1553,19.0825 167.5244,19.0825 Q166.1797,19.0825 165.4949,20.1492 Q164.8101,21.2158 164.8101,23.3159 Q164.8101,25.4077 165.4949,26.4744 Q166.1797,27.541 167.5244,27.541 Q168.1553,27.541 168.7488,27.2712 Q169.3423,27.0015 169.9731,26.4204 Z " fill="#000000"/><text fill="#000000" font-family="sans-serif" font-size="12" lengthAdjust="spacing" textLength="34" x="181.5" y="27.5352">Game</text><!--MD5=[5b8eaa92dd224dc8459d82dba34df021]
reverse link Entity to Movable--><path codeLine="2" d="M168.7,150.23 C161.3,164.88 152.97,181.35 147.11,192.95 " fill="none" id="Entity-backto-Movable" style="stroke:#A80036;stroke-width:1.0;"/><polygon fill="none" points="162.63,146.72,177.9,132.03,175.13,153.03,162.63,146.72" style="stroke:#A80036;stroke-width:1.0;"/><!--MD5=[300da2fe99e4914b4992e804e9d0d3f0]
reverse link Entity to Weapon--><path codeLine="3" d="M192.15,151.75 C198.77,192.05 206.61,260.32 196.5,318 C192.66,339.88 191.2,346.12 179.5,365 C172.67,376.02 162.79,386.6 154.23,394.73 " fill="none" id="Entity-backto-Weapon" style="stroke:#A80036;stroke-width:1.0;"/><polygon fill="none" points="185.25,152.93,188.63,132.02,199.04,150.47,185.25,152.93" style="stroke:#A80036;stroke-width:1.0;"/><!--MD5=[0d3e104d7390475960bc62328d0674df]
reverse link Movable to Player--><path codeLine="5" d="M108.17,238.8 C91.14,254.45 70.78,273.17 56.87,285.95 " fill="none" id="Movable-backto-Player" style="stroke:#A80036;stroke-width:1.0;"/><polygon fill="none" points="103.69,233.41,123.15,225.03,113.16,243.72,103.69,233.41" style="stroke:#A80036;stroke-width:1.0;"/><!--MD5=[f1170e3d143e45171632921bd569d22f]
reverse link Movable to Enemy--><path codeLine="6" d="M141.44,245.24 C142.21,259.36 143.06,274.88 143.67,285.95 " fill="none" id="Movable-backto-Enemy" style="stroke:#A80036;stroke-width:1.0;"/><polygon fill="none" points="134.43,245.38,140.33,225.03,148.41,244.61,134.43,245.38" style="stroke:#A80036;stroke-width:1.0;"/><!--MD5=[2b0b617a678a2c83a9e5887370cc3260]
reverse link Game to Entity--><path codeLine="7" d="M185.5,52.32 C185.5,68.07 185.5,87.03 185.5,99.95 " fill="none" id="Game-backto-Entity" style="stroke:#A80036;stroke-width:1.0;"/><polygon fill="#A80036" points="185.5,39.03,181.5,45.03,185.5,51.03,189.5,45.03,185.5,39.03" style="stroke:#A80036;stroke-width:1.0;"/><text fill="#000000" font-family="sans-serif" font-size="13" lengthAdjust="spacing" textLength="8" x="176.175" y="59.4441">1</text><text fill="#000000" font-family="sans-serif" font-size="13" lengthAdjust="spacing" textLength="6" x="178.4313" y="89.184">*</text><!--MD5=[f3b7441d4b787aceaa79f5a5a1e544f9]
reverse link Player to Weapon--><path codeLine="8" d="M62.95,328.02 C81.47,348.67 107.17,377.31 122.77,394.7 " fill="none" id="Player-backto-Weapon" style="stroke:#A80036;stroke-width:1.0;"/><polygon fill="#FFFFFF" points="54.25,318.33,55.283,325.4667,62.2681,327.258,61.2351,320.1213,54.25,318.33" style="stroke:#A80036;stroke-width:1.0;"/><text fill="#000000" font-family="sans-serif" font-size="13" lengthAdjust="spacing" textLength="75" x="95.5" y="361.5684">aggregation</text><!--MD5=[4ac7df8de574e10ee319f34ec485ec74]
@startuml
abstract Entity
Entity <|- - Movable
Entity <|- - Weapon
abstract Movable
Movable <|- - Player
Movable <|- - Enemy
Game "1" *- - "*" Entity
Player o- - Weapon : aggregation
hide members
@enduml

PlantUML version 1.2021.8(Sat Jun 26 10:20:59 CEST 2021)
(GPL source distribution)
Java Runtime: OpenJDK Runtime Environment
JVM: OpenJDK 64-Bit Server VM
Default Encoding: UTF-8
Language: es
Country: ES
--></g></svg>