<?xml version="1.0" encoding="UTF-8" standalone="no"?><svg xmlns="http://www.w3.org/2000/svg" xmlns:xlink="http://www.w3.org/1999/xlink" contentScriptType="application/ecmascript" contentStyleType="text/css" height="439px" preserveAspectRatio="none" style="width:235px;height:439px;" version="1.1" viewBox="0 0 235 439" width="235px" zoomAndPan="magnify"><defs><filter height="300%" id="f1szxrufhimpxy" width="300%" x="-1" y="-1"><feGaussianBlur result="blurOut" stdDeviation="2.0"/><feColorMatrix in="blurOut" result="blurOut2" type="matrix" values="0 0 0 0 0 0 0 0 0 0 0 0 0 0 0 0 0 0 .4 0"/><feOffset dx="4.0" dy="4.0" in="blurOut2" result="blurOut3"/><feBlend in="SourceGraphic" in2="blurOut3" mode="normal"/></filter></defs><g><!--class Entity--><rect fill="#FEFECE" filter="url(#f1szxrufhimpxy)" height="32" id="Entity" style="stroke: #A80036; stroke-width: 1.5;" width="68" x="156" y="101"/><ellipse cx="171" cy="117" fill="#A9DCDF" rx="11" ry="11" style="stroke: #A80036; stroke-width: 1.0;"/><path d="M171.1094,112.3438 L169.9531,117.4219 L172.2813,117.4219 L171.1094,112.3438 Z M169.625,110.1094 L172.6094,110.1094 L175.9688,122.5 L173.5156,122.5 L172.75,119.4375 L169.4688,119.4375 L168.7188,122.5 L166.2813,122.5 L169.625,110.1094 Z "/><text fill="#000000" font-family="sans-serif" font-size="12" font-style="italic" lengthAdjust="spacingAndGlyphs" textLength="36" x="185" y="121.1543">Entity</text><!--class Movable--><rect fill="#FEFECE" filter="url(#f1szxrufhimpxy)" height="32" id="Movable" style="stroke: #A80036; stroke-width: 1.5;" width="83" x="101.5" y="194"/><ellipse cx="116.5" cy="210" fill="#A9DCDF" rx="11" ry="11" style="stroke: #A80036; stroke-width: 1.0;"/><path d="M116.6094,205.3438 L115.4531,210.4219 L117.7813,210.4219 L116.6094,205.3438 Z M115.125,203.1094 L118.1094,203.1094 L121.4688,215.5 L119.0156,215.5 L118.25,212.4375 L114.9688,212.4375 L114.2188,215.5 L111.7813,215.5 L115.125,203.1094 Z "/><text fill="#000000" font-family="sans-serif" font-size="12" font-style="italic" lengthAdjust="spacingAndGlyphs" textLength="51" x="130.5" y="214.1543">Movable</text><!--class Weapon--><rect fill="#FEFECE" filter="url(#f1szxrufhimpxy)" height="32" id="Weapon" style="stroke: #A80036; stroke-width: 1.5;" width="83" x="98.5" y="396"/><ellipse cx="113.5" cy="412" fill="#ADD1B2" rx="11" ry="11" style="stroke: #A80036; stroke-width: 1.0;"/><path d="M116.4688,417.6406 Q115.8906,417.9375 115.25,418.0781 Q114.6094,418.2344 113.9063,418.2344 Q111.4063,418.2344 110.0781,416.5938 Q108.7656,414.9375 108.7656,411.8125 Q108.7656,408.6875 110.0781,407.0313 Q111.4063,405.375 113.9063,405.375 Q114.6094,405.375 115.25,405.5313 Q115.9063,405.6875 116.4688,405.9844 L116.4688,408.7031 Q115.8438,408.125 115.25,407.8594 Q114.6563,407.5781 114.0313,407.5781 Q112.6875,407.5781 112,408.6563 Q111.3125,409.7188 111.3125,411.8125 Q111.3125,413.9063 112,414.9844 Q112.6875,416.0469 114.0313,416.0469 Q114.6563,416.0469 115.25,415.7813 Q115.8438,415.5 116.4688,414.9219 L116.4688,417.6406 Z "/><text fill="#000000" font-family="sans-serif" font-size="12" lengthAdjust="spacingAndGlyphs" textLength="51" x="127.5" y="416.1807">Weapon</text><!--class Player--><rect fill="#FEFECE" filter="url(#f1szxrufhimpxy)" height="32" id="Player" style="stroke: #A80036; stroke-width: 1.5;" width="70" x="6" y="287"/><ellipse cx="21" cy="303" fill="#ADD1B2" rx="11" ry="11" style="stroke: #A80036; stroke-width: 1.0;"/><path d="M23.9688,308.6406 Q23.3906,308.9375 22.75,309.0781 Q22.1094,309.2344 21.4063,309.2344 Q18.9063,309.2344 17.5781,307.5938 Q16.2656,305.9375 16.2656,302.8125 Q16.2656,299.6875 17.5781,298.0313 Q18.9063,296.375 21.4063,296.375 Q22.1094,296.375 22.75,296.5313 Q23.4063,296.6875 23.9688,296.9844 L23.9688,299.7031 Q23.3438,299.125 22.75,298.8594 Q22.1563,298.5781 21.5313,298.5781 Q20.1875,298.5781 19.5,299.6563 Q18.8125,300.7188 18.8125,302.8125 Q18.8125,304.9063 19.5,305.9844 Q20.1875,307.0469 21.5313,307.0469 Q22.1563,307.0469 22.75,306.7813 Q23.3438,306.5 23.9688,305.9219 L23.9688,308.6406 Z "/><text fill="#000000" font-family="sans-serif" font-size="12" lengthAdjust="spacingAndGlyphs" textLength="38" x="35" y="307.1807">Player</text><!--class Enemy--><rect fill="#FEFECE" filter="url(#f1szxrufhimpxy)" height="32" id="Enemy" style="stroke: #A80036; stroke-width: 1.5;" width="73" x="111.5" y="287"/><ellipse cx="126.5" cy="303" fill="#ADD1B2" rx="11" ry="11" style="stroke: #A80036; stroke-width: 1.0;"/><path d="M129.4688,308.6406 Q128.8906,308.9375 128.25,309.0781 Q127.6094,309.2344 126.9063,309.2344 Q124.4063,309.2344 123.0781,307.5938 Q121.7656,305.9375 121.7656,302.8125 Q121.7656,299.6875 123.0781,298.0313 Q124.4063,296.375 126.9063,296.375 Q127.6094,296.375 128.25,296.5313 Q128.9063,296.6875 129.4688,296.9844 L129.4688,299.7031 Q128.8438,299.125 128.25,298.8594 Q127.6563,298.5781 127.0313,298.5781 Q125.6875,298.5781 125,299.6563 Q124.3125,300.7188 124.3125,302.8125 Q124.3125,304.9063 125,305.9844 Q125.6875,307.0469 127.0313,307.0469 Q127.6563,307.0469 128.25,306.7813 Q128.8438,306.5 129.4688,305.9219 L129.4688,308.6406 Z "/><text fill="#000000" font-family="sans-serif" font-size="12" lengthAdjust="spacingAndGlyphs" textLength="41" x="140.5" y="307.1807">Enemy</text><!--class Game--><rect fill="#FEFECE" filter="url(#f1szxrufhimpxy)" height="32" id="Game" style="stroke: #A80036; stroke-width: 1.5;" width="68" x="156" y="8"/><ellipse cx="171" cy="24" fill="#ADD1B2" rx="11" ry="11" style="stroke: #A80036; stroke-width: 1.0;"/><path d="M173.9688,29.6406 Q173.3906,29.9375 172.75,30.0781 Q172.1094,30.2344 171.4063,30.2344 Q168.9063,30.2344 167.5781,28.5938 Q166.2656,26.9375 166.2656,23.8125 Q166.2656,20.6875 167.5781,19.0313 Q168.9063,17.375 171.4063,17.375 Q172.1094,17.375 172.75,17.5313 Q173.4063,17.6875 173.9688,17.9844 L173.9688,20.7031 Q173.3438,20.125 172.75,19.8594 Q172.1563,19.5781 171.5313,19.5781 Q170.1875,19.5781 169.5,20.6563 Q168.8125,21.7188 168.8125,23.8125 Q168.8125,25.9063 169.5,26.9844 Q170.1875,28.0469 171.5313,28.0469 Q172.1563,28.0469 172.75,27.7813 Q173.3438,27.5 173.9688,26.9219 L173.9688,29.6406 Z "/><text fill="#000000" font-family="sans-serif" font-size="12" lengthAdjust="spacingAndGlyphs" textLength="36" x="185" y="28.1807">Game</text><!--link Entity to Movable--><path d="M172.84,151.23 C165.27,165.88 156.76,182.35 150.77,193.95 " fill="none" id="Entity-Movable" style="stroke: #A80036; stroke-width: 1.0;"/><polygon fill="none" points="166.84,147.58,182.24,133.03,179.28,154.01,166.84,147.58" style="stroke: #A80036; stroke-width: 1.0;"/><!--link Entity to Weapon--><path d="M197.12,152.78 C204.22,193.1 212.65,261.41 202,319 C197.93,341 196.07,347.17 184,366 C176.92,377.04 166.81,387.62 158.07,395.74 " fill="none" id="Entity-Weapon" style="stroke: #A80036; stroke-width: 1.0;"/><polygon fill="none" points="190.23,153.99,193.35,133.03,203.98,151.36,190.23,153.99" style="stroke: #A80036; stroke-width: 1.0;"/><!--link Movable to Player--><path d="M110.99,239.56 C93.39,255.26 72.27,274.1 57.87,286.95 " fill="none" id="Movable-Player" style="stroke: #A80036; stroke-width: 1.0;"/><polygon fill="none" points="106.57,234.12,126.16,226.03,115.89,244.56,106.57,234.12" style="stroke: #A80036; stroke-width: 1.0;"/><!--link Movable to Enemy--><path d="M144.94,246.24 C145.71,260.36 146.56,275.88 147.17,286.95 " fill="none" id="Movable-Enemy" style="stroke: #A80036; stroke-width: 1.0;"/><polygon fill="none" points="137.93,246.38,143.83,226.03,151.91,245.61,137.93,246.38" style="stroke: #A80036; stroke-width: 1.0;"/><!--link Game to Entity--><path d="M190,53.32 C190,69.07 190,88.03 190,100.95 " fill="none" id="Game-Entity" style="stroke: #A80036; stroke-width: 1.0;"/><polygon fill="#A80036" points="190,40.03,186,46.03,190,52.03,194,46.03,190,40.03" style="stroke: #A80036; stroke-width: 1.0;"/><text fill="#000000" font-family="sans-serif" font-size="13" lengthAdjust="spacingAndGlyphs" textLength="8" x="180.675" y="60.0136">1</text><text fill="#000000" font-family="sans-serif" font-size="13" lengthAdjust="spacingAndGlyphs" textLength="7" x="181.7969" y="90.0455">*</text><!--link Player to Weapon--><path d="M64.15,329.02 C83.26,349.67 109.75,378.31 125.84,395.7 " fill="none" id="Player-Weapon" style="stroke: #A80036; stroke-width: 1.0;"/><polygon fill="#FFFFFF" points="55.18,319.33,56.3184,326.4507,63.3292,328.1385,62.1908,321.0179,55.18,319.33" style="stroke: #A80036; stroke-width: 1.0;"/><text fill="#000000" font-family="sans-serif" font-size="13" lengthAdjust="spacingAndGlyphs" textLength="77" x="98" y="362.1494">aggregation</text><!--
@startuml
abstract Entity
Entity <|- - Movable
Entity <|- - Weapon
abstract Movable
Movable <|- - Player
Movable <|- - Enemy
Game "1" *- - "*" Entity
Player o- - Weapon : aggregation
hide members
@enduml

PlantUML version 1.2019.01(Sat Feb 09 16:32:04 CET 2019)
(LGPL source distribution)
Java Runtime: OpenJDK Runtime Environment
JVM: OpenJDK 64-Bit Server VM
Java Version: 1.8.0_265-b01
Operating System: Linux
OS Version: 5.8.12-200.fc32.x86_64
Default Encoding: UTF-8
Language: es
Country: ES
--></g></svg>