<?xml version="1.0" encoding="UTF-8" standalone="no"?>
<!DOCTYPE svg PUBLIC "-//W3C//DTD SVG 1.1//EN"
 "http://www.w3.org/Graphics/SVG/1.1/DTD/svg11.dtd">
<!-- Generated by graphviz version 2.42.4 (0)
 -->
<!-- Pages: 1 -->
<svg width="915pt" height="78pt"
 viewBox="0.00 0.00 915.18 77.50" xmlns="http://www.w3.org/2000/svg" xmlns:xlink="http://www.w3.org/1999/xlink">
<g id="graph0" class="graph" transform="scale(1 1) rotate(0) translate(4 73.5)">
<!-- compilador -->
<g id="node1" class="node">
<title>compilador</title>
<ellipse fill="none" stroke="black" cx="419.39" cy="-18.5" rx="62.29" ry="18"/>
<text text-anchor="middle" x="419.39" y="-14.8" font-family="Times,serif" font-size="14.00">compilador</text>
</g>
<!-- compilador&#45;&gt;compilador -->
<g id="edge2" class="edge">
<title>compilador&#45;&gt;compilador</title>
<path fill="none" stroke="black" d="M387.62,-34.42C379.34,-44.65 389.93,-54.5 419.39,-54.5 438.73,-54.5 449.94,-50.26 453.02,-44.45"/>
<polygon fill="black" stroke="black" points="456.43,-43.61 451.17,-34.42 449.54,-44.89 456.43,-43.61"/>
<text text-anchor="middle" x="419.39" y="-58.3" font-family="Times,serif" font-size="14.00">(2) todo se transforma en código máquina</text>
</g>
<!-- processor -->
<g id="node2" class="node">
<title>processor</title>
<ellipse fill="none" stroke="black" cx="800.18" cy="-18.5" rx="62.29" ry="18"/>
<text text-anchor="middle" x="800.18" y="-14.8" font-family="Times,serif" font-size="14.00">procesador</text>
</g>
<!-- compilador&#45;&gt;processor -->
<g id="edge3" class="edge">
<title>compilador&#45;&gt;processor</title>
<path fill="none" stroke="black" d="M482.1,-18.5C549.23,-18.5 656.44,-18.5 727.32,-18.5"/>
<polygon fill="black" stroke="black" points="727.51,-22 737.51,-18.5 727.51,-15 727.51,-22"/>
<text text-anchor="middle" x="609.79" y="-22.3" font-family="Times,serif" font-size="14.00">(3) todo se envía al procesador</text>
</g>
<!-- processor&#45;&gt;processor -->
<g id="edge4" class="edge">
<title>processor&#45;&gt;processor</title>
<path fill="none" stroke="black" d="M767.7,-34.04C758.55,-44.41 769.38,-54.5 800.18,-54.5 820.88,-54.5 832.56,-49.94 835.22,-43.81"/>
<polygon fill="black" stroke="black" points="838.58,-42.83 832.67,-34.04 831.81,-44.6 838.58,-42.83"/>
<text text-anchor="middle" x="800.18" y="-58.3" font-family="Times,serif" font-size="14.00">(4) el procesador ejecuta todo</text>
</g>
<!-- program -->
<g id="node3" class="node">
<title>program</title>
<polygon fill="none" stroke="black" points="0,-0.5 0,-36.5 110,-36.5 110,-0.5 0,-0.5"/>
<text text-anchor="middle" x="13" y="-14.8" font-family="Times,serif" font-size="14.00">A</text>
<polyline fill="none" stroke="black" points="26,-0.5 26,-36.5 "/>
<text text-anchor="middle" x="39.5" y="-14.8" font-family="Times,serif" font-size="14.00">B</text>
<polyline fill="none" stroke="black" points="53,-0.5 53,-36.5 "/>
<text text-anchor="middle" x="66.5" y="-14.8" font-family="Times,serif" font-size="14.00">C</text>
<polyline fill="none" stroke="black" points="80,-0.5 80,-36.5 "/>
<text text-anchor="middle" x="95" y="-14.8" font-family="Times,serif" font-size="14.00">...</text>
</g>
<!-- program&#45;&gt;compilador -->
<g id="edge1" class="edge">
<title>program&#45;&gt;compilador</title>
<path fill="none" stroke="black" d="M110.25,-18.5C173.21,-18.5 277.24,-18.5 346.78,-18.5"/>
<polygon fill="black" stroke="black" points="346.78,-22 356.78,-18.5 346.78,-15 346.78,-22"/>
<text text-anchor="middle" x="233.5" y="-22.3" font-family="Times,serif" font-size="14.00">(1) todo el programa se envía</text>
</g>
</g>
</svg>
