<?xml version="1.0" encoding="UTF-8" standalone="no"?>
<!DOCTYPE svg PUBLIC "-//W3C//DTD SVG 1.1//EN"
 "http://www.w3.org/Graphics/SVG/1.1/DTD/svg11.dtd">
<!-- Generated by graphviz version 7.0.6 (20230106.0513)
 -->
<!-- Pages: 1 -->
<svg width="550pt" height="44pt"
 viewBox="0.00 0.00 550.38 44.00" xmlns="http://www.w3.org/2000/svg" xmlns:xlink="http://www.w3.org/1999/xlink">
<g id="graph0" class="graph" transform="scale(1 1) rotate(0) translate(4 40)">
<!-- processor -->
<g id="node1" class="node">
<title>processor</title>
<polygon fill="none" stroke="black" points="542.38,-36 462.38,-36 462.38,0 542.38,0 542.38,-36"/>
<text text-anchor="middle" x="502.38" y="-14.3" font-family="Times New Roman,serif" font-size="14.00">procesador</text>
</g>
<!-- compile -->
<g id="node2" class="node">
<title>compile</title>
<ellipse fill="none" stroke="black" cx="294.63" cy="-18" rx="61.99" ry="18"/>
<text text-anchor="middle" x="294.63" y="-14.3" font-family="Times New Roman,serif" font-size="14.00">código objeto</text>
</g>
<!-- compile&#45;&gt;processor -->
<g id="edge2" class="edge">
<title>compile&#45;&gt;processor</title>
<path fill="none" stroke="black" d="M357.09,-18C386.95,-18 422.41,-18 450.71,-18"/>
<polygon fill="black" stroke="black" points="450.45,-21.5 460.45,-18 450.45,-14.5 450.45,-21.5"/>
<text text-anchor="middle" x="409.38" y="-21.8" font-family="Times New Roman,serif" font-size="14.00">ejecutado en</text>
</g>
<!-- source -->
<g id="node3" class="node">
<title>source</title>
<ellipse fill="none" stroke="black" cx="60.44" cy="-18" rx="60.39" ry="18"/>
<text text-anchor="middle" x="60.44" y="-14.3" font-family="Times New Roman,serif" font-size="14.00">código fuente</text>
</g>
<!-- source&#45;&gt;compile -->
<g id="edge1" class="edge">
<title>source&#45;&gt;compile</title>
<path fill="none" stroke="black" d="M121.24,-18C151.77,-18 189.15,-18 221.29,-18"/>
<polygon fill="black" stroke="black" points="220.91,-21.5 230.91,-18 220.91,-14.5 220.91,-21.5"/>
<text text-anchor="middle" x="176.89" y="-21.8" font-family="Times New Roman,serif" font-size="14.00">compilado en</text>
</g>
</g>
</svg>
