<?xml version="1.0" encoding="UTF-8" standalone="no"?>
<!DOCTYPE svg PUBLIC "-//W3C//DTD SVG 1.1//EN"
 "http://www.w3.org/Graphics/SVG/1.1/DTD/svg11.dtd">
<!-- Generated by graphviz version 2.44.1 (20200629.0846)
 -->
<!-- Pages: 1 -->
<svg width="751pt" height="78pt"
 viewBox="0.00 0.00 750.59 77.50" xmlns="http://www.w3.org/2000/svg" xmlns:xlink="http://www.w3.org/1999/xlink">
<g id="graph0" class="graph" transform="scale(1 1) rotate(0) translate(4 73.5)">
<!-- compilador -->
<g id="node1" class="node">
<title>compilador</title>
<ellipse fill="none" stroke="black" cx="355.35" cy="-18.5" rx="51.19" ry="18"/>
<text text-anchor="middle" x="355.35" y="-14.8" font-family="Times,serif" font-size="14.00">compilador</text>
</g>
<!-- compilador&#45;&gt;compilador -->
<g id="edge2" class="edge">
<title>compilador&#45;&gt;compilador</title>
<path fill="none" stroke="black" d="M329.45,-34.42C322.69,-44.65 331.32,-54.5 355.35,-54.5 371.11,-54.5 380.25,-50.26 382.76,-44.45"/>
<polygon fill="black" stroke="black" points="386.2,-43.78 381.25,-34.42 379.28,-44.83 386.2,-43.78"/>
<text text-anchor="middle" x="355.35" y="-58.3" font-family="Times,serif" font-size="14.00">(2) todo se transforma en código máquina</text>
</g>
<!-- processor -->
<g id="node2" class="node">
<title>processor</title>
<ellipse fill="none" stroke="black" cx="661.09" cy="-18.5" rx="49.29" ry="18"/>
<text text-anchor="middle" x="661.09" y="-14.8" font-family="Times,serif" font-size="14.00">procesador</text>
</g>
<!-- compilador&#45;&gt;processor -->
<g id="edge3" class="edge">
<title>compilador&#45;&gt;processor</title>
<path fill="none" stroke="black" d="M406.84,-18.5C460.36,-18.5 544.79,-18.5 601.27,-18.5"/>
<polygon fill="black" stroke="black" points="601.48,-22 611.48,-18.5 601.48,-15 601.48,-22"/>
<text text-anchor="middle" x="509.19" y="-22.3" font-family="Times,serif" font-size="14.00">(3) todo se envía al procesador</text>
</g>
<!-- processor&#45;&gt;processor -->
<g id="edge4" class="edge">
<title>processor&#45;&gt;processor</title>
<path fill="none" stroke="black" d="M635.44,-34.04C628.22,-44.41 636.77,-54.5 661.09,-54.5 677.04,-54.5 686.21,-50.15 688.59,-44.24"/>
<polygon fill="black" stroke="black" points="691.97,-43.25 686.73,-34.04 685.08,-44.51 691.97,-43.25"/>
<text text-anchor="middle" x="661.09" y="-58.3" font-family="Times,serif" font-size="14.00">(4) el procesador ejecuta todo</text>
</g>
<!-- program -->
<g id="node3" class="node">
<title>program</title>
<polygon fill="none" stroke="black" points="0,-0.5 0,-36.5 106,-36.5 106,-0.5 0,-0.5"/>
<text text-anchor="middle" x="13" y="-14.8" font-family="Times,serif" font-size="14.00">A</text>
<polyline fill="none" stroke="black" points="26,-0.5 26,-36.5 "/>
<text text-anchor="middle" x="39" y="-14.8" font-family="Times,serif" font-size="14.00">B</text>
<polyline fill="none" stroke="black" points="52,-0.5 52,-36.5 "/>
<text text-anchor="middle" x="65" y="-14.8" font-family="Times,serif" font-size="14.00">C</text>
<polyline fill="none" stroke="black" points="78,-0.5 78,-36.5 "/>
<text text-anchor="middle" x="92" y="-14.8" font-family="Times,serif" font-size="14.00">...</text>
</g>
<!-- program&#45;&gt;compilador -->
<g id="edge1" class="edge">
<title>program&#45;&gt;compilador</title>
<path fill="none" stroke="black" d="M106.32,-18.5C158.42,-18.5 238.36,-18.5 293.33,-18.5"/>
<polygon fill="black" stroke="black" points="293.63,-22 303.63,-18.5 293.63,-15 293.63,-22"/>
<text text-anchor="middle" x="205" y="-22.3" font-family="Times,serif" font-size="14.00">(1) todo el programa se envía</text>
</g>
</g>
</svg>
