<?xml version="1.0" encoding="UTF-8" standalone="no"?>
<!DOCTYPE svg PUBLIC "-//W3C//DTD SVG 1.1//EN"
 "http://www.w3.org/Graphics/SVG/1.1/DTD/svg11.dtd">
<!-- Generated by graphviz version 4.0.0 (20220529.0937)
 -->
<!-- Pages: 1 -->
<svg width="536pt" height="116pt"
 viewBox="0.00 0.00 536.28 116.00" xmlns="http://www.w3.org/2000/svg" xmlns:xlink="http://www.w3.org/1999/xlink">
<g id="graph0" class="graph" transform="scale(1 1) rotate(0) translate(4 112)">
<!-- processor -->
<g id="node1" class="node">
<title>processor</title>
<polygon fill="none" stroke="black" points="517.78,-36 437.78,-36 437.78,0 517.78,0 517.78,-36"/>
<text text-anchor="middle" x="477.78" y="-14.3" font-family="Times New Roman,serif" font-size="14.00">procesador</text>
</g>
<!-- vm -->
<g id="node2" class="node">
<title>vm</title>
<polygon fill="none" stroke="black" points="528.28,-108 427.28,-108 427.28,-72 528.28,-72 528.28,-108"/>
<text text-anchor="middle" x="477.78" y="-86.3" font-family="Times New Roman,serif" font-size="14.00">máquina virtual</text>
</g>
<!-- vm&#45;&gt;processor -->
<g id="edge3" class="edge">
<title>vm&#45;&gt;processor</title>
<path fill="none" stroke="black" d="M477.78,-71.59C477.78,-63.94 477.78,-54.89 477.78,-46.43"/>
<polygon fill="black" stroke="black" points="481.28,-46.17 477.78,-36.17 474.28,-46.17 481.28,-46.17"/>
<text text-anchor="middle" x="467.28" y="-50.3" font-family="Times New Roman,serif" font-size="14.00">ejecuta programa en</text>
</g>
<!-- compile -->
<g id="node3" class="node">
<title>compile</title>
<ellipse fill="none" stroke="black" cx="277.09" cy="-90" rx="44.39" ry="18"/>
<text text-anchor="middle" x="277.09" y="-86.3" font-family="Times New Roman,serif" font-size="14.00">bytecode</text>
</g>
<!-- compile&#45;&gt;vm -->
<g id="edge2" class="edge">
<title>compile&#45;&gt;vm</title>
<path fill="none" stroke="black" d="M321.69,-90C349.61,-90 386.21,-90 416.84,-90"/>
<polygon fill="black" stroke="black" points="416.98,-93.5 426.98,-90 416.98,-86.5 416.98,-93.5"/>
<text text-anchor="middle" x="374.28" y="-93.8" font-family="Times New Roman,serif" font-size="14.00">ejecutado en</text>
</g>
<!-- source -->
<g id="node4" class="node">
<title>source</title>
<ellipse fill="none" stroke="black" cx="60.44" cy="-90" rx="60.39" ry="18"/>
<text text-anchor="middle" x="60.44" y="-86.3" font-family="Times New Roman,serif" font-size="14.00">código fuente</text>
</g>
<!-- source&#45;&gt;compile -->
<g id="edge1" class="edge">
<title>source&#45;&gt;compile</title>
<path fill="none" stroke="black" d="M120.95,-90C152.83,-90 191.78,-90 222.68,-90"/>
<polygon fill="black" stroke="black" points="222.83,-93.5 232.83,-90 222.83,-86.5 222.83,-93.5"/>
<text text-anchor="middle" x="176.89" y="-93.8" font-family="Times New Roman,serif" font-size="14.00">compilado en</text>
</g>
</g>
</svg>
