<?xml version="1.0" encoding="UTF-8" standalone="no"?>
<!DOCTYPE svg PUBLIC "-//W3C//DTD SVG 1.1//EN"
 "http://www.w3.org/Graphics/SVG/1.1/DTD/svg11.dtd">
<!-- Generated by graphviz version 4.0.0 (20220529.0937)
 -->
<!-- Pages: 1 -->
<svg width="768pt" height="78pt"
 viewBox="0.00 0.00 768.49 77.50" xmlns="http://www.w3.org/2000/svg" xmlns:xlink="http://www.w3.org/1999/xlink">
<g id="graph0" class="graph" transform="scale(1 1) rotate(0) translate(4 73.5)">
<!-- compilador -->
<g id="node1" class="node">
<title>compilador</title>
<ellipse fill="none" stroke="black" cx="360" cy="-18.5" rx="51.99" ry="18"/>
<text text-anchor="middle" x="360" y="-14.8" font-family="Times New Roman,serif" font-size="14.00">compilador</text>
</g>
<!-- compilador&#45;&gt;compilador -->
<g id="edge2" class="edge">
<title>compilador&#45;&gt;compilador</title>
<path fill="none" stroke="black" d="M333.75,-34.42C326.9,-44.65 335.65,-54.5 360,-54.5 375.97,-54.5 385.23,-50.26 387.77,-44.45"/>
<polygon fill="black" stroke="black" points="391.21,-43.77 386.24,-34.42 384.29,-44.83 391.21,-43.77"/>
<text text-anchor="middle" x="360" y="-58.3" font-family="Times New Roman,serif" font-size="14.00">(2) todo se transforma en código máquina</text>
</g>
<!-- processor -->
<g id="node2" class="node">
<title>processor</title>
<ellipse fill="none" stroke="black" cx="675.99" cy="-18.5" rx="51.99" ry="18"/>
<text text-anchor="middle" x="675.99" y="-14.8" font-family="Times New Roman,serif" font-size="14.00">procesador</text>
</g>
<!-- compilador&#45;&gt;processor -->
<g id="edge3" class="edge">
<title>compilador&#45;&gt;processor</title>
<path fill="none" stroke="black" d="M412.14,-18.5C467.22,-18.5 554.84,-18.5 613.6,-18.5"/>
<polygon fill="black" stroke="black" points="613.86,-22 623.86,-18.5 613.86,-15 613.86,-22"/>
<text text-anchor="middle" x="517.99" y="-22.3" font-family="Times New Roman,serif" font-size="14.00">(3) todo se envía al procesador</text>
</g>
<!-- processor&#45;&gt;processor -->
<g id="edge4" class="edge">
<title>processor&#45;&gt;processor</title>
<path fill="none" stroke="black" d="M649.31,-34.04C641.81,-44.41 650.7,-54.5 675.99,-54.5 692.58,-54.5 702.12,-50.15 704.59,-44.24"/>
<polygon fill="black" stroke="black" points="707.96,-43.22 702.66,-34.04 701.08,-44.52 707.96,-43.22"/>
<text text-anchor="middle" x="675.99" y="-58.3" font-family="Times New Roman,serif" font-size="14.00">(4) el procesador ejecuta todo</text>
</g>
<!-- program -->
<g id="node3" class="node">
<title>program</title>
<polygon fill="none" stroke="black" points="0,-0.5 0,-36.5 106,-36.5 106,-0.5 0,-0.5"/>
<text text-anchor="middle" x="13" y="-14.8" font-family="Times New Roman,serif" font-size="14.00">A</text>
<polyline fill="none" stroke="black" points="26,-0.5 26,-36.5 "/>
<text text-anchor="middle" x="39" y="-14.8" font-family="Times New Roman,serif" font-size="14.00">B</text>
<polyline fill="none" stroke="black" points="52,-0.5 52,-36.5 "/>
<text text-anchor="middle" x="65" y="-14.8" font-family="Times New Roman,serif" font-size="14.00">C</text>
<polyline fill="none" stroke="black" points="78,-0.5 78,-36.5 "/>
<text text-anchor="middle" x="92" y="-14.8" font-family="Times New Roman,serif" font-size="14.00">...</text>
</g>
<!-- program&#45;&gt;compilador -->
<g id="edge1" class="edge">
<title>program&#45;&gt;compilador</title>
<path fill="none" stroke="black" d="M106.08,-18.5C159.18,-18.5 241.51,-18.5 297.71,-18.5"/>
<polygon fill="black" stroke="black" points="297.89,-22 307.89,-18.5 297.89,-15 297.89,-22"/>
<text text-anchor="middle" x="207" y="-22.3" font-family="Times New Roman,serif" font-size="14.00">(1) todo el programa se envía</text>
</g>
</g>
</svg>
