<?xml version="1.0" encoding="UTF-8" standalone="no"?>
<!DOCTYPE svg PUBLIC "-//W3C//DTD SVG 1.1//EN"
 "http://www.w3.org/Graphics/SVG/1.1/DTD/svg11.dtd">
<!-- Generated by graphviz version 7.0.6 (20230106.0513)
 -->
<!-- Pages: 1 -->
<svg width="768pt" height="78pt"
 viewBox="0.00 0.00 768.49 77.50" xmlns="http://www.w3.org/2000/svg" xmlns:xlink="http://www.w3.org/1999/xlink">
<g id="graph0" class="graph" transform="scale(1 1) rotate(0) translate(4 73.5)">
<!-- compilador -->
<g id="node1" class="node">
<title>compilador</title>
<ellipse fill="none" stroke="black" cx="360" cy="-18.5" rx="51.99" ry="18"/>
<text text-anchor="middle" x="360" y="-14.8" font-family="Times New Roman,serif" font-size="14.00">compilador</text>
</g>
<!-- compilador&#45;&gt;compilador -->
<g id="edge2" class="edge">
<title>compilador&#45;&gt;compilador</title>
<path fill="none" stroke="black" d="M333.58,-34.42C326.69,-44.65 335.49,-54.5 360,-54.5 374.93,-54.5 384.03,-50.84 387.3,-45.67"/>
<polygon fill="black" stroke="black" points="390.81,-45.62 386.53,-35.92 383.83,-46.17 390.81,-45.62"/>
<text text-anchor="middle" x="360" y="-58.3" font-family="Times New Roman,serif" font-size="14.00">(2) todo se transforma en código máquina</text>
</g>
<!-- processor -->
<g id="node2" class="node">
<title>processor</title>
<ellipse fill="none" stroke="black" cx="675.99" cy="-18.5" rx="51.99" ry="18"/>
<text text-anchor="middle" x="675.99" y="-14.8" font-family="Times New Roman,serif" font-size="14.00">procesador</text>
</g>
<!-- compilador&#45;&gt;processor -->
<g id="edge3" class="edge">
<title>compilador&#45;&gt;processor</title>
<path fill="none" stroke="black" d="M412.14,-18.5C466.8,-18.5 553.5,-18.5 612.24,-18.5"/>
<polygon fill="black" stroke="black" points="612.09,-22 622.09,-18.5 612.09,-15 612.09,-22"/>
<text text-anchor="middle" x="517.99" y="-22.3" font-family="Times New Roman,serif" font-size="14.00">(3) todo se envía al procesador</text>
</g>
<!-- processor&#45;&gt;processor -->
<g id="edge4" class="edge">
<title>processor&#45;&gt;processor</title>
<path fill="none" stroke="black" d="M648.97,-34.04C641.37,-44.41 650.37,-54.5 675.99,-54.5 691.59,-54.5 701.03,-50.75 704.31,-45.48"/>
<polygon fill="black" stroke="black" points="707.78,-45.08 703.17,-35.55 700.83,-45.88 707.78,-45.08"/>
<text text-anchor="middle" x="675.99" y="-58.3" font-family="Times New Roman,serif" font-size="14.00">(4) el procesador ejecuta todo</text>
</g>
<!-- program -->
<g id="node3" class="node">
<title>program</title>
<polygon fill="none" stroke="black" points="0,-0.5 0,-36.5 106,-36.5 106,-0.5 0,-0.5"/>
<text text-anchor="middle" x="13" y="-14.8" font-family="Times New Roman,serif" font-size="14.00">A</text>
<polyline fill="none" stroke="black" points="26,-0.5 26,-36.5"/>
<text text-anchor="middle" x="39" y="-14.8" font-family="Times New Roman,serif" font-size="14.00">B</text>
<polyline fill="none" stroke="black" points="52,-0.5 52,-36.5"/>
<text text-anchor="middle" x="65" y="-14.8" font-family="Times New Roman,serif" font-size="14.00">C</text>
<polyline fill="none" stroke="black" points="78,-0.5 78,-36.5"/>
<text text-anchor="middle" x="92" y="-14.8" font-family="Times New Roman,serif" font-size="14.00">...</text>
</g>
<!-- program&#45;&gt;compilador -->
<g id="edge1" class="edge">
<title>program&#45;&gt;compilador</title>
<path fill="none" stroke="black" d="M105.74,-18.5C158.37,-18.5 239.98,-18.5 296.26,-18.5"/>
<polygon fill="black" stroke="black" points="296,-22 306,-18.5 296,-15 296,-22"/>
<text text-anchor="middle" x="207" y="-22.3" font-family="Times New Roman,serif" font-size="14.00">(1) todo el programa se envía</text>
</g>
</g>
</svg>
