<?xml version="1.0" encoding="UTF-8" standalone="no"?>
<!DOCTYPE svg PUBLIC "-//W3C//DTD SVG 1.1//EN"
 "http://www.w3.org/Graphics/SVG/1.1/DTD/svg11.dtd">
<!-- Generated by graphviz version 2.47.3 (20210619.1520)
 -->
<!-- Pages: 1 -->
<svg width="762pt" height="78pt"
 viewBox="0.00 0.00 762.19 77.50" xmlns="http://www.w3.org/2000/svg" xmlns:xlink="http://www.w3.org/1999/xlink">
<g id="graph0" class="graph" transform="scale(1 1) rotate(0) translate(4 73.5)">
<!-- compilador -->
<g id="node1" class="node">
<title>compilador</title>
<ellipse fill="none" stroke="black" cx="359" cy="-18.5" rx="51.99" ry="18"/>
<text text-anchor="middle" x="359" y="-14.8" font-family="Times,serif" font-size="14.00">compilador</text>
</g>
<!-- compilador&#45;&gt;compilador -->
<g id="edge2" class="edge">
<title>compilador&#45;&gt;compilador</title>
<path fill="none" stroke="black" d="M332.75,-34.42C325.9,-44.65 334.65,-54.5 359,-54.5 374.97,-54.5 384.23,-50.26 386.77,-44.45"/>
<polygon fill="black" stroke="black" points="390.21,-43.77 385.24,-34.42 383.29,-44.83 390.21,-43.77"/>
<text text-anchor="middle" x="359" y="-58.3" font-family="Times,serif" font-size="14.00">(2) todo se transforma en código máquina</text>
</g>
<!-- processor -->
<g id="node2" class="node">
<title>processor</title>
<ellipse fill="none" stroke="black" cx="670.69" cy="-18.5" rx="50.89" ry="18"/>
<text text-anchor="middle" x="670.69" y="-14.8" font-family="Times,serif" font-size="14.00">procesador</text>
</g>
<!-- compilador&#45;&gt;processor -->
<g id="edge3" class="edge">
<title>compilador&#45;&gt;processor</title>
<path fill="none" stroke="black" d="M411.13,-18.5C465.67,-18.5 551.97,-18.5 609.68,-18.5"/>
<polygon fill="black" stroke="black" points="609.75,-22 619.75,-18.5 609.75,-15 609.75,-22"/>
<text text-anchor="middle" x="515.49" y="-22.3" font-family="Times,serif" font-size="14.00">(3) todo se envía al procesador</text>
</g>
<!-- processor&#45;&gt;processor -->
<g id="edge4" class="edge">
<title>processor&#45;&gt;processor</title>
<path fill="none" stroke="black" d="M644.36,-34.04C636.94,-44.41 645.72,-54.5 670.69,-54.5 687.07,-54.5 696.48,-50.15 698.92,-44.24"/>
<polygon fill="black" stroke="black" points="702.29,-43.23 697.02,-34.04 695.41,-44.51 702.29,-43.23"/>
<text text-anchor="middle" x="670.69" y="-58.3" font-family="Times,serif" font-size="14.00">(4) el procesador ejecuta todo</text>
</g>
<!-- program -->
<g id="node3" class="node">
<title>program</title>
<polygon fill="none" stroke="black" points="0,-0.5 0,-36.5 106,-36.5 106,-0.5 0,-0.5"/>
<text text-anchor="middle" x="13.5" y="-14.8" font-family="Times,serif" font-size="14.00">A</text>
<polyline fill="none" stroke="black" points="27,-0.5 27,-36.5 "/>
<text text-anchor="middle" x="40" y="-14.8" font-family="Times,serif" font-size="14.00">B</text>
<polyline fill="none" stroke="black" points="53,-0.5 53,-36.5 "/>
<text text-anchor="middle" x="66" y="-14.8" font-family="Times,serif" font-size="14.00">C</text>
<polyline fill="none" stroke="black" points="79,-0.5 79,-36.5 "/>
<text text-anchor="middle" x="92.5" y="-14.8" font-family="Times,serif" font-size="14.00">...</text>
</g>
<!-- program&#45;&gt;compilador -->
<g id="edge1" class="edge">
<title>program&#45;&gt;compilador</title>
<path fill="none" stroke="black" d="M106.26,-18.5C159.16,-18.5 240.91,-18.5 296.8,-18.5"/>
<polygon fill="black" stroke="black" points="296.92,-22 306.92,-18.5 296.92,-15 296.92,-22"/>
<text text-anchor="middle" x="206.5" y="-22.3" font-family="Times,serif" font-size="14.00">(1) todo el programa se envía</text>
</g>
</g>
</svg>
