<?xml version="1.0" encoding="UTF-8" standalone="no"?>
<!DOCTYPE svg PUBLIC "-//W3C//DTD SVG 1.1//EN"
 "http://www.w3.org/Graphics/SVG/1.1/DTD/svg11.dtd">
<!-- Generated by graphviz version 7.0.6 (20230106.0513)
 -->
<!-- Pages: 1 -->
<svg width="630pt" height="142pt"
 viewBox="0.00 0.00 630.38 141.65" xmlns="http://www.w3.org/2000/svg" xmlns:xlink="http://www.w3.org/1999/xlink">
<g id="graph0" class="graph" transform="scale(1 1) rotate(0) translate(4 137.65)">
<!-- interpreter -->
<g id="node1" class="node">
<title>interpreter</title>
<ellipse fill="none" stroke="black" cx="276.2" cy="-61.65" rx="44.39" ry="18"/>
<text text-anchor="middle" x="276.2" y="-57.95" font-family="Times New Roman,serif" font-size="14.00">intérprete</text>
</g>
<!-- interpreter&#45;&gt;interpreter -->
<g id="edge3" class="edge">
<title>interpreter&#45;&gt;interpreter</title>
<path fill="none" stroke="black" d="M257.35,-78.32C253.17,-88.28 259.45,-97.65 276.2,-97.65 286.14,-97.65 292.4,-94.35 294.96,-89.58"/>
<polygon fill="black" stroke="black" points="298.46,-89.86 295.03,-79.83 291.46,-89.81 298.46,-89.86"/>
<text text-anchor="middle" x="276.2" y="-101.45" font-family="Times New Roman,serif" font-size="14.00">(2) A se transforma en M</text>
</g>
<!-- processor -->
<g id="node2" class="node">
<title>processor</title>
<ellipse fill="none" stroke="black" cx="570.39" cy="-61.65" rx="51.99" ry="18"/>
<text text-anchor="middle" x="570.39" y="-57.95" font-family="Times New Roman,serif" font-size="14.00">procesador</text>
</g>
<!-- interpreter&#45;&gt;processor -->
<g id="edge4" class="edge">
<title>interpreter&#45;&gt;processor</title>
<path fill="none" stroke="black" d="M320.94,-61.65C370.24,-61.65 450.79,-61.65 506.75,-61.65"/>
<polygon fill="black" stroke="black" points="506.44,-65.15 516.44,-61.65 506.44,-58.15 506.44,-65.15"/>
<text text-anchor="middle" x="419.39" y="-65.45" font-family="Times New Roman,serif" font-size="14.00">(3) M se envía al procesador</text>
</g>
<!-- program -->
<g id="node3" class="node">
<title>program</title>
<polygon fill="none" stroke="black" points="0,-43.65 0,-79.65 106,-79.65 106,-43.65 0,-43.65"/>
<text text-anchor="middle" x="13" y="-57.95" font-family="Times New Roman,serif" font-size="14.00">A</text>
<polyline fill="none" stroke="black" points="26,-43.65 26,-79.65"/>
<text text-anchor="middle" x="39" y="-57.95" font-family="Times New Roman,serif" font-size="14.00">B</text>
<polyline fill="none" stroke="black" points="52,-43.65 52,-79.65"/>
<text text-anchor="middle" x="65" y="-57.95" font-family="Times New Roman,serif" font-size="14.00">C</text>
<polyline fill="none" stroke="black" points="78,-43.65 78,-79.65"/>
<text text-anchor="middle" x="92" y="-57.95" font-family="Times New Roman,serif" font-size="14.00">...</text>
</g>
<!-- program&#45;&gt;interpreter -->
<g id="edge1" class="edge">
<title>program:f1&#45;&gt;interpreter</title>
<path fill="none" stroke="black" d="M13,-80.65C13,-169.18 163.51,-112.65 236.46,-80.06"/>
<polygon fill="black" stroke="black" points="237.6,-83.39 245.26,-76.07 234.71,-77.01 237.6,-83.39"/>
<text text-anchor="middle" x="169" y="-122.45" font-family="Times New Roman,serif" font-size="14.00">(1) A se envía</text>
</g>
<!-- program&#45;&gt;interpreter -->
<g id="edge2" class="edge">
<title>program:f2&#45;&gt;interpreter</title>
<path fill="none" stroke="black" d="M39,-42.65C39,35.64 169.54,-12.98 236.53,-43.08"/>
<polygon fill="black" stroke="black" points="234.78,-46.13 245.33,-47.1 237.69,-39.76 234.78,-46.13"/>
<text text-anchor="middle" x="169" y="-36.45" font-family="Times New Roman,serif" font-size="14.00">(4) B se envía...</text>
</g>
</g>
</svg>
