<?xml version="1.0" encoding="UTF-8" standalone="no"?>
<!DOCTYPE svg PUBLIC "-//W3C//DTD SVG 1.1//EN"
 "http://www.w3.org/Graphics/SVG/1.1/DTD/svg11.dtd">
<!-- Generated by graphviz version 2.44.1 (20200629.0846)
 -->
<!-- Pages: 1 -->
<svg width="618pt" height="141pt"
 viewBox="0.00 0.00 618.18 141.25" xmlns="http://www.w3.org/2000/svg" xmlns:xlink="http://www.w3.org/1999/xlink">
<g id="graph0" class="graph" transform="scale(1 1) rotate(0) translate(4 137.25)">
<!-- interpreter -->
<g id="node1" class="node">
<title>interpreter</title>
<ellipse fill="none" stroke="black" cx="274.2" cy="-61.25" rx="44.39" ry="18"/>
<text text-anchor="middle" x="274.2" y="-57.55" font-family="Times,serif" font-size="14.00">intérprete</text>
</g>
<!-- interpreter&#45;&gt;interpreter -->
<g id="edge3" class="edge">
<title>interpreter&#45;&gt;interpreter</title>
<path fill="none" stroke="black" d="M255.56,-77.91C251.42,-87.87 257.63,-97.25 274.2,-97.25 284.81,-97.25 291.17,-93.4 293.28,-88.02"/>
<polygon fill="black" stroke="black" points="296.77,-87.75 292.83,-77.91 289.78,-88.06 296.77,-87.75"/>
<text text-anchor="middle" x="274.2" y="-101.05" font-family="Times,serif" font-size="14.00">(2) A se transforma en M</text>
</g>
<!-- processor -->
<g id="node2" class="node">
<title>processor</title>
<ellipse fill="none" stroke="black" cx="560.79" cy="-61.25" rx="49.29" ry="18"/>
<text text-anchor="middle" x="560.79" y="-57.55" font-family="Times,serif" font-size="14.00">procesador</text>
</g>
<!-- interpreter&#45;&gt;processor -->
<g id="edge4" class="edge">
<title>interpreter&#45;&gt;processor</title>
<path fill="none" stroke="black" d="M318.42,-61.25C367.21,-61.25 446.85,-61.25 501.21,-61.25"/>
<polygon fill="black" stroke="black" points="501.38,-64.75 511.38,-61.25 501.38,-57.75 501.38,-64.75"/>
<text text-anchor="middle" x="414.89" y="-65.05" font-family="Times,serif" font-size="14.00">(3) M se envía al procesador</text>
</g>
<!-- program -->
<g id="node3" class="node">
<title>program</title>
<polygon fill="none" stroke="black" points="0,-43.25 0,-79.25 106,-79.25 106,-43.25 0,-43.25"/>
<text text-anchor="middle" x="13" y="-57.55" font-family="Times,serif" font-size="14.00">A</text>
<polyline fill="none" stroke="black" points="26,-43.25 26,-79.25 "/>
<text text-anchor="middle" x="39" y="-57.55" font-family="Times,serif" font-size="14.00">B</text>
<polyline fill="none" stroke="black" points="52,-43.25 52,-79.25 "/>
<text text-anchor="middle" x="65" y="-57.55" font-family="Times,serif" font-size="14.00">C</text>
<polyline fill="none" stroke="black" points="78,-43.25 78,-79.25 "/>
<text text-anchor="middle" x="92" y="-57.55" font-family="Times,serif" font-size="14.00">...</text>
</g>
<!-- program&#45;&gt;interpreter -->
<g id="edge1" class="edge">
<title>program:f1&#45;&gt;interpreter</title>
<path fill="none" stroke="black" d="M13,-80.25C13,-168.46 163.59,-111.46 235.65,-79.14"/>
<polygon fill="black" stroke="black" points="237.2,-82.27 244.86,-74.95 234.3,-75.9 237.2,-82.27"/>
<text text-anchor="middle" x="168" y="-122.05" font-family="Times,serif" font-size="14.00">(1) A se envía</text>
</g>
<!-- program&#45;&gt;interpreter -->
<g id="edge2" class="edge">
<title>program:f2&#45;&gt;interpreter</title>
<path fill="none" stroke="black" d="M39,-42.25C39,35.71 169.51,-13.31 235.67,-43.17"/>
<polygon fill="black" stroke="black" points="234.4,-46.44 244.95,-47.42 237.31,-40.08 234.4,-46.44"/>
<text text-anchor="middle" x="168" y="-37.05" font-family="Times,serif" font-size="14.00">(4) B se envía...</text>
</g>
</g>
</svg>
