<?xml version="1.0" encoding="UTF-8" standalone="no"?>
<!DOCTYPE svg PUBLIC "-//W3C//DTD SVG 1.1//EN"
 "http://www.w3.org/Graphics/SVG/1.1/DTD/svg11.dtd">
<!-- Generated by graphviz version 2.47.3 (20210619.1520)
 -->
<!-- Pages: 1 -->
<svg width="627pt" height="142pt"
 viewBox="0.00 0.00 627.38 141.51" xmlns="http://www.w3.org/2000/svg" xmlns:xlink="http://www.w3.org/1999/xlink">
<g id="graph0" class="graph" transform="scale(1 1) rotate(0) translate(4 137.51)">
<!-- interpreter -->
<g id="node1" class="node">
<title>interpreter</title>
<ellipse fill="none" stroke="black" cx="276.5" cy="-61.51" rx="45.49" ry="18"/>
<text text-anchor="middle" x="276.5" y="-57.81" font-family="Times,serif" font-size="14.00">intérprete</text>
</g>
<!-- interpreter&#45;&gt;interpreter -->
<g id="edge3" class="edge">
<title>interpreter&#45;&gt;interpreter</title>
<path fill="none" stroke="black" d="M257.86,-78.17C253.72,-88.13 259.93,-97.51 276.5,-97.51 287.11,-97.51 293.47,-93.66 295.58,-88.27"/>
<polygon fill="black" stroke="black" points="299.07,-88 295.13,-78.17 292.08,-88.32 299.07,-88"/>
<text text-anchor="middle" x="276.5" y="-101.31" font-family="Times,serif" font-size="14.00">(2) A se transforma en M</text>
</g>
<!-- processor -->
<g id="node2" class="node">
<title>processor</title>
<ellipse fill="none" stroke="black" cx="568.69" cy="-61.51" rx="50.89" ry="18"/>
<text text-anchor="middle" x="568.69" y="-57.81" font-family="Times,serif" font-size="14.00">procesador</text>
</g>
<!-- interpreter&#45;&gt;processor -->
<g id="edge4" class="edge">
<title>interpreter&#45;&gt;processor</title>
<path fill="none" stroke="black" d="M322.2,-61.51C371.79,-61.51 452.06,-61.51 507.23,-61.51"/>
<polygon fill="black" stroke="black" points="507.57,-65.01 517.57,-61.51 507.57,-58.01 507.57,-65.01"/>
<text text-anchor="middle" x="419.99" y="-65.31" font-family="Times,serif" font-size="14.00">(3) M se envía al procesador</text>
</g>
<!-- program -->
<g id="node3" class="node">
<title>program</title>
<polygon fill="none" stroke="black" points="0,-43.51 0,-79.51 106,-79.51 106,-43.51 0,-43.51"/>
<text text-anchor="middle" x="13.5" y="-57.81" font-family="Times,serif" font-size="14.00">A</text>
<polyline fill="none" stroke="black" points="27,-43.51 27,-79.51 "/>
<text text-anchor="middle" x="40" y="-57.81" font-family="Times,serif" font-size="14.00">B</text>
<polyline fill="none" stroke="black" points="53,-43.51 53,-79.51 "/>
<text text-anchor="middle" x="66" y="-57.81" font-family="Times,serif" font-size="14.00">C</text>
<polyline fill="none" stroke="black" points="79,-43.51 79,-79.51 "/>
<text text-anchor="middle" x="92.5" y="-57.81" font-family="Times,serif" font-size="14.00">...</text>
</g>
<!-- program&#45;&gt;interpreter -->
<g id="edge1" class="edge">
<title>program:f1&#45;&gt;interpreter</title>
<path fill="none" stroke="black" d="M13,-80.51C13,-169.49 164.92,-112.09 237.61,-79.53"/>
<polygon fill="black" stroke="black" points="239.25,-82.63 246.9,-75.31 236.35,-76.25 239.25,-82.63"/>
<text text-anchor="middle" x="168.5" y="-122.31" font-family="Times,serif" font-size="14.00">(1) A se envía</text>
</g>
<!-- program&#45;&gt;interpreter -->
<g id="edge2" class="edge">
<title>program:f2&#45;&gt;interpreter</title>
<path fill="none" stroke="black" d="M40,-42.51C40,35.88 171.23,-13.35 237.77,-43.35"/>
<polygon fill="black" stroke="black" points="236.54,-46.64 247.09,-47.62 239.45,-40.27 236.54,-46.64"/>
<text text-anchor="middle" x="168.5" y="-36.31" font-family="Times,serif" font-size="14.00">(4) B se envía...</text>
</g>
</g>
</svg>
