<?xml version="1.0" encoding="UTF-8" standalone="no"?>
<!DOCTYPE svg PUBLIC "-//W3C//DTD SVG 1.1//EN"
 "http://www.w3.org/Graphics/SVG/1.1/DTD/svg11.dtd">
<!-- Generated by graphviz version 2.42.4 (0)
 -->
<!-- Pages: 1 -->
<svg width="745pt" height="160pt"
 viewBox="0.00 0.00 745.48 160.45" xmlns="http://www.w3.org/2000/svg" xmlns:xlink="http://www.w3.org/1999/xlink">
<g id="graph0" class="graph" transform="scale(1 1) rotate(0) translate(4 156.45)">
<!-- interpreter -->
<g id="node1" class="node">
<title>interpreter</title>
<ellipse fill="none" stroke="black" cx="315.84" cy="-69.45" rx="57.69" ry="18"/>
<text text-anchor="middle" x="315.84" y="-65.75" font-family="Times,serif" font-size="14.00">intérprete</text>
</g>
<!-- interpreter&#45;&gt;interpreter -->
<g id="edge3" class="edge">
<title>interpreter&#45;&gt;interpreter</title>
<path fill="none" stroke="black" d="M292.99,-86.11C287.92,-96.07 295.53,-105.45 315.84,-105.45 328.86,-105.45 336.66,-101.6 339.25,-96.22"/>
<polygon fill="black" stroke="black" points="342.74,-95.91 338.7,-86.11 335.75,-96.29 342.74,-95.91"/>
<text text-anchor="middle" x="315.84" y="-109.25" font-family="Times,serif" font-size="14.00">(2) A se transforma en M</text>
</g>
<!-- processor -->
<g id="node2" class="node">
<title>processor</title>
<ellipse fill="none" stroke="black" cx="675.08" cy="-69.45" rx="62.29" ry="18"/>
<text text-anchor="middle" x="675.08" y="-65.75" font-family="Times,serif" font-size="14.00">procesador</text>
</g>
<!-- interpreter&#45;&gt;processor -->
<g id="edge4" class="edge">
<title>interpreter&#45;&gt;processor</title>
<path fill="none" stroke="black" d="M373.85,-69.45C435.87,-69.45 535.14,-69.45 602.4,-69.45"/>
<polygon fill="black" stroke="black" points="602.49,-72.95 612.49,-69.45 602.49,-65.95 602.49,-72.95"/>
<text text-anchor="middle" x="493.19" y="-73.25" font-family="Times,serif" font-size="14.00">(3) M se envía al procesador</text>
</g>
<!-- program -->
<g id="node3" class="node">
<title>program</title>
<polygon fill="none" stroke="black" points="0,-51.45 0,-87.45 110,-87.45 110,-51.45 0,-51.45"/>
<text text-anchor="middle" x="13" y="-65.75" font-family="Times,serif" font-size="14.00">A</text>
<polyline fill="none" stroke="black" points="26,-51.45 26,-87.45 "/>
<text text-anchor="middle" x="39.5" y="-65.75" font-family="Times,serif" font-size="14.00">B</text>
<polyline fill="none" stroke="black" points="53,-51.45 53,-87.45 "/>
<text text-anchor="middle" x="66.5" y="-65.75" font-family="Times,serif" font-size="14.00">C</text>
<polyline fill="none" stroke="black" points="80,-51.45 80,-87.45 "/>
<text text-anchor="middle" x="95" y="-65.75" font-family="Times,serif" font-size="14.00">...</text>
</g>
<!-- program&#45;&gt;interpreter -->
<g id="edge1" class="edge">
<title>program:f1&#45;&gt;interpreter</title>
<path fill="none" stroke="black" d="M13,-88.45C13,-191.76 191.3,-125.04 273.83,-88.63"/>
<polygon fill="black" stroke="black" points="275.69,-91.63 283.4,-84.35 272.84,-85.24 275.69,-91.63"/>
<text text-anchor="middle" x="184" y="-141.25" font-family="Times,serif" font-size="14.00">(1) A se envía</text>
</g>
<!-- program&#45;&gt;interpreter -->
<g id="edge2" class="edge">
<title>program:f2&#45;&gt;interpreter</title>
<path fill="none" stroke="black" d="M39,-50.45C39,42.66 197.34,-16.22 274.09,-50.23"/>
<polygon fill="black" stroke="black" points="272.91,-53.54 283.47,-54.45 275.78,-47.16 272.91,-53.54"/>
<text text-anchor="middle" x="184" y="-37.25" font-family="Times,serif" font-size="14.00">(4) B se envía...</text>
</g>
</g>
</svg>
