<?xml version="1.0" encoding="UTF-8" standalone="no"?>
<!DOCTYPE svg PUBLIC "-//W3C//DTD SVG 1.1//EN"
 "http://www.w3.org/Graphics/SVG/1.1/DTD/svg11.dtd">
<!-- Generated by graphviz version 4.0.0 (20220529.0937)
 -->
<!-- Pages: 1 -->
<svg width="630pt" height="142pt"
 viewBox="0.00 0.00 630.38 141.64" xmlns="http://www.w3.org/2000/svg" xmlns:xlink="http://www.w3.org/1999/xlink">
<g id="graph0" class="graph" transform="scale(1 1) rotate(0) translate(4 137.64)">
<!-- interpreter -->
<g id="node1" class="node">
<title>interpreter</title>
<ellipse fill="none" stroke="black" cx="276.2" cy="-61.64" rx="44.39" ry="18"/>
<text text-anchor="middle" x="276.2" y="-57.94" font-family="Times New Roman,serif" font-size="14.00">intérprete</text>
</g>
<!-- interpreter&#45;&gt;interpreter -->
<g id="edge3" class="edge">
<title>interpreter&#45;&gt;interpreter</title>
<path fill="none" stroke="black" d="M257.56,-78.3C253.42,-88.26 259.63,-97.64 276.2,-97.64 286.81,-97.64 293.17,-93.79 295.28,-88.4"/>
<polygon fill="black" stroke="black" points="298.77,-88.13 294.83,-78.3 291.78,-88.45 298.77,-88.13"/>
<text text-anchor="middle" x="276.2" y="-101.44" font-family="Times New Roman,serif" font-size="14.00">(2) A se transforma en M</text>
</g>
<!-- processor -->
<g id="node2" class="node">
<title>processor</title>
<ellipse fill="none" stroke="black" cx="570.39" cy="-61.64" rx="51.99" ry="18"/>
<text text-anchor="middle" x="570.39" y="-57.94" font-family="Times New Roman,serif" font-size="14.00">procesador</text>
</g>
<!-- interpreter&#45;&gt;processor -->
<g id="edge4" class="edge">
<title>interpreter&#45;&gt;processor</title>
<path fill="none" stroke="black" d="M320.62,-61.64C370.31,-61.64 452.04,-61.64 508.17,-61.64"/>
<polygon fill="black" stroke="black" points="508.34,-65.14 518.34,-61.64 508.34,-58.14 508.34,-65.14"/>
<text text-anchor="middle" x="419.39" y="-65.44" font-family="Times New Roman,serif" font-size="14.00">(3) M se envía al procesador</text>
</g>
<!-- program -->
<g id="node3" class="node">
<title>program</title>
<polygon fill="none" stroke="black" points="0,-43.64 0,-79.64 106,-79.64 106,-43.64 0,-43.64"/>
<text text-anchor="middle" x="13" y="-57.94" font-family="Times New Roman,serif" font-size="14.00">A</text>
<polyline fill="none" stroke="black" points="26,-43.64 26,-79.64 "/>
<text text-anchor="middle" x="39" y="-57.94" font-family="Times New Roman,serif" font-size="14.00">B</text>
<polyline fill="none" stroke="black" points="52,-43.64 52,-79.64 "/>
<text text-anchor="middle" x="65" y="-57.94" font-family="Times New Roman,serif" font-size="14.00">C</text>
<polyline fill="none" stroke="black" points="78,-43.64 78,-79.64 "/>
<text text-anchor="middle" x="92" y="-57.94" font-family="Times New Roman,serif" font-size="14.00">...</text>
</g>
<!-- program&#45;&gt;interpreter -->
<g id="edge1" class="edge">
<title>program:f1&#45;&gt;interpreter</title>
<path fill="none" stroke="black" d="M13,-80.64C13,-169.63 165.12,-112.03 237.62,-79.52"/>
<polygon fill="black" stroke="black" points="239.23,-82.63 246.89,-75.31 236.34,-76.26 239.23,-82.63"/>
<text text-anchor="middle" x="169" y="-122.44" font-family="Times New Roman,serif" font-size="14.00">(1) A se envía</text>
</g>
<!-- program&#45;&gt;interpreter -->
<g id="edge2" class="edge">
<title>program:f2&#45;&gt;interpreter</title>
<path fill="none" stroke="black" d="M39,-42.64C39,36.18 171.28,-13.61 237.85,-43.66"/>
<polygon fill="black" stroke="black" points="236.62,-46.95 247.17,-47.93 239.54,-40.58 236.62,-46.95"/>
<text text-anchor="middle" x="169" y="-36.44" font-family="Times New Roman,serif" font-size="14.00">(4) B se envía...</text>
</g>
</g>
</svg>
