<?xml version="1.0" encoding="UTF-8" standalone="no"?>
<!DOCTYPE svg PUBLIC "-//W3C//DTD SVG 1.1//EN"
 "http://www.w3.org/Graphics/SVG/1.1/DTD/svg11.dtd">
<!-- Generated by graphviz version 2.47.3 (20210619.1520)
 -->
<!-- Pages: 1 -->
<svg width="574pt" height="116pt"
 viewBox="0.00 0.00 573.78 116.00" xmlns="http://www.w3.org/2000/svg" xmlns:xlink="http://www.w3.org/1999/xlink">
<g id="graph0" class="graph" transform="scale(1 1) rotate(0) translate(4 112)">
<!-- processor -->
<g id="node1" class="node">
<title>processor</title>
<polygon fill="none" stroke="black" points="552.28,-36 474.28,-36 474.28,0 552.28,0 552.28,-36"/>
<text text-anchor="middle" x="513.28" y="-14.3" font-family="Times,serif" font-size="14.00">procesador</text>
</g>
<!-- vm -->
<g id="node2" class="node">
<title>vm</title>
<polygon fill="none" stroke="black" points="565.78,-108 460.78,-108 460.78,-72 565.78,-72 565.78,-108"/>
<text text-anchor="middle" x="513.28" y="-86.3" font-family="Times,serif" font-size="14.00">máquina virtual</text>
</g>
<!-- vm&#45;&gt;processor -->
<g id="edge4" class="edge">
<title>vm&#45;&gt;processor</title>
<path fill="none" stroke="black" d="M513.28,-71.59C513.28,-63.94 513.28,-54.89 513.28,-46.43"/>
<polygon fill="black" stroke="black" points="516.78,-46.17 513.28,-36.17 509.78,-46.17 516.78,-46.17"/>
<text text-anchor="middle" x="502.78" y="-50.3" font-family="Times,serif" font-size="14.00">ejecuta programa en</text>
</g>
<!-- compile -->
<g id="node3" class="node">
<title>compile</title>
<ellipse fill="none" stroke="black" cx="293.33" cy="-31" rx="60.39" ry="18"/>
<text text-anchor="middle" x="293.33" y="-27.3" font-family="Times,serif" font-size="14.00">código objeto</text>
</g>
<!-- compile&#45;&gt;processor -->
<g id="edge2" class="edge">
<title>compile&#45;&gt;processor</title>
<path fill="none" stroke="black" d="M352.74,-27.52C387.44,-25.45 430.93,-22.85 463.74,-20.9"/>
<polygon fill="black" stroke="black" points="464.22,-24.37 473.99,-20.28 463.8,-17.39 464.22,-24.37"/>
<text text-anchor="middle" x="407.28" y="-30.8" font-family="Times,serif" font-size="14.00">ejecutado en</text>
</g>
<!-- source -->
<g id="node4" class="node">
<title>source</title>
<ellipse fill="none" stroke="black" cx="60.44" cy="-59" rx="60.39" ry="18"/>
<text text-anchor="middle" x="60.44" y="-55.3" font-family="Times,serif" font-size="14.00">código fuente</text>
</g>
<!-- source&#45;&gt;vm -->
<g id="edge3" class="edge">
<title>source&#45;&gt;vm</title>
<path fill="none" stroke="black" d="M115.55,-66.49C123.37,-67.43 131.33,-68.3 138.89,-69 248.33,-79.13 376.31,-85.05 450.45,-87.89"/>
<polygon fill="black" stroke="black" points="450.42,-91.39 460.55,-88.27 450.69,-84.4 450.42,-91.39"/>
<text text-anchor="middle" x="293.33" y="-87.8" font-family="Times,serif" font-size="14.00">interpretado por</text>
</g>
<!-- source&#45;&gt;compile -->
<g id="edge1" class="edge">
<title>source&#45;&gt;compile</title>
<path fill="none" stroke="black" d="M116.75,-52.29C149.9,-48.27 192.23,-43.14 227.02,-38.92"/>
<polygon fill="black" stroke="black" points="227.58,-42.38 237.08,-37.7 226.73,-35.43 227.58,-42.38"/>
<text text-anchor="middle" x="176.89" y="-53.8" font-family="Times,serif" font-size="14.00">compilado en</text>
</g>
</g>
</svg>
