<?xml version="1.0" encoding="UTF-8" standalone="no"?>
<!DOCTYPE svg PUBLIC "-//W3C//DTD SVG 1.1//EN"
 "http://www.w3.org/Graphics/SVG/1.1/DTD/svg11.dtd">
<!-- Generated by graphviz version 2.44.1 (20200629.0846)
 -->
<!-- Pages: 1 -->
<svg width="564pt" height="116pt"
 viewBox="0.00 0.00 563.58 116.00" xmlns="http://www.w3.org/2000/svg" xmlns:xlink="http://www.w3.org/1999/xlink">
<g id="graph0" class="graph" transform="scale(1 1) rotate(0) translate(4 112)">
<!-- processor -->
<g id="node1" class="node">
<title>processor</title>
<polygon fill="none" stroke="black" points="542.08,-36 466.08,-36 466.08,0 542.08,0 542.08,-36"/>
<text text-anchor="middle" x="504.08" y="-14.3" font-family="Times,serif" font-size="14.00">procesador</text>
</g>
<!-- vm -->
<g id="node2" class="node">
<title>vm</title>
<polygon fill="none" stroke="black" points="555.58,-108 452.58,-108 452.58,-72 555.58,-72 555.58,-108"/>
<text text-anchor="middle" x="504.08" y="-86.3" font-family="Times,serif" font-size="14.00">máquina virtual</text>
</g>
<!-- vm&#45;&gt;processor -->
<g id="edge4" class="edge">
<title>vm&#45;&gt;processor</title>
<path fill="none" stroke="black" d="M504.08,-71.59C504.08,-63.94 504.08,-54.89 504.08,-46.43"/>
<polygon fill="black" stroke="black" points="507.58,-46.17 504.08,-36.17 500.58,-46.17 507.58,-46.17"/>
<text text-anchor="middle" x="493.58" y="-50.3" font-family="Times,serif" font-size="14.00">ejecuta programa en</text>
</g>
<!-- compile -->
<g id="node3" class="node">
<title>compile</title>
<ellipse fill="none" stroke="black" cx="288.43" cy="-31" rx="59.29" ry="18"/>
<text text-anchor="middle" x="288.43" y="-27.3" font-family="Times,serif" font-size="14.00">código objeto</text>
</g>
<!-- compile&#45;&gt;processor -->
<g id="edge2" class="edge">
<title>compile&#45;&gt;processor</title>
<path fill="none" stroke="black" d="M346.69,-27.52C380.82,-25.44 423.62,-22.84 455.81,-20.88"/>
<polygon fill="black" stroke="black" points="456.1,-24.37 465.87,-20.26 455.67,-17.38 456.1,-24.37"/>
<text text-anchor="middle" x="400.08" y="-30.8" font-family="Times,serif" font-size="14.00">ejecutado en</text>
</g>
<!-- source -->
<g id="node4" class="node">
<title>source</title>
<ellipse fill="none" stroke="black" cx="59.14" cy="-59" rx="59.29" ry="18"/>
<text text-anchor="middle" x="59.14" y="-55.3" font-family="Times,serif" font-size="14.00">código fuente</text>
</g>
<!-- source&#45;&gt;vm -->
<g id="edge3" class="edge">
<title>source&#45;&gt;vm</title>
<path fill="none" stroke="black" d="M113.34,-66.49C121.03,-67.43 128.86,-68.3 136.29,-69 243.72,-79.12 369.35,-85.03 442.2,-87.88"/>
<polygon fill="black" stroke="black" points="442.43,-91.39 452.56,-88.28 442.7,-84.4 442.43,-91.39"/>
<text text-anchor="middle" x="288.43" y="-87.8" font-family="Times,serif" font-size="14.00">interpretado por</text>
</g>
<!-- source&#45;&gt;compile -->
<g id="edge1" class="edge">
<title>source&#45;&gt;compile</title>
<path fill="none" stroke="black" d="M114.3,-52.33C147.04,-48.3 188.96,-43.13 223.35,-38.89"/>
<polygon fill="black" stroke="black" points="223.81,-42.36 233.3,-37.67 222.95,-35.42 223.81,-42.36"/>
<text text-anchor="middle" x="173.79" y="-53.8" font-family="Times,serif" font-size="14.00">compilado en</text>
</g>
</g>
</svg>
