<?xml version="1.0" encoding="UTF-8" standalone="no"?>
<!DOCTYPE svg PUBLIC "-//W3C//DTD SVG 1.1//EN"
 "http://www.w3.org/Graphics/SVG/1.1/DTD/svg11.dtd">
<!-- Generated by graphviz version 4.0.0 (20220529.0937)
 -->
<!-- Pages: 1 -->
<svg width="336pt" height="116pt"
 viewBox="0.00 0.00 335.89 116.00" xmlns="http://www.w3.org/2000/svg" xmlns:xlink="http://www.w3.org/1999/xlink">
<g id="graph0" class="graph" transform="scale(1 1) rotate(0) translate(4 112)">
<!-- processor -->
<g id="node1" class="node">
<title>processor</title>
<polygon fill="none" stroke="black" points="327.89,-36 247.89,-36 247.89,0 327.89,0 327.89,-36"/>
<text text-anchor="middle" x="287.89" y="-14.3" font-family="Times New Roman,serif" font-size="14.00">procesador</text>
</g>
<!-- vm -->
<g id="node2" class="node">
<title>vm</title>
<polygon fill="none" stroke="black" points="321.89,-108 253.89,-108 253.89,-72 321.89,-72 321.89,-108"/>
<text text-anchor="middle" x="287.89" y="-86.3" font-family="Times New Roman,serif" font-size="14.00">intérprete</text>
</g>
<!-- vm&#45;&gt;processor -->
<g id="edge2" class="edge">
<title>vm&#45;&gt;processor</title>
<path fill="none" stroke="black" d="M287.89,-71.59C287.89,-63.94 287.89,-54.89 287.89,-46.43"/>
<polygon fill="black" stroke="black" points="291.39,-46.17 287.89,-36.17 284.39,-46.17 291.39,-46.17"/>
<text text-anchor="middle" x="277.39" y="-50.3" font-family="Times New Roman,serif" font-size="14.00">ejecuta programa en</text>
</g>
<!-- source -->
<g id="node3" class="node">
<title>source</title>
<ellipse fill="none" stroke="black" cx="60.44" cy="-90" rx="60.39" ry="18"/>
<text text-anchor="middle" x="60.44" y="-86.3" font-family="Times New Roman,serif" font-size="14.00">código fuente</text>
</g>
<!-- source&#45;&gt;vm -->
<g id="edge1" class="edge">
<title>source&#45;&gt;vm</title>
<path fill="none" stroke="black" d="M120.97,-90C159.4,-90 208.52,-90 243.31,-90"/>
<polygon fill="black" stroke="black" points="243.63,-93.5 253.63,-90 243.63,-86.5 243.63,-93.5"/>
<text text-anchor="middle" x="184.39" y="-93.8" font-family="Times New Roman,serif" font-size="14.00">interpretado por</text>
</g>
</g>
</svg>
