<?xml version="1.0" encoding="UTF-8" standalone="no"?>
<!DOCTYPE svg PUBLIC "-//W3C//DTD SVG 1.1//EN"
 "http://www.w3.org/Graphics/SVG/1.1/DTD/svg11.dtd">
<!-- Generated by graphviz version 2.42.4 (0)
 -->
<!-- Pages: 1 -->
<svg width="688pt" height="116pt"
 viewBox="0.00 0.00 688.47 116.00" xmlns="http://www.w3.org/2000/svg" xmlns:xlink="http://www.w3.org/1999/xlink">
<g id="graph0" class="graph" transform="scale(1 1) rotate(0) translate(4 112)">
<!-- processor -->
<g id="node1" class="node">
<title>processor</title>
<polygon fill="none" stroke="black" points="663.47,-36 567.47,-36 567.47,0 663.47,0 663.47,-36"/>
<text text-anchor="middle" x="615.47" y="-14.3" font-family="Times,serif" font-size="14.00">procesador</text>
</g>
<!-- vm -->
<g id="node2" class="node">
<title>vm</title>
<polygon fill="none" stroke="black" points="680.47,-108 550.47,-108 550.47,-72 680.47,-72 680.47,-108"/>
<text text-anchor="middle" x="615.47" y="-86.3" font-family="Times,serif" font-size="14.00">máquina virtual</text>
</g>
<!-- vm&#45;&gt;processor -->
<g id="edge4" class="edge">
<title>vm&#45;&gt;processor</title>
<path fill="none" stroke="black" d="M615.47,-71.59C615.47,-63.94 615.47,-54.89 615.47,-46.43"/>
<polygon fill="black" stroke="black" points="618.97,-46.17 615.47,-36.17 611.97,-46.17 618.97,-46.17"/>
<text text-anchor="middle" x="604.97" y="-50.3" font-family="Times,serif" font-size="14.00">ejecuta programa en</text>
</g>
<!-- compile -->
<g id="node3" class="node">
<title>compile</title>
<ellipse fill="none" stroke="black" cx="350.68" cy="-31" rx="72.59" ry="18"/>
<text text-anchor="middle" x="350.68" y="-27.3" font-family="Times,serif" font-size="14.00">código objeto</text>
</g>
<!-- compile&#45;&gt;processor -->
<g id="edge2" class="edge">
<title>compile&#45;&gt;processor</title>
<path fill="none" stroke="black" d="M422.1,-27.52C464.34,-25.43 517.38,-22.8 557.06,-20.84"/>
<polygon fill="black" stroke="black" points="557.29,-24.33 567.11,-20.34 556.95,-17.34 557.29,-24.33"/>
<text text-anchor="middle" x="486.97" y="-30.8" font-family="Times,serif" font-size="14.00">ejecutado en</text>
</g>
<!-- source -->
<g id="node4" class="node">
<title>source</title>
<ellipse fill="none" stroke="black" cx="73.44" cy="-59" rx="73.39" ry="18"/>
<text text-anchor="middle" x="73.44" y="-55.3" font-family="Times,serif" font-size="14.00">código fuente</text>
</g>
<!-- source&#45;&gt;vm -->
<g id="edge3" class="edge">
<title>source&#45;&gt;vm</title>
<path fill="none" stroke="black" d="M140.1,-66.75C148.43,-67.59 156.85,-68.37 164.89,-69 296.9,-79.37 451.15,-85.21 540.35,-87.98"/>
<polygon fill="black" stroke="black" points="540.26,-91.48 550.37,-88.28 540.48,-84.48 540.26,-91.48"/>
<text text-anchor="middle" x="350.68" y="-87.8" font-family="Times,serif" font-size="14.00">interpretado por</text>
</g>
<!-- source&#45;&gt;compile -->
<g id="edge1" class="edge">
<title>source&#45;&gt;compile</title>
<path fill="none" stroke="black" d="M141.42,-52.19C181.11,-48.15 231.56,-43.02 272.86,-38.81"/>
<polygon fill="black" stroke="black" points="273.28,-42.29 282.88,-37.8 272.58,-35.33 273.28,-42.29"/>
<text text-anchor="middle" x="212.39" y="-53.8" font-family="Times,serif" font-size="14.00">compilado en</text>
</g>
</g>
</svg>
